<?xml version="1.0" encoding="utf-8"?>
<!-- Generator: Adobe Illustrator 21.0.0, SVG Export Plug-In . SVG Version: 6.00 Build 0)  -->
<svg version="1.1" id="Layer_1" xmlns="http://www.w3.org/2000/svg" xmlns:xlink="http://www.w3.org/1999/xlink" x="0px" y="0px"
	 width="500px" height="500px" viewBox="0 0 500 500" enable-background="new 0 0 500 500" xml:space="preserve">
<g>
	<path d="M70,467.6c1.1,0.5,2.4,0.7,3.7,0.7c2.4,0,4.7-0.9,6.4-2.6l64.1-61.3h120.5c25,0,45.4-20.3,45.4-45.4v-68.4
		c0-5.1-4.2-9.3-9.3-9.3c-5.1,0-9.3,4.2-9.3,9.3V359c0,14.8-12.1,26.8-26.8,26.8H140.4c-2.4,0-4.7,0.9-6.4,2.6l-51.1,48.8v-42
		c0-5.1-4.2-9.3-9.3-9.3H45.4c-14.8,0-26.8-12.1-26.8-26.8V225.3c0-14.8,12.1-26.9,26.8-26.9H155c5.1,0,9.3-4.2,9.3-9.3
		s-4.2-9.3-9.3-9.3H45.4c-25,0-45.4,20.3-45.4,45.4V359c0,25,20.3,45.4,45.4,45.4h19v54.7C64.4,462.8,66.6,466.1,70,467.6L70,467.6z
		 M70,467.6"/>
	<path d="M354.8,258l64.6,61.8c1.7,1.6,4.1,2.6,6.4,2.6c1.2,0,2.5-0.2,3.7-0.7c3.4-1.4,5.6-4.8,5.6-8.5V258h19.2
		c25.1,0,45.7-20.4,45.7-45.7V77.4c0-25.1-20.4-45.7-45.7-45.7h-221c-25.1,0-45.7,20.4-45.7,45.7v134.9c0,25.1,20.4,45.7,45.7,45.7
		H354.8z M206.2,212.3V77.4c0-14.9,12.2-27.1,27.1-27.1h220.9c14.9,0,27.1,12.2,27.1,27.1v134.9c0,14.9-12.2,27.1-27.1,27.1h-28.5
		c-5.1,0-9.3,4.2-9.3,9.3v42.7L364.8,242c-1.7-1.6-4-2.6-6.4-2.6H233.3C218.4,239.5,206.2,227.3,206.2,212.3L206.2,212.3z
		 M206.2,212.3"/>
	<path d="M343.8,156c2.4,0,4.8-1,6.5-2.8c1.7-1.7,2.8-4.1,2.8-6.5c0-2.5-1-4.8-2.8-6.5c-1.7-1.7-4.1-2.8-6.5-2.8
		c-2.5,0-4.8,1-6.5,2.8c-1.7,1.7-2.8,4.1-2.8,6.5c0,2.5,1,4.8,2.8,6.5C339,155.1,341.3,156,343.8,156L343.8,156z M343.8,156"/>
	<path d="M378.3,156c2.4,0,4.8-1,6.5-2.8c1.7-1.7,2.8-4.1,2.8-6.5c0-2.5-1-4.8-2.8-6.5c-1.7-1.7-4.1-2.8-6.5-2.8
		c-2.5,0-4.8,1-6.5,2.8c-1.7,1.7-2.8,4.1-2.8,6.5c0,2.5,1,4.8,2.8,6.5C373.4,155.1,375.8,156,378.3,156L378.3,156z M378.3,156"/>
	<path d="M309.3,156c2.4,0,4.8-1,6.5-2.8c1.7-1.7,2.8-4.1,2.8-6.5c0-2.5-1-4.8-2.8-6.5c-1.7-1.7-4.1-2.8-6.5-2.8
		c-2.5,0-4.8,1-6.5,2.8c-1.7,1.7-2.8,4.1-2.8,6.5c0,2.5,1,4.8,2.8,6.5C304.5,155.1,306.9,156,309.3,156L309.3,156z M309.3,156"/>
</g>
</svg>
