<?xml version="1.0" encoding="utf-8"?>
<!-- Generator: Adobe Illustrator 21.0.0, SVG Export Plug-In . SVG Version: 6.00 Build 0)  -->
<svg version="1.1" id="Layer_1" xmlns="http://www.w3.org/2000/svg" xmlns:xlink="http://www.w3.org/1999/xlink" x="0px" y="0px"
	 width="500px" height="500px" viewBox="0 0 500 500" enable-background="new 0 0 500 500" xml:space="preserve">
<g>
	<path d="M456.1,26.3c-24.2,0-43.9,19.7-43.9,43.9v19.9L69.9,198.6c-1.6-17.9-16.5-32-34.8-32C15.7,166.7,0,182.4,0,201.8v96.5
		c0,19.4,15.7,35.1,35.1,35.1c18.3,0,33.2-14.1,34.8-32l29.5,9.3c-4.5,4-8,9-10,15.1c-2.9,8.9-2.1,18.4,2.1,26.8
		c4.3,8.4,11.5,14.6,20.4,17.4l125.2,40.5c3.6,1.2,7.1,1.7,10.8,1.7c5.5,0,10.9-1.3,15.9-3.8c8.4-4.2,14.6-11.5,17.5-20.4
		c2.1-6.4,2.2-13.1,0.5-19.4l130.4,41.3v19.9c0,24.2,19.7,43.9,43.9,43.9c24.2,0,43.9-19.7,43.9-43.9V70.2
		C500,46,480.3,26.3,456.1,26.3L456.1,26.3z M264.6,382.6c-1.4,4.5-4.5,8.1-8.7,10.2c-4.2,2.1-8.9,2.5-13.3,1.1l-125.2-40.6
		c-4.5-1.5-8-4.5-10.2-8.7c-2.1-4.2-2.5-8.9-1.1-13.4c2.4-7.4,9.3-12.1,16.7-12.1c1.8,0,3.6,0.3,5.4,0.9l125.2,40.5
		C262.6,363.5,267.6,373.4,264.6,382.6L264.6,382.6z M52.6,298.2c0,9.7-7.9,17.5-17.6,17.5c-9.7,0-17.5-7.8-17.5-17.5v-96.5
		c0-9.7,7.8-17.6,17.5-17.6c9.7,0,17.6,7.9,17.6,17.6V298.2z M70.2,283V217l342.1-108.5v283.1L70.2,283z M482.4,429.8
		c0,14.5-11.8,26.3-26.3,26.3c-14.5,0-26.3-11.8-26.3-26.3V70.2c0-14.5,11.8-26.3,26.3-26.3c14.5,0,26.3,11.8,26.3,26.3V429.8z
		 M482.4,429.8"/>
</g>
</svg>
