<?xml version="1.0" encoding="utf-8"?>
<!-- Generator: Adobe Illustrator 21.0.0, SVG Export Plug-In . SVG Version: 6.00 Build 0)  -->
<svg version="1.1" id="Layer_1" xmlns="http://www.w3.org/2000/svg" xmlns:xlink="http://www.w3.org/1999/xlink" x="0px" y="0px"
	 width="500px" height="500px" viewBox="0 0 500 500" enable-background="new 0 0 500 500" xml:space="preserve">
<g>
	<path fill="#1E201D" d="M336.7,79.5c-6.8-7-18.1-7-25.2,0c-6.8,6.8-6.8,18.1,0,25l127.8,127.8H17.7c-9.8,0-17.7,7.8-17.7,17.7
		c0,9.8,7.8,17.9,17.7,17.9h421.6L311.5,395.3c-6.8,7.1-6.8,18.5,0,25.2c7.1,7,18.4,7,25.2,0l158-158c7-6.8,7-18.1,0-24.9
		L336.7,79.5z M336.7,79.5"/>
</g>
</svg>
