<?xml version="1.0" encoding="utf-8"?>
<!-- Generator: Adobe Illustrator 21.0.0, SVG Export Plug-In . SVG Version: 6.00 Build 0)  -->
<svg version="1.1" id="Layer_1" xmlns="http://www.w3.org/2000/svg" xmlns:xlink="http://www.w3.org/1999/xlink" x="0px" y="0px"
	 width="500px" height="500px" viewBox="0 0 500 500" enable-background="new 0 0 500 500" xml:space="preserve">
<g>
	<path d="M491.7,388.3h-53.6l18.6-5c1.7-0.8,4.2-1.7,5-4.2c0.8-2.5,1.7-4.2,0.8-6.7l-12.4-45.9c0.1-0.8,0-1.6-0.1-2.4l-8.3-32.5
		c-0.4-0.8-1-1.8-1.7-2.7l-41.7-154.6c0.2-1.1,0.2-2.3,0-3.4l-8.3-32.5c-0.5-1-1.3-2.4-2.3-3.4l-11.9-44c-0.8-4.2-5.8-6.7-10-5.8
		l-80.8,21.6c-4.2,0.8-6.7,5.8-5.8,10l18,66.8c-6.7-3.3-14.2-5.2-22.1-5.2H33.7c-3.3,0-5.8,1.7-7.5,5c-1.7,2.5-1.7,5.8,0,8.3
		l10,15.8c7.5,13.3,7.5,29.1,0,42.5l-7.4,11.7H8.7c-3.3,0-5.8,1.7-7.5,5c-1.7,2.5-1.7,5.8,0,8.3l10,15.8c7.5,13.3,7.5,29.1,0,42.5
		l-10,15.8c-1.7,2.5-1.7,5.8,0,8.3c1.7,2.5,4.2,4.2,7.5,4.2h19.6l7.9,12.5c7.5,13.3,7.5,29.1,0,42.5l-7.4,11.7H8.7
		c-5,0-8.3,3.3-8.3,8.3v50c0,5,3.3,8.3,8.3,8.3h482.9c5,0,8.3-3.3,8.3-8.3v-50C500,391.6,496.7,388.3,491.7,388.3z M286.2,306.3
		c8.6-9,14-21.2,14-34.5c0-13.4-5.3-25.6-14-34.6c12.7-2.9,23.5-10.6,30.6-21.1l28.7,106.8l7.2,27.9c0.2,0.4,0.4,0.8,0.6,1.1
		l9.8,36.3h-50.7c8-8.9,12.8-20.5,12.8-33.3C325.1,331.3,308.4,311.3,286.2,306.3z M379.3,127.7l-64.1,17.5l-4.2-15.8l64.1-17.5
		L379.3,127.7z M383.7,143.4L422,288.3l-64.4,17.3l-32.8-122.9c-0.6-4.8-1.8-9.4-3.7-13.7l-2-7.6L383.7,143.4z M362.6,321.7
		l63.8-16.6l4.2,15.8l-63.9,17.4L362.6,321.7z M379.3,386.6l-8.7-32.7l64.3-17.2l8.6,32.4L379.3,386.6z M362.6,63.6l8.3,31.4
		L306,112.3l-8.4-31.3L362.6,63.6z M50.4,158.5l-1.7-3.3h226.5c13.7,0,25.6,8.4,30.7,20.3l2.4,8.8c0.2,1.4,0.3,2.7,0.3,4.1
		c0,18.3-15,33.3-33.3,33.3h-25H48.7l1.7-3.3C61.2,200.1,61.2,176.8,50.4,158.5z M25.4,241.8l-1.7-3.3h10h216.5
		c18.3,0,33.3,15,33.3,33.3c0,18.3-15,33.3-33.3,33.3H33.7h-10l1.7-3.3C36.2,283.4,36.2,260.1,25.4,241.8z M50.4,325l-1.7-3.3h201.5
		h25c18.3,0,33.3,15,33.3,33.3c0,18.3-15,33.3-33.3,33.3H48.7l1.7-3.3C61.2,366.6,61.2,343.3,50.4,325z M483.3,438.3H17.1V405h16.7
		h241.5h99.1h1.7h107.4V438.3z"/>
	<path d="M92,363.3h183.2c5,0,8.3-3.3,8.3-8.3s-3.3-8.3-8.3-8.3H92c-5,0-8.3,3.3-8.3,8.3S87,363.3,92,363.3z"/>
	<path d="M67,280.1h183.2c5,0,8.3-3.3,8.3-8.3c0-5-3.3-8.3-8.3-8.3H67c-5,0-8.3,3.3-8.3,8.3C58.7,276.7,62,280.1,67,280.1z"/>
	<path d="M92,196.8h183.2c5,0,8.3-3.3,8.3-8.3c0-5-3.3-8.3-8.3-8.3H92c-5,0-8.3,3.3-8.3,8.3C83.7,193.5,87,196.8,92,196.8z"/>
	<path d="M350.1,179.3l25.8,96.6c1.7,3.3,5,5.8,8.3,5.8c0,0,0.8,0,1.7-0.8c4.2-0.8,6.7-5.8,5.8-10l-25.8-95.8
		c-0.8-4.2-5.8-6.7-10-5.8C351.8,170.1,349.3,175.1,350.1,179.3z"/>
</g>
</svg>
