<?xml version="1.0" encoding="utf-8"?>
<!-- Generator: Adobe Illustrator 21.0.0, SVG Export Plug-In . SVG Version: 6.00 Build 0)  -->
<svg version="1.1" id="Layer_1" xmlns="http://www.w3.org/2000/svg" xmlns:xlink="http://www.w3.org/1999/xlink" x="0px" y="0px"
	 width="500px" height="500px" viewBox="0 0 500 500" enable-background="new 0 0 500 500" xml:space="preserve">
<g>
	<path d="M258.1,382.9V142.1c0-4.5-3.6-8.1-8.1-8.1c-4.5,0-8.1,3.6-8.1,8.1v240.8c0,4.5,3.6,8.1,8.1,8.1
		C254.5,390.9,258.1,387.3,258.1,382.9L258.1,382.9z M258.1,382.9"/>
	<path d="M491.9,81.5c-17,0-38.3-7.4-60.8-15.1c-28.5-9.9-60.8-21-94.3-21c-38.7,0-62.4,17-75.4,31.2c-4.9,5.3-8.6,10.7-11.5,15.4
		c-2.9-4.7-6.6-10.1-11.5-15.4c-13-14.2-36.6-31.2-75.4-31.2c-33.5,0-65.8,11.2-94.3,21C46.4,74.1,25.1,81.5,8.1,81.5
		c-4.5,0-8.1,3.6-8.1,8.1v324.8c0,4.5,3.6,8.1,8.1,8.1c19.8,0,42.3-7.8,66.1-16c27.3-9.4,58.2-20.2,89-20.2c26.4,0,47.7,8.7,63.5,26
		c3,3.3,8.1,3.5,11.4,0.5c3.3-3,3.5-8.1,0.5-11.4c-13-14.2-36.6-31.2-75.4-31.2c-33.5,0-65.8,11.2-94.3,21
		c-19.1,6.6-37.2,12.9-52.7,14.7V97.2c17.7-1.7,37.4-8.5,58-15.6c27.3-9.4,58.2-20.2,89-20.2c62.2,0,78.5,49.4,79.2,51.5
		c1,3.4,4.2,5.7,7.7,5.7c3.5,0,6.7-2.3,7.7-5.7c0.2-0.5,16.5-51.5,79.2-51.5c30.8,0,61.7,10.7,89,20.2c20.6,7.1,40.3,13.9,58,15.6
		v308.6c-15.5-1.8-33.7-8.1-52.7-14.7c-28.5-9.9-60.8-21-94.3-21c-38.8,0-62.4,17-75.4,31.2c-3,3.3-2.8,8.4,0.5,11.4
		c3.3,3,8.4,2.8,11.4-0.5c15.7-17.2,37.1-26,63.5-26c30.8,0,61.7,10.7,89,20.2c23.8,8.2,46.3,16,66.1,16c4.5,0,8.1-3.6,8.1-8.1V89.6
		C500,85.1,496.4,81.5,491.9,81.5L491.9,81.5z M491.9,81.5"/>
	<path d="M491.9,438.6c-17,0-38.3-7.4-60.8-15.1c-28.5-9.9-60.8-21-94.3-21c-36.4,0-59.5,15-72.9,28.6h-28
		c-13.4-13.6-36.5-28.6-72.9-28.6c-33.5,0-65.8,11.2-94.3,21c-22.5,7.8-43.7,15.1-60.8,15.1c-4.5,0-8.1,3.6-8.1,8.1
		c0,4.5,3.6,8.1,8.1,8.1c19.8,0,42.3-7.8,66.1-16c27.3-9.4,58.2-20.2,89-20.2c26.4,0,47.7,8.7,63.5,26c1.5,1.7,3.7,2.6,6,2.6h34.9
		c2.3,0,4.4-1,6-2.6c15.7-17.2,37.1-26,63.5-26c30.8,0,61.7,10.7,89,20.2c23.8,8.2,46.3,16,66.1,16c4.5,0,8.1-3.6,8.1-8.1
		C500,442.2,496.4,438.6,491.9,438.6L491.9,438.6z M491.9,438.6"/>
</g>
</svg>
