<?xml version="1.0" encoding="utf-8"?>
<!-- Generator: Adobe Illustrator 21.0.0, SVG Export Plug-In . SVG Version: 6.00 Build 0)  -->
<svg version="1.1" id="Layer_1" xmlns="http://www.w3.org/2000/svg" xmlns:xlink="http://www.w3.org/1999/xlink" x="0px" y="0px"
	 width="500px" height="500px" viewBox="0 0 500 500" enable-background="new 0 0 500 500" xml:space="preserve">
<g>
	<path d="M208.5,233h49.8c4.6,0,8.3-3.7,8.3-8.3c0-4.6-3.7-8.3-8.3-8.3h-49.8c-4.6,0-8.3,3.7-8.3,8.3
		C200.2,229.3,203.9,233,208.5,233L208.5,233z M208.5,233"/>
	<path d="M457.7,66.8H208.5c-4.6,0-8.3,3.7-8.3,8.3c0,4.6,3.7,8.3,8.3,8.3h240.9v373.8c0,13.3-11.6,24.9-24.9,24.9H75.5
		c-13.3,0-24.9-11.6-24.9-24.9V75.8c5.3,3.6,11.3,5.7,16.6,6.8v374.7c0,4.6,3.7,8.3,8.3,8.3c4.6,0,8.3-3.7,8.3-8.3V75.2
		c0-4.6-3.7-8.3-8.3-8.3c-4.2,0-25-1.5-25-24.9v-8.3c0-9.2,7.5-16.6,16.6-16.6h390.4c4.6,0,8.3-3.7,8.3-8.3c0-4.6-3.7-8.3-8.3-8.3
		H67.2C48.9,0.4,34,15.3,34,33.6v423.7c0,22.5,19,41.5,41.5,41.5h348.9c22.5,0,41.5-19,41.5-41.5V75.2
		C466,70.6,462.3,66.8,457.7,66.8L457.7,66.8z M457.7,66.8"/>
	<rect x="34" fill="none" width="432" height="500"/>
	<path d="M449.4,41.9c0-4.6-3.7-8.3-8.3-8.3H175.2c-4.6,0-8.3,3.7-8.3,8.3v79.6l-19-19c-3.3-3.3-8.5-3.3-11.7,0l-19.1,19V41.9
		c0-4.6-3.7-8.3-8.3-8.3H75.5c-4.6,0-8.3,3.7-8.3,8.3c0,4.6,3.7,8.3,8.3,8.3h24.9v91.4c0,3.4,2,6.4,5.1,7.7c3.1,1.3,6.7,0.6,9.1-1.8
		l27.4-27.4l27.4,27.4c1.6,1.6,3.7,2.4,5.9,2.4c1.1,0,2.1-0.2,3.2-0.6c3.1-1.3,5.1-4.3,5.1-7.7V50.2h257.5
		C445.7,50.2,449.4,46.5,449.4,41.9L449.4,41.9z M449.4,41.9"/>
	<path d="M150.3,174.8v132.9c0,4.6,3.7,8.3,8.3,8.3h182.8c4.6,0,8.3-3.7,8.3-8.3V174.8c0-4.6-3.7-8.3-8.3-8.3H158.6
		C154,166.5,150.3,170.3,150.3,174.8L150.3,174.8z M166.9,183.2h166.1v116.3H166.9V183.2z M166.9,183.2"/>
	<path d="M291.5,249.6h-83.1c-4.6,0-8.3,3.7-8.3,8.3c0,4.6,3.7,8.3,8.3,8.3h83.1c4.6,0,8.3-3.7,8.3-8.3
		C299.8,253.3,296.1,249.6,291.5,249.6L291.5,249.6z M291.5,249.6"/>
</g>
</svg>
