<?xml version="1.0" encoding="utf-8"?>
<!-- Generator: Adobe Illustrator 21.0.0, SVG Export Plug-In . SVG Version: 6.00 Build 0)  -->
<svg version="1.1" id="Layer_1" xmlns="http://www.w3.org/2000/svg" xmlns:xlink="http://www.w3.org/1999/xlink" x="0px" y="0px"
	 width="500px" height="500px" viewBox="0 0 500 500" enable-background="new 0 0 500 500" xml:space="preserve">
<g>
	<path d="M433.7,0H66.3C43.5,0,25.1,18.5,25.1,41.2v417.5c0,22.7,18.5,41.2,41.2,41.2h367.4c22.7,0,41.2-18.5,41.2-41.2V41.2
		C474.9,18.5,456.5,0,433.7,0z M459.3,458.8c0,14.1-11.5,25.6-25.6,25.6H66.3c-14.1,0-25.6-11.5-25.6-25.6V41.2
		c0-14.1,11.5-25.6,25.6-25.6h367.4c14.1,0,25.6,11.5,25.6,25.6V458.8z"/>
	<path d="M408.7,50.1H91.3c-8.9,0-16.2,7.3-16.2,16.2v100.2c0,8.9,7.3,16.2,16.2,16.2h317.3c8.9,0,16.2-7.3,16.2-16.2V66.3
		C424.8,57.4,417.6,50.1,408.7,50.1z M409.2,166.5c0,0.3-0.2,0.5-0.5,0.5H91.3c-0.3,0-0.5-0.2-0.5-0.5V66.3c0-0.3,0.2-0.5,0.5-0.5
		h317.3c0.3,0,0.5,0.2,0.5,0.5V166.5z"/>
	<path d="M133.1,217.1H91.3c-8.9,0-16.2,7.3-16.2,16.2v33.4c0,8.9,7.3,16.2,16.2,16.2h41.8c8.9,0,16.2-7.3,16.2-16.2v-33.4
		C149.3,224.4,142,217.1,133.1,217.1z M133.6,266.7c0,0.3-0.2,0.5-0.5,0.5H91.3c-0.3,0-0.5-0.2-0.5-0.5v-33.4c0-0.3,0.2-0.5,0.5-0.5
		h41.8c0.3,0,0.5,0.2,0.5,0.5V266.7z"/>
	<path d="M224.9,217.1h-41.8c-8.9,0-16.2,7.3-16.2,16.2v33.4c0,8.9,7.3,16.2,16.2,16.2h41.8c8.9,0,16.2-7.3,16.2-16.2v-33.4
		C241.1,224.4,233.9,217.1,224.9,217.1z M225.5,266.7c0,0.3-0.2,0.5-0.5,0.5h-41.8c-0.3,0-0.5-0.2-0.5-0.5v-33.4
		c0-0.3,0.2-0.5,0.5-0.5h41.8c0.3,0,0.5,0.2,0.5,0.5V266.7z"/>
	<path d="M316.8,217.1h-41.8c-8.9,0-16.2,7.3-16.2,16.2v33.4c0,8.9,7.3,16.2,16.2,16.2h41.8c8.9,0,16.2-7.3,16.2-16.2v-33.4
		C333,224.4,325.7,217.1,316.8,217.1z M317.3,266.7c0,0.3-0.2,0.5-0.5,0.5h-41.8c-0.3,0-0.5-0.2-0.5-0.5v-33.4
		c0-0.3,0.2-0.5,0.5-0.5h41.8c0.3,0,0.5,0.2,0.5,0.5V266.7z"/>
	<path d="M408.7,217.1h-41.8c-8.9,0-16.2,7.3-16.2,16.2v33.4c0,8.9,7.3,16.2,16.2,16.2h41.8c8.9,0,16.2-7.3,16.2-16.2v-33.4
		C424.8,224.4,417.6,217.1,408.7,217.1z M409.2,266.7c0,0.3-0.2,0.5-0.5,0.5h-41.8c-0.3,0-0.5-0.2-0.5-0.5v-33.4
		c0-0.3,0.2-0.5,0.5-0.5h41.8c0.3,0,0.5,0.2,0.5,0.5V266.7z"/>
	<path d="M133.1,300.6H91.3c-8.9,0-16.2,7.3-16.2,16.2v33.4c0,8.9,7.3,16.2,16.2,16.2h41.8c8.9,0,16.2-7.3,16.2-16.2v-33.4
		C149.3,307.9,142,300.6,133.1,300.6z M133.6,350.2c0,0.3-0.2,0.5-0.5,0.5H91.3c-0.3,0-0.5-0.2-0.5-0.5v-33.4c0-0.3,0.2-0.5,0.5-0.5
		h41.8c0.3,0,0.5,0.2,0.5,0.5V350.2z"/>
	<path d="M224.9,300.6h-41.8c-8.9,0-16.2,7.3-16.2,16.2v33.4c0,8.9,7.3,16.2,16.2,16.2h41.8c8.9,0,16.2-7.3,16.2-16.2v-33.4
		C241.1,307.9,233.9,300.6,224.9,300.6z M225.5,350.2c0,0.3-0.2,0.5-0.5,0.5h-41.8c-0.3,0-0.5-0.2-0.5-0.5v-33.4
		c0-0.3,0.2-0.5,0.5-0.5h41.8c0.3,0,0.5,0.2,0.5,0.5V350.2z"/>
	<path d="M316.8,300.6h-41.8c-8.9,0-16.2,7.3-16.2,16.2v33.4c0,8.9,7.3,16.2,16.2,16.2h41.8c8.9,0,16.2-7.3,16.2-16.2v-33.4
		C333,307.9,325.7,300.6,316.8,300.6z M317.3,350.2c0,0.3-0.2,0.5-0.5,0.5h-41.8c-0.3,0-0.5-0.2-0.5-0.5v-33.4
		c0-0.3,0.2-0.5,0.5-0.5h41.8c0.3,0,0.5,0.2,0.5,0.5V350.2z"/>
	<path d="M133.1,384.1H91.3c-8.9,0-16.2,7.3-16.2,16.2v33.4c0,8.9,7.3,16.2,16.2,16.2h41.8c8.9,0,16.2-7.3,16.2-16.2v-33.4
		C149.3,391.4,142,384.1,133.1,384.1z M133.6,433.7c0,0.3-0.2,0.5-0.5,0.5H91.3c-0.3,0-0.5-0.2-0.5-0.5v-33.4c0-0.3,0.2-0.5,0.5-0.5
		h41.8c0.3,0,0.5,0.2,0.5,0.5V433.7z"/>
	<path d="M224.9,384.1h-41.8c-8.9,0-16.2,7.3-16.2,16.2v33.4c0,8.9,7.3,16.2,16.2,16.2h41.8c8.9,0,16.2-7.3,16.2-16.2v-33.4
		C241.1,391.4,233.9,384.1,224.9,384.1z M225.5,433.7c0,0.3-0.2,0.5-0.5,0.5h-41.8c-0.3,0-0.5-0.2-0.5-0.5v-33.4
		c0-0.3,0.2-0.5,0.5-0.5h41.8c0.3,0,0.5,0.2,0.5,0.5V433.7z"/>
	<path d="M316.8,384.1h-41.8c-8.9,0-16.2,7.3-16.2,16.2v33.4c0,8.9,7.3,16.2,16.2,16.2h41.8c8.9,0,16.2-7.3,16.2-16.2v-33.4
		C333,391.4,325.7,384.1,316.8,384.1z M317.3,433.7c0,0.3-0.2,0.5-0.5,0.5h-41.8c-0.3,0-0.5-0.2-0.5-0.5v-33.4
		c0-0.3,0.2-0.5,0.5-0.5h41.8c0.3,0,0.5,0.2,0.5,0.5V433.7z"/>
	<path d="M408.7,300.6h-41.8c-8.9,0-16.2,7.3-16.2,16.2v116.9c0,8.9,7.3,16.2,16.2,16.2h41.8c8.9,0,16.2-7.3,16.2-16.2V316.8
		C424.8,307.9,417.6,300.6,408.7,300.6z M409.2,433.7c0,0.3-0.2,0.5-0.5,0.5h-41.8c-0.3,0-0.5-0.2-0.5-0.5V316.8
		c0-0.3,0.2-0.5,0.5-0.5h41.8c0.3,0,0.5,0.2,0.5,0.5V433.7z"/>
	<path d="M300.1,108.6h-33.4c-4.3,0-7.8,3.5-7.8,7.8c0,4.3,3.5,7.8,7.8,7.8h33.4c4.3,0,7.8-3.5,7.8-7.8
		C307.9,112.1,304.4,108.6,300.1,108.6z"/>
	<path d="M366.9,108.6h-33.4c-4.3,0-7.8,3.5-7.8,7.8c0,4.3,3.5,7.8,7.8,7.8h33.4c4.3,0,7.8-3.5,7.8-7.8
		C374.7,112.1,371.2,108.6,366.9,108.6z"/>
	<path d="M166.5,108.6h-33.4c-4.3,0-7.8,3.5-7.8,7.8c0,4.3,3.5,7.8,7.8,7.8h33.4c4.3,0,7.8-3.5,7.8-7.8
		C174.3,112.1,170.8,108.6,166.5,108.6z"/>
	<path d="M233.3,108.6h-33.4c-4.3,0-7.8,3.5-7.8,7.8c0,4.3,3.5,7.8,7.8,7.8h33.4c4.3,0,7.8-3.5,7.8-7.8
		C241.1,112.1,237.6,108.6,233.3,108.6z"/>
</g>
</svg>
