<?xml version="1.0" encoding="utf-8"?>
<!-- Generator: Adobe Illustrator 21.0.0, SVG Export Plug-In . SVG Version: 6.00 Build 0)  -->
<svg version="1.1" id="Layer_1" xmlns="http://www.w3.org/2000/svg" xmlns:xlink="http://www.w3.org/1999/xlink" x="0px" y="0px"
	 width="500px" height="500px" viewBox="0 0 500 500" enable-background="new 0 0 500 500" xml:space="preserve">
<g>
	<path d="M396.6,293.1c-57,0-103.5,46.4-103.5,103.5c0,57,46.4,103.4,103.5,103.4c57,0,103.4-46.4,103.4-103.4
		C500,339.5,453.6,293.1,396.6,293.1L396.6,293.1z M396.6,482.8c-47.5,0-86.2-38.7-86.2-86.2s38.7-86.2,86.2-86.2
		s86.2,38.7,86.2,86.2S444.1,482.8,396.6,482.8L396.6,482.8z M396.6,482.8"/>
	<path d="M448.3,387.9h-43.1v-43.1c0-4.8-3.9-8.6-8.6-8.6c-4.8,0-8.6,3.9-8.6,8.6v51.7c0,4.8,3.9,8.6,8.6,8.6h51.7
		c4.8,0,8.6-3.9,8.6-8.6C456.9,391.8,453.1,387.9,448.3,387.9L448.3,387.9z M448.3,387.9"/>
	<path d="M232.8,181.1H60.4v250h172.4V275.9h155.2v-94.8H232.8z M310.4,198.3h60.3v60.4h-60.3V198.3z M155.2,198.3h60.4v60.4h-60.4
		V198.3z M77.6,198.3h60.4v60.4H77.6V198.3z M77.6,275.9h60.4v60.3H77.6V275.9z M137.9,413.8H77.6v-60.3h60.4V413.8z M215.5,413.8
		h-60.4v-60.3h60.4V413.8z M215.5,336.2h-60.4v-60.3h60.4V336.2z M293.1,258.6h-60.3v-60.4h60.3V258.6z M293.1,258.6"/>
	<path d="M284.5,474.2H17.3V137.9h413.8V250c0,4.8,3.9,8.6,8.6,8.6c4.8,0,8.6-3.9,8.6-8.6V43.1c0-4.8-3.9-8.6-8.6-8.6h-43.1V8.6
		c0-4.8-3.9-8.6-8.6-8.6h-60.4c-4.8,0-8.6,3.9-8.6,8.6v25.8H129.3V8.6c0-4.8-3.9-8.6-8.6-8.6H60.4c-4.8,0-8.6,3.9-8.6,8.6v25.8H8.6
		c-4.8,0-8.6,3.9-8.6,8.6v439.7c0,4.8,3.9,8.6,8.6,8.6h275.8c4.8,0,8.6-3.9,8.6-8.6C293.1,478,289.3,474.2,284.5,474.2L284.5,474.2z
		 M336.2,17.3h43.1v51.7h-43.1V17.3z M68.9,17.3h43.1v51.7H68.9V17.3z M17.3,51.7h34.5v25.8c0,4.8,3.8,8.6,8.6,8.6h60.3
		c4.8,0,8.6-3.9,8.6-8.6V51.7H319v25.8c0,4.8,3.8,8.6,8.6,8.6h60.4c4.8,0,8.6-3.9,8.6-8.6V51.7h34.5v68.9H17.3V51.7z M17.3,51.7"/>
</g>
</svg>
