<?xml version="1.0" encoding="utf-8"?>
<!-- Generator: Adobe Illustrator 21.0.0, SVG Export Plug-In . SVG Version: 6.00 Build 0)  -->
<svg version="1.1" id="Layer_1" xmlns="http://www.w3.org/2000/svg" xmlns:xlink="http://www.w3.org/1999/xlink" x="0px" y="0px"
	 width="500px" height="500px" viewBox="0 0 500 500" enable-background="new 0 0 500 500" xml:space="preserve">
<g>
	<path d="M492.2,291l-25.5-25.5c-10.4-10.4-27.3-10.4-37.7,0L291.7,402.9l-19,69.5l-4.6,4.6c-3.5,3.4-3.5,9.1,0,12.6l0,0.2l0.2,0
		c1.7,1.7,4,2.6,6.2,2.6c2.3,0,4.6-0.9,6.3-2.6l4.6-4.7l69.5-18.9l137.4-137.4C502.6,318.2,502.6,301.3,492.2,291L492.2,291z
		 M312.3,407.6l91.5-91.5l37.9,37.9l-91.5,91.5L312.3,407.6z M304.2,424.8l28.7,28.8l-39.5,10.8L304.2,424.8z M479.6,316l-25.3,25.4
		l-37.9-37.9l25.3-25.4c3.4-3.4,9-3.4,12.5,0l25.4,25.5C483,307,483,312.6,479.6,316L479.6,316z M479.6,316"/>
	<path d="M241.1,114.9c-4.9,0-8.9,4-8.9,8.9c0,4.9,4,8.9,8.9,8.9h160.7c4.9,0,8.9-4,8.9-8.9c0-5-4-8.9-8.9-8.9H241.1z M241.1,114.9"
		/>
	<path d="M410.7,248.8c0-4.9-4-8.9-8.9-8.9H241.1c-4.9,0-8.9,4-8.9,8.9c0,4.9,4,8.9,8.9,8.9h160.7
		C406.7,257.7,410.7,253.7,410.7,248.8L410.7,248.8z M410.7,248.8"/>
	<path d="M183.8,72.4c-3.8-3.2-9.4-2.8-12.6,1l-55.8,65.1l-34.1-25.6c-4-3-9.5-2.2-12.5,1.8c-3,3.9-2.2,9.6,1.8,12.5l40.8,30.6
		c1.6,1.2,3.5,1.8,5.4,1.8c2.5,0,5-1.1,6.8-3.1L184.7,85C187.9,81.2,187.5,75.6,183.8,72.4L183.8,72.4z M183.8,72.4"/>
	<path d="M183.8,197.4c-3.8-3.2-9.4-2.8-12.6,1l-55.8,65.1l-34.1-25.6c-4-3-9.5-2.1-12.5,1.8c-3,3.9-2.2,9.5,1.8,12.5l40.8,30.6
		c1.6,1.2,3.5,1.8,5.4,1.8c2.5,0,5-1.1,6.8-3.1l61.2-71.4C187.9,206.2,187.5,200.6,183.8,197.4L183.8,197.4z M183.8,197.4"/>
	<path d="M171.2,332.2l-55.8,65.1l-34.1-25.6c-4-3-9.5-2.1-12.5,1.8c-3,3.9-2.2,9.5,1.8,12.5l40.8,30.6c1.6,1.2,3.5,1.8,5.4,1.8
		c2.5,0,5-1.1,6.8-3.1l61.2-71.4c3.2-3.8,2.8-9.4-1-12.6C180,328.1,174.4,328.5,171.2,332.2L171.2,332.2z M171.2,332.2"/>
	<path d="M223.2,472H108.7c-50.1,0-90.9-40.8-90.9-90.9V116.4c0-50.1,40.8-90.9,90.9-90.9h264.7c50.1,0,90.9,40.8,90.9,90.9V222
		c0,4.9,4,8.9,8.9,8.9c4.9,0,8.9-4,8.9-8.9V116.4c0-59.9-48.7-108.7-108.7-108.7H108.7C48.8,7.7,0,56.5,0,116.4v264.7
		c0,59.9,48.8,108.7,108.7,108.7h114.5c4.9,0,8.9-4,8.9-8.9C232.2,476,228.1,472,223.2,472L223.2,472z M223.2,472"/>
</g>
</svg>
