<?xml version="1.0" encoding="utf-8"?>
<!-- Generator: Adobe Illustrator 21.0.2, SVG Export Plug-In . SVG Version: 6.00 Build 0)  -->
<svg version="1.1" id="Layer_1" xmlns="http://www.w3.org/2000/svg" xmlns:xlink="http://www.w3.org/1999/xlink" x="0px" y="0px"
	 width="500px" height="500px" viewBox="0 0 500 500" enable-background="new 0 0 500 500" xml:space="preserve">
<g>
	<path d="M250,0C112.2,0,0,112.2,0,250s112.2,250,250,250c137.8,0,250-112.2,250-250S387.8,0,250,0L250,0z M250,480.7
		C122.8,480.7,19.3,377.2,19.3,250C19.3,122.8,122.8,19.3,250,19.3c127.2,0,230.7,103.5,230.7,230.7
		C480.7,377.2,377.2,480.7,250,480.7L250,480.7z M250,480.7"/>
	<path d="M367.8,147.5L220,313.7l-89-71.2c-4.1-3.3-10.2-2.6-13.5,1.5c-3.3,4.1-2.6,10.2,1.5,13.5l96.1,76.9c1.8,1.4,3.9,2.1,6,2.1
		c2.7,0,5.3-1.1,7.2-3.2l153.8-173c3.6-4,3.2-10-0.8-13.6C377.4,143.1,371.3,143.5,367.8,147.5L367.8,147.5z M367.8,147.5"/>
</g>
</svg>
