<?xml version="1.0" encoding="utf-8"?>
<!-- Generator: Adobe Illustrator 21.0.0, SVG Export Plug-In . SVG Version: 6.00 Build 0)  -->
<svg version="1.1" id="Layer_1" xmlns="http://www.w3.org/2000/svg" xmlns:xlink="http://www.w3.org/1999/xlink" x="0px" y="0px"
	 width="500px" height="500px" viewBox="0 0 500 500" enable-background="new 0 0 500 500" xml:space="preserve">
<path d="M291.4,250L491.5,49.9c11.4-11.4,11.4-30,0-41.4c-11.4-11.4-30-11.4-41.4,0L250,208.6L49.9,8.5c-11.4-11.4-30-11.4-41.4,0
	c-11.4,11.4-11.4,30,0,41.4L208.6,250L8.5,450.1c-11.4,11.4-11.4,30,0,41.4c11.4,11.4,30,11.4,41.4,0L250,291.4l200.1,200.1
	c11.4,11.4,30,11.4,41.4,0c11.4-11.4,11.4-30,0-41.4L291.4,250z"/>
</svg>
