<?xml version="1.0" encoding="utf-8"?>
<!-- Generator: Adobe Illustrator 21.0.0, SVG Export Plug-In . SVG Version: 6.00 Build 0)  -->
<svg version="1.1" id="Layer_1" xmlns="http://www.w3.org/2000/svg" xmlns:xlink="http://www.w3.org/1999/xlink" x="0px" y="0px"
	 width="500px" height="500px" viewBox="0 0 500 500" enable-background="new 0 0 500 500" xml:space="preserve">
<path d="M490,88.3H10c-5.5,0-10,4.5-10,10v262.4c0,28.1,22.9,50.9,50.9,50.9h398.1c28.1,0,50.9-22.9,50.9-50.9V98.3
	C500,92.8,495.5,88.3,490,88.3z M480.1,360.7c0,17.1-13.9,31-31,31H50.9c-17.1,0-31-13.9-31-31V120l223.8,183.2
	c1.8,1.5,4.1,2.3,6.3,2.3c2.2,0,4.5-0.7,6.3-2.2l173.2-141.4c4.3-3.5,4.9-9.8,1.4-14c-3.5-4.3-9.8-4.9-14-1.4L250,282.6L37,108.3
	h443.1V360.7z"/>
</svg>
