<?xml version="1.0" encoding="utf-8"?>
<!-- Generator: Adobe Illustrator 21.0.0, SVG Export Plug-In . SVG Version: 6.00 Build 0)  -->
<svg version="1.1" id="Layer_1" xmlns="http://www.w3.org/2000/svg" xmlns:xlink="http://www.w3.org/1999/xlink" x="0px" y="0px"
	 width="500px" height="500px" viewBox="0 0 500 500" enable-background="new 0 0 500 500" xml:space="preserve">
<g>
	<path d="M491.7,202.9h-8.3v-8.3c0-13.3-10.8-25-25-25h-4.8l27.9-69.8c2.8-3.3,3.4-7.9,0.2-11l-52.1-57.4c-1.5-2.4-3.3-4.6-5.4-6.8
		c-7.5-6.7-16.7-10.8-26.7-10.8s-20,3.3-26.7,10.8l-15,15c-3.3,3.3-3.3,8.3,0,11.7l41.7,41.7c1.7,1.7,3.3,2.5,5.8,2.5
		c1.7,0,4.2-0.8,5.8-2.5l15-15c4.4-4.9,7.7-10.6,9.4-16.7l31.3,34.5l-29.6,73.9H425c-13.3,0-25,10.8-25,25v8.3h-67.3L321.7,62.1
		c-1.7-13.3-9.2-25.8-21.7-34.2c-8.3-5-18.3-8.3-30-8.3h-35.8c-13.3,0-25,4.2-34.2,10.8c-11.7,8.3-18.3,20-19.2,31.7l-13.5,140.8
		h-39.2c-2.1-2.3-3.2-5-3.2-8.3c0-2.7,1.1-5.9,3.2-8.3h13.4c3.3,0,6.7-2.5,7.5-5.8c0.8-3.3,0-6.7-2.5-9.2c-3.3-2.5-5-5.8-5-10
		c0-3.3,1.7-7.5,5-10c2.5-2.5,3.3-5.8,2.5-9.2c-0.8-3.3-4.2-5.8-7.5-5.8h-100c-14.2,0-25,10.8-25,25c0,3.3,0.6,6.4,1.6,9.2
		C7.6,173.2,0,182.7,0,194.6c0,3.9,0.8,7.5,2.3,10.7c-1.4,1.5-2.3,3.5-2.3,6v33.3c0,5,3.3,8.3,8.3,8.3h8.3v175v50
		c0,5,3.3,8.3,8.3,8.3h33.3c5,0,8.3-3.3,8.3-8.3v-41.7h172.5c-0.5,0.8-1,1.6-1.7,2.5c-5,5-18.3,14.2-54.2,14.2
		c-6.7,0-39.2-0.8-52.5,11.7c-4.2,3.3-5.8,8.3-5.8,13.3s3.3,8.3,8.3,8.3s8.3-3.3,8.3-8.3c0,0,0-0.8,0.8-1.7
		c5.8-5.8,27.5-7.5,40.8-6.7c32.5,0,55-6.7,66.7-20c11.7,13.3,34.2,20,66.7,20c13.3-0.8,35,0.8,40.8,6.7c0.8,0.8,0.8,1.7,0.8,1.7
		c0,5,3.3,8.3,8.3,8.3c5,0,8.3-3.3,8.3-7.5c0-5-1.7-10-5.8-13.3c-13.3-12.5-46.7-11.7-52.5-11.7c-35.8,0-49.2-9.2-54.2-14.2
		c-1.1-1.1-2-2.3-2.6-3.3h173.4v41.7c0,5,3.3,8.3,8.3,8.3H475c5,0,8.3-3.3,8.3-8.3v-50v-175h8.3c5,0,8.3-3.3,8.3-8.3v-33.3
		C500,206.3,496.7,202.9,491.7,202.9z M417.5,50.4c0,5.8-1.7,10.8-5.8,15l-9.2,9.2l-29.2-29.2l9.2-10c6.9-6.9,19.5-7.4,27.3-1.6
		c0.4,1.1,1,2.2,1.9,3.3l3.6,4C416.6,43.9,417.5,47,417.5,50.4z M416.7,194.6c0-4.2,3.3-8.3,8.3-8.3h33.3c4.2,0,8.3,3.3,8.3,8.3v8.3
		h-50V194.6z M196.7,62.9c0.8-6.7,5-14.2,12.5-19.2c8.3-5.8,18.3-7.5,25-7.5H270c8.3,0,15,1.7,20.8,5.8c8.3,5,13.3,13.3,14.2,21.7
		l10.8,139.2H184.2L196.7,62.9z M41.7,152.9h85c-0.8,2.5-1.7,5.8-1.7,8.3s0,5.8,0.8,8.3H125H41.7c-5,0-8.3-3.3-8.3-8.3
		S36.7,152.9,41.7,152.9z M25,186.3h16.7H110c-0.8,2.5-1.7,5.8-1.7,8.3s0,5.8,0.8,8.3H25c-5,0-8.3-3.3-8.3-8.3S20,186.3,25,186.3z
		 M50,469.6H33.3v-33.3H50V469.6z M466.7,469.6H450v-33.3h16.7V469.6z M466.7,419.6h-25H250h0h0H58.3h-25V252.9h433.3V419.6z
		 M483.3,236.3H475H25h-8.3v-16.7H25h100h50h150h83.3H475h8.3V236.3z"/>
	<path d="M104.2,394.6h291.7c20.8,0,37.5-16.7,38.3-36.7v-42.5c0-20.8-16.7-37.5-37.5-37.5H104.2c-20.8,0-37.5,16.7-37.5,37.5v42.5
		C66.7,377.9,83.3,394.6,104.2,394.6z M83.3,315.4c0-11.7,9.2-20.8,20.8-20.8h292.5c11.7,0,20.8,9.2,20.8,20.8v42.5
		c0,11.7-9.2,20.8-20.8,20.8H104.2c-11.7,0-20.8-9.2-20.8-20.8V315.4z"/>
</g>
</svg>
