<?xml version="1.0" encoding="utf-8"?>
<!-- Generator: Adobe Illustrator 21.0.0, SVG Export Plug-In . SVG Version: 6.00 Build 0)  -->
<svg version="1.1" id="Layer_1" xmlns="http://www.w3.org/2000/svg" xmlns:xlink="http://www.w3.org/1999/xlink" x="0px" y="0px"
	 width="500px" height="500px" viewBox="0 0 500 500" enable-background="new 0 0 500 500" xml:space="preserve">
<g>
	<path d="M21.4,110.7h457.1c11.8,0,21.4-9.6,21.4-21.4c0-11.8-9.6-21.4-21.4-21.4H21.4C9.6,67.9,0,77.5,0,89.3
		C0,101.1,9.6,110.7,21.4,110.7L21.4,110.7z M21.4,110.7"/>
	<path d="M21.4,271.4h457.1c11.8,0,21.4-9.6,21.4-21.4c0-11.8-9.6-21.4-21.4-21.4H21.4C9.6,228.6,0,238.2,0,250
		C0,261.8,9.6,271.4,21.4,271.4L21.4,271.4z M21.4,271.4"/>
	<path d="M21.4,432.1h457.1c11.8,0,21.4-9.6,21.4-21.4c0-11.8-9.6-21.4-21.4-21.4H21.4C9.6,389.3,0,398.9,0,410.7
		C0,422.5,9.6,432.1,21.4,432.1L21.4,432.1z M21.4,432.1"/>
</g>
</svg>
