<?xml version="1.0" encoding="utf-8"?>
<!-- Generator: Adobe Illustrator 21.0.0, SVG Export Plug-In . SVG Version: 6.00 Build 0)  -->
<svg version="1.1" id="Layer_1" xmlns="http://www.w3.org/2000/svg" xmlns:xlink="http://www.w3.org/1999/xlink" x="0px" y="0px"
	 width="500px" height="500px" viewBox="0 0 500 500" enable-background="new 0 0 500 500" xml:space="preserve">
<g>
	<path d="M437.5,85.9c8.4,0,16.6,1.6,24.4,4.9c7.8,3.3,14.5,7.7,20,13.2c5.5,5.5,9.9,12.2,13.2,20c3.2,7.8,4.9,16,4.9,24.4v203.1
		c0,8.5-1.6,16.6-4.9,24.4c-3.3,7.8-7.7,14.5-13.2,20c-5.5,5.5-12.2,9.9-20,13.2c-7.8,3.3-16,4.9-24.4,4.9h-375
		c-8.5,0-16.6-1.6-24.4-4.9c-7.8-3.2-14.5-7.6-20-13.2c-5.5-5.5-9.9-12.2-13.2-20C1.6,368.2,0,360,0,351.6V148.4
		c0-8.5,1.6-16.6,4.9-24.4c3.2-7.8,7.6-14.5,13.2-20c5.5-5.5,12.2-9.9,20-13.2c7.8-3.2,15.9-4.9,24.4-4.9H437.5z M268.6,298.8
		l200.2-150.4c0-4.5-0.8-8.6-2.4-12.2c-1.6-3.6-3.9-6.8-6.8-9.8s-6.2-5.2-9.8-6.8c-3.6-1.6-7.7-2.4-12.2-2.4h-375
		c-4.6,0-8.6,0.8-12.2,2.4c-3.6,1.6-6.8,3.9-9.8,6.8s-5.2,6.2-6.8,9.8c-1.6,3.6-2.4,7.7-2.4,12.2l200.2,150.4
		c1.3,0.7,2.6,1.5,3.9,2.4c1.3,1,2.8,1.6,4.4,2c1.6,0.3,3.2,0.7,4.9,1c1.6,0.3,3.4,0.5,5.4,0.5s3.7-0.2,5.4-0.5
		c1.6-0.3,3.2-0.6,4.9-1c1.6-0.3,3.1-1,4.4-2C265.9,300.3,267.2,299.5,268.6,298.8z M31.2,168V332l109.4-82L31.2,168z M468.8,351.6
		l-122.1-91.8l-68.4,50.8c-2,2-4.1,3.4-6.3,4.4c-2.3,1-4.7,2-7.3,2.9c-2.6,1-5.1,1.6-7.3,2c-2.3,0.3-4.7,0.5-7.3,0.5
		c-2.6,0-5.1-0.2-7.3-0.5c-2.3-0.3-4.7-1-7.3-2c-2.6-1-5.1-2-7.3-2.9c-2.3-1-4.4-2.4-6.3-4.4l-68.4-50.8L31.2,351.6
		c0,4.6,0.8,8.6,2.4,12.2c1.6,3.6,3.9,6.8,6.8,9.8s6.2,5.2,9.8,6.8c3.6,1.6,7.6,2.4,12.2,2.4h375c4.5,0,8.6-0.8,12.2-2.4
		c3.6-1.6,6.8-3.9,9.8-6.8s5.2-6.2,6.8-9.8C467.9,360.2,468.8,356.1,468.8,351.6z M468.8,332V168l-109.4,82L468.8,332z"/>
</g>
</svg>
