<?xml version="1.0" encoding="utf-8"?>
<!-- Generator: Adobe Illustrator 21.0.0, SVG Export Plug-In . SVG Version: 6.00 Build 0)  -->
<svg version="1.1" id="Layer_1" xmlns="http://www.w3.org/2000/svg" xmlns:xlink="http://www.w3.org/1999/xlink" x="0px" y="0px"
	 width="500px" height="500px" viewBox="0 0 500 500" enable-background="new 0 0 500 500" xml:space="preserve">
<g>
	<path d="M258.3,283.3c-29.4,0-50,20.6-50,50v8.3c0,40.5,22.9,66.7,58.3,66.7c35.4,0,58.3-26.2,58.3-66.7v-8.3c0-29.4-20.6-50-50-50
		H258.3z M308.3,333.3v8.3c0,15-4.1,50-41.7,50c-37.6,0-41.7-35-41.7-50v-8.3c0-20.2,13.1-33.3,33.3-33.3H275
		C295.2,300,308.3,313.1,308.3,333.3L308.3,333.3z M308.3,333.3"/>
	<path d="M250.2,333.3L250.2,333.3c-4.7,0-8.4,3.7-8.4,8.3c0,4.6,3.8,8.3,8.4,8.3c4.6,0,8.3-3.7,8.3-8.3
		C258.6,337.1,254.8,333.3,250.2,333.3L250.2,333.3z M250.2,333.3"/>
	<path d="M291,225c4.6,0.3,8.6-3.1,9-7.7l8.3-108.2c1.8-19.8,28.5-42.4,50-42.4H375c21.9,0,48.6,22.5,50,42.3l8.3,108.3
		c0.3,4.4,4,7.7,8.3,7.7c0.2,0,0.4,0,0.7,0c4.6-0.4,8-4.4,7.7-9l-8.3-108.3C439.4,77.2,402.5,50,375,50h-16.7
		c-30.3,0-64,29-66.6,57.7L283.4,216C283,220.6,286.4,224.6,291,225L291,225z M291,225"/>
	<path d="M366.2,105.7c-1.1-3.4-4.3-5.7-7.9-5.7c-3.6,0-6.8,2.3-7.9,5.7c-6.3,18.8-24.7,19.3-25.4,19.3c-4.6,0-8.3,3.7-8.3,8.3v33.3
		c0,27.8,19,66.7,50,66.7c31,0,50-38.8,50-66.7v-33.3c0-4.6-3.7-8.3-8.3-8.3C408,125,372.5,124.5,366.2,105.7L366.2,105.7z
		 M400,166.7c0,22.7-14.9,50-33.3,50c-18.5,0-33.3-27.4-33.3-50v-26c8.2-1.9,18.2-6.5,25.6-16c11.7,11.7,30.3,15.3,41,16.5V166.7z
		 M400,166.7"/>
	<path d="M166.7,116.7h8.3c4.6,0,8.3-3.7,8.3-8.3c0-4.6-3.7-8.3-8.3-8.3h-8.3c-4.6,0-8.3,3.7-8.3,8.3
		C158.3,112.9,162.1,116.7,166.7,116.7L166.7,116.7z M166.7,116.7"/>
	<path d="M283.6,350c4.6,0,8.3-3.7,8.3-8.3c0-4.6-3.7-8.3-8.3-8.3h-0.1c-4.6,0-8.3,3.7-8.3,8.3C275.2,346.3,279,350,283.6,350
		L283.6,350z M283.6,350"/>
	<path d="M83.7,131.3c1.6,16,8.6,30.1,8.9,30.8c7.6,15.1,19,37.9,57.5,37.9c38.5,0,49.9-22.8,57.4-37.9c0.3-0.7,7.3-14.8,8.9-30.8
		c5.2-2.8,8.6-8.3,8.6-14.6V100c0-6.2-3.4-11.5-8.3-14.4v-2.2c0-27.6-22.4-50-50-50h-33.3c-27.6,0-50,22.4-50,50v2.2
		c-5,2.9-8.3,8.3-8.3,14.4v16.7C75,122.9,78.5,128.4,83.7,131.3L83.7,131.3z M91.7,100c4.6,0,8.3-3.7,8.3-8.3v-8.3
		C100,64.9,115,50,133.3,50h33.3c18.4,0,33.3,15,33.3,33.3v8.3c0,4.6,3.7,8.3,8.3,8.3v16.7c-4.6,0-8.3,3.7-8.3,8.3
		c0,14.4-7.4,29.5-7.5,29.6c-8.7,17.4-16.3,28.7-42.5,28.7c-26.2,0-33.9-11.4-42.5-28.7c-0.1-0.2-7.5-15.2-7.5-29.6
		c0-4.6-3.7-8.3-8.3-8.3V100z M91.7,100"/>
	<path d="M291.7,416.7c-1.7,0-3.3,0.5-4.6,1.4l-20.4,13.6l-20.4-13.6c-1.4-0.9-3-1.4-4.6-1.4c-48.2,0-58.3,22.7-58.3,41.7
		c0,4.6,3.7,8.3,8.3,8.3c4.6,0,8.3-3.7,8.3-8.3c0-6.7,0-24.3,39.2-25l22.9,15.3c2.8,1.9,6.4,1.9,9.2,0l22.9-15.3
		c39.2,0.7,39.2,18.3,39.2,25c0,4.6,3.7,8.3,8.3,8.3c4.6,0,8.3-3.7,8.3-8.3C350,439.3,339.9,416.7,291.7,416.7L291.7,416.7z
		 M291.7,416.7"/>
	<path d="M442.2,316.7L442.2,316.7c-4.6,0-8.3,3.7-8.4,8.3l-0.5,133.3c0,4.6,3.7,8.3,8.3,8.4h0c4.6,0,8.3-3.7,8.3-8.3l0.5-133.3
		C450.5,320.4,446.8,316.7,442.2,316.7L442.2,316.7z M442.2,316.7"/>
	<path d="M125,116.7h8.3c4.6,0,8.3-3.7,8.3-8.3c0-4.6-3.7-8.3-8.3-8.3H125c-4.6,0-8.3,3.7-8.3,8.3
		C116.7,112.9,120.4,116.7,125,116.7L125,116.7z M125,116.7"/>
	<path d="M191.5,268.3l7-34.8c42.1,0.9,72.4,11.4,81.6,28.5c2.2,4,7.2,5.5,11.3,3.3c4-2.2,5.5-7.3,3.3-11.3
		c-13.1-24-49.5-37.3-102.5-37.3c-4.1-0.1-7.9,2.6-8.7,6.7l-8.3,41.6c-0.9,4.5,2,8.9,6.5,9.8c0.6,0.1,1.1,0.2,1.7,0.2
		C187.2,275,190.7,272.3,191.5,268.3L191.5,268.3z M191.5,268.3"/>
	<path d="M479.6,258.3c-16.3-16.3-40.9-24.9-71-24.9c-4.8,0.1-8.6,3.6-8.6,8.3c0,1.7-0.6,41.6-33.3,41.6
		c-32.8,0-33.3-39.9-33.3-41.6c0-4.6-3.7-8.3-8.3-8.3c-4.6,0-8.3,3.7-8.3,8.3c0,18.6,9,52.6,41.7,57.5v42.3c0,4.6,3.7,8.3,8.3,8.3
		c4.6,0,8.3-3.7,8.3-8.3v-42.3c28.1-4.3,38.7-30,41.1-49c22.1,1.2,39.9,8,51.7,19.8c10,10,15.5,23.6,15.5,38.2v133.3
		c0,4.6,3.7,8.3,8.3,8.3c4.6,0,8.3-3.7,8.3-8.3V308.3C500,289.2,492.7,271.5,479.6,258.3L479.6,258.3z M479.6,258.3"/>
	<path d="M150,216.7c-9.2,0-16.7,7.5-16.7,16.7c0,6.1,3.4,11.5,8.3,14.3v60.7c0,4.6,3.7,8.3,8.3,8.3c4.6,0,8.3-3.7,8.3-8.3v-60.7
		c4.9-2.9,8.3-8.2,8.3-14.3C166.7,224.1,159.2,216.7,150,216.7L150,216.7z M150,216.7"/>
	<path d="M58.3,316.7c-4.6,0-8.3,3.7-8.3,8.3v133.3c0,4.6,3.7,8.3,8.3,8.3c4.6,0,8.3-3.7,8.3-8.3V325
		C66.7,320.4,62.9,316.7,58.3,316.7L58.3,316.7z M58.3,316.7"/>
	<path d="M116.5,223.4c-0.8-4-4.8-6.6-8.7-6.6c-43.8,0-77.3,9.4-94.3,26.4C4.5,252.1,0,262.8,0,275v166.7c0,4.6,3.7,8.3,8.3,8.3
		c4.6,0,8.3-3.7,8.3-8.3V275c0-7.7,2.8-14.3,8.5-20c13-13,40.6-20.7,76.4-21.5l40.3,193.2c0.9,4.5,5.4,7.4,9.9,6.5
		c4.5-0.9,7.4-5.4,6.5-9.9L116.5,223.4z M116.5,223.4"/>
</g>
</svg>
