<?xml version="1.0" encoding="utf-8"?>
<!-- Generator: Adobe Illustrator 21.0.0, SVG Export Plug-In . SVG Version: 6.00 Build 0)  -->
<svg version="1.1" id="Layer_1" xmlns="http://www.w3.org/2000/svg" xmlns:xlink="http://www.w3.org/1999/xlink" x="0px" y="0px"
	 width="500px" height="500px" viewBox="0 0 500 500" enable-background="new 0 0 500 500" xml:space="preserve">
<g>
	<path d="M249.8,410.2c-10.1,0-18.4-8.3-18.4-18.4c0-10.1,8.2-18.4,18.4-18.4c10.2,0,18.4,8.2,18.4,18.4
		C268.3,401.9,260,410.2,249.8,410.2z"/>
	<path d="M249.8,336.6c-5.4,0-10-4.1-10.6-9.5c-0.1-0.6-1.7-14.5,1-30.2c3.4-20.3,12.5-34.4,26.3-40.8
		c26.7-12.5,46.8-40.2,46.8-64.5c0-12-2-29.2-11.6-43c-11-15.8-29.6-23.9-55.3-23.9c-19.1,0-34.1,5.3-44.4,15.6
		c-10.4,10.4-15.6,25.3-15.6,44.4c0,5.9-4.8,10.7-10.7,10.7c-5.9,0-10.7-4.8-10.7-10.7c0-24.5,7.6-45.1,21.9-59.5
		c14.4-14.4,34.9-22,59.5-22c27,0,49.4,8.1,64.8,23.5c15.4,15.4,23.5,37.8,23.5,64.8c0,32.6-24.9,67.9-59.1,83.8
		c-18.7,8.7-15.2,47.7-15.1,49.2l0,0.1c0.3,2.8-0.5,5.6-2.3,7.9c-1.8,2.2-4.3,3.6-7.2,4C250.8,336.5,250.3,336.6,249.8,336.6z"/>
	<path d="M250,500c-66.8,0-129.6-26-176.8-73.2C26,379.6,0,316.8,0,250c0-66.8,26-129.6,73.2-176.8C120.4,26,183.2,0,250,0
		c66.8,0,129.5,26,176.8,73.2C474,120.4,500,183.2,500,250c0,66.8-26,129.5-73.2,176.8C379.6,474,316.8,500,250,500z M250,21.4
		C124,21.4,21.4,124,21.4,250S124,478.7,250,478.7S478.7,376.1,478.7,250S376.1,21.4,250,21.4z"/>
</g>
</svg>
