<?xml version="1.0" encoding="utf-8"?>
<!-- Generator: Adobe Illustrator 21.0.0, SVG Export Plug-In . SVG Version: 6.00 Build 0)  -->
<svg version="1.1" id="Layer_1" xmlns="http://www.w3.org/2000/svg" xmlns:xlink="http://www.w3.org/1999/xlink" x="0px" y="0px"
	 width="500px" height="500px" viewBox="0 0 500 500" enable-background="new 0 0 500 500" xml:space="preserve">
<g>
	<path d="M250,500c-4.2,0-8.3-1.1-12-3.4L83,399c-6.1-3.9-10-10.5-10.5-17.7l-21-357.4l0,0c-0.4-6.2,1.9-12.3,6.1-16.7
		C61.8,2.6,67.8,0,74,0H426c6.2,0,12.1,2.6,16.4,7.1c4.2,4.5,6.4,10.6,6.1,16.7l-21,357.4c-0.4,7.2-4.3,13.8-10.5,17.7l-155,97.6
		C258.3,498.9,254.2,500,250,500z M71.4,22.6l21,357.4c0,0.8,0.5,1.6,1.2,2l155,97.6c0.8,0.5,1.9,0.5,2.7,0l155-97.6
		c0.7-0.4,1.1-1.2,1.2-2l21-357.4c0.1-0.9-0.3-1.5-0.7-1.9c-0.3-0.4-1-0.8-1.9-0.8H74c-0.9,0-1.5,0.4-1.9,0.8
		C71.8,21.1,71.4,21.7,71.4,22.6L71.4,22.6z"/>
	<path d="M250,438.9c-1.8,0-3.7-0.5-5.3-1.5l-117.4-73.9c-2.7-1.7-4.5-4.7-4.6-7.9L107,64c-0.1-2.7,0.8-5.4,2.7-7.4
		c1.9-2,4.5-3.1,7.2-3.1h266c2.7,0,5.3,1.1,7.2,3.1c1.9,2,2.9,4.7,2.7,7.4l-15.6,291.5c-0.2,3.2-1.9,6.2-4.6,7.9l-117.4,73.9
		C253.7,438.4,251.8,438.9,250,438.9z M142.3,349.3L250,417.1l107.7-67.9l14.8-275.9h-245L142.3,349.3z"/>
	<path d="M264.4,109.7H156.5c-5.5,0-10-4.5-10-10c0-5.5,4.5-10,10-10h107.9c5.5,0,10,4.5,10,10C274.3,105.2,269.9,109.7,264.4,109.7
		z"/>
	<path d="M311.1,109.7h-11.4c-5.5,0-10-4.5-10-10c0-5.5,4.5-10,10-10h11.4c5.5,0,10,4.5,10,10C321,105.2,316.6,109.7,311.1,109.7z"
		/>
	<path d="M242.8,334.7c-32-0.5-51.9-18.2-51.9-28.9c0-5.1,4.6-11.8,9.5-11.8c7.2,0,13.3,19.2,42.5,20.5v-68
		c-22.8-7.9-47.3-16.4-47.3-49.1c0-32.2,24.3-43.5,47.3-45.5v-7.7c0-2.8,2.8-5.4,6.7-5.4c3.3,0,6.7,2.6,6.7,5.4v7.2
		c18.2,0.8,40.4,6.7,40.4,16.9c0,4.1-3.3,11.8-9.2,11.8c-5.4,0-12.5-8.4-31.2-9.5v58.3c21.7,7.9,45,18.7,45,53.7
		c0,31.2-18.4,47.8-45,51.4v9.2c0,2.8-3.3,5.4-6.7,5.4c-3.8,0-6.7-2.6-6.7-5.4L242.8,334.7L242.8,334.7z M243.9,224.5v-53.7
		c-15.3,1.5-27.9,8.2-27.9,24.6C216,213,228.8,218.8,243.9,224.5z M255.1,251.3V314c16.1-2.6,25.6-12.5,25.6-29.4
		C280.7,265.1,269.2,257.2,255.1,251.3z"/>
</g>
</svg>
