<?xml version="1.0" encoding="utf-8"?>
<!-- Generator: Adobe Illustrator 21.0.0, SVG Export Plug-In . SVG Version: 6.00 Build 0)  -->
<svg version="1.1" id="Layer_1" xmlns="http://www.w3.org/2000/svg" xmlns:xlink="http://www.w3.org/1999/xlink" x="0px" y="0px"
	 width="500px" height="500px" viewBox="0 0 500 500" enable-background="new 0 0 500 500" xml:space="preserve">
<path d="M421.4,256.7c-4.2-2.5-9.2-1.7-11.7,2.5c-4.2,6.6-8.8,12.3-13.9,17.8l-19.1-19.1c20.2-26.1,31.3-57.8,31.3-91.2
	c0-40-15.8-77.5-43.3-106.7C310,6,224.6,2,165.9,47.9l-18-18c5.9-5.7,12.2-10.5,18.4-14.9c4.2-2.5,5-7.5,2.5-11.7
	c-2.5-3.3-7.5-4.2-10.8-2.5c-7.3,5.3-14.7,11.2-21.6,17.6L124.7,6.7c-3.3-3.3-8.3-3.3-11.7,0c-3.3,3.3-3.3,8.3,0,11.7L125,30.1
	c-32.6,35.8-50.3,82.2-50.3,130.8c0,50.8,20,98.3,55.8,134.2c31,30.3,70,48.1,110.3,53.3L233.6,450h-33.9
	c-23.3,0-41.7,18.3-41.7,41.7c0,5,3.3,8.3,8.3,8.3h200c5,0,8.3-3.3,8.3-8.3c0-23.3-18.3-41.7-41.7-41.7h-33.9l-7.3-101.7
	c37.9-4.9,74.5-21,103.9-48l12.2,12.2c1.7,1.7,3.3,2.5,5.8,2.5c1.7,0,4.2-0.8,5.8-2.5c3.3-3.3,3.3-8.3,0-11.7l-12-12
	c5.8-6.2,11.2-13.1,16.2-20.5C426.4,264.2,425.5,259.2,421.4,256.7z M178.9,208.3c0.8,0,0.8,0,2.5,0c18.3,4.2,18.3,23.3,18.3,25v0.8
	c1.7,10.8,11.7,31.7,41.7,32.5c18.8,0,32.8,20.1,38.8,31.1c-36.9,6.1-76-3.2-106.3-27.9c0.8-1.6,0.8-2.5,0.8-4.9
	C171.4,242.5,172.2,214.2,178.9,208.3z M298.1,293.5c-5.6-10.4-25.3-42.8-55.9-43.5c-20.8-0.8-24.2-14.2-25-17.5
	c0-11.7-6.7-35-31.7-40.8c-6.7-1.7-12.5,0-17.5,4.2c-11.9,11.2-12.3,39.5-11.1,57.5c-17.4-20.3-27.7-44.8-30.8-70
	c14.7-0.1,25.3-4.3,32.7-12.5c10.8-13.3,7.5-30,7.5-30c-3.2-40.1,7.5-70.1,13.5-82c8.8-6.4,18.3-11.7,28.2-15.7
	c-4.9,11.3-9.6,21.4-12.5,27.7c-5.8,11.7-8.3,16.7-1.7,20.8c0.8,0.8,2.5,1.7,4.2,1.7c2.5,0,5-0.8,8.3-5c5-5.8,30.8-11.7,52.5-13.3
	c2.5,0,5-1.7,5.8-3.3c1.7-2.5,1.7-5,1.7-8.3c-0.8-2.5-0.8-5,0.8-7.5c5.8-8.3,24.2-13.3,34.2-15c0.2,0,0.3,0,0.5,0
	c9.1,3.2,18,7.4,26.4,12.6c4.9,13.1,5.4,24.3,2.3,28.2c-2.5,2.5-7.5,2.5-11.7,1.7c-5.8-4.2-22.5-14.2-35-6.7c-8.3,5-11.7,15-10,30
	c-4.2,9.2-14.2,26.7-24.2,25.8c-1.7,0-2.5,0.8-3.3,0.8c-1.7,0-10.8,3.3-13.3,14.2c-2.5,11.7,3.3,25,18.3,40.8
	c15,15.8,22.5,17.5,30.8,15.8c0.8,0,0.8,0,0.8,0c1.7,1.7,5.8,5.8,17.5,24.2c1.7,4.2,6.7,16.7,17.5,17.5c0.8,0,0.8,0,1.7,0
	c10.8,0,18.3-12.5,20.8-16.7c2.5-5,5-10,7.5-15c10.8-21.5,17.3-35.2,42.4-32c-3.5,29.9-16.9,57.3-38.3,78.7
	C336.6,276.4,318,287.3,298.1,293.5z M153.9,84.2c-4.2,15.8-6.7,35.8-4.2,59.2c0,0,1.7,10-4.2,16.7c-4.1,4.1-10.7,6.6-20.4,6.7
	c0-23.5,6.1-46.9,18.3-67.7C146.5,93.8,150,88.9,153.9,84.2z M257.1,33.3c4.1,0,8.3,0.3,12.6,0.8c-6.7,3.3-12.5,7.5-16.7,13.3
	c-2.5,3.3-4.2,7.5-4.2,11.7c-9.2,0.8-21.7,2.5-32.5,5.8c4.2-8.3,8.3-18.3,12.5-28.3c1.2-0.3,2.3-0.6,3.5-0.8
	C240.5,34.2,248.8,33.4,257.1,33.3z M292.2,90.8c2.5-1.7,11.7,1.7,18.3,6.7c0.8,0.8,1.7,1.7,3.3,1.7c12.5,2.5,22.5,0,28.3-7.5
	c5-5.8,6.7-14.2,5.8-22.5c1.7,1.7,2.5,2.5,3.3,3.3c25,24.2,39.2,57.5,39.2,92.5c-35.8-4.2-47.5,20-58.3,41.7c-2.5,5-5,9.2-7.5,14.2
	c-2.5,5.8-5,7.5-5.8,8.3c-0.8-1.7-2.5-4.2-3.3-6.7c0-0.8-0.8-0.8-0.8-1.7c-15-25-22.5-32.5-31.7-32.5c-0.8,0-2.5,0-5-0.8
	c-1.7,0-4.2,0.8-15-10.8c-15-15.8-14.2-23.3-14.2-25s0.8-1.7,1.7-2.5c23.3-0.8,37.5-34.2,39.2-38.3c0.8-1.7,0.8-2.5,0.8-4.2
	C289.7,95,291.4,91.7,292.2,90.8z M333.9,466.7c10.8,0,20,6.7,23.3,16.7H176.4c3.3-10,12.5-16.7,23.3-16.7h41.7h50H333.9z
	 M275.5,350l7.5,100h-32.5l7.5-100H275.5z M142.2,283.3c-32.5-32.5-50.8-75.8-51.7-122.5c0-44,16.3-86.6,46.2-119.2l17.1,16.8
	c-0.5,0.5-1.1,1-1.6,1.6c-12.6,12.7-22.4,27.1-29.6,42.5c0,0,0,0,0,0c-0.2,0.3-0.3,0.7-0.5,1c-10.5,22.2-15.6,47-14.1,72.3
	c0,1.2,0.4,2.3,1,3.3c2.8,34.1,17.2,67.4,43.2,93.3c1.6,1.6,3.2,3.1,4.8,4.6c0.3,0.4,0.6,0.8,1,1.2c26.6,24.1,60.9,37.4,96.2,38.3
	c0.1,0,0.1,0,0.2,0c1.2,0,2.4,0,3.6,0c1.4,0,2.8,0,4.3-0.1c0.4,0,0.8,0,1.2,0c0.9,0,1.8-0.1,2.7-0.1c0.8,0,1.7-0.1,2.5-0.2
	c0,0,0,0,0.1,0c8.7-0.6,17.3-1.8,26.7-2.9c1.3-0.6,3-1.3,4.2-2.7c23.5-6.9,45.7-19.7,64.2-38.2c0.7-0.7,1.4-1.4,2.1-2.1l18.2,18.2
	C315.4,349.9,208.7,348.2,142.2,283.3z"/>
</svg>
