<?xml version="1.0" encoding="utf-8"?>
<!-- Generator: Adobe Illustrator 21.0.0, SVG Export Plug-In . SVG Version: 6.00 Build 0)  -->
<svg version="1.1" id="Layer_1" xmlns="http://www.w3.org/2000/svg" xmlns:xlink="http://www.w3.org/1999/xlink" x="0px" y="0px"
	 width="500px" height="500px" viewBox="0 0 500 500" enable-background="new 0 0 500 500" xml:space="preserve">
<g>
	<path d="M352,433.6c-4.5-1.1-9,1.6-10.1,6.1l-8.3,33.3c-1.1,4.5,1.6,9,6.1,10.1c0.7,0.2,1.4,0.3,2,0.3c3.7,0,7.1-2.5,8.1-6.3
		l8.3-33.3C359.2,439.2,356.5,434.7,352,433.6L352,433.6z M352,433.6"/>
	<path d="M250,266.7c1.1,0,2.2-0.2,3.2-0.6l91.7-37.9c4.3-1.8,6.3-6.6,4.5-10.9c-1.8-4.3-6.7-6.3-10.9-4.5L250,249.3L16.7,152.8V150
		c0-4.6-3.7-8.3-8.3-8.3c-4.6,0-8.3,3.7-8.3,8.3v8.3c0,3.4,2,6.4,5.2,7.7l241.7,100C247.8,266.5,248.9,266.7,250,266.7L250,266.7z
		 M250,266.7"/>
	<path d="M349.1,352c-2-4.1-7-5.8-11.2-3.8c-15.8,7.8-42.3,16.9-79.6,18.2v-74.8c0-4.6-3.7-8.3-8.3-8.3c-4.6,0-8.3,3.7-8.3,8.3v74.7
		c-103.5-3.3-136.9-66-141.7-76.4v-56.6c0-4.6-3.7-8.3-8.3-8.3c-4.6,0-8.3,3.7-8.3,8.3v58.3c0,1.1,0.2,2.1,0.6,3.1
		c1.4,3.6,36.9,88.6,166.1,88.6c45.1,0,76.8-10.9,95.4-20.1C349.5,361.2,351.2,356.2,349.1,352L349.1,352z M349.1,352"/>
	<path d="M375,441.7c-4.6,0-8.3,3.7-8.3,8.3v25c0,4.6,3.7,8.3,8.3,8.3c4.6,0,8.3-3.7,8.3-8.3v-25C383.3,445.4,379.6,441.7,375,441.7
		L375,441.7z M375,441.7"/>
	<path d="M491.7,141.7c-4.6,0-8.3,3.7-8.3,8.3v2.7l-100,41.2v-15.1l111.5-46.2c3.1-1.3,5.2-4.3,5.2-7.7c0-3.4-2-6.4-5.1-7.7
		l-241.7-100c-2-0.8-4.3-0.8-6.4,0L5.2,117.3C2,118.6,0,121.6,0,125c0,3.4,2,6.4,5.2,7.7l241.7,100c1,0.4,2.1,0.6,3.2,0.6
		s2.2-0.2,3.2-0.6l87.4-36.2c4.3-1.8,6.3-6.6,4.5-10.9c-1.8-4.3-6.6-6.3-10.9-4.5L250,216L30.1,125L250,34l219.9,91l-95.7,39.6
		l-91.6-34.2c0.5-1.7,0.8-3.5,0.8-5.4c0-14-14.6-25-33.3-25c-18.7,0-33.3,11-33.3,25c0,14,14.6,25,33.3,25c8.3,0,15.8-2.3,21.6-5.9
		l95.1,35.5v205.3c-9.7,3.5-16.7,12.6-16.7,23.5c0,13.8,11.2,25,25,25c13.8,0,25-11.2,25-25c0-10.8-7-20-16.7-23.5v-47.3
		c23.9-18.1,32.5-42.1,32.9-43.2c0.3-0.9,0.5-1.8,0.5-2.7v-58.3c0-4.6-3.7-8.3-8.3-8.3c-4.6,0-8.3,3.7-8.3,8.3v56.8
		c-1.4,3.5-6.5,14.4-16.7,25.2V211.9L494.8,166c3.1-1.3,5.2-4.3,5.2-7.7V150C500,145.4,496.3,141.7,491.7,141.7L491.7,141.7z
		 M250,133.3c-10.2,0-16.7-4.9-16.7-8.3c0-3.4,6.5-8.3,16.7-8.3c10.2,0,16.7,4.9,16.7,8.3C266.7,128.4,260.2,133.3,250,133.3
		L250,133.3z M375,416.7c-4.6,0-8.3-3.7-8.3-8.3c0-4.6,3.7-8.3,8.3-8.3c4.6,0,8.3,3.7,8.3,8.3C383.3,412.9,379.6,416.7,375,416.7
		L375,416.7z M375,416.7"/>
	<path d="M408.1,439.6c-1.1-4.5-5.7-7.2-10.1-6.1c-4.5,1.1-7.2,5.6-6.1,10.1l8.3,33.3c0.9,3.8,4.3,6.3,8.1,6.3c0.7,0,1.3-0.1,2-0.3
		c4.5-1.1,7.2-5.6,6.1-10.1L408.1,439.6z M408.1,439.6"/>
</g>
</svg>
