<?xml version="1.0" encoding="utf-8"?>
<!-- Generator: Adobe Illustrator 21.0.0, SVG Export Plug-In . SVG Version: 6.00 Build 0)  -->
<svg version="1.1" id="Layer_1" xmlns="http://www.w3.org/2000/svg" xmlns:xlink="http://www.w3.org/1999/xlink" x="0px" y="0px"
	 width="500px" height="500px" viewBox="0 0 500 500" enable-background="new 0 0 500 500" xml:space="preserve">
<g>
	<path d="M385.7,159.8c-5.1-5.1-8.5-11.1-7.7-17.1c0-3.4,2.6-7.7,6.8-10.2c0.9,0,0.9,0,1.7-0.9l7.7-7.7
		c11.1-11.1,14.5-27.3,7.7-41.8c-6.8-14.5-21.3-22.2-36.7-21.3l-11.1,0.9c-6,0.9-11.1-0.9-15.4-5.1c-4.3-3.4-6.8-8.5-6.8-14.5v-6.8
		c0-16.2-9.4-29.9-24.7-35s-30.7-0.9-41,11.1c-8.5,6.8-24.7,6.8-32.4,0c-10.2-11.9-26.5-16.2-41-11.1c-15.4,5.1-24.7,18.8-24.7,35
		V42c0,5.1-2.6,10.2-6.8,14.5c-4.3,3.4-9.4,6-15.4,5.1l-11.1-0.9c-15.4-1.7-30.7,6.8-36.7,21.3c-6,14.5-3.4,30.7,7.7,41.8l7.7,7.7
		c0.9,0.9,1.7,1.7,2.6,1.7c3.4,0.9,5.1,3.4,6,6.8c1.7,6-1.7,12.8-8.5,19.6l-7.7,7.7c-11.1,11.1-14.5,27.3-7.7,41.8
		s21.3,22.2,36.7,21.3l11.1-0.9c6,0,11.9,1.7,16.2,6c0.9,1.2,1.8,2.3,2.6,3.5v254.2c0,4.3,2.6,6.8,6,7.7c0.9,0.9,1.7,0.9,2.6,0.9
		c2.6,0,5.1-0.9,6.8-2.6l70.8-87l70,85.3c2.6,2.6,6,3.4,9.4,2.6s6-4.3,6-7.7V236.8c0.5-0.7,1.1-1.3,1.7-1.9c4.3-3.4,9.4-6,15.4-5.1
		l11.1,0.9c15.4,1.7,29.9-6.8,36.7-21.3c6-14.5,3.4-30.7-7.7-41.8L385.7,159.8z M318.3,468.7l-61.4-75.1c-1.7-2.6-4.3-3.4-6.8-3.4
		s-5.1,1.7-6.8,3.4l-61.4,75.9V291.2c0.1,0.1,0.3,0.2,0.4,0.3c1.7,1.6,4.1,3.1,6.4,3.9c13.7,6.8,30.7,4.3,43.5-6.8l0.9-0.9l0.9-2.6
		c1.3-1.7,3.4-3,6.1-3.8c0.7-0.2,1.4-0.4,2.1-0.6c2.2-0.5,4.6-0.7,7.2-0.7c6.8,0,12.8,2.6,15.4,5.1l1.7,2.6l0.9,0.9
		c12.8,11.1,30.7,13.7,45.2,6.8c2.6-0.9,4.3-1.7,6-3.4V468.7z M384.8,200.7c-2.6,6.8-9.4,12.8-19.6,11.9l-11.1-0.9
		c-10.2-0.9-20.5,3.4-28.2,10.2c-6.8,6.8-11.1,17.1-11.1,27.3V263c0,10.2-6.8,14.5-10.2,16.2c-2.5,1.4-5.8,2.4-9.5,2.5
		c-4.8-0.1-10.2-1.7-15.3-5.9l-1.7-1.7c-6-6-16.2-10.2-28.2-10.2s-22.2,3.4-28.2,10.2l-1.7,1.7c-0.5,0.4-1,0.7-1.5,1.1
		c-3.4,2.4-7.2,3.9-10.9,4.6c-4.3,0.7-8.5,0.3-12.4-1.4c-6-2.6-10.2-9.4-10.2-17.9v-12.8v-0.9c0-5.1-1.7-11.1-4.3-16.2
		c-0.6-1.2-1.4-2.1-2.5-2.8c-1.5-2-3.2-4-5.2-5.7c-7.7-7.7-18.8-11.1-29-10.2l-11.1,0.9c-10.2,0.9-17.1-6-19.6-11.9
		c-2.6-6-3.4-15.4,4.3-21.3l7.7-7.7c11.1-11.1,15.4-23.9,13.7-35c-1.7-7.7-6.8-14.5-14.5-18.8l-6.8-6.8c-7.7-7.7-6.8-17.1-4.3-23
		c3.4-6.8,9.4-12.8,19.6-11.9l11.9,0.9c10.2,0.9,20.5-2.6,28.2-9.4s11.9-17.1,11.9-27.3v-6.8c0-10.2,6.8-16.2,13.7-18.8
		c6-1.7,15.4-1.7,22.2,6.8l0.9,0.9c14.5,12.8,41,12.8,56.3,0l0.9-0.9c6-8.5,15.4-9.4,22.2-6.8c6.8,1.7,13.7,8.5,13.7,18.8v6
		c0,10.2,4.3,20.5,11.9,27.3c6.8,7.7,17.1,11.1,27.3,7.7l11.1-0.9c10.2-0.9,17.1,6,19.6,11.9c2.6,6.8,3.4,15.4-4.3,23l-6.8,6.8
		c-7.7,5.1-12.8,12.8-13.7,22.2c-0.9,11.1,3.4,22.2,12.8,30.7l7.7,7.7C388.2,185.4,387.4,194.7,384.8,200.7z"/>
	<path d="M250,304.8c-5.1,0-8.5,3.4-8.5,8.5V356c0,5.1,3.4,8.5,8.5,8.5s8.5-3.4,8.5-8.5v-42.7C258.5,308.2,255.1,304.8,250,304.8z"
		/>
	<path d="M324.2,117.9l-50.3-8.5l-16.2-41.8c-0.9-3.4-4.3-5.1-7.7-5.1s-6,1.7-7.7,5.1l-16.2,41.8l-50.3,8.5c-3.4,0.9-6,2.6-6.8,6
		c-1.7,2.6-0.9,6,1.7,8.5l33.3,33.3l-8.5,50.3c-0.9,3.4,0.9,6.8,3.4,8.5c2.6,1.7,6.8,1.7,9.4,0l41.8-24.7l41.8,24.7
		c0.9,0.9,2.6,0.9,4.3,0.9c1.7,0,3.4,0,5.1-0.9c2.6-1.7,4.3-5.1,3.4-8.5l-8.5-50.3l33.3-33.3c1.7-2.6,2.6-5.1,1.7-8.5
		S327.7,118.8,324.2,117.9z M280.7,155.5c-1.7,2.6-3.4,5.1-2.6,7.7l6,36.7l-29.9-17.9c-0.9-0.9-2.6-0.9-4.3-0.9s-3.4,0.9-4.3,1.7
		l-29.9,17.9l6-36.7c0-2.6-0.9-6-2.6-7.7l-24.7-24.7l38.4-6.8c3.4,0,6-2.6,6.8-5.1L250,93.2l10.2,26.5c1.7,2.6,4.3,4.3,6.8,5.1
		l38.4,6L280.7,155.5z"/>
</g>
</svg>
