<?xml version="1.0" encoding="utf-8"?>
<!-- Generator: Adobe Illustrator 21.0.0, SVG Export Plug-In . SVG Version: 6.00 Build 0)  -->
<svg version="1.1" id="Layer_1" xmlns="http://www.w3.org/2000/svg" xmlns:xlink="http://www.w3.org/1999/xlink" x="0px" y="0px"
	 width="500px" height="500px" viewBox="0 0 500 500" enable-background="new 0 0 500 500" xml:space="preserve">
<g>
	<path d="M500,250C500,112.2,387.8,0,250,0S0,112.2,0,250c0,72.8,31.3,138.5,81.1,184.2l-0.2,0.2l8.1,6.8c0.5,0.4,1.1,0.8,1.6,1.3
		c4.3,3.5,8.8,6.9,13.3,10.2c1.5,1.1,2.9,2.1,4.4,3.2c4.9,3.3,9.9,6.5,15,9.5c1.1,0.7,2.2,1.3,3.3,2c5.6,3.1,11.3,6.2,17.1,8.9
		c0.4,0.2,0.9,0.4,1.3,0.6c19,8.8,39.3,15.3,60.5,19.1c0.6,0.1,1.1,0.2,1.7,0.3c6.6,1.2,13.2,2,20,2.7c0.8,0.1,1.6,0.1,2.4,0.2
		c6.7,0.5,13.5,0.9,20.4,0.9c6.8,0,13.5-0.4,20.2-0.9c0.9-0.1,1.7-0.1,2.5-0.2c6.7-0.6,13.3-1.5,19.8-2.6c0.6-0.1,1.2-0.2,1.7-0.3
		c20.9-3.7,40.8-10.1,59.6-18.7c0.7-0.3,1.4-0.6,2.1-0.9c5.6-2.7,11.1-5.5,16.5-8.5c1.3-0.8,2.7-1.5,4-2.3c4.9-2.9,9.7-5.9,14.4-9.1
		c1.7-1.1,3.3-2.4,5-3.6c4-2.8,7.9-5.8,11.7-8.9c0.9-0.7,1.8-1.3,2.6-2l8.3-7l-0.3-0.2C468.4,389.1,500,323.2,500,250L500,250z
		 M18.2,250c0-127.8,104-231.8,231.8-231.8s231.8,104,231.8,231.8c0,68.9-30.2,130.8-78.1,173.3c-2.7-1.8-5.3-3.5-8.1-4.9l-77-38.5
		c-6.9-3.5-11.2-10.4-11.2-18.1v-26.9c1.8-2.2,3.7-4.7,5.6-7.4c10-14.1,18-29.7,23.8-46.6c11.5-5.5,19-17,19-29.9v-32.2
		c0-7.9-2.9-15.5-8-21.5v-42.4c0.4-4.7,2.1-31.3-17.1-53.3c-16.7-19.1-43.9-28.8-80.6-28.8c-36.7,0-63.9,9.7-80.6,28.8
		c-19.3,22-17.6,48.6-17.1,53.3v42.4c-5.1,6-8,13.7-8,21.5V251c0,10,4.5,19.4,12.2,25.7c7.4,28.9,22.5,50.7,28.1,58.1v26.3
		c0,7.4-4.1,14.2-10.6,17.8L102,418.1c-2.3,1.2-4.6,2.7-6.8,4.4C48,379.9,18.2,318.4,18.2,250L18.2,250z M386,437.5
		c-3.2,2.3-6.4,4.6-9.7,6.7c-1.5,1-3,2-4.5,2.9c-4.3,2.7-8.7,5.1-13.1,7.5c-1,0.5-2,1-2.9,1.5c-10.3,5.2-20.9,9.8-31.7,13.4
		c-0.4,0.1-0.8,0.3-1.2,0.4c-5.7,1.9-11.5,3.6-17.3,5h0c-5.9,1.5-11.9,2.7-17.8,3.7c-0.2,0-0.4,0-0.5,0.1c-5.6,0.9-11.4,1.5-17,2.1
		c-1,0.1-2,0.1-3.1,0.2c-5.6,0.4-11.3,0.7-17,0.7c-5.8,0-11.5-0.3-17.2-0.7c-1,0-2-0.1-3-0.2c-5.8-0.5-11.5-1.2-17.2-2.1l-0.8-0.1
		c-12-2-23.8-5-35.4-8.8c-0.4-0.1-0.7-0.3-1.1-0.4c-5.7-1.9-11.4-4.1-16.9-6.5c0,0-0.1,0-0.1,0c-5.2-2.3-10.4-4.8-15.5-7.4
		c-0.7-0.4-1.3-0.7-2-1c-4.7-2.5-9.2-5.1-13.7-7.9c-1.3-0.8-2.7-1.7-3.9-2.6c-4.1-2.7-8.2-5.5-12.2-8.5c-0.4-0.3-0.8-0.6-1.2-0.9
		l0.8-0.5l71.9-39.2c12.3-6.7,20-19.7,20-33.8v-32.8l-2.1-2.5c-0.2-0.2-19.8-24.1-27.3-56.5l-0.8-3.6l-3.1-2c-4.4-2.8-7-7.5-7-12.6
		v-32.2c0-4.2,1.8-8.2,5.1-11.1l3-2.7v-50.6l-0.1-1.2c0-0.2-2.7-22.1,12.7-39.6c13.1-15,35.7-22.6,66.9-22.6
		c31.2,0,53.6,7.5,66.8,22.4c15.4,17.4,12.9,39.6,12.9,39.8l-0.1,51.8l3,2.7c3.2,2.9,5.1,6.9,5.1,11.1V251c0,6.5-4.4,12.4-10.7,14.3
		l-4.5,1.4l-1.5,4.5c-5.4,16.6-13,32-22.7,45.7c-2.4,3.4-4.7,6.3-6.7,8.6l-2.2,2.5v33.6c0,14.6,8.1,27.8,21.2,34.4l77,38.5
		c0.5,0.2,1,0.5,1.5,0.8C388,436.2,387,436.8,386,437.5L386,437.5z M386,437.5"/>
</g>
</svg>
