<?xml version="1.0" encoding="utf-8"?>
<!-- Generator: Adobe Illustrator 21.0.0, SVG Export Plug-In . SVG Version: 6.00 Build 0)  -->
<svg version="1.1" id="Layer_1" xmlns="http://www.w3.org/2000/svg" xmlns:xlink="http://www.w3.org/1999/xlink" x="0px" y="0px"
	 width="500px" height="500px" viewBox="0 0 500 500" enable-background="new 0 0 500 500" xml:space="preserve">
<g>
	<path fill="#231F20" d="M495,157.3L261.5,390.8c-3,3-7.5,5-11.5,5s-8.5-2-11.5-5L5,157.3c-3-3-5-7.5-5-11.5c0-4,2-8.5,5-11.5l25-25
		c3-3,7-5,11.5-5c4,0,8.5,2,11.5,5L250,306.1l196.9-196.9c3-3,7.5-5,11.5-5c4,0,8.5,2,11.5,5l25,25c3,3,5,7.5,5,11.5
		C500,149.8,498,154.3,495,157.3z"/>
</g>
</svg>
