<?xml version="1.0" encoding="utf-8"?>
<!-- Generator: Adobe Illustrator 21.0.0, SVG Export Plug-In . SVG Version: 6.00 Build 0)  -->
<svg version="1.1" id="Layer_1" xmlns="http://www.w3.org/2000/svg" xmlns:xlink="http://www.w3.org/1999/xlink" x="0px" y="0px"
	 width="500px" height="500px" viewBox="0 0 500 500" enable-background="new 0 0 500 500" xml:space="preserve">
<g>
	<path d="M258.3,133.3H141.7V250h116.7V133.3z M241.7,233.3h-83.3V150h83.3V233.3z M241.7,233.3"/>
	<path d="M433.4,133.3H300c-4.6,0-8.3,3.7-8.3,8.3c0,4.6,3.7,8.3,8.3,8.3h133.3c4.6,0,8.3-3.7,8.3-8.3
		C441.7,137,437.9,133.3,433.4,133.3L433.4,133.3z M433.4,133.3"/>
	<path d="M433.4,183.4H300c-4.6,0-8.3,3.7-8.3,8.3c0,4.6,3.7,8.3,8.3,8.3h133.3c4.6,0,8.3-3.7,8.3-8.3
		C441.7,187.1,437.9,183.4,433.4,183.4L433.4,183.4z M433.4,183.4"/>
	<path d="M433.4,233.3H300c-4.6,0-8.3,3.7-8.3,8.3c0,4.6,3.7,8.3,8.3,8.3h133.3c4.6,0,8.3-3.7,8.3-8.3
		C441.7,237.1,437.9,233.3,433.4,233.3L433.4,233.3z M433.4,233.3"/>
	<path d="M433.4,283.3h-275c-4.6,0-8.3,3.7-8.3,8.3c0,4.6,3.7,8.3,8.3,8.3h275c4.6,0,8.3-3.8,8.3-8.3
		C441.7,287.1,437.9,283.3,433.4,283.3L433.4,283.3z M433.4,283.3"/>
	<path d="M283.3,333.3h-125c-4.6,0-8.3,3.7-8.3,8.3c0,4.6,3.7,8.3,8.3,8.3h125c4.6,0,8.3-3.8,8.3-8.3
		C291.7,337.1,288,333.3,283.3,333.3L283.3,333.3z M283.3,333.3"/>
	<path d="M283.3,383.3h-125c-4.6,0-8.3,3.7-8.3,8.3c0,4.6,3.7,8.3,8.3,8.3h125c4.6,0,8.3-3.7,8.3-8.3
		C291.7,387,288,383.3,283.3,383.3L283.3,383.3z M283.3,383.3"/>
	<path d="M283.3,433.4h-125c-4.6,0-8.3,3.7-8.3,8.3c0,4.6,3.7,8.3,8.3,8.3h125c4.6,0,8.3-3.7,8.3-8.3
		C291.7,437.1,288,433.4,283.3,433.4L283.3,433.4z M283.3,433.4"/>
	<path d="M325,450h116.7V333.3H325V450z M341.7,350H425v83.3h-83.3V350z M341.7,350"/>
	<path d="M491.7,108.3c0-0.1,0-0.2-0.1-0.4V0H91.7v250H8.3v200c0,27.6,22.4,50,50,50h383.3c27.5,0,49.9-22.4,49.9-49.9V108.7
		C491.6,108.6,491.7,108.5,491.7,108.3L491.7,108.3z M474.9,16.7V100H108.4V16.7H474.9z M25,450V266.7h66.6V450
		c0,18.4-14.9,33.3-33.3,33.3C40,483.3,25,468.4,25,450L25,450z M441.7,483.3H95.6c0.1-0.1,0.2-0.3,0.4-0.4c1.7-1.9,3.3-4,4.6-6.2
		c0.2-0.3,0.4-0.7,0.6-1.1c1.4-2.2,2.6-4.6,3.5-7.1c0.1-0.3,0.2-0.7,0.4-1c1-2.6,1.8-5.2,2.3-7.9c0-0.2,0.1-0.5,0.1-0.8
		c0.5-2.9,0.9-5.8,0.9-8.8V116.7h366.6v333.4C474.9,468.4,460,483.3,441.7,483.3L441.7,483.3z M441.7,483.3"/>
	<path d="M391.7,33.3h-200v50h200V33.3z M375,66.6H208.3V50H375V66.6z M375,66.6"/>
</g>
</svg>
