<?xml version="1.0" encoding="utf-8"?>
<!-- Generator: Adobe Illustrator 21.0.0, SVG Export Plug-In . SVG Version: 6.00 Build 0)  -->
<svg version="1.1" id="Layer_1" xmlns="http://www.w3.org/2000/svg" xmlns:xlink="http://www.w3.org/1999/xlink" x="0px" y="0px"
	 width="500px" height="500px" viewBox="0 0 500 500" enable-background="new 0 0 500 500" xml:space="preserve">
<g>
	<g>
		<path d="M212.6,316.7c-1.4,0.8-2.6,0.9-3.4,0.3c-1-0.6-1.5-1.6-1.5-3.1V184.5c0-1.4,0.5-2.5,1.5-3.1c0.8-0.6,1.9-0.5,3.4,0.3
			l116.6,64.9c1.4,0.6,2.2,1.5,2.2,2.8c0,1-0.7,1.8-2.2,2.5L212.6,316.7z"/>
	</g>
	<path fill="#231F20" d="M250,500c-66.8,0-129.6-26-176.8-73.2C26,379.6,0,316.8,0,250S26,120.4,73.2,73.2C120.4,26,183.2,0,250,0
		s129.6,26,176.8,73.2C474,120.4,500,183.2,500,250s-26,129.6-73.2,176.8C379.6,474,316.8,500,250,500z M250,17.4
		c-62.1,0-120.6,24.2-164.5,68.1C41.6,129.4,17.4,187.9,17.4,250s24.2,120.6,68.1,164.5c43.9,43.9,102.4,68.1,164.5,68.1
		s120.6-24.2,164.5-68.1c43.9-43.9,68.1-102.4,68.1-164.5s-24.2-120.6-68.1-164.5C370.6,41.6,312.1,17.4,250,17.4z"/>
</g>
</svg>
