<?xml version="1.0" encoding="utf-8"?>
<!-- Generator: Adobe Illustrator 21.0.2, SVG Export Plug-In . SVG Version: 6.00 Build 0)  -->
<svg version="1.1" id="Layer_1" xmlns="http://www.w3.org/2000/svg" xmlns:xlink="http://www.w3.org/1999/xlink" x="0px" y="0px"
	 width="500px" height="500px" viewBox="0 0 500 500" enable-background="new 0 0 500 500" xml:space="preserve">
<g>
	<path fill="#231F20" d="M0,0c67.7,0,132.5,13,194.3,39.1c61.2,26,114.3,61.9,159.2,107.4c44.9,44.9,80.7,98,107.4,159.2
		c26.7,61.2,39.7,126,39.1,194.3h-95.7c0-54.7-10.7-107.1-32.2-157.2c-21.5-50.1-50.1-93.1-85.9-128.9
		c-35.8-36.4-78.8-65.1-128.9-85.9C107.1,106.5,54.7,95.7,0,95.7V0z M0,169.9c59.9,0,114.9,14.6,165,43.9
		c50.8,29.3,91.1,69.3,121.1,120.1c29.3,50.8,43.9,106.1,43.9,166h-95.7c0-65.1-23.1-120.4-69.3-166c-45.6-46.2-100.6-69.3-165-69.3
		V169.9z M19.5,385.7c13-13,28.6-19.5,46.9-19.5c18.2,0,33.8,6.5,46.9,19.5c13,13,19.5,28.7,19.5,46.9c0,18.9-6.5,34.8-19.5,47.8
		c-13,13-28.7,19.2-46.9,18.6c-18.2,0-33.9-6.5-46.9-19.5C6.5,467.1,0,451.5,0,432.6C0,414.4,6.5,398.8,19.5,385.7z"/>
</g>
</svg>
