<?xml version="1.0" encoding="utf-8"?>
<!-- Generator: Adobe Illustrator 21.0.0, SVG Export Plug-In . SVG Version: 6.00 Build 0)  -->
<svg version="1.1" id="Layer_1" xmlns="http://www.w3.org/2000/svg" xmlns:xlink="http://www.w3.org/1999/xlink" x="0px" y="0px"
	 width="500px" height="500px" viewBox="0 0 500 500" enable-background="new 0 0 500 500" xml:space="preserve">
<g>
	<path d="M491.7,433.3h-25.8V200c0-5-3.3-8.3-8.3-8.3H450v-25c0-5-3.3-8.3-8.3-8.3h-100c-5,0-8.3,3.3-8.3,8.3v25h-17.5v-25
		c0-2.5-0.8-5-2.5-6.7l-55-47.1V83.3h58.3c5,0,8.3-3.3,8.3-8.3V25c0-5-3.3-8.3-8.3-8.3H250c-5,0-8.3,3.3-8.3,8.3v50v37.1L185.8,160
		c-1.7,1.7-2.5,4.2-2.5,6.7v25h-16.7v-25c0-5-3.3-8.3-8.3-8.3h-100c-5,0-8.3,3.3-8.3,8.3v25h-8.3c-5,0-8.3,3.3-8.3,8.3v233.3h-25
		c-5,0-8.3,3.3-8.3,8.3V475c0,5,3.3,8.3,8.3,8.3h183.3H225h50h33.3h183.3c5,0,8.3-3.3,8.3-8.3v-33.3
		C500,436.7,496.7,433.3,491.7,433.3z M350,175h83.3v16.7H350V175z M308.3,66.7h-50V33.3h50V66.7z M200,170.8l50-42.5l50,42.5v20.8
		H200V170.8z M66.7,175H150v16.7H66.7V175z M16.7,450h25h141.7v16.7H16.7V450z M233.3,466.7V375c0-9.2,7.5-16.7,16.7-16.7
		s16.7,7.5,16.7,16.7v91.7H233.3z M300,441.7v25h-16.7V375c0-18.3-15-33.3-33.3-33.3c-18.3,0-33.3,15-33.3,33.3v91.7H200v-25
		c0-5-3.3-8.3-8.3-8.3H50v-225h8.3h100h33.3h116.7h33.3h100h8.3v225H308.3C303.3,433.3,300,436.7,300,441.7z M483.3,466.7H316.7V450
		h140.8h25.8V466.7z"/>
	<path d="M150,291.7h-8.3v-50c0-5-3.3-8.3-8.3-8.3H100c-5,0-8.3,3.3-8.3,8.3v50h-8.3c-5,0-8.3,3.3-8.3,8.3c0,5,3.3,8.3,8.3,8.3H100
		h33.3H150c5,0,8.3-3.3,8.3-8.3C158.3,295,155,291.7,150,291.7z M108.3,291.7V250H125v41.7H108.3z"/>
	<path d="M150,391.7h-8.3v-50c0-5-3.3-8.3-8.3-8.3H100c-5,0-8.3,3.3-8.3,8.3v50h-8.3c-5,0-8.3,3.3-8.3,8.3s3.3,8.3,8.3,8.3H100h33.3
		H150c5,0,8.3-3.3,8.3-8.3S155,391.7,150,391.7z M108.3,391.7V350H125v41.7H108.3z"/>
	<path d="M350,408.3h16.7H400h16.7c5,0,8.3-3.3,8.3-8.3s-3.3-8.3-8.3-8.3h-8.3v-50c0-5-3.3-8.3-8.3-8.3h-33.3c-5,0-8.3,3.3-8.3,8.3
		v50H350c-5,0-8.3,3.3-8.3,8.3S345,408.3,350,408.3z M375,350h16.7v41.7H375V350z"/>
	<path d="M350,308.3h16.7H400h16.7c5,0,8.3-3.3,8.3-8.3c0-5-3.3-8.3-8.3-8.3h-8.3v-50c0-5-3.3-8.3-8.3-8.3h-33.3
		c-5,0-8.3,3.3-8.3,8.3v50H350c-5,0-8.3,3.3-8.3,8.3C341.7,305,345,308.3,350,308.3z M375,250h16.7v41.7H375V250z"/>
	<path d="M283.3,291.7H275v-50c0-5-3.3-8.3-8.3-8.3h-33.3c-5,0-8.3,3.3-8.3,8.3v50h-8.3c-5,0-8.3,3.3-8.3,8.3c0,5,3.3,8.3,8.3,8.3
		h16.7h33.3h16.7c5,0,8.3-3.3,8.3-8.3C291.7,295,288.3,291.7,283.3,291.7z M241.7,291.7V250h16.7v41.7H241.7z"/>
</g>
</svg>
