<?xml version="1.0" encoding="utf-8"?>
<!-- Generator: Adobe Illustrator 21.0.0, SVG Export Plug-In . SVG Version: 6.00 Build 0)  -->
<svg version="1.1" id="Layer_1" xmlns="http://www.w3.org/2000/svg" xmlns:xlink="http://www.w3.org/1999/xlink" x="0px" y="0px"
	 width="500px" height="500px" viewBox="0 0 500 500" enable-background="new 0 0 500 500" xml:space="preserve">
<g>
	<path d="M488.1,484.1L347.8,338.2c35.8-35.9,58-85.4,58-139.9C405.8,88.9,316.8,0,207.5,0C98.2,0,9.3,88.9,9.3,198.3
		c0,109.3,88.9,198.3,198.3,198.3c48,0,92-17.2,126.3-45.6l140.6,146.3c1.8,1.9,4.3,2.9,6.8,2.9c2.3,0,4.7-0.9,6.5-2.6
		C491.6,493.8,491.7,487.8,488.1,484.1L488.1,484.1z M207.5,377.6c-98.9,0-179.4-80.5-179.4-179.4c0-98.9,80.4-179.4,179.4-179.4
		c98.9,0,179.4,80.4,179.4,179.4C386.9,297.1,306.4,377.6,207.5,377.6L207.5,377.6z M207.5,377.6"/>
</g>
</svg>
