<?xml version="1.0" encoding="utf-8"?>
<!-- Generator: Adobe Illustrator 21.0.0, SVG Export Plug-In . SVG Version: 6.00 Build 0)  -->
<svg version="1.1" id="Layer_1" xmlns="http://www.w3.org/2000/svg" xmlns:xlink="http://www.w3.org/1999/xlink" x="0px" y="0px"
	 width="500px" height="500px" viewBox="0 0 500 500" enable-background="new 0 0 500 500" xml:space="preserve">
<g>
	<path d="M473.7,500c-4.8,0-9.3-1.9-12.5-5.3l-130.8-136c-34.8,26.7-77.7,41.3-121.5,41.3C98.7,399.9,9,310.2,9,200
		C9,89.7,98.7,0,208.9,0s200,89.7,200,200c0,50.5-18.7,98.2-52.9,135.3l130.2,135.4c6.6,6.8,6.4,17.8-0.5,24.5
		C482.4,498.3,478.1,500,473.7,500z M208.9,34.7c-91.1,0-165.2,74.1-165.2,165.2s74.1,165.2,165.2,165.2S374.2,291.1,374.2,200
		S300,34.7,208.9,34.7z"/>
</g>
</svg>
