<?xml version="1.0" encoding="utf-8"?>
<!-- Generator: Adobe Illustrator 21.0.2, SVG Export Plug-In . SVG Version: 6.00 Build 0)  -->
<svg version="1.1" id="Layer_1" xmlns="http://www.w3.org/2000/svg" xmlns:xlink="http://www.w3.org/1999/xlink" x="0px" y="0px"
	 width="500px" height="500px" viewBox="0 0 500 500" enable-background="new 0 0 500 500" xml:space="preserve">
<path fill="#231F20" d="M34.3,165.1c23.5-22.3,51.6-33.7,84.4-34.3c32.8,0.6,60.9,12.1,84.4,34.3c22.9,23.5,34.3,51.6,34.3,84.4
	c0,33.4-11.5,61.2-34.3,83.5c-23.5,24.1-51.6,35.9-84.4,35.3c-32.8,0.6-60.9-11.1-84.4-35.3C11.4,310.8,0,282.9,0,249.5
	C0,216.8,11.4,188.6,34.3,165.1z M296.8,166c22.9-23.5,51-34.9,84.4-34.3c32.8-0.6,60.6,10.8,83.5,34.3
	c23.5,22.3,35.3,50.4,35.3,84.4c0,32.2-11.8,60-35.3,83.5c-22.9,22.9-50.7,34.6-83.5,35.3c-33.4-0.6-61.5-12.4-84.4-35.3
	c-22.9-23.5-34.3-51.3-34.3-83.5C262.5,216.5,274,188.3,296.8,166z"/>
</svg>
