<?xml version="1.0" encoding="utf-8"?>
<!-- Generator: Adobe Illustrator 21.0.2, SVG Export Plug-In . SVG Version: 6.00 Build 0)  -->
<svg version="1.1" id="Layer_1" xmlns="http://www.w3.org/2000/svg" xmlns:xlink="http://www.w3.org/1999/xlink" x="0px" y="0px"
	 width="500px" height="500px" viewBox="0 0 500 500" enable-background="new 0 0 500 500" xml:space="preserve">
<path fill="#231F20" d="M500,435.9c0,35.1-29,64.1-64.1,64.1H64.1C29,500,0,471,0,435.9V64.1C0,29,29,0,64.1,0h371.7
	C471,0,500,29,500,64.1V435.9z M443.4,211.6h-43.9c4.2,13.3,6.5,28,6.5,42.6c0,83.3-69.7,150.7-155.6,150.7
	c-85.6,0-155.3-67.4-155.3-150.7c0-14.6,2.3-29.3,6.5-42.6H55.7v210.9c0,11.1,8.8,19.9,19.9,19.9h348c11.1,0,19.9-8.8,19.9-19.9
	V211.6z M250.3,151.7c-55.3,0-100.3,43.6-100.3,97.3s44.9,97.3,100.3,97.3c55.7,0,100.6-43.6,100.6-97.3S306,151.7,250.3,151.7z
	 M443.4,78.1c0-12.4-10.1-22.5-22.5-22.5h-56.6c-12.4,0-22.5,10.1-22.5,22.5v53.7c0,12.4,10.1,22.5,22.5,22.5h56.6
	c12.4,0,22.5-10.1,22.5-22.5V78.1z"/>
</svg>
