<?xml version="1.0" encoding="utf-8"?>
<!-- Generator: Adobe Illustrator 21.0.0, SVG Export Plug-In . SVG Version: 6.00 Build 0)  -->
<svg version="1.1" id="Layer_1" xmlns="http://www.w3.org/2000/svg" xmlns:xlink="http://www.w3.org/1999/xlink" x="0px" y="0px"
	 width="500px" height="500px" viewBox="0 0 500 500" enable-background="new 0 0 500 500" xml:space="preserve">
<g>
	<path d="M339,356.1c-39.7,0-71.9,32.3-71.9,71.9c0,39.7,32.3,71.9,71.9,71.9c39.7,0,71.9-32.3,71.9-71.9
		C411,388.4,378.7,356.1,339,356.1L339,356.1z M339,479.6c-28.4,0-51.6-23.1-51.6-51.6c0-28.4,23.1-51.6,51.6-51.6
		c28.4,0,51.6,23.1,51.6,51.6C390.6,456.5,367.5,479.6,339,479.6L339,479.6z M339,479.6"/>
	<path d="M219.7,185.8c2.6,0,5.2-1,7.2-3l60.7-60.7c13.1,13.4,31.3,21.7,51.4,21.7c39.7,0,71.9-32.3,71.9-71.9S378.7,0,339,0
		c-39.7,0-71.9,32.3-71.9,71.9c0,12.1,3,23.6,8.3,33.6l-62.9,62.9c-4,4-4,10.4,0,14.4C214.5,184.8,217.1,185.8,219.7,185.8
		L219.7,185.8z M339,20.4c28.4,0,51.6,23.1,51.6,51.6c0,28.5-23.1,51.6-51.6,51.6c-28.4,0-51.6-23.1-51.6-51.6
		C287.4,43.5,310.6,20.4,339,20.4L339,20.4z M339,20.4"/>
	<path d="M267.8,364.5l-60-60c15.3-13.2,25.1-32.7,25.1-54.5c0-39.7-32.3-71.9-71.9-71.9c-39.7,0-71.9,32.3-71.9,71.9
		c0,39.7,32.3,71.9,71.9,71.9c10.4,0,20.3-2.2,29.2-6.2l63.2,63.2c2,2,4.6,3,7.2,3c2.6,0,5.2-1,7.2-3
		C271.8,374.9,271.8,368.5,267.8,364.5L267.8,364.5z M109.4,250c0-28.4,23.1-51.6,51.6-51.6c28.4,0,51.6,23.1,51.6,51.6
		c0,28.4-23.1,51.6-51.6,51.6C132.5,301.6,109.4,278.4,109.4,250L109.4,250z M109.4,250"/>
</g>
</svg>
