<?xml version="1.0" encoding="utf-8"?>
<!-- Generator: Adobe Illustrator 21.0.2, SVG Export Plug-In . SVG Version: 6.00 Build 0)  -->
<svg version="1.1" id="Layer_1" xmlns="http://www.w3.org/2000/svg" xmlns:xlink="http://www.w3.org/1999/xlink" x="0px" y="0px"
	 width="500px" height="500px" viewBox="0 0 500 500" enable-background="new 0 0 500 500" xml:space="preserve">
<path fill="#231F20" d="M449.5,453.7c-5.3,22-23.2,38.2-44.6,40.5C353.5,500,301.6,500,250,500s-103.5,0-154.9-5.9
	c-21.5-2.2-39.6-18.4-44.6-40.5c-7.3-31.3-7.3-65.6-7.3-97.7c0-32.4,0.3-66.4,7.3-97.7c5.3-22,23.2-38.2,44.9-40.7
	c51.1-5.6,103-5.6,154.6-5.6s103.5,0,154.9,5.6c21.5,2.5,39.6,18.7,44.6,40.7c7.2,31.3,7.2,65.3,7.2,97.7
	C456.8,388.1,456.5,422.4,449.5,453.7z M161.3,286.6v-26.2H74.2v26.2h29.3v158.8h27.9V286.6H161.3z M206.8,0L173,111.3v75.6h-27.9
	v-75.6c-2.5-13.7-8.1-33.2-17-59.1c-6.1-17.3-12.3-34.9-18.1-52.2h29.6l19.8,73.4l19-73.4H206.8z M236.6,445.3V307.5h-24.8v105.5
	c-5.6,7.8-10.9,11.7-15.9,11.7c-3.4,0-5.3-2-5.9-5.9c-0.3-0.8-0.3-3.9-0.3-9.8V307.5h-24.8v109.1c0,9.8,0.8,16.2,2.2,20.4
	c2.2,7,8.1,10.3,16.2,10.3c8.9,0,18.4-5.6,28.5-17v15.1H236.6z M281.5,141.7c0,14.8-2.5,25.9-7.8,32.9c-7,9.5-16.7,14.2-29.6,14.2
	c-12.6,0-22.3-4.7-29.3-14.2c-5.3-7.3-7.8-18.1-7.8-32.9V92.9c0-14.8,2.5-25.7,7.8-32.6c7-9.5,16.7-14.2,29.3-14.2
	c12.8,0,22.6,4.7,29.6,14.2c5.3,7,7.8,17.9,7.8,32.6V141.7z M256.1,87.9c0-12.8-3.6-19.3-12-19.3c-8.1,0-12,6.4-12,19.3v58.6
	c0,12.8,3.9,19.5,12,19.5c8.4,0,12-6.7,12-19.5V87.9z M331.5,349.1c0-12.8-0.6-22-2.5-27.6c-3.1-10.3-10-15.6-19.8-15.6
	c-9.2,0-17.9,5-25.9,15.1v-60.6h-24.8v185h24.8v-13.4c8.4,10.3,17,15.3,25.9,15.3c9.8,0,16.7-5.3,19.8-15.3c2-5.9,2.5-15.1,2.5-27.9
	V349.1z M306.6,406c0,12.6-3.6,18.7-10.9,18.7c-4.2,0-8.4-2-12.6-6.1v-84c4.2-4.2,8.4-6.1,12.6-6.1c7.3,0,10.9,6.4,10.9,18.7V406z
	 M375,186.9h-25.4v-15.3c-10,11.7-19.5,17.3-28.7,17.3c-8.1,0-14-3.3-16.5-10.3c-1.4-4.2-2.2-10.9-2.2-20.9V47.7h25.4v102.4
	c0,5.9,0,9.2,0.3,9.8c0.6,3.9,2.5,6.1,5.9,6.1c5,0,10.3-3.9,15.9-12V47.7H375V186.9z M425.8,397.6h-25.4c0,10-0.3,15.6-0.6,17
	c-1.4,6.7-5,10-11.2,10c-8.6,0-12.8-6.4-12.8-19.2v-24.3h49.9v-28.7c0-14.8-2.5-25.4-7.5-32.4c-7.3-9.5-17-14.2-29.6-14.2
	c-12.8,0-22.6,4.7-29.9,14.2c-5.3,7-7.8,17.6-7.8,32.4v48.3c0,14.8,2.8,25.7,8.1,32.4c7.3,9.5,17,14.2,30.1,14.2
	c13.1,0,23.4-5,30.1-14.8c3.1-4.5,5.3-9.5,5.9-15.1c0.6-2.5,0.6-8.1,0.6-16.2V397.6z M400.9,360.2h-25.1v-12.8
	c0-12.6,4.2-19,12.6-19s12.6,6.4,12.6,19V360.2z"/>
</svg>
