<?xml version="1.0" encoding="utf-8"?>
<!-- Generator: Adobe Illustrator 21.0.2, SVG Export Plug-In . SVG Version: 6.00 Build 0)  -->
<svg version="1.1" id="Layer_1" xmlns="http://www.w3.org/2000/svg" xmlns:xlink="http://www.w3.org/1999/xlink" x="0px" y="0px"
	 width="500px" height="500px" viewBox="0 0 500 500" enable-background="new 0 0 500 500" xml:space="preserve">
<path fill="#231F20" d="M448.6,148.2c0.3,4.4,0.3,8.9,0.3,13.3C448.9,297,345.8,453,157.4,453c-58.1,0-112-16.8-157.4-46
	c8.3,0.9,16.2,1.3,24.7,1.3c47.9,0,92-16.2,127.2-43.8c-45.1-0.9-82.8-30.5-95.8-71.1c6.3,0.9,12.7,1.6,19.4,1.6
	c9.2,0,18.4-1.3,27-3.5c-47-9.5-82.2-50.8-82.2-100.6c0-0.3,0-0.9,0-1.3c13.6,7.6,29.5,12.4,46.3,13c-27.6-18.4-45.7-49.8-45.7-85.3
	c0-19,5.1-36.5,14-51.7c50.4,62.2,126.3,102.8,211.3,107.2c-1.6-7.6-2.5-15.5-2.5-23.5C243.7,93,289.3,47,346.1,47
	c29.5,0,56.1,12.4,74.9,32.4c23.2-4.4,45.4-13,65-24.7c-7.6,23.8-23.8,43.8-45.1,56.5c20.6-2.2,40.6-7.9,59-15.9
	C486,115.5,468.6,133.6,448.6,148.2z"/>
</svg>
