<?xml version="1.0" encoding="utf-8"?>
<!-- Generator: Adobe Illustrator 21.0.0, SVG Export Plug-In . SVG Version: 6.00 Build 0)  -->
<svg version="1.1" id="Layer_1" xmlns="http://www.w3.org/2000/svg" xmlns:xlink="http://www.w3.org/1999/xlink" x="0px" y="0px"
	 width="500px" height="500px" viewBox="0 0 500 500" enable-background="new 0 0 500 500" xml:space="preserve">
<g>
	<path d="M464.9,196.9h-73.5L492,96.3c5.2-5.2,8-12,8-19.3c0-7.3-2.8-14.1-8-19.3l-10.5-10.5c-10.6-10.6-27.9-10.6-38.6,0
		L293.2,196.9H32.1C14.4,196.9,0,211.3,0,229v199.7c0,17.7,14.4,32.1,32.1,32.1h432.8c17.7,0,32.1-14.4,32.1-32.1V229
		C497,211.3,482.6,196.9,464.9,196.9z M457,61.3c2.9-2.9,7.5-2.9,10.4,0l10.5,10.5c1.4,1.4,2.2,3.2,2.2,5.2c0,2-0.8,3.8-2.2,5.2
		l-25.5,25.5l-17.9-17.9l-3-3L457,61.3z M417.4,100.9l20.9,20.9L239.2,320.9l-31.4,10.5l10.5-31.4L417.4,100.9z M477.1,428.7
		L477.1,428.7c0,6.7-5.5,12.2-12.2,12.2H32.1c-6.7,0-12.2-5.5-12.2-12.2V229c0-6.7,5.5-12.2,12.2-12.2h241.2l-70.8,70.8
		c-1.1,1.1-1.9,2.4-2.4,3.9L182.6,344c-1.2,3.6-0.3,7.5,2.4,10.2c1.9,1.9,4.4,2.9,7,2.9c1.1,0,2.1-0.2,3.1-0.5l52.5-17.5
		c1.5-0.5,2.8-1.3,3.9-2.4l119.9-119.9h93.4c6.7,0,12.2,5.5,12.2,12.2V428.7z"/>
	<path d="M440.5,398.6h-5.9c-5.5,0-10,4.5-10,10c0,5.5,4.5,10,10,10h5.9c5.5,0,10-4.5,10-10C450.5,403,446,398.6,440.5,398.6z"/>
	<path d="M395,398.6H168.3c-5.5,0-10,4.5-10,10c0,5.5,4.5,10,10,10H395c5.5,0,10-4.5,10-10C404.9,403,400.5,398.6,395,398.6z"/>
	<path d="M440.5,341.2H292c-5.5,0-10,4.5-10,10s4.5,10,10,10h148.5c5.5,0,10-4.5,10-10S446,341.2,440.5,341.2z"/>
	<path d="M105.1,308.8v-36.9c12.7,0.9,17.5,6.7,21.8,6.7c5.5,0,8-6.9,8-10.4c0-8.9-17.5-12.7-29.8-13.1v-4.9c0-2.2-2.7-4.2-5.5-4.2
		c-3.1,0-5.3,2-5.3,4.2v5.3c-17.3,1.8-34.6,10.9-34.6,33.8c0,23.3,18.2,29.8,34.6,35.7v42.8c-18.6-1.5-23.5-14.2-29.5-14.2
		c-4.5,0-8.4,6-8.4,10.4c0,8.9,15.3,21.1,37.8,21.5v5.6c0,2.2,2.2,4.2,5.3,4.2c2.7,0,5.5-2,5.5-4.2v-6.2
		c19.6-2.7,33.1-15.1,33.1-37.5C138.2,322.6,120.9,314.6,105.1,308.8z M95.4,305.3c-9.6-3.6-17.5-7.5-17.5-17.8
		c0-9.5,7.3-14,17.5-15.3V305.3z M104,367.4V329c8.9,3.8,16,8.9,16,20.4C120,359.7,113.8,365.6,104,367.4z"/>
</g>
</svg>
