<?xml version="1.0" encoding="utf-8"?>
<!-- Generator: Adobe Illustrator 21.0.2, SVG Export Plug-In . SVG Version: 6.00 Build 0)  -->
<svg version="1.1" id="Layer_1" xmlns="http://www.w3.org/2000/svg" xmlns:xlink="http://www.w3.org/1999/xlink" x="0px" y="0px"
	 width="500px" height="95.6px" viewBox="0 0 500 95.6" style="enable-background:new 0 0 500 95.6;" xml:space="preserve">
<style type="text/css">
	.st0{fill:#202D60;}
	.st1{fill:#FAAB33;}
	.st2{fill:url(#SVGID_1_);}
	.st3{fill:url(#SVGID_2_);}
	.st4{fill:#F3DB17;}
	.st5{opacity:0.71;fill:url(#SVGID_3_);enable-background:new    ;}
	.st6{fill:url(#SVGID_4_);}
	.st7{fill:url(#SVGID_5_);}
	.st8{clip-path:url(#SVGID_7_);}
	.st9{fill:url(#SVGID_8_);}
	.st10{opacity:0.3;fill:url(#SVGID_9_);enable-background:new    ;}
	.st11{clip-path:url(#SVGID_11_);}
	.st12{fill:url(#SVGID_12_);}
	.st13{opacity:0.3;fill:url(#SVGID_13_);enable-background:new    ;}
	.st14{clip-path:url(#SVGID_15_);}
	.st15{fill:url(#SVGID_16_);}
	.st16{opacity:0.3;fill:url(#SVGID_17_);enable-background:new    ;}
	.st17{fill:url(#SVGID_18_);}
	.st18{opacity:0.9;fill:url(#SVGID_19_);enable-background:new    ;}
	.st19{fill:url(#SVGID_20_);}
	.st20{fill:url(#SVGID_21_);}
	.st21{fill:url(#SVGID_22_);}
	.st22{opacity:0.7;fill:url(#SVGID_23_);enable-background:new    ;}
	.st23{opacity:0.49;}
	.st24{fill:#FFFFFF;}
</style>
<polygon class="st0" points="112.7,17.1 116.3,36.3 116.4,36.3 121.7,17.1 127.8,17.1 133,36.3 133.1,36.3 136.7,17.1 142.4,17.1 
	136.2,43.1 130,43.1 124.8,23.8 124.7,23.8 119.4,43.1 113.3,43.1 107.1,17.1 "/>
<path class="st0" d="M163.9,32.2H150c0.6,4.5,2.3,6.4,5.9,6.4h8.4V43h-9.8c-6.6,0-10.2-4.6-10.2-13s3.6-13,10.2-13h9.8v4.4h-8.4
	c-2.3,0-5.2,0.4-5.9,6.4h13.9V32.2z"/>
<path class="st0" d="M190,21.5h-13.4c-1.7,0-3.2,1-3.2,3.1c0,2.3,1.5,3.1,3.2,3.1h7.7c2.6,0,7,1.6,7,7.7c0,6-4.4,7.7-7,7.7h-16.1
	v-4.4h13.6c1.8,0,3.2-1.4,3.2-3.2c0-1.9-1.4-3.2-3.2-3.2h-7.6c-2.7,0-7.1-1.5-7.1-7.6c0-6,4.4-7.6,7.1-7.6H190V21.5z"/>
<polygon class="st0" points="214.7,17.1 214.7,21.5 206.4,21.5 206.4,43.1 201.2,43.1 201.2,21.5 192.9,21.5 192.9,17.1 "/>
<polygon class="st0" points="225,17.1 230.7,17.1 230.7,27.9 241.7,27.9 241.7,17.1 247.4,17.1 247.4,43.1 241.7,43.1 241.7,32.2 
	230.7,32.2 230.7,43.1 225,43.1 "/>
<rect x="254.6" y="17.1" class="st0" width="5.2" height="26"/>
<path class="st0" d="M266.5,33.6V17.1h5.2v16.2c0,3.1,1.9,5.3,5.1,5.3h6.8V43H275C270.5,43.1,266.5,40.6,266.5,33.6"/>
<path class="st0" d="M286.5,33.6V17.1h5.2v16.2c0,3.1,1.9,5.3,5.1,5.3h6.8V43H295C290.4,43.1,286.5,40.6,286.5,33.6"/>
<path class="st0" d="M328.3,21.5h-13.4c-1.7,0-3.2,1-3.2,3.1c0,2.3,1.5,3.1,3.2,3.1h7.7c2.6,0,7,1.6,7,7.7c0,6-4.4,7.7-7,7.7h-16.1
	v-4.4h13.7c1.8,0,3.2-1.4,3.2-3.2c0-1.9-1.4-3.2-3.2-3.2h-7.6c-2.7,0-7.1-1.5-7.1-7.6c0-6,4.4-7.6,7.1-7.6h15.8v4.4H328.3z"/>
<path class="st0" d="M360.7,21.5h-8.9c-4.3,0-6,3-6,8.6c0,5.5,1.7,8.6,6,8.6h8.9v4.4h-10.4c-6.6,0-10.2-4.6-10.2-13s3.6-13,10.2-13
	h10.4V21.5z"/>
<path class="st0" d="M375.3,16.7c9.7,0,12.3,5.9,12.3,13.4c0,7.4-2.6,13.4-12.3,13.4c-9.7,0-12.3-5.9-12.3-13.4
	S365.6,16.7,375.3,16.7 M368.4,30.1c0,4.6,0.7,9.1,6.9,9.1c6.2,0,6.9-4.4,6.9-9.1c0-4.6-0.7-9.1-6.9-9.1S368.4,25.4,368.4,30.1"/>
<path class="st0" d="M391.4,33.6V17.1h5.2v16.2c0,3.1,1.9,5.3,5.1,5.3h6.8V43h-8.6C395.3,43.1,391.4,40.6,391.4,33.6"/>
<path class="st0" d="M411.3,33.6V17.1h5.2v16.2c0,3.1,1.9,5.3,5.1,5.3h6.8V43h-8.6C415.3,43.1,411.3,40.6,411.3,33.6"/>
<path class="st0" d="M449.3,32.2h-13.9c0.6,4.5,2.3,6.4,5.9,6.4h8.4V43h-9.8c-6.6,0-10.2-4.6-10.2-13s3.6-13,10.2-13h9.8v4.4h-8.4
	c-2.3,0-5.2,0.4-5.9,6.4h13.9V32.2z"/>
<path class="st0" d="M453.2,30.1c0-8.4,3.6-13,10.2-13h13v4.4H465c-4.3,0-6,3-6,8.6c0,5.5,1.7,8.6,6,8.6h6.3v-6.4h-6.9V28h12.1v15.1
	h-13C456.8,43.1,453.2,38.4,453.2,30.1"/>
<path class="st0" d="M499.6,32.2h-13.9c0.6,4.5,2.3,6.4,5.9,6.4h8.4V43h-9.8c-6.6,0-10.2-4.6-10.2-13s3.6-13,10.2-13h9.8v4.4h-8.4
	c-2.3,0-5.2,0.4-5.9,6.4h13.9V32.2z"/>
<path class="st1" d="M153.8,69.2V52.8h6.5v15.8c0,2.2,1,4.4,4.4,4.4h7.2v5.5h-9.1C157.6,78.5,153.8,75.6,153.8,69.2"/>
<path class="st1" d="M212.7,68.3h-13.6c0.4,2,1.4,4.7,5.2,4.7h8.8v5.5h-10.4c-7,0-10.8-4.6-10.8-12.8c0-8.3,3.8-12.9,10.8-12.9h10.4
	v5.5h-8.8c-2.2,0-4.5,1-5.2,4.7h13.6V68.3z"/>
<polygon class="st1" points="235.8,78.5 235.8,52.8 245.4,52.8 250.8,68.9 256.1,52.8 265.8,52.8 265.8,78.5 259.4,78.5 259.4,62.9 
	259.2,62.9 253.9,78.5 247.7,78.5 242.4,62.9 242.2,62.9 242.2,78.5 "/>
<path class="st1" d="M301.5,52.5c10.2,0,13,5.8,13,13.2c0,7.3-2.8,13.2-13,13.2c-10.3,0-13.1-5.9-13.1-13.2
	C288.5,58.3,291.3,52.5,301.5,52.5 M295.2,65.7c0,4.2,0.7,7.9,6.4,7.9c5.6,0,6.3-3.7,6.3-7.9s-0.7-7.9-6.3-7.9
	C295.9,57.8,295.2,61.5,295.2,65.7"/>
<path class="st1" d="M349.9,52.5c10.3,0,13,5.8,13,13.2c0,7.3-2.8,13.2-13,13.2c-10.3,0-13-5.9-13-13.2
	C336.9,58.3,339.6,52.5,349.9,52.5 M343.6,65.7c0,4.2,0.7,7.9,6.3,7.9c5.6,0,6.3-3.7,6.3-7.9s-0.7-7.9-6.3-7.9
	C344.3,57.8,343.6,61.5,343.6,65.7"/>
<path class="st1" d="M392.1,69.4v9.2h-6.5V52.8h14.7c5.6,0,7.9,2.8,7.9,8.3c0,5.9-3.1,7.2-5,7.8l5.5,9.7h-7.3l-5.1-9.2H392.1z
	 M392.1,64.2h6.4c1.6,0,3.3-0.5,3.3-3s-1.7-2.9-3.3-2.9h-6.4V64.2z"/>
<path class="st1" d="M449,68.3h-13.6c0.4,2,1.4,4.7,5.2,4.7h8.8v5.5H439c-7,0-10.8-4.6-10.8-12.8c0-8.3,3.8-12.9,10.8-12.9h10.4v5.5
	h-8.8c-2.2,0-4.5,1-5.2,4.7H449V68.3z"/>
<g>
	<g>
		
			<linearGradient id="SVGID_1_" gradientUnits="userSpaceOnUse" x1="-2737.6611" y1="450.2317" x2="-2737.6611" y2="537.3317" gradientTransform="matrix(-1 0 0 1 -2689.811 -446.0317)">
			<stop  offset="5.521470e-02" style="stop-color:#C5E6F9"/>
			<stop  offset="0.2638" style="stop-color:#94B4DD"/>
			<stop  offset="0.4969" style="stop-color:#224C8D"/>
		</linearGradient>
		<path class="st2" d="M4.3,12.9c0-4.8,3.9-8.7,8.7-8.7h69.7c4.8,0,8.7,3.9,8.7,8.7v69.7c0,4.8-3.9,8.7-8.7,8.7H13
			c-4.8,0-8.7-3.9-8.7-8.7V12.9z"/>
		
			<linearGradient id="SVGID_2_" gradientUnits="userSpaceOnUse" x1="-2737.6611" y1="450.2317" x2="-2737.6611" y2="537.3317" gradientTransform="matrix(-1 0 0 1 -2689.811 -446.0317)">
			<stop  offset="0.1718" style="stop-color:#0F99BD;stop-opacity:0.22"/>
			<stop  offset="0.6503" style="stop-color:#242359"/>
			<stop  offset="0.8104" style="stop-color:#376678;stop-opacity:0.6017"/>
			<stop  offset="0.9414" style="stop-color:#4DA192;stop-opacity:0.2758"/>
			<stop  offset="1" style="stop-color:#57C09E;stop-opacity:0.13"/>
		</linearGradient>
		<path class="st3" d="M4.3,12.9c0-4.8,3.9-8.7,8.7-8.7h69.7c4.8,0,8.7,3.9,8.7,8.7v69.7c0,4.8-3.9,8.7-8.7,8.7H13
			c-4.8,0-8.7-3.9-8.7-8.7V12.9z"/>
	</g>
	<g>
		<path class="st4" d="M30.9,19.6C25,19.5,20.1,24,20,29.7S24.6,40,30.5,40.1S41.3,35.7,41.4,30C41.6,24.4,36.8,19.7,30.9,19.6
			L30.9,19.6z"/>
		
			<radialGradient id="SVGID_3_" cx="35.2978" cy="67.4802" r="10.5119" gradientTransform="matrix(0.9962 0 0 -0.9962 -4.4126 97.0738)" gradientUnits="userSpaceOnUse">
			<stop  offset="0" style="stop-color:#F3DF34;stop-opacity:0.22"/>
			<stop  offset="1" style="stop-color:#FDEE0E"/>
		</radialGradient>
		<path class="st5" d="M30.9,19.6C25,19.5,20.1,24,20,29.7S24.6,40,30.5,40.1S41.3,35.7,41.4,30C41.6,24.4,36.8,19.7,30.9,19.6
			L30.9,19.6z"/>
		
			<linearGradient id="SVGID_4_" gradientUnits="userSpaceOnUse" x1="35.2488" y1="77.7472" x2="35.2488" y2="57.1657" gradientTransform="matrix(0.9962 0 0 -0.9962 -4.4126 97.0738)">
			<stop  offset="0" style="stop-color:#FFFFFF;stop-opacity:0.77"/>
			<stop  offset="0.45" style="stop-color:#FFFFFF;stop-opacity:0"/>
			<stop  offset="0.4718" style="stop-color:#FCF0DC;stop-opacity:6.335774e-03"/>
			<stop  offset="0.4993" style="stop-color:#F9E1B8;stop-opacity:1.434154e-02"/>
			<stop  offset="0.5303" style="stop-color:#F6D398;stop-opacity:2.335789e-02"/>
			<stop  offset="0.5645" style="stop-color:#F3C87C;stop-opacity:3.332349e-02"/>
			<stop  offset="0.6032" style="stop-color:#F1BF66;stop-opacity:4.457667e-02"/>
			<stop  offset="0.6484" style="stop-color:#F0B855;stop-opacity:5.771699e-02"/>
			<stop  offset="0.7042" style="stop-color:#EFB34A;stop-opacity:7.396341e-02"/>
			<stop  offset="0.7826" style="stop-color:#EEB043;stop-opacity:9.674752e-02"/>
			<stop  offset="1" style="stop-color:#EEAF41;stop-opacity:0.16"/>
		</linearGradient>
		<path class="st6" d="M30.9,19.6C25,19.5,20.1,24,20,29.7S24.6,40,30.5,40.1S41.3,35.7,41.4,30C41.6,24.4,36.8,19.7,30.9,19.6
			L30.9,19.6z"/>
		
			<linearGradient id="SVGID_5_" gradientUnits="userSpaceOnUse" x1="35.2488" y1="77.7472" x2="35.2488" y2="57.1657" gradientTransform="matrix(0.9962 0 0 -0.9962 -4.4126 97.0738)">
			<stop  offset="0" style="stop-color:#FFFFFF;stop-opacity:0.77"/>
			<stop  offset="0.45" style="stop-color:#FFFFFF;stop-opacity:0"/>
			<stop  offset="0.4718" style="stop-color:#FCF0DC;stop-opacity:6.335774e-03"/>
			<stop  offset="0.4993" style="stop-color:#F9E1B8;stop-opacity:1.434154e-02"/>
			<stop  offset="0.5303" style="stop-color:#F6D398;stop-opacity:2.335789e-02"/>
			<stop  offset="0.5645" style="stop-color:#F3C87C;stop-opacity:3.332349e-02"/>
			<stop  offset="0.6032" style="stop-color:#F1BF66;stop-opacity:4.457667e-02"/>
			<stop  offset="0.6484" style="stop-color:#F0B855;stop-opacity:5.771699e-02"/>
			<stop  offset="0.7042" style="stop-color:#EFB34A;stop-opacity:7.396341e-02"/>
			<stop  offset="0.7826" style="stop-color:#EEB043;stop-opacity:9.674752e-02"/>
			<stop  offset="1" style="stop-color:#EEAF41;stop-opacity:0.16"/>
		</linearGradient>
		<path class="st7" d="M30.9,19.6C25,19.5,20.1,24,20,29.7S24.6,40,30.5,40.1S41.3,35.7,41.4,30C41.6,24.4,36.8,19.7,30.9,19.6
			L30.9,19.6z"/>
	</g>
	<g>
		<g>
			<defs>
				<rect id="SVGID_6_" x="4.3" y="18.3" width="87.1" height="43.1"/>
			</defs>
			<clipPath id="SVGID_7_">
				<use xlink:href="#SVGID_6_"  style="overflow:visible;"/>
			</clipPath>
			<g class="st8">
				
					<linearGradient id="SVGID_8_" gradientUnits="userSpaceOnUse" x1="69.9118" y1="36.6551" x2="69.9118" y2="70.2767" gradientTransform="matrix(1 0 0 -1 0 98)">
					<stop  offset="0.3926" style="stop-color:#B02529"/>
					<stop  offset="0.4696" style="stop-color:#B32E29"/>
					<stop  offset="0.5892" style="stop-color:#BC432A"/>
					<stop  offset="0.7365" style="stop-color:#CC6129"/>
					<stop  offset="0.9043" style="stop-color:#E68925"/>
					<stop  offset="0.9755" style="stop-color:#F69E21"/>
				</linearGradient>
				<path class="st9" d="M48.5,41.5c4.5-4.2,8.9-9.5,14-13.1C65.7,26,70,30.6,75,31.6c2.2,0.4,3.5,3.9,5.3,5.7
					c1.2,0.6,4.6,1.1,5.8,1.7c1.5,0.8,3.7,3.6,5.2,4.5c0.1,8.8,0,17.8,0,17.8s-13.3-9.7-29-9.6C60.4,50.5,47.9,42.1,48.5,41.5
					L48.5,41.5z"/>
				
					<linearGradient id="SVGID_9_" gradientUnits="userSpaceOnUse" x1="69.9118" y1="36.6551" x2="69.9118" y2="70.2767" gradientTransform="matrix(1 0 0 -1 0 98)">
					<stop  offset="0" style="stop-color:#DC8028"/>
					<stop  offset="1" style="stop-color:#F8D961"/>
				</linearGradient>
				<path class="st10" d="M48.5,41.5c4.5-4.2,8.9-9.5,14-13.1C65.7,26,70,30.6,75,31.6c2.2,0.4,3.5,3.9,5.3,5.7
					c1.2,0.6,4.6,1.1,5.8,1.7c1.5,0.8,3.7,3.6,5.2,4.5c0.1,8.8,0,17.8,0,17.8s-13.3-9.7-29-9.6C60.4,50.5,47.9,42.1,48.5,41.5
					L48.5,41.5z"/>
			</g>
		</g>
		<g>
			<defs>
				<rect id="SVGID_10_" x="4.3" y="18.3" width="87.1" height="43.1"/>
			</defs>
			<clipPath id="SVGID_11_">
				<use xlink:href="#SVGID_10_"  style="overflow:visible;"/>
			</clipPath>
			<g class="st11">
				
					<linearGradient id="SVGID_12_" gradientUnits="userSpaceOnUse" x1="48.4" y1="46.1084" x2="48.4" y2="62.2746" gradientTransform="matrix(1 0 0 -1 0 98)">
					<stop  offset="0.3926" style="stop-color:#B02529"/>
					<stop  offset="0.4696" style="stop-color:#B32E29"/>
					<stop  offset="0.5892" style="stop-color:#BC432A"/>
					<stop  offset="0.7365" style="stop-color:#CC6129"/>
					<stop  offset="0.9043" style="stop-color:#E68925"/>
					<stop  offset="0.9755" style="stop-color:#F69E21"/>
				</linearGradient>
				<path class="st12" d="M29.9,39.8c4.5-4.8,6-5,15.7-2.5c4.6,2.8,14.5,9.5,21.3,14.4c-7.9-0.1-14.8,0.1-20.7,0.1
					C41.3,47.8,36,44,29.9,39.8L29.9,39.8z"/>
				
					<linearGradient id="SVGID_13_" gradientUnits="userSpaceOnUse" x1="48.4" y1="46.1084" x2="48.4" y2="62.2746" gradientTransform="matrix(1 0 0 -1 0 98)">
					<stop  offset="0" style="stop-color:#DC8028"/>
					<stop  offset="1" style="stop-color:#F8D961"/>
				</linearGradient>
				<path class="st13" d="M29.9,39.8c4.5-4.8,6-5,15.7-2.5c4.6,2.8,14.5,9.5,21.3,14.4c-7.9-0.1-14.8,0.1-20.7,0.1
					C41.3,47.8,36,44,29.9,39.8L29.9,39.8z"/>
			</g>
		</g>
		<g>
			<defs>
				<rect id="SVGID_14_" x="4.3" y="18.3" width="87.1" height="43.1"/>
			</defs>
			<clipPath id="SVGID_15_">
				<use xlink:href="#SVGID_14_"  style="overflow:visible;"/>
			</clipPath>
			<g class="st14">
				
					<linearGradient id="SVGID_16_" gradientUnits="userSpaceOnUse" x1="25.6" y1="41.731" x2="25.6" y2="64.528" gradientTransform="matrix(1 0 0 -1 0 98)">
					<stop  offset="0.3926" style="stop-color:#B02529"/>
					<stop  offset="0.4696" style="stop-color:#B32E29"/>
					<stop  offset="0.5892" style="stop-color:#BC432A"/>
					<stop  offset="0.7365" style="stop-color:#CC6129"/>
					<stop  offset="0.9043" style="stop-color:#E68925"/>
					<stop  offset="0.9755" style="stop-color:#F69E21"/>
				</linearGradient>
				<path class="st15" d="M4.5,42.9c0-5.5,9.2-7,14.2-9.1c3.5-1.5,3.7,2.5,3.7,2.5s-0.2-0.2,2.1-0.1c2.3,0.8,22.4,16,22.4,16
					L4.3,56.3C4.3,56.3,4.4,52.1,4.5,42.9z"/>
				
					<linearGradient id="SVGID_17_" gradientUnits="userSpaceOnUse" x1="25.6" y1="41.731" x2="25.6" y2="64.528" gradientTransform="matrix(1 0 0 -1 0 98)">
					<stop  offset="0" style="stop-color:#DC8028"/>
					<stop  offset="1" style="stop-color:#F8D961"/>
				</linearGradient>
				<path class="st16" d="M4.5,42.9c0-5.5,9.2-7,14.2-9.1c3.5-1.5,3.7,2.5,3.7,2.5s-0.2-0.2,2.1-0.1c2.3,0.8,22.4,16,22.4,16
					L4.3,56.3C4.3,56.3,4.4,52.1,4.5,42.9z"/>
			</g>
		</g>
	</g>
	<g>
		
			<linearGradient id="SVGID_18_" gradientUnits="userSpaceOnUse" x1="-2737.6611" y1="491.4317" x2="-2737.6611" y2="537.3873" gradientTransform="matrix(-1 0 0 1 -2689.811 -446.0317)">
			<stop  offset="0" style="stop-color:#37B24A"/>
			<stop  offset="7.916078e-02" style="stop-color:#56B748"/>
			<stop  offset="0.2439" style="stop-color:#7CC144"/>
			<stop  offset="0.3829" style="stop-color:#90C741"/>
			<stop  offset="0.4785" style="stop-color:#97C940"/>
			<stop  offset="0.546" style="stop-color:#91C140"/>
			<stop  offset="0.6226" style="stop-color:#86B13F"/>
			<stop  offset="0.7036" style="stop-color:#749A3E"/>
			<stop  offset="0.7877" style="stop-color:#5D7D39"/>
			<stop  offset="0.8743" style="stop-color:#425B30"/>
			<stop  offset="0.9615" style="stop-color:#253821"/>
			<stop  offset="1" style="stop-color:#162818"/>
		</linearGradient>
		<path class="st17" d="M4.3,55v27.6c0,4.8,3.9,8.7,8.7,8.7h69.7c4.8,0,8.7-3.9,8.7-8.7V55c0,0-16-9.6-43.6-9.6S4.3,55,4.3,55z"/>
		
			<linearGradient id="SVGID_19_" gradientUnits="userSpaceOnUse" x1="-2737.6611" y1="491.4317" x2="-2737.6611" y2="537.3873" gradientTransform="matrix(-1 0 0 1 -2689.811 -446.0317)">
			<stop  offset="0" style="stop-color:#C1D730;stop-opacity:0.13"/>
			<stop  offset="0.1357" style="stop-color:#B1C835;stop-opacity:0.225"/>
			<stop  offset="0.3869" style="stop-color:#8BAD3D;stop-opacity:0.4008"/>
			<stop  offset="0.7228" style="stop-color:#548B42;stop-opacity:0.636"/>
			<stop  offset="1" style="stop-color:#0A7142;stop-opacity:0.83"/>
		</linearGradient>
		<path class="st18" d="M4.3,55v27.6c0,4.8,3.9,8.7,8.7,8.7h69.7c4.8,0,8.7-3.9,8.7-8.7V55c0,0-16-9.6-43.6-9.6S4.3,55,4.3,55z"/>
		
			<linearGradient id="SVGID_20_" gradientUnits="userSpaceOnUse" x1="-2737.6611" y1="537.3989" x2="-2737.6611" y2="491.4433" gradientTransform="matrix(-1 0 0 1 -2689.811 -446.0317)">
			<stop  offset="0" style="stop-color:#0E1D17;stop-opacity:0.16"/>
			<stop  offset="5.099012e-02" style="stop-color:#293731;stop-opacity:0.1434"/>
			<stop  offset="0.2701" style="stop-color:#9BA19F;stop-opacity:7.195096e-02"/>
			<stop  offset="0.4211" style="stop-color:#E3E5E4;stop-opacity:2.273150e-02"/>
			<stop  offset="0.4908" style="stop-color:#FFFFFF;stop-opacity:0"/>
			<stop  offset="1" style="stop-color:#F9ED1F;stop-opacity:0.77"/>
		</linearGradient>
		<path class="st19" d="M4.3,55v27.6c0,4.8,3.9,8.7,8.7,8.7h69.7c4.8,0,8.7-3.9,8.7-8.7V55c0,0-16-9.6-43.6-9.6S4.3,55,4.3,55z"/>
	</g>
	<g>
		
			<linearGradient id="SVGID_21_" gradientUnits="userSpaceOnUse" x1="62.0818" y1="5.6954" x2="62.0818" y2="50.7721" gradientTransform="matrix(0.9962 0 0 -0.9962 -4.4126 97.0738)">
			<stop  offset="0" style="stop-color:#4664AA"/>
			<stop  offset="0.5215" style="stop-color:#4969AE"/>
			<stop  offset="0.9831" style="stop-color:#53C8E9"/>
		</linearGradient>
		<path class="st20" d="M91.3,84C71.2,81.3,44.9,68.3,37,62.4c-1.9-1.8-4.5-3.2-0.7-5.2c3.2-1.7,6.7-1,9.3-3.1c3-2.5-0.9-4-2.4-4.6
			c-1.8-0.7-11.8-2.9-11.4-3.1c-1.1,0.3-8,1.4-8,1.4c5,1.4,8.5,2.3,12.2,3.3c1.3,0.4,2.4,1.4,0.4,1.9c-4.6,1.1-11.3,1.4-12.7,5.1
			c-0.7,1.9,1.4,3.8,5.2,6.7c11.3,8.8,47.9,26.6,52.8,26.6C90.3,91.4,91.3,84,91.3,84z"/>
		
			<linearGradient id="SVGID_22_" gradientUnits="userSpaceOnUse" x1="62.0818" y1="5.6954" x2="62.0818" y2="50.7721" gradientTransform="matrix(0.9962 0 0 -0.9962 -4.4126 97.0738)">
			<stop  offset="0" style="stop-color:#1B76BA;stop-opacity:0.67"/>
			<stop  offset="5.773074e-02" style="stop-color:#1485B3;stop-opacity:0.712"/>
			<stop  offset="0.1192" style="stop-color:#0891AD;stop-opacity:0.7566"/>
			<stop  offset="0.1852" style="stop-color:#009AA6;stop-opacity:0.8046"/>
			<stop  offset="0.257" style="stop-color:#00A1A1;stop-opacity:0.8568"/>
			<stop  offset="0.3391" style="stop-color:#00A59D;stop-opacity:0.9165"/>
			<stop  offset="0.454" style="stop-color:#00A69C"/>
			<stop  offset="0.5386" style="stop-color:#00A2A0;stop-opacity:0.9055"/>
			<stop  offset="0.6765" style="stop-color:#0198A8;stop-opacity:0.7514"/>
			<stop  offset="0.8495" style="stop-color:#1287B2;stop-opacity:0.5582"/>
			<stop  offset="1" style="stop-color:#1B76BA;stop-opacity:0.39"/>
		</linearGradient>
		<path class="st21" d="M91.3,84C71.2,81.3,44.9,68.3,37,62.4c-1.9-1.8-4.5-3.2-0.7-5.2c3.2-1.7,6.7-1,9.3-3.1c3-2.5-0.9-4-2.4-4.6
			c-1.8-0.7-11.8-2.9-11.4-3.1c-1.1,0.3-8,1.4-8,1.4c5,1.4,8.5,2.3,12.2,3.3c1.3,0.4,2.4,1.4,0.4,1.9c-4.6,1.1-11.3,1.4-12.7,5.1
			c-0.7,1.9,1.4,3.8,5.2,6.7c11.3,8.8,47.9,26.6,52.8,26.6C90.3,91.4,91.3,84,91.3,84z"/>
		
			<linearGradient id="SVGID_23_" gradientUnits="userSpaceOnUse" x1="62.0818" y1="50.8077" x2="62.0818" y2="5.731" gradientTransform="matrix(0.9962 0 0 -0.9962 -4.4126 97.0738)">
			<stop  offset="0" style="stop-color:#294B9B;stop-opacity:0.16"/>
			<stop  offset="4.125433e-02" style="stop-color:#3B5AA3;stop-opacity:0.1411"/>
			<stop  offset="0.1237" style="stop-color:#6980B9;stop-opacity:0.1034"/>
			<stop  offset="0.2383" style="stop-color:#B2BEDB;stop-opacity:5.096447e-02"/>
			<stop  offset="0.3497" style="stop-color:#FFFFFF;stop-opacity:0"/>
			<stop  offset="1" style="stop-color:#FFFFFF;stop-opacity:0.77"/>
		</linearGradient>
		<path class="st22" d="M91.3,84C71.2,81.3,44.9,68.3,37,62.4c-1.9-1.8-4.5-3.2-0.7-5.2c3.2-1.7,6.7-1,9.3-3.1c3-2.5-0.9-4-2.4-4.6
			c-1.8-0.7-11.8-2.9-11.4-3.1c-1.1,0.3-8,1.4-8,1.4c5,1.4,8.5,2.3,12.2,3.3c1.3,0.4,2.4,1.4,0.4,1.9c-4.6,1.1-11.3,1.4-12.7,5.1
			c-0.7,1.9,1.4,3.8,5.2,6.7c11.3,8.8,47.9,26.6,52.8,26.6C90.3,91.4,91.3,84,91.3,84z"/>
		<g class="st23">
			<path class="st24" d="M81.8,90.9c-4.3-0.2-9-3-12.8-4.7c-7.1-3.2-14.1-6.7-21-10.4c-5.9-3.2-11.9-6.4-17.4-10.4
				c-2.4-1.8-8.5-5.2-5.6-8.6c2.9-3.3,11-1.2,12.9-4.6V52c-1.8-2.8-7.1-2.3-9.9-3.6c-2.2-1.1-1-0.7,1-1.1c1-0.2,2.1-0.6,3.1-0.5
				c2.7,0.2,5.7,1.4,8.3,2.1c1.4,0.4,5,1,5.7,2.4c2.8,5.5-19.1,3.3-9.2,11.2c8.8,7,20.7,11.5,31.1,15.4c6.6,2.5,13.4,4.3,20.3,5.7
				c2.9,0.6,3,1.1,1.3,3.5C87.7,90,84.9,90.8,81.8,90.9v0.2c4.5-0.2,8.1-2.3,9.2-6.9V84c-11.4-1.6-22.4-5.5-32.9-10
				c-4.9-2.1-9.6-4.4-14.3-7c-2.5-1.4-7.9-3.7-9.2-6.5c-2.7-6.1,12.7-3,11.8-8.3c-0.4-2.6-7-3.5-8.9-3.9c-1.7-0.4-4-1.5-5.8-1.5
				c-2,0-4.5,0.8-6.5,1.1v0.2c3.3,0.9,6.8,1.7,10.1,2.7c5.5,1.8-1.5,2.9-3.4,3.3c-2.4,0.5-8.1,1.3-8.1,4.8
				c0.1,4.3,10.3,9.4,13.7,11.4c8.4,5,17.1,9.5,26,13.7c5.3,2.5,12.2,6.9,18.3,7.2C81.8,91.2,81.8,90.9,81.8,90.9z"/>
		</g>
	</g>
	<path class="st0" d="M82.6,0H13C5.8,0,0,5.8,0,13v69.6c0,7.2,5.8,13,13,13h69.6c7.2,0,13-5.8,13-13V13C95.6,5.8,89.8,0,82.6,0z
		 M91.1,13v69.6c0,4.7-3.8,8.5-8.5,8.5H13c-4.7,0-8.5-3.8-8.5-8.5V13c0-4.7,3.8-8.5,8.5-8.5h69.6C87.3,4.5,91.1,8.3,91.1,13z"/>
</g>
</svg>
