<?xml version="1.0" encoding="utf-8"?>
<!-- Generator: Adobe Illustrator 21.0.2, SVG Export Plug-In . SVG Version: 6.00 Build 0)  -->
<svg version="1.1" id="Layer_1" xmlns="http://www.w3.org/2000/svg" xmlns:xlink="http://www.w3.org/1999/xlink" x="0px" y="0px"
	 width="500px" height="97.9px" viewBox="0 0 500 97.9" enable-background="new 0 0 500 97.9" xml:space="preserve">
<g>
	<g>
		<path fill="#FFFFFF" d="M24.9,27.3c0,4.7-1.6,9.1-4.5,11.9c-2.4,2.3-5.8,3.7-9.7,3.7C4.1,42.9,0,38.3,0,32.1
			c0-4.7,1.7-9.1,4.7-11.9c2.5-2.3,5.8-3.7,9.7-3.7C21,16.6,24.9,20.9,24.9,27.3z M9.8,23.6C8,25.4,6.9,29.1,6.9,32
			c0,3.3,1.6,5.5,4.7,5.5c1.3,0,2.6-0.6,3.6-1.6c1.8-1.9,2.8-5.8,2.8-8.5c0-3-1.1-5.5-4.5-5.5C12.1,21.9,10.8,22.5,9.8,23.6z"/>
		<path fill="#FFFFFF" d="M23.9,42.5l2.3-12.3c0.5-2.5,0.8-4.6,1.1-6.3h5.7l-0.3,2.8h0.1c1.8-2.3,4-3.3,6.3-3.3
			c3.4,0,4.8,2.1,4.8,5.1c0,0.8-0.1,2.3-0.3,3.2l-2,10.8h-6.5L37,32.4c0.1-0.6,0.2-1.3,0.2-2c0-1.1-0.3-1.8-1.4-1.8
			c-1.6,0-3.1,2-3.9,5.9l-1.5,7.9H23.9z"/>
		<path fill="#FFFFFF" d="M58,42c-1.3,0.6-3.1,0.9-5.2,0.9c-4.5,0-8.1-2.7-8.1-7.9c0-6.7,5.2-11.6,12.5-11.6c1.5,0,2.8,0.2,3.7,0.6
			l-1.5,4.9c-0.6-0.2-1.3-0.3-2.2-0.3c-3.5,0-5.7,2.7-5.7,5.8c0,2.4,1.7,3.4,3.3,3.4c1.4,0,2.5-0.3,3.4-0.7L58,42z"/>
		<path fill="#FFFFFF" d="M74.8,41.4c-2.5,1.2-5.4,1.5-7.3,1.5C62,42.9,59,40,59,34.8c0-5.7,4.1-11.4,11.1-11.4
			c3.9,0,6.9,2.1,6.9,5.9c0,4.7-4.2,6.5-11.9,6.3c0.1,0.4,0.3,0.9,0.7,1.2c0.7,0.6,1.9,0.9,3.3,0.9c1.9,0,3.7-0.4,5.3-1.1L74.8,41.4
			z M71,29.3c0-0.6-0.6-1.2-1.7-1.2c-2.3,0-3.4,1.7-3.6,3C69.7,31.1,71,30.5,71,29.3L71,29.3z"/>
		<path fill="#FFFFFF" d="M89.5,23.9l0.8,7.3c0.2,1.8,0.4,3.1,0.5,4.2h0.1c0.4-1.1,0.7-2.3,1.5-4.3l2.8-7.3h6.8l-6.5,13
			c-2.7,5.3-5,8.8-7.5,11c-2.2,2-4.9,3-6.2,3.2l-1.4-5.6c0.9-0.2,2.1-0.7,3.1-1.3c1.3-0.8,2.2-1.8,2.8-2.8c0.2-0.3,0.2-0.5,0.1-0.9
			l-3.7-16.6H89.5z"/>
		<path fill="#FFFFFF" d="M119.2,31.1c0,7.2-4.9,11.8-11.4,11.8c-4.8,0-8.2-2.9-8.2-7.7c0-6.5,4.6-11.7,11.5-11.7
			C116,23.4,119.2,26.7,119.2,31.1z M106.3,35.1c0,1.8,0.8,3,2.4,3c2.6,0,3.9-4.2,3.9-6.9c0-1.6-0.6-2.8-2.3-2.8
			C107.4,28.3,106.3,32.8,106.3,35.1z"/>
		<path fill="#FFFFFF" d="M139.8,23.9l-2.3,12.3c-0.5,2.5-0.8,4.6-1.1,6.4h-5.7l0.3-2.8h-0.1c-2,2.4-4.2,3.3-6.4,3.3
			c-3.2,0-4.7-1.9-4.7-5.1c0-1.1,0.1-2.2,0.4-3.6l1.9-10.3h6.5l-1.9,9.8c-0.2,0.8-0.3,1.7-0.3,2.3c0,0.9,0.4,1.7,1.4,1.7
			c1.7,0,3.1-2,3.8-5.6l1.6-8.3H139.8z"/>
		<path fill="#FFFFFF" d="M150.3,46c1.6,0.9,5.5,1.5,7.8,1.5c4.1,0,7-1.7,8.1-6.7l0.3-1.7h-0.1c-2.2,2.5-4.5,3.6-7.7,3.6
			c-5.9,0-9.8-4.7-9.8-10.7c-0.1-9.7,6.8-19.4,20.4-19.4c4.5,0,8.2,0.7,11.6,2.1l-4.4,24.5c-1,5.2-2.7,10.2-6.4,13.1
			c-3.3,2.6-7.8,3.4-12,3.4c-4.1,0-7.9-0.7-10-1.8L150.3,46z M169.8,20.7c-0.5-0.2-1.6-0.4-2.4-0.4c-4.4,0-7.6,5.1-7.6,10.1
			c0,2.8,1.4,4.4,3.3,4.4c2.2,0,4.4-2.2,5.3-6.9L169.8,20.7z"/>
		<path fill="#FFFFFF" d="M212.1,24.8c0,11.6-7.9,18.9-18.3,18.9c-7.6,0-13.1-4.7-13.1-12.4c0-10.5,7.4-18.8,18.4-18.8
			C207,12.5,212.1,17.8,212.1,24.8z M191.4,31.1c0,2.9,1.3,4.7,3.8,4.7c4.2,0,6.2-6.7,6.2-11c0-2.5-1-4.5-3.8-4.5
			C193.2,20.4,191.4,27.5,191.4,31.1z"/>
		<path fill="#FFFFFF" d="M219.5,43l8.1-43H238l-3.2,16.4h0.1c2.4-2.3,5.3-3.9,9-3.9c5.2,0,7.6,3.3,7.6,8.1c0,1.3-0.2,3.7-0.6,5.5
			L247.7,43h-10.4l3-15.9c0.2-1.2,0.4-2.4,0.4-3.5c0-1.6-0.6-2.8-2.3-2.8c-2.7,0-5,3.4-6.1,9.1L229.9,43H219.5z"/>
		<path fill="#FFFFFF" d="M277.7,41.3c-4,1.9-8.7,2.4-11.7,2.4c-8.7,0-13.5-4.6-13.5-12.9c0-9.1,6.5-18.2,17.8-18.2
			c6.2,0,11,3.4,11,9.5c0,7.5-6.8,10.5-19.1,10.1c0.1,0.7,0.5,1.5,1.1,2c1.2,1,3,1.5,5.3,1.5c3,0,5.9-0.6,8.5-1.8L277.7,41.3z
			 M271.7,21.9c0-1-1-1.9-2.7-1.9c-3.7,0-5.5,2.8-5.8,4.7C269.6,24.8,271.7,23.9,271.7,21.9L271.7,21.9z"/>
		<path fill="#FFFFFF" d="M280,43l3.3-17.1c0.8-4.7,1.2-10.2,1.5-12.7h8.9c-0.1,2-0.2,3.9-0.4,5.9h0.2c2.2-3.9,5.5-6.6,9.6-6.6
			c0.6,0,1.2,0,1.8,0.1l-2.1,10c-0.4,0-0.8,0-1.3,0c-6.1,0-8.2,4.8-9.2,10.2L290.4,43H280z"/>
		<path fill="#FFFFFF" d="M327.2,41.3c-4,1.9-8.7,2.4-11.7,2.4c-8.7,0-13.5-4.6-13.5-12.9c0-9.1,6.5-18.2,17.8-18.2
			c6.2,0,11,3.4,11,9.5c0,7.5-6.8,10.5-19.1,10.1c0.1,0.7,0.5,1.5,1.1,2c1.1,1,3,1.5,5.3,1.5c3,0,5.9-0.6,8.5-1.8L327.2,41.3z
			 M321.2,21.9c0-1-1-1.9-2.7-1.9c-3.7,0-5.5,2.8-5.8,4.7C319,24.8,321.2,23.9,321.2,21.9L321.2,21.9z"/>
		<path fill="#FFFFFF" d="M329.4,46.8c1.4-2.8,2.8-6.1,3.6-9l5-0.3c-1.5,3.2-3.4,6.6-5.3,9.1L329.4,46.8z"/>
	</g>
	<g>
		<path fill="#FFFFFF" d="M55.1,66l0.8,7.3c0.2,1.8,0.4,3.1,0.5,4.2h0.1c0.4-1.1,0.7-2.3,1.5-4.3l2.8-7.3h6.8l-6.5,13
			c-2.7,5.3-5,8.8-7.5,11c-2.2,2-4.9,3-6.2,3.2L46,87.6c0.9-0.2,2.1-0.7,3.1-1.3c1.2-0.8,2.2-1.8,2.8-2.8c0.2-0.3,0.2-0.5,0.1-0.9
			L48.3,66H55.1z"/>
		<path fill="#FFFFFF" d="M84.8,73.2c0,7.2-4.9,11.8-11.4,11.8c-4.8,0-8.2-2.9-8.2-7.7c0-6.5,4.6-11.7,11.5-11.7
			C81.7,65.6,84.8,68.8,84.8,73.2z M71.9,77.2c0,1.8,0.8,3,2.4,3c2.6,0,3.9-4.2,3.9-6.9c0-1.6-0.6-2.8-2.3-2.8
			C73.1,70.4,71.9,74.9,71.9,77.2z"/>
		<path fill="#FFFFFF" d="M105.4,66l-2.3,12.3c-0.5,2.5-0.8,4.6-1.1,6.4h-5.7l0.3-2.8h-0.1c-2,2.4-4.2,3.3-6.4,3.3
			c-3.2,0-4.7-1.9-4.7-5.1c0-1.1,0.1-2.2,0.4-3.6L87.8,66h6.5l-1.9,9.8c-0.2,0.8-0.3,1.7-0.3,2.3c0,0.9,0.4,1.7,1.4,1.7
			c1.7,0,3.1-2,3.8-5.6l1.6-8.3H105.4z"/>
		<path fill="#FFFFFF" d="M123.5,84.1c-1.3,0.6-3.1,0.9-5.2,0.9c-4.5,0-8.1-2.7-8.1-7.9c0-6.7,5.2-11.6,12.5-11.6
			c1.5,0,2.8,0.2,3.7,0.6l-1.5,4.9c-0.6-0.2-1.3-0.3-2.2-0.3c-3.5,0-5.7,2.7-5.7,5.8c0,2.4,1.7,3.4,3.3,3.4c1.4,0,2.5-0.3,3.4-0.7
			L123.5,84.1z"/>
		<path fill="#FFFFFF" d="M135.9,84.6c0-1.1,0.1-2.2,0.2-3.2h-0.1c-1.6,2.8-3.9,3.6-5.9,3.6c-3.4,0-5.8-2.6-5.8-6.6
			c0-6.2,3.9-12.8,13.5-12.8c2.4,0,5,0.5,6.6,1l-2,9.8c-0.4,2-0.8,5.8-0.7,8.3H135.9z M137.2,70.5c-0.4-0.1-0.9-0.1-1.2-0.1
			c-3,0-5,4.1-5,6.8c0,1.7,0.7,2.7,1.9,2.7c1.2,0,2.7-1.2,3.6-5.6L137.2,70.5z"/>
		<path fill="#FFFFFF" d="M143.6,84.6l2.3-12.3c0.5-2.5,0.8-4.6,1.1-6.3h5.7l-0.3,2.8h0.1c1.8-2.3,4-3.3,6.3-3.3
			c3.4,0,4.8,2.1,4.8,5.1c0,0.8-0.1,2.3-0.3,3.2l-2,10.8h-6.5l1.9-10.1c0.1-0.6,0.2-1.3,0.2-2c0-1.1-0.3-1.8-1.4-1.8
			c-1.6,0-3.1,2-3.9,5.9l-1.5,7.9H143.6z"/>
		<path fill="#FFFFFF" d="M174.5,87.2c1.6,0.9,5.5,1.5,7.8,1.5c4.1,0,7-1.7,8.1-6.7l0.3-1.7h-0.1c-2.2,2.5-4.5,3.6-7.7,3.6
			c-5.9,0-9.8-4.7-9.8-10.7c-0.1-9.7,6.8-19.4,20.4-19.4c4.5,0,8.2,0.7,11.6,2.1l-4.4,24.5c-1,5.1-2.7,10.2-6.4,13.1
			c-3.3,2.6-7.8,3.4-12,3.4c-4.1,0-7.9-0.7-10-1.8L174.5,87.2z M194,61.9c-0.5-0.2-1.6-0.4-2.4-0.4c-4.4,0-7.6,5.1-7.6,10.1
			c0,2.8,1.4,4.4,3.3,4.4c2.2,0,4.4-2.2,5.3-6.9L194,61.9z"/>
		<path fill="#FFFFFF" d="M236.2,66c0,11.6-7.9,18.9-18.3,18.9c-7.6,0-13.1-4.7-13.1-12.4c0-10.5,7.4-18.8,18.4-18.8
			C231.2,53.7,236.2,58.9,236.2,66z M215.6,72.3c0,2.9,1.3,4.7,3.8,4.7c4.2,0,6.2-6.7,6.2-11c0-2.5-1-4.5-3.8-4.5
			C217.4,61.5,215.6,68.7,215.6,72.3z"/>
		<path fill="#FFFFFF" d="M263.1,84.2c0.1-1.7,0.2-3.5,0.2-5.2h-0.1c-2.5,4.4-6.2,5.8-9.4,5.8c-5.4,0-9.2-4.1-9.2-10.6
			c0-9.9,6.2-20.5,21.6-20.5c3.9,0,7.9,0.8,10.6,1.6L273.7,71c-0.6,3.2-1.3,9.3-1.2,13.2H263.1z M265.3,61.7
			c-0.7-0.1-1.4-0.2-1.9-0.2c-4.8,0-8,6.5-8,10.8c0,2.8,1.2,4.2,3,4.2c1.9,0,4.4-1.9,5.7-8.9L265.3,61.7z"/>
		<path fill="#FFFFFF" d="M275.5,84.2l3.7-19.7c0.8-3.9,1.3-7.4,1.7-10.1h9.1l-0.4,4.5h0.1c2.9-3.8,6.4-5.2,10.1-5.2
			c5.5,0,7.7,3.4,7.7,8.1c0,1.3-0.2,3.7-0.5,5.1l-3.3,17.3h-10.4l3-16.2c0.2-1,0.3-2.1,0.3-3.2c0-1.7-0.5-2.9-2.2-2.9
			c-2.5,0-5,3.3-6.2,9.5l-2.4,12.7H275.5z"/>
		<path fill="#FFFFFF" d="M319.6,54.4l1.3,11.7c0.4,2.9,0.7,5,0.9,6.8h0.1c0.6-1.8,1.2-3.6,2.4-6.8l4.5-11.6h10.8l-10.4,20.8
			c-4.2,8.5-8.1,14.1-12,17.6c-3.5,3.3-7.9,4.8-9.9,5.1l-2.3-8.9c1.5-0.4,3.3-1.1,4.9-2.1c2-1.3,3.5-2.8,4.4-4.4
			c0.3-0.5,0.3-0.8,0.2-1.5l-5.9-26.6H319.6z"/>
		<path fill="#FFFFFF" d="M349.4,54.4L349,65.3c-0.1,3.2-0.2,6.4-0.4,10.1h0.1c1.2-3.7,2.5-6.8,3.8-9.9l4.6-11.1h8.3l0.2,10.7
			c0.1,3.6,0.1,6.6-0.1,10.4h0.1c1.1-3.7,2.2-6.9,3.5-10.7l3.8-10.4h10.4L369,84.2h-9.8l-0.4-7.9c-0.2-3.3-0.2-6.2-0.2-10.2h-0.1
			c-1.8,4.8-2.4,7-3.6,9.7l-3.6,8.4h-9.8l-2.8-29.8H349.4z"/>
		<path fill="#FFFFFF" d="M378.6,84.2l8.1-43h10.4l-3.1,16.4h0.1c2.4-2.3,5.3-3.9,9-3.9c5.2,0,7.6,3.3,7.6,8.1
			c0,1.3-0.2,3.7-0.6,5.5l-3.1,16.9h-10.4l3-15.9c0.2-1.2,0.4-2.4,0.4-3.5c0-1.6-0.6-2.8-2.3-2.8c-2.7,0-5,3.4-6.1,9.1L389,84.2
			H378.6z"/>
		<path fill="#FFFFFF" d="M436.9,82.5c-4,1.9-8.7,2.4-11.7,2.4c-8.7,0-13.5-4.6-13.5-12.9c0-9.1,6.5-18.2,17.8-18.2
			c6.2,0,11,3.4,11,9.5c0,7.5-6.8,10.5-19.1,10.1c0.1,0.7,0.5,1.5,1.1,2c1.2,1,3,1.5,5.3,1.5c3,0,5.9-0.6,8.5-1.8L436.9,82.5z
			 M430.9,63.1c0-1-1-1.9-2.7-1.9c-3.7,0-5.5,2.8-5.8,4.7C428.7,66,430.9,65.1,430.9,63.1L430.9,63.1z"/>
		<path fill="#FFFFFF" d="M439.1,84.2l3.3-17.1c0.8-4.7,1.2-10.2,1.5-12.7h8.9c-0.1,2-0.2,3.9-0.4,5.9h0.2c2.2-3.9,5.5-6.6,9.6-6.6
			c0.6,0,1.2,0,1.8,0.1l-2.1,10c-0.4,0-0.8,0-1.3,0c-6.1,0-8.2,4.8-9.2,10.2l-1.9,10.2H439.1z"/>
		<path fill="#FFFFFF" d="M486.3,82.5c-4,1.9-8.7,2.4-11.7,2.4c-8.7,0-13.5-4.6-13.5-12.9c0-9.1,6.5-18.2,17.8-18.2
			c6.2,0,11,3.4,11,9.5c0,7.5-6.8,10.5-19.1,10.1c0.1,0.7,0.5,1.5,1.1,2c1.1,1,3,1.5,5.3,1.5c3,0,5.9-0.6,8.5-1.8L486.3,82.5z
			 M480.3,63.1c0-1-1-1.9-2.7-1.9c-3.7,0-5.5,2.8-5.8,4.7C478.1,66,480.3,65.1,480.3,63.1L480.3,63.1z"/>
	</g>
	<g>
		<path fill="#FFFFFF" d="M491.4,50.3h-1.8v-0.6h4.3v0.6h-1.8v5.2h-0.8V50.3z"/>
		<path fill="#FFFFFF" d="M499.1,53c0-0.8-0.1-1.8-0.1-2.5h0c-0.2,0.7-0.4,1.4-0.7,2.2l-1,2.8h-0.6l-0.9-2.8
			c-0.3-0.8-0.5-1.6-0.7-2.3h0c0,0.7-0.1,1.7-0.1,2.6l-0.2,2.5H494l0.4-5.8h1l1,2.8c0.2,0.7,0.4,1.4,0.6,2h0c0.1-0.6,0.4-1.2,0.6-2
			l1-2.8h1l0.4,5.8h-0.7L499.1,53z"/>
	</g>
</g>
</svg>
