<?xml version="1.0" encoding="utf-8"?>
<!-- Generator: Adobe Illustrator 21.0.0, SVG Export Plug-In . SVG Version: 6.00 Build 0)  -->
<svg version="1.1" id="Layer_1" xmlns="http://www.w3.org/2000/svg" xmlns:xlink="http://www.w3.org/1999/xlink" x="0px" y="0px"
	 width="500.2px" height="126.2px" viewBox="0 0 500.2 126.2" enable-background="new 0 0 500.2 126.2" xml:space="preserve">
<g>
	<path fill="#09347A" d="M142.5,12.5l5.7,29.2h0.2l8.4-29.2h9.8l8.4,29.2h0.2l5.7-29.2h9L180,51.9h-9.9l-8.4-29.2h-0.2l-8.4,29.2
		h-9.8l-9.9-39.4H142.5z"/>
	<path fill="#09347A" d="M225.8,35.4h-22.2c0.5,3.4,1.4,5.9,2.9,7.4s3.6,2.3,6.5,2.3h13.4v6.7h-15.7c-5.3,0-9.4-1.7-12.2-5.1
		c-2.8-3.4-4.2-8.3-4.2-14.6s1.4-11.3,4.2-14.6c2.8-3.4,6.8-5.1,12.2-5.1h15.7v6.7H213c-0.9,0-1.9,0.1-2.9,0.3
		c-1,0.2-1.9,0.6-2.8,1.2c-0.9,0.6-1.6,1.6-2.3,2.9c-0.7,1.3-1.1,3.1-1.4,5.3h22.2V35.4z"/>
	<path fill="#09347A" d="M269,19.2h-21.4c-1.4,0-2.5,0.4-3.5,1.2c-1,0.8-1.5,2-1.5,3.5c0,0.9,0.1,1.6,0.4,2.2
		c0.3,0.6,0.6,1.1,1.1,1.4c0.5,0.4,1,0.6,1.6,0.8c0.6,0.2,1.2,0.3,1.9,0.3h12.2c1,0,2.2,0.2,3.5,0.5c1.3,0.4,2.5,1,3.7,1.8
		c1.1,0.9,2.1,2.1,2.9,3.6c0.8,1.5,1.2,3.4,1.2,5.7c0,2.3-0.4,4.2-1.2,5.7c-0.8,1.5-1.7,2.7-2.9,3.5c-1.1,0.9-2.4,1.5-3.7,1.8
		c-1.3,0.4-2.5,0.5-3.5,0.5h-25.6v-6.7H256c0.7,0,1.4-0.1,2-0.4c0.6-0.3,1.2-0.6,1.6-1c0.5-0.4,0.8-0.9,1.1-1.5
		c0.3-0.6,0.4-1.2,0.4-2c0-1.4-0.5-2.6-1.5-3.5c-1-0.9-2.2-1.4-3.6-1.4h-12.2c-1.1,0-2.3-0.2-3.6-0.5c-1.3-0.3-2.5-0.9-3.7-1.8
		c-1.1-0.9-2.1-2-2.9-3.5c-0.8-1.5-1.2-3.4-1.2-5.7c0-2.3,0.4-4.2,1.2-5.6c0.8-1.5,1.7-2.6,2.9-3.5c1.1-0.9,2.4-1.5,3.7-1.8
		c1.3-0.3,2.5-0.5,3.6-0.5H269V19.2z"/>
	<path fill="#09347A" d="M309.9,12.5v6.7h-13.3v32.7h-8.3V19.2h-13.2v-6.7H309.9z"/>
	<path fill="#09347A" d="M339.4,12.5h8.3V29h15.8V12.5h8.3v39.4h-8.3V35.4h-15.8v16.5h-8.3V12.5z"/>
	<path fill="#09347A" d="M380,51.9V12.5h8.3v39.4H380z"/>
	<path fill="#09347A" d="M404.8,51.1c-1.6-0.5-3.1-1.3-4.3-2.4c-1.2-1.1-2.2-2.6-3-4.4c-0.7-1.8-1.1-4.1-1.1-6.7V12.5h8.3v24.6
		c0,1.2,0.2,2.3,0.6,3.2c0.4,1,0.9,1.8,1.6,2.6c0.7,0.7,1.5,1.3,2.5,1.7c1,0.4,2.1,0.6,3.4,0.6h10.8v6.7H410
		C408.2,51.9,406.4,51.7,404.8,51.1z"/>
	<path fill="#09347A" d="M438.2,51.1c-1.6-0.5-3.1-1.3-4.3-2.4c-1.2-1.1-2.2-2.6-3-4.4c-0.7-1.8-1.1-4.1-1.1-6.7V12.5h8.3v24.6
		c0,1.2,0.2,2.3,0.6,3.2c0.4,1,0.9,1.8,1.6,2.6c0.7,0.7,1.5,1.3,2.5,1.7c1,0.4,2.1,0.6,3.4,0.6h10.8v6.7h-13.7
		C441.6,51.9,439.8,51.7,438.2,51.1z"/>
	<path fill="#09347A" d="M498.2,19.2h-21.4c-1.4,0-2.5,0.4-3.5,1.2c-1,0.8-1.5,2-1.5,3.5c0,0.9,0.1,1.6,0.4,2.2
		c0.3,0.6,0.6,1.1,1.1,1.4c0.5,0.4,1,0.6,1.6,0.8c0.6,0.2,1.2,0.3,1.9,0.3H489c1,0,2.2,0.2,3.5,0.5c1.3,0.4,2.5,1,3.7,1.8
		c1.1,0.9,2.1,2.1,2.9,3.6c0.8,1.5,1.2,3.4,1.2,5.7c0,2.3-0.4,4.2-1.2,5.7c-0.8,1.5-1.7,2.7-2.9,3.5c-1.1,0.9-2.4,1.5-3.7,1.8
		c-1.3,0.4-2.5,0.5-3.5,0.5h-25.6v-6.7h21.8c0.7,0,1.4-0.1,2-0.4c0.6-0.3,1.2-0.6,1.6-1c0.5-0.4,0.8-0.9,1.1-1.5
		c0.3-0.6,0.4-1.2,0.4-2c0-1.4-0.5-2.6-1.5-3.5c-1-0.9-2.2-1.4-3.6-1.4H473c-1.1,0-2.3-0.2-3.6-0.5c-1.3-0.3-2.5-0.9-3.7-1.8
		c-1.1-0.9-2.1-2-2.9-3.5c-0.8-1.5-1.2-3.4-1.2-5.7c0-2.3,0.4-4.2,1.2-5.6c0.8-1.5,1.7-2.6,2.9-3.5c1.1-0.9,2.4-1.5,3.7-1.8
		c1.3-0.3,2.5-0.5,3.6-0.5h25.2V19.2z"/>
	<path fill="#09347A" d="M204.2,80H190c-3.4,0-5.9,1.1-7.3,3.3c-1.5,2.2-2.2,5.4-2.2,9.7c0,4.2,0.7,7.4,2.2,9.7
		c1.5,2.2,3.9,3.3,7.3,3.3h14.2v6.7h-16.7c-5.3,0-9.4-1.7-12.2-5.1c-2.8-3.4-4.2-8.3-4.2-14.6c0-6.4,1.4-11.3,4.2-14.6
		c2.8-3.4,6.8-5.1,12.2-5.1h16.7V80z"/>
	<path fill="#09347A" d="M210.3,85c0.6-2.5,1.6-4.6,3.1-6.4c1.5-1.8,3.5-3.3,6-4.3c2.5-1,5.7-1.6,9.6-1.6c3.9,0,7,0.5,9.6,1.6
		c2.5,1,4.5,2.5,6,4.3c1.5,1.8,2.5,4,3.1,6.4c0.6,2.5,0.9,5.1,0.9,8c0,2.8-0.3,5.4-0.9,7.9c-0.6,2.5-1.6,4.6-3.1,6.4
		c-1.5,1.8-3.5,3.3-6,4.3c-2.5,1.1-5.7,1.6-9.6,1.6c-3.9,0-7.1-0.5-9.6-1.6c-2.5-1.1-4.5-2.5-6-4.3c-1.5-1.8-2.5-4-3.1-6.4
		c-0.6-2.5-0.9-5.1-0.9-7.9C209.4,90.2,209.7,87.5,210.3,85z M223.2,80.4c-1.5,0.8-2.6,1.8-3.3,3.1c-0.8,1.3-1.2,2.8-1.5,4.4
		c-0.2,1.7-0.3,3.4-0.3,5.1c0,1.8,0.1,3.5,0.3,5.1c0.2,1.7,0.7,3.1,1.5,4.4c0.8,1.3,1.9,2.3,3.3,3.1c1.5,0.8,3.4,1.2,5.9,1.2
		c2.5,0,4.4-0.4,5.9-1.2c1.4-0.8,2.5-1.8,3.3-3.1c0.8-1.3,1.2-2.8,1.5-4.4c0.2-1.7,0.3-3.4,0.3-5.1c0-1.8-0.1-3.5-0.3-5.1
		c-0.2-1.7-0.7-3.1-1.5-4.4c-0.8-1.3-1.9-2.3-3.3-3.1c-1.4-0.8-3.4-1.2-5.9-1.2C226.6,79.2,224.7,79.6,223.2,80.4z"/>
	<path fill="#09347A" d="M264.7,111.9c-1.6-0.5-3.1-1.3-4.3-2.4c-1.2-1.1-2.2-2.6-3-4.4c-0.7-1.8-1.1-4.1-1.1-6.7V73.3h8.3v24.6
		c0,1.2,0.2,2.3,0.6,3.2c0.4,1,0.9,1.8,1.6,2.6c0.7,0.7,1.5,1.3,2.5,1.7c1,0.4,2.1,0.6,3.4,0.6h10.8v6.7h-13.7
		C268.1,112.7,266.4,112.4,264.7,111.9z"/>
	<path fill="#09347A" d="M298.1,111.9c-1.6-0.5-3.1-1.3-4.3-2.4c-1.2-1.1-2.2-2.6-3-4.4c-0.7-1.8-1.1-4.1-1.1-6.7V73.3h8.3v24.6
		c0,1.2,0.2,2.3,0.6,3.2c0.4,1,0.9,1.8,1.6,2.6c0.7,0.7,1.5,1.3,2.5,1.7c1,0.4,2.1,0.6,3.4,0.6H317v6.7h-13.7
		C301.5,112.7,299.8,112.4,298.1,111.9z"/>
	<path fill="#09347A" d="M352,96.2h-22.2c0.5,3.4,1.4,5.9,2.9,7.4c1.5,1.5,3.6,2.3,6.5,2.3h13.4v6.7h-15.7c-5.3,0-9.4-1.7-12.2-5.1
		c-2.8-3.4-4.2-8.3-4.2-14.6c0-6.4,1.4-11.3,4.2-14.6c2.8-3.4,6.8-5.1,12.2-5.1h15.7V80h-13.4c-0.9,0-1.9,0.1-2.9,0.3
		c-1,0.2-1.9,0.6-2.8,1.2c-0.9,0.6-1.6,1.6-2.3,2.9c-0.7,1.3-1.1,3.1-1.4,5.3H352V96.2z"/>
	<path fill="#09347A" d="M363.9,107.6c-2.8-3.4-4.2-8.3-4.2-14.6c0-6.4,1.4-11.3,4.2-14.6c2.8-3.4,6.8-5.1,12.2-5.1h20.8V80h-18.4
		c-3.4,0-5.9,1.1-7.3,3.3c-1.5,2.2-2.2,5.4-2.2,9.7c0,4.2,0.7,7.4,2.2,9.7c1.5,2.2,3.9,3.3,7.3,3.3h10.1v-9.7h-10.9v-6.5h19.3v23
		H376C370.7,112.7,366.6,111,363.9,107.6z"/>
	<path fill="#09347A" d="M435.3,96.2h-22.2c0.5,3.4,1.4,5.9,2.9,7.4c1.5,1.5,3.6,2.3,6.5,2.3H436v6.7h-15.7c-5.3,0-9.4-1.7-12.2-5.1
		c-2.8-3.4-4.2-8.3-4.2-14.6c0-6.4,1.4-11.3,4.2-14.6c2.8-3.4,6.8-5.1,12.2-5.1H436V80h-13.4c-0.9,0-1.9,0.1-2.9,0.3
		c-1,0.2-1.9,0.6-2.8,1.2c-0.9,0.6-1.6,1.6-2.3,2.9c-0.7,1.3-1.1,3.1-1.4,5.3h22.2V96.2z"/>
</g>
<g>
	<g>
		
			<linearGradient id="SVGID_1_" gradientUnits="userSpaceOnUse" x1="-552.9478" y1="306.3326" x2="-552.9478" y2="191.266" gradientTransform="matrix(-1 0 0 -1 -489.7762 311.9189)">
			<stop  offset="5.521470e-02" style="stop-color:#C5E7F9"/>
			<stop  offset="0.2638" style="stop-color:#94B4DD"/>
			<stop  offset="0.4969" style="stop-color:#214B8D"/>
		</linearGradient>
		<path fill="url(#SVGID_1_)" d="M5.6,17.1c0-6.4,5.1-11.5,11.5-11.5h92.1c6.4,0,11.5,5.1,11.5,11.5v92.1c0,6.3-5.1,11.5-11.5,11.5
			H17.1c-6.4,0-11.5-5.1-11.5-11.5V17.1z"/>
		
			<linearGradient id="SVGID_2_" gradientUnits="userSpaceOnUse" x1="-552.9478" y1="306.3326" x2="-552.9478" y2="191.266" gradientTransform="matrix(-1 0 0 -1 -489.7762 311.9189)">
			<stop  offset="0.1718" style="stop-color:#0299BD;stop-opacity:0.22"/>
			<stop  offset="0.6503" style="stop-color:#252159"/>
			<stop  offset="0.7114" style="stop-color:#2E3F66;stop-opacity:0.8479"/>
			<stop  offset="0.9102" style="stop-color:#4B9A8D;stop-opacity:0.3534"/>
			<stop  offset="1" style="stop-color:#56BF9D;stop-opacity:0.13"/>
		</linearGradient>
		<path fill="url(#SVGID_2_)" d="M5.6,17.1c0-6.4,5.1-11.5,11.5-11.5h92.1c6.4,0,11.5,5.1,11.5,11.5v92.1c0,6.3-5.1,11.5-11.5,11.5
			H17.1c-6.4,0-11.5-5.1-11.5-11.5V17.1z"/>
	</g>
	<g>
		<path fill="#F4DB19" d="M40.8,25.9c-7.8-0.1-14.3,5.8-14.4,13.3c-0.1,7.5,6.1,13.6,13.9,13.8c7.8,0.1,14.2-5.8,14.4-13.3
			C54.9,32.2,48.7,26.1,40.8,25.9L40.8,25.9z"/>
		
			<radialGradient id="SVGID_3_" cx="41.0283" cy="38.8923" r="13.8934" gradientTransform="matrix(0.9962 0 0 0.9962 -0.2641 0.6964)" gradientUnits="userSpaceOnUse">
			<stop  offset="0" style="stop-color:#F3DF32;stop-opacity:0.22"/>
			<stop  offset="1" style="stop-color:#FFEF00"/>
		</radialGradient>
		<path opacity="0.71" fill="url(#SVGID_3_)" d="M40.8,25.9c-7.8-0.1-14.3,5.8-14.4,13.3c-0.1,7.5,6.1,13.6,13.9,13.8
			c7.8,0.1,14.2-5.8,14.4-13.3C54.9,32.2,48.7,26.1,40.8,25.9L40.8,25.9z"/>
		
			<linearGradient id="SVGID_4_" gradientUnits="userSpaceOnUse" x1="41.0283" y1="25.3101" x2="41.0283" y2="52.4746" gradientTransform="matrix(0.9962 0 0 0.9962 -0.2641 0.6964)">
			<stop  offset="0" style="stop-color:#FFFFFF;stop-opacity:0.77"/>
			<stop  offset="0.45" style="stop-color:#FFFFFF;stop-opacity:0"/>
			<stop  offset="0.4718" style="stop-color:#FCF0DC;stop-opacity:6.335774e-03"/>
			<stop  offset="0.4993" style="stop-color:#F9E1B8;stop-opacity:1.434154e-02"/>
			<stop  offset="0.5303" style="stop-color:#F6D398;stop-opacity:2.335789e-02"/>
			<stop  offset="0.5645" style="stop-color:#F3C77C;stop-opacity:3.332349e-02"/>
			<stop  offset="0.6032" style="stop-color:#F1BE66;stop-opacity:4.457667e-02"/>
			<stop  offset="0.6484" style="stop-color:#F0B755;stop-opacity:5.771699e-02"/>
			<stop  offset="0.7042" style="stop-color:#EFB24A;stop-opacity:7.396341e-02"/>
			<stop  offset="0.7826" style="stop-color:#EEAF43;stop-opacity:9.674752e-02"/>
			<stop  offset="1" style="stop-color:#EEAE41;stop-opacity:0.16"/>
		</linearGradient>
		<path fill="url(#SVGID_4_)" d="M40.8,25.9c-7.8-0.1-14.3,5.8-14.4,13.3c-0.1,7.5,6.1,13.6,13.9,13.8c7.8,0.1,14.2-5.8,14.4-13.3
			C54.9,32.2,48.7,26.1,40.8,25.9L40.8,25.9z"/>
		
			<linearGradient id="SVGID_5_" gradientUnits="userSpaceOnUse" x1="41.0283" y1="25.3101" x2="41.0283" y2="52.4746" gradientTransform="matrix(0.9962 0 0 0.9962 -0.2641 0.6964)">
			<stop  offset="0" style="stop-color:#FFFFFF;stop-opacity:0.77"/>
			<stop  offset="0.45" style="stop-color:#FFFFFF;stop-opacity:0"/>
			<stop  offset="0.4718" style="stop-color:#FCF0DC;stop-opacity:6.335774e-03"/>
			<stop  offset="0.4993" style="stop-color:#F9E1B8;stop-opacity:1.434154e-02"/>
			<stop  offset="0.5303" style="stop-color:#F6D398;stop-opacity:2.335789e-02"/>
			<stop  offset="0.5645" style="stop-color:#F3C77C;stop-opacity:3.332349e-02"/>
			<stop  offset="0.6032" style="stop-color:#F1BE66;stop-opacity:4.457667e-02"/>
			<stop  offset="0.6484" style="stop-color:#F0B755;stop-opacity:5.771699e-02"/>
			<stop  offset="0.7042" style="stop-color:#EFB24A;stop-opacity:7.396341e-02"/>
			<stop  offset="0.7826" style="stop-color:#EEAF43;stop-opacity:9.674752e-02"/>
			<stop  offset="1" style="stop-color:#EEAE41;stop-opacity:0.16"/>
		</linearGradient>
		<path fill="url(#SVGID_5_)" d="M40.8,25.9c-7.8-0.1-14.3,5.8-14.4,13.3c-0.1,7.5,6.1,13.6,13.9,13.8c7.8,0.1,14.2-5.8,14.4-13.3
			C54.9,32.2,48.7,26.1,40.8,25.9L40.8,25.9z"/>
	</g>
	<g>
		<defs>
			<rect id="SVGID_6_" x="5.6" y="24.1" width="115" height="56.9"/>
		</defs>
		<clipPath id="SVGID_7_">
			<use xlink:href="#SVGID_6_"  overflow="visible"/>
		</clipPath>
		<g clip-path="url(#SVGID_7_)">
			<linearGradient id="SVGID_8_" gradientUnits="userSpaceOnUse" x1="92.3745" y1="81.0072" x2="92.3745" y2="36.6084">
				<stop  offset="0.3926" style="stop-color:#AF2429"/>
				<stop  offset="0.4768" style="stop-color:#B42C28"/>
				<stop  offset="0.6076" style="stop-color:#C14226"/>
				<stop  offset="0.7688" style="stop-color:#D66623"/>
				<stop  offset="0.9524" style="stop-color:#F3971F"/>
				<stop  offset="0.9755" style="stop-color:#F79E1E"/>
			</linearGradient>
			<path fill="url(#SVGID_8_)" d="M64.1,54.8c5.9-5.5,11.8-12.6,18.5-17.3c4.2-3.1,9.9,3,16.5,4.3c2.9,0.6,4.6,5.1,7,7.6
				c1.6,0.8,6.1,1.4,7.7,2.3c2,1,4.9,4.7,6.8,5.9c0.1,11.7,0,23.4,0,23.4s-17.5-12.8-38.3-12.6C79.7,66.7,63.3,55.6,64.1,54.8
				L64.1,54.8z"/>
			<linearGradient id="SVGID_9_" gradientUnits="userSpaceOnUse" x1="92.3745" y1="81.0072" x2="92.3745" y2="36.6084">
				<stop  offset="0" style="stop-color:#DC8027"/>
				<stop  offset="1" style="stop-color:#F8D961"/>
			</linearGradient>
			<path opacity="0.3" fill="url(#SVGID_9_)" d="M64.1,54.8c5.9-5.5,11.8-12.6,18.5-17.3c4.2-3.1,9.9,3,16.5,4.3
				c2.9,0.6,4.6,5.1,7,7.6c1.6,0.8,6.1,1.4,7.7,2.3c2,1,4.9,4.7,6.8,5.9c0.1,11.7,0,23.4,0,23.4s-17.5-12.8-38.3-12.6
				C79.7,66.7,63.3,55.6,64.1,54.8L64.1,54.8z"/>
		</g>
		<g clip-path="url(#SVGID_7_)">
			<linearGradient id="SVGID_10_" gradientUnits="userSpaceOnUse" x1="63.9201" y1="68.5237" x2="63.9201" y2="47.1755">
				<stop  offset="0.3926" style="stop-color:#AF2429"/>
				<stop  offset="0.4768" style="stop-color:#B42C28"/>
				<stop  offset="0.6076" style="stop-color:#C14226"/>
				<stop  offset="0.7688" style="stop-color:#D66623"/>
				<stop  offset="0.9524" style="stop-color:#F3971F"/>
				<stop  offset="0.9755" style="stop-color:#F79E1E"/>
			</linearGradient>
			<path fill="url(#SVGID_10_)" d="M39.5,52.6c5.9-6.3,8-6.7,20.7-3.3c6.1,3.7,19.1,12.5,28.1,19.1c-10.4-0.2-19.5,0.2-27.3,0.1
				C54.6,63.1,47.6,58.1,39.5,52.6L39.5,52.6z"/>
			<linearGradient id="SVGID_11_" gradientUnits="userSpaceOnUse" x1="63.9201" y1="68.5237" x2="63.9201" y2="47.1755">
				<stop  offset="0" style="stop-color:#DC8027"/>
				<stop  offset="1" style="stop-color:#F8D961"/>
			</linearGradient>
			<path opacity="0.3" fill="url(#SVGID_11_)" d="M39.5,52.6c5.9-6.3,8-6.7,20.7-3.3c6.1,3.7,19.1,12.5,28.1,19.1
				c-10.4-0.2-19.5,0.2-27.3,0.1C54.6,63.1,47.6,58.1,39.5,52.6L39.5,52.6z"/>
		</g>
		<g clip-path="url(#SVGID_7_)">
			<linearGradient id="SVGID_12_" gradientUnits="userSpaceOnUse" x1="33.7876" y1="74.3042" x2="33.7876" y2="44.1998">
				<stop  offset="0.3926" style="stop-color:#AF2429"/>
				<stop  offset="0.4768" style="stop-color:#B42C28"/>
				<stop  offset="0.6076" style="stop-color:#C14226"/>
				<stop  offset="0.7688" style="stop-color:#D66623"/>
				<stop  offset="0.9524" style="stop-color:#F3971F"/>
				<stop  offset="0.9755" style="stop-color:#F79E1E"/>
			</linearGradient>
			<path fill="url(#SVGID_12_)" d="M5.9,56.6c0-7.3,12.1-9.2,18.7-12c4.6-1.9,4.9,3.3,4.9,3.3s-0.3-0.2,2.8-0.2
				c3,1.1,29.5,21.1,29.5,21.1L5.7,74.3C5.7,74.3,5.8,68.8,5.9,56.6z"/>
			<linearGradient id="SVGID_13_" gradientUnits="userSpaceOnUse" x1="33.7876" y1="74.3042" x2="33.7876" y2="44.1998">
				<stop  offset="0" style="stop-color:#DC8027"/>
				<stop  offset="1" style="stop-color:#F8D961"/>
			</linearGradient>
			<path opacity="0.3" fill="url(#SVGID_13_)" d="M5.9,56.6c0-7.3,12.1-9.2,18.7-12c4.6-1.9,4.9,3.3,4.9,3.3s-0.3-0.2,2.8-0.2
				c3,1.1,29.5,21.1,29.5,21.1L5.7,74.3C5.7,74.3,5.8,68.8,5.9,56.6z"/>
		</g>
	</g>
	<g>
		
			<linearGradient id="SVGID_14_" gradientUnits="userSpaceOnUse" x1="-552.9478" y1="251.9524" x2="-552.9478" y2="191.266" gradientTransform="matrix(-1 0 0 -1 -489.7762 311.9189)">
			<stop  offset="0" style="stop-color:#36B24A"/>
			<stop  offset="0.1383" style="stop-color:#5CBB45"/>
			<stop  offset="0.2786" style="stop-color:#7CC341"/>
			<stop  offset="0.397" style="stop-color:#8FC73F"/>
			<stop  offset="0.4785" style="stop-color:#96C93E"/>
			<stop  offset="0.5517" style="stop-color:#92C43D"/>
			<stop  offset="0.6346" style="stop-color:#87B739"/>
			<stop  offset="0.7224" style="stop-color:#75A034"/>
			<stop  offset="0.8135" style="stop-color:#5B802C"/>
			<stop  offset="0.9068" style="stop-color:#3A5721"/>
			<stop  offset="1" style="stop-color:#132715"/>
		</linearGradient>
		<path fill="url(#SVGID_14_)" d="M5.6,72.7v36.5c0,6.3,5.1,11.5,11.5,11.5h92.1c6.4,0,11.5-5.1,11.5-11.5V72.7
			c0,0-21.1-12.7-57.5-12.7C26.7,60,5.6,72.7,5.6,72.7z"/>
		
			<linearGradient id="SVGID_15_" gradientUnits="userSpaceOnUse" x1="-552.9478" y1="251.9524" x2="-552.9478" y2="191.266" gradientTransform="matrix(-1 0 0 -1 -489.7762 311.9189)">
			<stop  offset="0" style="stop-color:#C2D72F;stop-opacity:0.13"/>
			<stop  offset="0.1127" style="stop-color:#B5D030;stop-opacity:0.2089"/>
			<stop  offset="0.3212" style="stop-color:#93BE34;stop-opacity:0.3548"/>
			<stop  offset="0.6026" style="stop-color:#5BA039;stop-opacity:0.5518"/>
			<stop  offset="0.9429" style="stop-color:#0F7741;stop-opacity:0.79"/>
			<stop  offset="1" style="stop-color:#027042;stop-opacity:0.83"/>
		</linearGradient>
		<path opacity="0.9" fill="url(#SVGID_15_)" d="M5.6,72.7v36.5c0,6.3,5.1,11.5,11.5,11.5h92.1c6.4,0,11.5-5.1,11.5-11.5V72.7
			c0,0-21.1-12.7-57.5-12.7C26.7,60,5.6,72.7,5.6,72.7z"/>
		
			<linearGradient id="SVGID_16_" gradientUnits="userSpaceOnUse" x1="-552.9478" y1="191.266" x2="-552.9478" y2="251.9524" gradientTransform="matrix(-1 0 0 -1 -489.7762 311.9189)">
			<stop  offset="0" style="stop-color:#0C1C16;stop-opacity:0.16"/>
			<stop  offset="5.429826e-02" style="stop-color:#293832;stop-opacity:0.1423"/>
			<stop  offset="0.2717" style="stop-color:#9BA29F;stop-opacity:7.141008e-02"/>
			<stop  offset="0.4216" style="stop-color:#E3E5E4;stop-opacity:2.256337e-02"/>
			<stop  offset="0.4908" style="stop-color:#FFFFFF;stop-opacity:0"/>
			<stop  offset="1" style="stop-color:#FBED1D;stop-opacity:0.77"/>
		</linearGradient>
		<path fill="url(#SVGID_16_)" d="M5.6,72.7v36.5c0,6.3,5.1,11.5,11.5,11.5h92.1c6.4,0,11.5-5.1,11.5-11.5V72.7
			c0,0-21.1-12.7-57.5-12.7C26.7,60,5.6,72.7,5.6,72.7z"/>
	</g>
	<g>
		
			<linearGradient id="SVGID_17_" gradientUnits="userSpaceOnUse" x1="76.4417" y1="120.4107" x2="76.4417" y2="60.8849" gradientTransform="matrix(0.9962 0 0 0.9962 -0.2641 0.6964)">
			<stop  offset="0" style="stop-color:#4463AA"/>
			<stop  offset="0.5215" style="stop-color:#4868AE"/>
			<stop  offset="0.9831" style="stop-color:#52C7E8"/>
		</linearGradient>
		<path fill="url(#SVGID_17_)" d="M120.6,110.9C94,107.4,59.3,90.1,48.9,82.5c-2.5-2.4-5.9-4.3-0.9-6.9c4.3-2.2,8.9-1.4,12.2-4.1
			c4-3.3-1.1-5.3-3.2-6.1c-2.4-1-15.6-3.9-15-4c-1.5,0.5-10.5,1.8-10.5,1.8c6.6,1.9,11.2,3.1,16.1,4.4c1.7,0.5,3.2,1.8,0.5,2.5
			c-6.1,1.4-14.9,1.9-16.8,6.7c-1,2.5,1.9,5,6.9,8.9c14.9,11.6,63.2,35.1,69.8,35.1C119.3,120.7,120.6,110.9,120.6,110.9z"/>
		
			<linearGradient id="SVGID_18_" gradientUnits="userSpaceOnUse" x1="76.4417" y1="120.4107" x2="76.4417" y2="60.8849" gradientTransform="matrix(0.9962 0 0 0.9962 -0.2641 0.6964)">
			<stop  offset="0" style="stop-color:#1B75BA;stop-opacity:0.67"/>
			<stop  offset="8.427039e-02" style="stop-color:#1089AD;stop-opacity:0.7313"/>
			<stop  offset="0.1829" style="stop-color:#0799A3;stop-opacity:0.8029"/>
			<stop  offset="0.2959" style="stop-color:#02A29D;stop-opacity:0.8851"/>
			<stop  offset="0.454" style="stop-color:#00A59B"/>
			<stop  offset="0.6123" style="stop-color:#059CA1;stop-opacity:0.8231"/>
			<stop  offset="0.8698" style="stop-color:#1384B0;stop-opacity:0.5355"/>
			<stop  offset="1" style="stop-color:#1B75BA;stop-opacity:0.39"/>
		</linearGradient>
		<path fill="url(#SVGID_18_)" d="M120.6,110.9C94,107.4,59.3,90.1,48.9,82.5c-2.5-2.4-5.9-4.3-0.9-6.9c4.3-2.2,8.9-1.4,12.2-4.1
			c4-3.3-1.1-5.3-3.2-6.1c-2.4-1-15.6-3.9-15-4c-1.5,0.5-10.5,1.8-10.5,1.8c6.6,1.9,11.2,3.1,16.1,4.4c1.7,0.5,3.2,1.8,0.5,2.5
			c-6.1,1.4-14.9,1.9-16.8,6.7c-1,2.5,1.9,5,6.9,8.9c14.9,11.6,63.2,35.1,69.8,35.1C119.3,120.7,120.6,110.9,120.6,110.9z"/>
		
			<linearGradient id="SVGID_19_" gradientUnits="userSpaceOnUse" x1="76.4417" y1="60.8849" x2="76.4417" y2="120.4107" gradientTransform="matrix(0.9962 0 0 0.9962 -0.2641 0.6964)">
			<stop  offset="0" style="stop-color:#28499B;stop-opacity:0.16"/>
			<stop  offset="4.109114e-02" style="stop-color:#3A58A3;stop-opacity:0.1412"/>
			<stop  offset="0.1232" style="stop-color:#687FB9;stop-opacity:0.1036"/>
			<stop  offset="0.2373" style="stop-color:#B1BDDB;stop-opacity:5.140485e-02"/>
			<stop  offset="0.3497" style="stop-color:#FFFFFF;stop-opacity:0"/>
			<stop  offset="1" style="stop-color:#FFFFFF;stop-opacity:0.77"/>
		</linearGradient>
		<path opacity="0.7" fill="url(#SVGID_19_)" d="M120.6,110.9C94,107.4,59.3,90.1,48.9,82.5c-2.5-2.4-5.9-4.3-0.9-6.9
			c4.3-2.2,8.9-1.4,12.2-4.1c4-3.3-1.1-5.3-3.2-6.1c-2.4-1-15.6-3.9-15-4c-1.5,0.5-10.5,1.8-10.5,1.8c6.6,1.9,11.2,3.1,16.1,4.4
			c1.7,0.5,3.2,1.8,0.5,2.5c-6.1,1.4-14.9,1.9-16.8,6.7c-1,2.5,1.9,5,6.9,8.9c14.9,11.6,63.2,35.1,69.8,35.1
			C119.3,120.7,120.6,110.9,120.6,110.9z"/>
		<g opacity="0.49">
			<path fill="#FFFFFF" d="M108,120.1c-5.5-0.2-11.5-3.7-16.4-5.9c-9-4-17.8-8.3-26.4-12.9c-8.1-4.3-16.2-8.7-23.7-13.9
				c-2.9-2-10-5.9-9.9-9.8c0.1-5.2,11-5.9,14.6-6.6c11-2.2-6.2-6-8.8-6.7c-1.7-0.5-3.9-0.4-1.5-1.2c1.2-0.4,2.8-0.5,4.1-0.7
				c2.1-0.3,3.2,0,5.3,0.6c3.9,1,11.6,1.4,14.7,4.6c5,5.2-14.9,5.8-15.1,10.7c-0.1,3.1,5.2,6,7.6,7.4c4,2.5,8.2,4.8,12.4,6.9
				c12.6,6.4,25.8,11.8,39.5,15.5c3.3,0.9,6.7,1.7,10.1,2.4c0.9,0.2,5.2,0.4,5.5,0.9c0.2,0.3-0.5,1.4-0.6,1.7
				C118,118,112.6,119.9,108,120.1c0,0,0,0.3,0,0.3c5.8-0.2,10.7-3.1,12.1-9.1c0,0,0-0.3,0-0.3c-14.4-2.1-28.3-6.9-41.6-12.6
				c-9.9-4.2-20.7-8.8-29.3-15.4c-13.8-10.6,13.5-6.9,12.1-14.2c-0.6-3.3-8-4.3-10.4-4.9c-2.7-0.7-5.8-2-8.6-2.2
				c-2.8-0.2-6.1,0.9-8.9,1.4c0,0,0,0.3,0,0.3c3.1,0.9,6.1,1.7,9.2,2.5c1.6,0.4,9.3,1.6,6.3,4c-1.8,1.4-6.1,1.3-8.3,1.8
				c-2.6,0.6-5.8,1.2-7.7,3.2c-4.4,4.4,3.6,9.1,6.7,11.3c14.8,11,32.4,19.3,49.1,26.9c5.7,2.6,12.9,7,19.3,7.2
				C108,120.4,108.1,120.1,108,120.1z"/>
		</g>
	</g>
	<path fill="#09347A" d="M109.1,0H17.2C7.7,0,0,7.7,0,17.2v91.9c0,9.5,7.7,17.2,17.2,17.2h91.9c9.5,0,17.2-7.7,17.2-17.2V17.2
		C126.2,7.7,118.5,0,109.1,0z M120.3,17.2v91.9c0,6.2-5,11.2-11.2,11.2H17.2c-6.2,0-11.2-5-11.2-11.2V17.2c0-6.2,5-11.2,11.2-11.2
		h91.9C115.3,5.9,120.3,11,120.3,17.2z"/>
</g>
</svg>
