<?xml version="1.0" encoding="utf-8"?>
<!-- Generator: Adobe Illustrator 21.0.0, SVG Export Plug-In . SVG Version: 6.00 Build 0)  -->
<svg version="1.1" id="Layer_1" xmlns="http://www.w3.org/2000/svg" xmlns:xlink="http://www.w3.org/1999/xlink" x="0px" y="0px"
	 width="500px" height="95.6px" viewBox="0 0 500 95.6" enable-background="new 0 0 500 95.6" xml:space="preserve">
<g>
	<polygon fill="#005DAA" points="112.7,17 116.3,36.2 116.4,36.2 121.7,17 127.8,17 133.1,36.2 133.2,36.2 136.7,17 142.4,17 
		136.2,43 130,43 124.8,23.7 124.7,23.7 119.4,43 113.3,43 107.1,17 	"/>
	<path fill="#005DAA" d="M163.9,32.1H150c0.6,4.5,2.3,6.4,5.9,6.4h8.4V43h-9.8c-6.6,0-10.2-4.6-10.2-13c0-8.4,3.6-13,10.2-13h9.8
		v4.4h-8.4c-2.3,0-5.2,0.4-5.9,6.4h13.9V32.1z"/>
	<path fill="#005DAA" d="M190,21.4h-13.4c-1.7,0-3.2,1-3.2,3.1c0,2.3,1.5,3.1,3.2,3.1h7.7c2.6,0,7,1.6,7,7.7c0,6-4.4,7.7-7,7.7
		h-16.1v-4.4h13.6c1.8,0,3.2-1.4,3.2-3.2c0-1.9-1.4-3.2-3.2-3.2h-7.6c-2.7,0-7.1-1.5-7.1-7.6c0-6,4.4-7.6,7.1-7.6H190V21.4z"/>
	<polygon fill="#005DAA" points="214.7,17 214.7,21.4 206.4,21.4 206.4,43 201.2,43 201.2,21.4 192.9,21.4 192.9,17 	"/>
	<polygon fill="#005DAA" points="225,17 230.7,17 230.7,27.8 241.7,27.8 241.7,17 247.4,17 247.4,43 241.7,43 241.7,32.1 
		230.7,32.1 230.7,43 225,43 	"/>
	<rect x="254.7" y="17" fill="#005DAA" width="5.2" height="26"/>
	<path fill="#005DAA" d="M266.5,33.6V17h5.2v16.2c0,3.1,1.9,5.3,5.1,5.3h6.8V43H275C270.5,43,266.5,40.5,266.5,33.6"/>
	<path fill="#005DAA" d="M286.5,33.6V17h5.2v16.2c0,3.1,1.9,5.3,5.1,5.3h6.8V43H295C290.4,43,286.5,40.5,286.5,33.6"/>
	<path fill="#005DAA" d="M328.3,21.4h-13.4c-1.7,0-3.2,1-3.2,3.1c0,2.3,1.5,3.1,3.2,3.1h7.7c2.6,0,7,1.6,7,7.7c0,6-4.4,7.7-7,7.7
		h-16.1v-4.4h13.6c1.8,0,3.2-1.4,3.2-3.2c0-1.9-1.4-3.2-3.2-3.2h-7.6c-2.7,0-7.1-1.5-7.1-7.6c0-6,4.4-7.6,7.1-7.6h15.8V21.4z"/>
	<path fill="#005DAA" d="M360.7,21.4h-8.9c-4.3,0-6,3-6,8.6c0,5.5,1.7,8.6,6,8.6h8.9V43h-10.4c-6.6,0-10.2-4.6-10.2-13
		c0-8.4,3.6-13,10.2-13h10.4V21.4z"/>
	<path fill="#005DAA" d="M375.3,16.6c9.7,0,12.3,5.9,12.3,13.4c0,7.4-2.6,13.4-12.3,13.4c-9.7,0-12.3-5.9-12.3-13.4
		C363,22.5,365.6,16.6,375.3,16.6 M368.4,30c0,4.6,0.7,9.1,6.9,9.1c6.2,0,6.9-4.4,6.9-9.1c0-4.6-0.7-9.1-6.9-9.1
		C369.1,20.9,368.4,25.3,368.4,30"/>
	<path fill="#005DAA" d="M391.4,33.6V17h5.2v16.2c0,3.1,1.9,5.3,5.1,5.3h6.8V43h-8.6C395.3,43,391.4,40.5,391.4,33.6"/>
	<path fill="#005DAA" d="M411.3,33.6V17h5.2v16.2c0,3.1,1.9,5.3,5.1,5.3h6.8V43h-8.6C415.3,43,411.3,40.5,411.3,33.6"/>
	<path fill="#005DAA" d="M449.3,32.1h-13.9c0.6,4.5,2.3,6.4,5.9,6.4h8.4V43h-9.8c-6.6,0-10.2-4.6-10.2-13c0-8.4,3.6-13,10.2-13h9.8
		v4.4h-8.4c-2.3,0-5.2,0.4-5.9,6.4h13.9V32.1z"/>
	<path fill="#005DAA" d="M453.2,30c0-8.4,3.6-13,10.2-13h13v4.4H465c-4.3,0-6,3-6,8.6c0,5.5,1.7,8.6,6,8.6h6.3v-6.4h-6.9v-4.3h12.1
		V43h-13C456.8,43,453.2,38.3,453.2,30"/>
	<path fill="#005DAA" d="M499.6,32.1h-13.9c0.6,4.5,2.3,6.4,5.9,6.4h8.4V43h-9.8c-6.6,0-10.2-4.6-10.2-13c0-8.4,3.6-13,10.2-13h9.8
		v4.4h-8.4c-2.3,0-5.2,0.4-5.9,6.4h13.9V32.1z"/>
	<path fill="#C41230" d="M176.7,78.6h-11.5c-7.3,0-11.3-4.6-11.3-13c0-8.4,4-13,11.3-13h11.5v5.6h-9.9c-3.9,0-5.7,2.7-5.7,7.5
		c0,4.7,1.8,7.5,5.7,7.5h9.9V78.6z"/>
	<path fill="#C41230" d="M204.3,52.2c10.7,0,13.6,5.9,13.6,13.4c0,7.4-2.9,13.4-13.6,13.4c-10.7,0-13.6-6-13.6-13.4
		C190.7,58.1,193.6,52.2,204.3,52.2 M197.7,65.6c0,4.3,0.8,8,6.6,8c5.8,0,6.6-3.7,6.6-8c0-4.3-0.8-8-6.6-8
		C198.5,57.6,197.7,61.3,197.7,65.6"/>
	<path fill="#C41230" d="M243.7,52.6h5.8l11.5,26H254l-2.3-5.6h-10l-2.3,5.6h-7.1L243.7,52.6z M243.8,68h5.8l-2.9-6.9L243.8,68z"/>
	<path fill="#C41230" d="M276.4,69.2V52.6h6.7v16c0,2.3,1.1,4.4,4.6,4.4h7.5v5.6h-9.5C280.3,78.6,276.4,75.6,276.4,69.2"/>
	<rect x="312.8" y="52.6" fill="#C41230" width="6.7" height="26"/>
	<polygon fill="#C41230" points="339.8,78.6 339.8,52.6 348.1,52.6 357.2,68.4 357.3,68.4 357.3,52.6 364.1,52.6 364.1,78.6 
		355.7,78.6 346.7,62.8 346.6,62.8 346.6,78.6 	"/>
	<path fill="#C41230" d="M400.9,68.3h-6v-5.3h12.7v15.7h-14.4c-7.3,0-11.3-4.6-11.3-13c0-8.4,4-13,11.3-13h14.4v5.6h-12.7
		c-3.9,0-5.7,2.7-5.7,7.5c0,4.7,1.8,7.5,5.7,7.5h6V68.3z"/>
	<path fill="#C41230" d="M435.9,52.6h5.8l11.5,26h-7.1l-2.3-5.6h-10l-2.3,5.6h-7.1L435.9,52.6z M436,68h5.8l-2.9-6.9L436,68z"/>
</g>
<g>
	<g>
		
			<linearGradient id="SVGID_1_" gradientUnits="userSpaceOnUse" x1="-655.4222" y1="-68.9101" x2="-655.4222" y2="-156.0458" gradientTransform="matrix(-1 0 0 -1 -607.5846 -64.6805)">
			<stop  offset="5.521470e-02" style="stop-color:#C5E6F9"/>
			<stop  offset="0.2638" style="stop-color:#94B4DD"/>
			<stop  offset="0.4969" style="stop-color:#224C8D"/>
		</linearGradient>
		<path fill="url(#SVGID_1_)" d="M4.3,12.9c0-4.8,3.9-8.7,8.7-8.7h69.7c4.8,0,8.7,3.9,8.7,8.7v69.7c0,4.8-3.9,8.7-8.7,8.7H13
			c-4.8,0-8.7-3.9-8.7-8.7V12.9z"/>
		
			<linearGradient id="SVGID_2_" gradientUnits="userSpaceOnUse" x1="-655.4222" y1="-68.9101" x2="-655.4222" y2="-156.0458" gradientTransform="matrix(-1 0 0 -1 -607.5846 -64.6805)">
			<stop  offset="0.1718" style="stop-color:#0F99BD;stop-opacity:0.22"/>
			<stop  offset="0.6503" style="stop-color:#242359"/>
			<stop  offset="0.8104" style="stop-color:#376678;stop-opacity:0.6017"/>
			<stop  offset="0.9414" style="stop-color:#4DA192;stop-opacity:0.2758"/>
			<stop  offset="1" style="stop-color:#57C09E;stop-opacity:0.13"/>
		</linearGradient>
		<path fill="url(#SVGID_2_)" d="M4.3,12.9c0-4.8,3.9-8.7,8.7-8.7h69.7c4.8,0,8.7,3.9,8.7,8.7v69.7c0,4.8-3.9,8.7-8.7,8.7H13
			c-4.8,0-8.7-3.9-8.7-8.7V12.9z"/>
	</g>
	<g>
		<path fill="#F3DB17" d="M30.9,19.6C25,19.5,20.1,24,20,29.7c-0.1,5.7,4.6,10.3,10.5,10.4c5.9,0.1,10.8-4.4,10.9-10.1
			C41.6,24.4,36.8,19.7,30.9,19.6L30.9,19.6z"/>
		
			<radialGradient id="SVGID_3_" cx="31.3566" cy="29.9941" r="10.5209" gradientTransform="matrix(0.9962 0 0 0.9962 -0.4863 -1.377007e-02)" gradientUnits="userSpaceOnUse">
			<stop  offset="0" style="stop-color:#F3DF34;stop-opacity:0.22"/>
			<stop  offset="1" style="stop-color:#FDEE0E"/>
		</radialGradient>
		<path opacity="0.71" fill="url(#SVGID_3_)" d="M30.9,19.6C25,19.5,20.1,24,20,29.7c-0.1,5.7,4.6,10.3,10.5,10.4
			c5.9,0.1,10.8-4.4,10.9-10.1C41.6,24.4,36.8,19.7,30.9,19.6L30.9,19.6z"/>
		
			<linearGradient id="SVGID_4_" gradientUnits="userSpaceOnUse" x1="31.3566" y1="19.7088" x2="31.3566" y2="40.2795" gradientTransform="matrix(0.9962 0 0 0.9962 -0.4863 -1.377007e-02)">
			<stop  offset="0" style="stop-color:#FFFFFF;stop-opacity:0.77"/>
			<stop  offset="0.45" style="stop-color:#FFFFFF;stop-opacity:0"/>
			<stop  offset="0.4718" style="stop-color:#FCF0DC;stop-opacity:6.335774e-03"/>
			<stop  offset="0.4993" style="stop-color:#F9E1B8;stop-opacity:1.434154e-02"/>
			<stop  offset="0.5303" style="stop-color:#F6D398;stop-opacity:2.335789e-02"/>
			<stop  offset="0.5645" style="stop-color:#F3C87C;stop-opacity:3.332349e-02"/>
			<stop  offset="0.6032" style="stop-color:#F1BF66;stop-opacity:4.457667e-02"/>
			<stop  offset="0.6484" style="stop-color:#F0B855;stop-opacity:5.771699e-02"/>
			<stop  offset="0.7042" style="stop-color:#EFB34A;stop-opacity:7.396341e-02"/>
			<stop  offset="0.7826" style="stop-color:#EEB043;stop-opacity:9.674752e-02"/>
			<stop  offset="1" style="stop-color:#EEAF41;stop-opacity:0.16"/>
		</linearGradient>
		<path fill="url(#SVGID_4_)" d="M30.9,19.6C25,19.5,20.1,24,20,29.7c-0.1,5.7,4.6,10.3,10.5,10.4c5.9,0.1,10.8-4.4,10.9-10.1
			C41.6,24.4,36.8,19.7,30.9,19.6L30.9,19.6z"/>
		
			<linearGradient id="SVGID_5_" gradientUnits="userSpaceOnUse" x1="31.3566" y1="19.7088" x2="31.3566" y2="40.2795" gradientTransform="matrix(0.9962 0 0 0.9962 -0.4863 -1.377007e-02)">
			<stop  offset="0" style="stop-color:#FFFFFF;stop-opacity:0.77"/>
			<stop  offset="0.45" style="stop-color:#FFFFFF;stop-opacity:0"/>
			<stop  offset="0.4718" style="stop-color:#FCF0DC;stop-opacity:6.335774e-03"/>
			<stop  offset="0.4993" style="stop-color:#F9E1B8;stop-opacity:1.434154e-02"/>
			<stop  offset="0.5303" style="stop-color:#F6D398;stop-opacity:2.335789e-02"/>
			<stop  offset="0.5645" style="stop-color:#F3C87C;stop-opacity:3.332349e-02"/>
			<stop  offset="0.6032" style="stop-color:#F1BF66;stop-opacity:4.457667e-02"/>
			<stop  offset="0.6484" style="stop-color:#F0B855;stop-opacity:5.771699e-02"/>
			<stop  offset="0.7042" style="stop-color:#EFB34A;stop-opacity:7.396341e-02"/>
			<stop  offset="0.7826" style="stop-color:#EEB043;stop-opacity:9.674752e-02"/>
			<stop  offset="1" style="stop-color:#EEAF41;stop-opacity:0.16"/>
		</linearGradient>
		<path fill="url(#SVGID_5_)" d="M30.9,19.6C25,19.5,20.1,24,20,29.7c-0.1,5.7,4.6,10.3,10.5,10.4c5.9,0.1,10.8-4.4,10.9-10.1
			C41.6,24.4,36.8,19.7,30.9,19.6L30.9,19.6z"/>
	</g>
	<g>
		<defs>
			<rect id="SVGID_6_" x="4.3" y="18.3" width="87.1" height="43.1"/>
		</defs>
		<clipPath id="SVGID_7_">
			<use xlink:href="#SVGID_6_"  overflow="visible"/>
		</clipPath>
		<g clip-path="url(#SVGID_7_)">
			<linearGradient id="SVGID_8_" gradientUnits="userSpaceOnUse" x1="69.9519" y1="61.3431" x2="69.9519" y2="27.7214">
				<stop  offset="0.3926" style="stop-color:#B02529"/>
				<stop  offset="0.4696" style="stop-color:#B32E29"/>
				<stop  offset="0.5892" style="stop-color:#BC432A"/>
				<stop  offset="0.7365" style="stop-color:#CC6129"/>
				<stop  offset="0.9043" style="stop-color:#E68925"/>
				<stop  offset="0.9755" style="stop-color:#F69E21"/>
			</linearGradient>
			<path fill="url(#SVGID_8_)" d="M48.5,41.5c4.5-4.2,8.9-9.5,14-13.1C65.7,26,70,30.6,75,31.6c2.2,0.4,3.5,3.9,5.3,5.7
				c1.2,0.6,4.6,1.1,5.8,1.7c1.5,0.8,3.7,3.6,5.2,4.5c0.1,8.8,0,17.8,0,17.8s-13.3-9.7-29-9.6C60.4,50.5,47.9,42.1,48.5,41.5
				L48.5,41.5z"/>
			<linearGradient id="SVGID_9_" gradientUnits="userSpaceOnUse" x1="69.9519" y1="61.3431" x2="69.9519" y2="27.7214">
				<stop  offset="0" style="stop-color:#DC8028"/>
				<stop  offset="1" style="stop-color:#F8D961"/>
			</linearGradient>
			<path opacity="0.3" fill="url(#SVGID_9_)" d="M48.5,41.5c4.5-4.2,8.9-9.5,14-13.1C65.7,26,70,30.6,75,31.6
				c2.2,0.4,3.5,3.9,5.3,5.7c1.2,0.6,4.6,1.1,5.8,1.7c1.5,0.8,3.7,3.6,5.2,4.5c0.1,8.8,0,17.8,0,17.8s-13.3-9.7-29-9.6
				C60.4,50.5,47.9,42.1,48.5,41.5L48.5,41.5z"/>
		</g>
		<g clip-path="url(#SVGID_7_)">
			<linearGradient id="SVGID_10_" gradientUnits="userSpaceOnUse" x1="48.4044" y1="51.8898" x2="48.4044" y2="35.7236">
				<stop  offset="0.3926" style="stop-color:#B02529"/>
				<stop  offset="0.4696" style="stop-color:#B32E29"/>
				<stop  offset="0.5892" style="stop-color:#BC432A"/>
				<stop  offset="0.7365" style="stop-color:#CC6129"/>
				<stop  offset="0.9043" style="stop-color:#E68925"/>
				<stop  offset="0.9755" style="stop-color:#F69E21"/>
			</linearGradient>
			<path fill="url(#SVGID_10_)" d="M29.9,39.8c4.5-4.8,6-5,15.7-2.5c4.6,2.8,14.5,9.5,21.3,14.4c-7.9-0.1-14.8,0.1-20.7,0.1
				C41.3,47.8,36,44,29.9,39.8L29.9,39.8z"/>
			<linearGradient id="SVGID_11_" gradientUnits="userSpaceOnUse" x1="48.4044" y1="51.8898" x2="48.4044" y2="35.7236">
				<stop  offset="0" style="stop-color:#DC8028"/>
				<stop  offset="1" style="stop-color:#F8D961"/>
			</linearGradient>
			<path opacity="0.3" fill="url(#SVGID_11_)" d="M29.9,39.8c4.5-4.8,6-5,15.7-2.5c4.6,2.8,14.5,9.5,21.3,14.4
				c-7.9-0.1-14.8,0.1-20.7,0.1C41.3,47.8,36,44,29.9,39.8L29.9,39.8z"/>
		</g>
		<g clip-path="url(#SVGID_7_)">
			<linearGradient id="SVGID_12_" gradientUnits="userSpaceOnUse" x1="25.5862" y1="56.2671" x2="25.5862" y2="33.4701">
				<stop  offset="0.3926" style="stop-color:#B02529"/>
				<stop  offset="0.4696" style="stop-color:#B32E29"/>
				<stop  offset="0.5892" style="stop-color:#BC432A"/>
				<stop  offset="0.7365" style="stop-color:#CC6129"/>
				<stop  offset="0.9043" style="stop-color:#E68925"/>
				<stop  offset="0.9755" style="stop-color:#F69E21"/>
			</linearGradient>
			<path fill="url(#SVGID_12_)" d="M4.5,42.9c0-5.5,9.2-7,14.2-9.1c3.5-1.5,3.7,2.5,3.7,2.5s-0.2-0.2,2.1-0.1
				c2.3,0.8,22.4,16,22.4,16L4.3,56.3C4.3,56.3,4.4,52.1,4.5,42.9z"/>
			<linearGradient id="SVGID_13_" gradientUnits="userSpaceOnUse" x1="25.5862" y1="56.2671" x2="25.5862" y2="33.4701">
				<stop  offset="0" style="stop-color:#DC8028"/>
				<stop  offset="1" style="stop-color:#F8D961"/>
			</linearGradient>
			<path opacity="0.3" fill="url(#SVGID_13_)" d="M4.5,42.9c0-5.5,9.2-7,14.2-9.1c3.5-1.5,3.7,2.5,3.7,2.5s-0.2-0.2,2.1-0.1
				c2.3,0.8,22.4,16,22.4,16L4.3,56.3C4.3,56.3,4.4,52.1,4.5,42.9z"/>
		</g>
	</g>
	<g>
		
			<linearGradient id="SVGID_14_" gradientUnits="userSpaceOnUse" x1="-655.4222" y1="-110.0902" x2="-655.4222" y2="-156.0458" gradientTransform="matrix(-1 0 0 -1 -607.5846 -64.6805)">
			<stop  offset="0" style="stop-color:#37B24A"/>
			<stop  offset="7.916078e-02" style="stop-color:#56B748"/>
			<stop  offset="0.2439" style="stop-color:#7CC144"/>
			<stop  offset="0.3829" style="stop-color:#90C741"/>
			<stop  offset="0.4785" style="stop-color:#97C940"/>
			<stop  offset="0.546" style="stop-color:#91C140"/>
			<stop  offset="0.6226" style="stop-color:#86B13F"/>
			<stop  offset="0.7036" style="stop-color:#749A3E"/>
			<stop  offset="0.7877" style="stop-color:#5D7D39"/>
			<stop  offset="0.8743" style="stop-color:#425B30"/>
			<stop  offset="0.9615" style="stop-color:#253821"/>
			<stop  offset="1" style="stop-color:#162818"/>
		</linearGradient>
		<path fill="url(#SVGID_14_)" d="M4.3,55v27.6c0,4.8,3.9,8.7,8.7,8.7h69.7c4.8,0,8.7-3.9,8.7-8.7V55c0,0-16-9.6-43.6-9.6
			C20.2,45.4,4.3,55,4.3,55z"/>
		
			<linearGradient id="SVGID_15_" gradientUnits="userSpaceOnUse" x1="-655.4222" y1="-110.0902" x2="-655.4222" y2="-156.0458" gradientTransform="matrix(-1 0 0 -1 -607.5846 -64.6805)">
			<stop  offset="0" style="stop-color:#C1D730;stop-opacity:0.13"/>
			<stop  offset="0.1357" style="stop-color:#B1C835;stop-opacity:0.225"/>
			<stop  offset="0.3869" style="stop-color:#8BAD3D;stop-opacity:0.4008"/>
			<stop  offset="0.7228" style="stop-color:#548B42;stop-opacity:0.636"/>
			<stop  offset="1" style="stop-color:#0A7142;stop-opacity:0.83"/>
		</linearGradient>
		<path opacity="0.9" fill="url(#SVGID_15_)" d="M4.3,55v27.6c0,4.8,3.9,8.7,8.7,8.7h69.7c4.8,0,8.7-3.9,8.7-8.7V55
			c0,0-16-9.6-43.6-9.6C20.2,45.4,4.3,55,4.3,55z"/>
		
			<linearGradient id="SVGID_16_" gradientUnits="userSpaceOnUse" x1="-655.4222" y1="-156.0458" x2="-655.4222" y2="-110.0902" gradientTransform="matrix(-1 0 0 -1 -607.5846 -64.6805)">
			<stop  offset="0" style="stop-color:#0E1D17;stop-opacity:0.16"/>
			<stop  offset="5.099012e-02" style="stop-color:#293731;stop-opacity:0.1434"/>
			<stop  offset="0.2701" style="stop-color:#9BA19F;stop-opacity:7.195096e-02"/>
			<stop  offset="0.4211" style="stop-color:#E3E5E4;stop-opacity:2.273150e-02"/>
			<stop  offset="0.4908" style="stop-color:#FFFFFF;stop-opacity:0"/>
			<stop  offset="1" style="stop-color:#F9ED1F;stop-opacity:0.77"/>
		</linearGradient>
		<path fill="url(#SVGID_16_)" d="M4.3,55v27.6c0,4.8,3.9,8.7,8.7,8.7h69.7c4.8,0,8.7-3.9,8.7-8.7V55c0,0-16-9.6-43.6-9.6
			C20.2,45.4,4.3,55,4.3,55z"/>
	</g>
	<g>
		
			<linearGradient id="SVGID_17_" gradientUnits="userSpaceOnUse" x1="58.1739" y1="91.7251" x2="58.1739" y2="46.6483" gradientTransform="matrix(0.9962 0 0 0.9962 -0.4863 -1.377007e-02)">
			<stop  offset="0" style="stop-color:#4664AA"/>
			<stop  offset="0.5215" style="stop-color:#4969AE"/>
			<stop  offset="0.9831" style="stop-color:#53C8E9"/>
		</linearGradient>
		<path fill="url(#SVGID_17_)" d="M91.3,83.9C71.2,81.3,44.9,68.3,37,62.4c-1.9-1.8-4.5-3.2-0.7-5.2c3.2-1.7,6.7-1,9.3-3.1
			c3-2.5-0.9-4-2.4-4.6c-1.8-0.7-11.8-2.9-11.4-3.1c-1.1,0.3-8,1.4-8,1.4c5,1.4,8.5,2.3,12.2,3.3c1.3,0.4,2.4,1.4,0.4,1.9
			c-4.6,1.1-11.3,1.4-12.7,5.1c-0.7,1.9,1.4,3.8,5.2,6.7c11.3,8.8,47.9,26.6,52.8,26.6C90.3,91.4,91.3,83.9,91.3,83.9z"/>
		
			<linearGradient id="SVGID_18_" gradientUnits="userSpaceOnUse" x1="58.1739" y1="91.7251" x2="58.1739" y2="46.6483" gradientTransform="matrix(0.9962 0 0 0.9962 -0.4863 -1.377007e-02)">
			<stop  offset="0" style="stop-color:#1B76BA;stop-opacity:0.67"/>
			<stop  offset="5.773074e-02" style="stop-color:#1485B3;stop-opacity:0.712"/>
			<stop  offset="0.1192" style="stop-color:#0891AD;stop-opacity:0.7566"/>
			<stop  offset="0.1852" style="stop-color:#009AA6;stop-opacity:0.8046"/>
			<stop  offset="0.257" style="stop-color:#00A1A1;stop-opacity:0.8568"/>
			<stop  offset="0.3391" style="stop-color:#00A59D;stop-opacity:0.9165"/>
			<stop  offset="0.454" style="stop-color:#00A69C"/>
			<stop  offset="0.5386" style="stop-color:#00A2A0;stop-opacity:0.9055"/>
			<stop  offset="0.6765" style="stop-color:#0198A8;stop-opacity:0.7514"/>
			<stop  offset="0.8495" style="stop-color:#1287B2;stop-opacity:0.5582"/>
			<stop  offset="1" style="stop-color:#1B76BA;stop-opacity:0.39"/>
		</linearGradient>
		<path fill="url(#SVGID_18_)" d="M91.3,83.9C71.2,81.3,44.9,68.3,37,62.4c-1.9-1.8-4.5-3.2-0.7-5.2c3.2-1.7,6.7-1,9.3-3.1
			c3-2.5-0.9-4-2.4-4.6c-1.8-0.7-11.8-2.9-11.4-3.1c-1.1,0.3-8,1.4-8,1.4c5,1.4,8.5,2.3,12.2,3.3c1.3,0.4,2.4,1.4,0.4,1.9
			c-4.6,1.1-11.3,1.4-12.7,5.1c-0.7,1.9,1.4,3.8,5.2,6.7c11.3,8.8,47.9,26.6,52.8,26.6C90.3,91.4,91.3,83.9,91.3,83.9z"/>
		
			<linearGradient id="SVGID_19_" gradientUnits="userSpaceOnUse" x1="58.1739" y1="46.6483" x2="58.1739" y2="91.7251" gradientTransform="matrix(0.9962 0 0 0.9962 -0.4863 -1.377007e-02)">
			<stop  offset="0" style="stop-color:#294B9B;stop-opacity:0.16"/>
			<stop  offset="4.125433e-02" style="stop-color:#3B5AA3;stop-opacity:0.1411"/>
			<stop  offset="0.1237" style="stop-color:#6980B9;stop-opacity:0.1034"/>
			<stop  offset="0.2383" style="stop-color:#B2BEDB;stop-opacity:5.096447e-02"/>
			<stop  offset="0.3497" style="stop-color:#FFFFFF;stop-opacity:0"/>
			<stop  offset="1" style="stop-color:#FFFFFF;stop-opacity:0.77"/>
		</linearGradient>
		<path opacity="0.7" fill="url(#SVGID_19_)" d="M91.3,83.9C71.2,81.3,44.9,68.3,37,62.4c-1.9-1.8-4.5-3.2-0.7-5.2
			c3.2-1.7,6.7-1,9.3-3.1c3-2.5-0.9-4-2.4-4.6c-1.8-0.7-11.8-2.9-11.4-3.1c-1.1,0.3-8,1.4-8,1.4c5,1.4,8.5,2.3,12.2,3.3
			c1.3,0.4,2.4,1.4,0.4,1.9c-4.6,1.1-11.3,1.4-12.7,5.1c-0.7,1.9,1.4,3.8,5.2,6.7c11.3,8.8,47.9,26.6,52.8,26.6
			C90.3,91.4,91.3,83.9,91.3,83.9z"/>
		<g opacity="0.49">
			<path fill="#FFFFFF" d="M81.8,90.9c-4.3-0.2-9-3-12.8-4.7c-7.1-3.2-14.1-6.7-21-10.4c-5.9-3.2-11.9-6.4-17.4-10.4
				c-2.4-1.8-8.5-5.2-5.6-8.6c2.9-3.3,11-1.2,12.9-4.6c0,0,0-0.2,0-0.2c-1.8-2.9-7.1-2.3-10-3.6c-2.2-1.1-1-0.7,1-1.1
				c1-0.2,2.1-0.6,3.1-0.5c2.7,0.2,5.7,1.4,8.3,2.1c1.4,0.4,5,1,5.7,2.4c2.8,5.5-19.1,3.3-9.2,11.2c8.8,7,20.7,11.5,31.1,15.4
				c6.6,2.5,13.4,4.3,20.3,5.7c2.9,0.6,3,1.1,1.3,3.5C87.7,90,84.9,90.8,81.8,90.9c0,0,0,0.2,0,0.2c4.5-0.2,8.1-2.3,9.2-6.9
				c0,0,0-0.2,0-0.2c-11.4-1.7-22.4-5.5-32.9-10.1c-4.9-2.1-9.6-4.4-14.3-7c-2.5-1.4-7.9-3.7-9.2-6.5c-2.7-6.1,12.7-3,11.8-8.3
				c-0.4-2.6-7-3.5-8.9-3.9c-1.7-0.4-4-1.5-5.8-1.5c-2,0-4.5,0.8-6.5,1.1c0,0,0,0.2,0,0.2c3.3,0.9,6.8,1.7,10.1,2.7
				c5.5,1.8-1.5,2.9-3.4,3.3c-2.4,0.5-8.1,1.3-8.1,4.8c0.1,4.3,10.3,9.4,13.7,11.4c8.4,5,17.1,9.5,26,13.7
				c5.3,2.5,12.2,6.9,18.3,7.2C81.8,91.2,81.8,90.9,81.8,90.9z"/>
		</g>
	</g>
	<path fill="#005DAA" d="M82.6,0H13C5.8,0,0,5.8,0,13v69.6c0,7.2,5.8,13,13,13h69.6c7.2,0,13-5.8,13-13V13C95.6,5.8,89.8,0,82.6,0z
		 M91.1,13v69.6c0,4.7-3.8,8.5-8.5,8.5H13c-4.7,0-8.5-3.8-8.5-8.5V13c0-4.7,3.8-8.5,8.5-8.5h69.6C87.3,4.5,91.1,8.3,91.1,13z"/>
</g>
</svg>
