<?xml version="1.0" encoding="utf-8"?>
<!-- Generator: Adobe Illustrator 21.0.0, SVG Export Plug-In . SVG Version: 6.00 Build 0)  -->
<svg version="1.1" id="Layer_1" xmlns="http://www.w3.org/2000/svg" xmlns:xlink="http://www.w3.org/1999/xlink" x="0px" y="0px"
	 width="500px" height="108.1px" viewBox="0 0 500 108.1" enable-background="new 0 0 500 108.1" xml:space="preserve">
<polygon fill="#06357A" points="162.2,56 154.2,23.1 144.7,23.1 136.7,55.8 129.3,23.1 121,23.1 131.6,67.2 141,67.2 149.4,34.3 
	156.8,67.2 166.8,67.2 177.9,23.1 169.8,23.1 "/>
<g>
	<path fill="#06357A" d="M182.8,45.2c0,13.8,7.5,22,20.1,22h14.3v-6.4h-13.3c-7.5,0-11.5-4.2-12.2-12.8h24.9v-6.4h-24.8
		c0.8-8.1,4.8-12,12.2-12h13.3v-6.4h-14.3C190.3,23.1,182.8,31.4,182.8,45.2"/>
	<path fill="#06357A" d="M245.9,41.2h-7c-2.7,0-7.1-0.8-7.1-5.8c0-5.1,4.5-5.9,7.1-5.9h19.8v-6.4h-21.5c-6.7,0-13.4,4-13.4,12.8
		c0,9,6.9,12.2,13.4,12.2h8.4c4.8,0,7.2,2.1,7.3,6.3c0,1.9-0.5,3.5-1.5,4.5c-1.2,1.2-3.2,1.9-5.7,1.9h-20.4v6.4h20.7
		c9.9,0,15.1-4.5,15.1-13C260.9,45.7,255.7,41.2,245.9,41.2"/>
	<polygon fill="#06357A" points="265.3,29.5 278.6,29.5 278.6,67.2 286.5,67.2 286.5,29.5 299.8,29.5 299.8,23.1 265.3,23.1 	"/>
	<polygon fill="#06357A" points="362.6,41.5 340.8,41.5 340.8,23.1 333,23.1 333,67.2 340.8,67.2 340.8,48 362.6,48 362.6,67.2 
		370.5,67.2 370.5,23.1 362.6,23.1 	"/>
	<rect x="379.4" y="23.1" fill="#06357A" width="7.8" height="44"/>
	<path fill="#06357A" d="M403.9,53.4V23.1h-7.8v28.7c0,4,0.6,9.6,6.1,12.9c2.7,1.7,5,2.4,7.5,2.4h14v-6.4h-11.2
		C406.8,60.8,403.9,58.3,403.9,53.4"/>
	<path fill="#06357A" d="M438.1,53.4V23.1h-7.8v28.7c0,4,0.6,9.6,6.1,12.9c2.7,1.7,5,2.4,7.5,2.4h14v-6.4h-11.2
		C441,60.8,438.1,58.3,438.1,53.4"/>
	<path fill="#06357A" d="M484.9,41.2h-7c-2.7,0-7.1-0.8-7.1-5.8c0-5.1,4.5-5.9,7.1-5.9h19.8v-6.4h-21.5c-6.7,0-13.4,4-13.4,12.8
		c0,9,6.9,12.2,13.4,12.2h8.4c4.8,0,7.2,2.1,7.3,6.3c0,1.9-0.5,3.5-1.5,4.5c-1.2,1.2-3.2,1.9-5.7,1.9h-20.4v6.4h20.7
		c9.8,0,15.1-4.5,15.1-13C500,45.7,494.8,41.2,484.9,41.2"/>
	<path fill="#06357A" d="M137.3,81.2h-5.7c-2.7,0-3.8,1.8-3.8,5.2c0,3.4,1.1,5.2,3.8,5.2h5.7v2.7h-6.7c-4.3,0-6.6-2.8-6.6-7.9
		c0-5.1,2.3-7.9,6.6-7.9h6.7V81.2z"/>
	<path fill="#06357A" d="M146.7,78.2c6.2,0,7.9,3.6,7.9,8.1c0,4.5-1.7,8.1-7.9,8.1c-6.2,0-7.9-3.6-7.9-8.1
		C138.8,81.8,140.5,78.2,146.7,78.2 M142.3,86.4c0,2.8,0.4,5.5,4.4,5.5c3.9,0,4.4-2.7,4.4-5.5c0-2.8-0.4-5.5-4.4-5.5
		C142.7,80.8,142.3,83.5,142.3,86.4"/>
	<polygon fill="#06357A" points="157,94.3 157,78.4 162,78.4 166.1,90.7 170.2,78.4 175.2,78.4 175.2,94.3 171.9,94.3 171.9,82.5 
		171.8,82.5 167.8,94.3 164.5,94.3 160.4,82.5 160.4,82.5 160.4,94.3 	"/>
	<polygon fill="#06357A" points="177.9,94.3 177.9,78.4 182.9,78.4 187,90.7 191,78.4 196.1,78.4 196.1,94.3 192.7,94.3 192.7,82.5 
		192.6,82.5 188.6,94.3 185.3,94.3 181.3,82.5 181.2,82.5 181.2,94.3 	"/>
	<path fill="#06357A" d="M202,78.4v10.6c0,1.8,1.3,2.8,3.6,2.8c2.3,0,3.6-1.1,3.6-2.8V78.4h3.3v10.7c0,3.4-3,5.3-6.9,5.3
		c-4,0-6.9-1.9-6.9-5.3V78.4H202z"/>
	<polygon fill="#06357A" points="215.2,94.3 215.2,78.4 219.5,78.4 225.8,90 225.9,90 225.9,78.4 229.3,78.4 229.3,94.3 225,94.3 
		218.6,82.7 218.5,82.7 218.5,94.3 	"/>
	<rect x="232.3" y="78.4" fill="#06357A" width="3.3" height="15.8"/>
	<polygon fill="#06357A" points="251.9,78.4 251.9,81.2 246.5,81.2 246.5,94.3 243.2,94.3 243.2,81.2 237.9,81.2 237.9,78.4 	"/>
	<polygon fill="#06357A" points="256.4,78.4 260.2,84.8 264.1,78.4 267.7,78.4 261.9,87.5 261.9,94.3 258.5,94.3 258.5,87.5 
		252.7,78.4 	"/>
	<path fill="#06357A" d="M289.1,81.2h-5.7c-2.7,0-3.8,1.8-3.8,5.2c0,3.4,1.1,5.2,3.8,5.2h5.7v2.7h-6.7c-4.3,0-6.6-2.8-6.6-7.9
		c0-5.1,2.3-7.9,6.6-7.9h6.7V81.2z"/>
	<path fill="#06357A" d="M298.5,78.2c6.2,0,7.9,3.6,7.9,8.1c0,4.5-1.7,8.1-7.9,8.1c-6.2,0-7.9-3.6-7.9-8.1
		C290.6,81.8,292.3,78.2,298.5,78.2 M294.1,86.4c0,2.8,0.4,5.5,4.4,5.5c3.9,0,4.4-2.7,4.4-5.5c0-2.8-0.4-5.5-4.4-5.5
		C294.5,80.8,294.1,83.5,294.1,86.4"/>
	<path fill="#06357A" d="M308.8,88.5V78.4h3.3v9.9c0,1.9,1.2,3.3,3.3,3.3h4.4v2.7h-5.5C311.3,94.3,308.8,92.8,308.8,88.5"/>
	<path fill="#06357A" d="M321.6,88.5V78.4h3.3v9.9c0,1.9,1.2,3.3,3.3,3.3h4.4v2.7H327C324.1,94.3,321.6,92.8,321.6,88.5"/>
	<path fill="#06357A" d="M345.9,87.7H337c0.4,2.7,1.5,3.9,3.8,3.9h5.4v2.7h-6.3c-4.3,0-6.6-2.8-6.6-7.9c0-5.1,2.3-7.9,6.6-7.9h6.3
		v2.7h-5.4c-1.5,0-3.3,0.3-3.8,3.9h8.9V87.7z"/>
	<path fill="#06357A" d="M348.4,86.4c0-5.1,2.3-7.9,6.6-7.9h8.4v2.7H356c-2.7,0-3.8,1.8-3.8,5.2c0,3.4,1.1,5.2,3.8,5.2h4.1v-3.9
		h-4.4v-2.6h7.7v9.2H355C350.7,94.3,348.4,91.5,348.4,86.4"/>
	<path fill="#06357A" d="M378.2,87.7h-8.9c0.4,2.7,1.5,3.9,3.8,3.9h5.4v2.7h-6.3c-4.3,0-6.6-2.8-6.6-7.9c0-5.1,2.3-7.9,6.6-7.9h6.3
		v2.7h-5.4c-1.5,0-3.3,0.3-3.8,3.9h8.9V87.7z"/>
	<path fill="#06357A" d="M390.9,78.4h8.4c4.2,0,6.4,2.8,6.4,7.9c0,5.1-2.2,7.9-6.4,7.9h-8.4V78.4z M394.2,91.6h3.9
		c2.7,0,3.8-1.8,3.8-5.2c0-3.4-1.1-5.2-3.8-5.2h-3.9V91.6z"/>
	<rect x="408.1" y="78.4" fill="#06357A" width="3.3" height="15.8"/>
	<path fill="#06357A" d="M428.5,81.2h-8.6c-1.1,0-2,0.6-2,1.9c0,1.4,1,1.9,2,1.9h4.9c1.7,0,4.5,1,4.5,4.7c0,3.7-2.8,4.7-4.5,4.7
		h-10.3v-2.7h8.8c1.1,0,2.1-0.8,2.1-2c0-1.1-0.9-2-2.1-2h-4.9c-1.7,0-4.5-0.9-4.5-4.6c0-3.7,2.8-4.6,4.5-4.6h10.1V81.2z"/>
	<polygon fill="#06357A" points="444.3,78.4 444.3,81.2 439,81.2 439,94.3 435.7,94.3 435.7,81.2 430.4,81.2 430.4,78.4 	"/>
	<path fill="#06357A" d="M449.9,88.1v6.2h-3.3V78.4h9c2.8,0,4.7,1.4,4.7,4.8c0,3.6-2.2,4.4-3,4.6l3.4,6.4h-4l-3.2-6.2H449.9z
		 M449.9,85.6h3.9c1.4,0,2.5-0.5,2.5-2.2c0-1.7-1.1-2.2-2.5-2.2h-3.9V85.6z"/>
	<rect x="463.4" y="78.4" fill="#06357A" width="3.3" height="15.8"/>
	<path fill="#06357A" d="M482.4,81.2h-5.7c-2.7,0-3.8,1.8-3.8,5.2c0,3.4,1.1,5.2,3.8,5.2h5.7v2.7h-6.7c-4.3,0-6.6-2.8-6.6-7.9
		c0-5.1,2.3-7.9,6.6-7.9h6.7V81.2z"/>
	<polygon fill="#06357A" points="498.6,78.4 498.6,81.2 493.3,81.2 493.3,94.3 489.9,94.3 489.9,81.2 484.6,81.2 484.6,78.4 	"/>
</g>
<g>
	<g>
		
			<linearGradient id="SVGID_2_" gradientUnits="userSpaceOnUse" x1="-295.6859" y1="45.9529" x2="-295.6859" y2="-52.5931" gradientTransform="matrix(-1 0 0 -1 -241.5831 50.7392)">
			<stop  offset="5.521470e-02" style="stop-color:#C6E8FA"/>
			<stop  offset="0.2638" style="stop-color:#95B5DE"/>
			<stop  offset="0.4969" style="stop-color:#224C8E"/>
		</linearGradient>
		<path fill="url(#SVGID_2_)" d="M4.8,14.6c0-5.4,4.4-9.8,9.8-9.8h78.9c5.4,0,9.9,4.4,9.9,9.8v78.9c0,5.4-4.4,9.8-9.9,9.8H14.7
			c-5.4,0-9.8-4.4-9.8-9.8V14.6z"/>
		
			<linearGradient id="SVGID_4_" gradientUnits="userSpaceOnUse" x1="-295.6859" y1="45.9529" x2="-295.6859" y2="-52.5931" gradientTransform="matrix(-1 0 0 -1 -241.5831 50.7392)">
			<stop  offset="0.1718" style="stop-color:#089ABF;stop-opacity:0.22"/>
			<stop  offset="0.6503" style="stop-color:#252159"/>
			<stop  offset="0.8132" style="stop-color:#386778;stop-opacity:0.5948"/>
			<stop  offset="0.9423" style="stop-color:#4DA192;stop-opacity:0.2736"/>
			<stop  offset="1" style="stop-color:#57C09E;stop-opacity:0.13"/>
		</linearGradient>
		<path fill="url(#SVGID_4_)" d="M4.8,14.6c0-5.4,4.4-9.8,9.8-9.8h78.9c5.4,0,9.9,4.4,9.9,9.8v78.9c0,5.4-4.4,9.8-9.9,9.8H14.7
			c-5.4,0-9.8-4.4-9.8-9.8V14.6z"/>
	</g>
	<g>
		<path fill="#F5DC1B" d="M35,22.2c-6.7-0.1-12.2,5-12.3,11.4c-0.1,6.4,5.2,11.7,11.9,11.8c6.7,0.1,12.2-5,12.3-11.4
			C47,27.6,41.7,22.3,35,22.2L35,22.2z"/>
		
			<radialGradient id="SVGID_6_" cx="34.7069" cy="33.7044" r="11.8986" gradientTransform="matrix(0.9962 0 0 0.9962 0.2039 0.2039)" gradientUnits="userSpaceOnUse">
			<stop  offset="0" style="stop-color:#F4E033;stop-opacity:0.22"/>
			<stop  offset="1" style="stop-color:#FDEE0E"/>
		</radialGradient>
		<path opacity="0.71" fill="url(#SVGID_6_)" d="M35,22.2c-6.7-0.1-12.2,5-12.3,11.4c-0.1,6.4,5.2,11.7,11.9,11.8
			c6.7,0.1,12.2-5,12.3-11.4C47,27.6,41.7,22.3,35,22.2L35,22.2z"/>
		
			<linearGradient id="SVGID_8_" gradientUnits="userSpaceOnUse" x1="34.7069" y1="22.0722" x2="34.7069" y2="45.3366" gradientTransform="matrix(0.9962 0 0 0.9962 0.2039 0.2039)">
			<stop  offset="0" style="stop-color:#FFFFFF;stop-opacity:0.77"/>
			<stop  offset="0.45" style="stop-color:#FFFFFF;stop-opacity:0"/>
			<stop  offset="0.4718" style="stop-color:#FCF1DC;stop-opacity:6.335774e-03"/>
			<stop  offset="0.4993" style="stop-color:#F9E2B8;stop-opacity:1.434154e-02"/>
			<stop  offset="0.5303" style="stop-color:#F6D498;stop-opacity:2.335789e-02"/>
			<stop  offset="0.5645" style="stop-color:#F4C97C;stop-opacity:3.332349e-02"/>
			<stop  offset="0.6032" style="stop-color:#F2C066;stop-opacity:4.457667e-02"/>
			<stop  offset="0.6484" style="stop-color:#F1B955;stop-opacity:5.771699e-02"/>
			<stop  offset="0.7042" style="stop-color:#F0B44A;stop-opacity:7.396341e-02"/>
			<stop  offset="0.7826" style="stop-color:#EFB143;stop-opacity:9.674752e-02"/>
			<stop  offset="1" style="stop-color:#EFB041;stop-opacity:0.16"/>
		</linearGradient>
		<path fill="url(#SVGID_8_)" d="M35,22.2c-6.7-0.1-12.2,5-12.3,11.4c-0.1,6.4,5.2,11.7,11.9,11.8c6.7,0.1,12.2-5,12.3-11.4
			C47,27.6,41.7,22.3,35,22.2L35,22.2z"/>
		
			<linearGradient id="SVGID_9_" gradientUnits="userSpaceOnUse" x1="34.7069" y1="22.0722" x2="34.7069" y2="45.3366" gradientTransform="matrix(0.9962 0 0 0.9962 0.2039 0.2039)">
			<stop  offset="0" style="stop-color:#FFFFFF;stop-opacity:0.77"/>
			<stop  offset="0.45" style="stop-color:#FFFFFF;stop-opacity:0"/>
			<stop  offset="0.4718" style="stop-color:#FCF1DC;stop-opacity:6.335774e-03"/>
			<stop  offset="0.4993" style="stop-color:#F9E2B8;stop-opacity:1.434154e-02"/>
			<stop  offset="0.5303" style="stop-color:#F6D498;stop-opacity:2.335789e-02"/>
			<stop  offset="0.5645" style="stop-color:#F4C97C;stop-opacity:3.332349e-02"/>
			<stop  offset="0.6032" style="stop-color:#F2C066;stop-opacity:4.457667e-02"/>
			<stop  offset="0.6484" style="stop-color:#F1B955;stop-opacity:5.771699e-02"/>
			<stop  offset="0.7042" style="stop-color:#F0B44A;stop-opacity:7.396341e-02"/>
			<stop  offset="0.7826" style="stop-color:#EFB143;stop-opacity:9.674752e-02"/>
			<stop  offset="1" style="stop-color:#EFB041;stop-opacity:0.16"/>
		</linearGradient>
		<path fill="url(#SVGID_9_)" d="M35,22.2c-6.7-0.1-12.2,5-12.3,11.4c-0.1,6.4,5.2,11.7,11.9,11.8c6.7,0.1,12.2-5,12.3-11.4
			C47,27.6,41.7,22.3,35,22.2L35,22.2z"/>
	</g>
	<g>
		<defs>
			<rect id="SVGID_14_" x="4.8" y="20.7" width="98.5" height="48.7"/>
		</defs>
		<clipPath id="SVGID_10_">
			<use xlink:href="#SVGID_14_"  overflow="visible"/>
		</clipPath>
		<g clip-path="url(#SVGID_10_)">
			<linearGradient id="SVGID_11_" gradientUnits="userSpaceOnUse" x1="79.1129" y1="69.3787" x2="79.1129" y2="31.3544">
				<stop  offset="0.3926" style="stop-color:#B02529"/>
				<stop  offset="0.4692" style="stop-color:#B32E29"/>
				<stop  offset="0.5882" style="stop-color:#BD432A"/>
				<stop  offset="0.7348" style="stop-color:#CD6129"/>
				<stop  offset="0.9017" style="stop-color:#E68924"/>
				<stop  offset="0.9755" style="stop-color:#F89F1F"/>
			</linearGradient>
			<path fill="url(#SVGID_11_)" d="M54.9,46.9c5-4.7,10.1-10.8,15.9-14.8c3.6-2.7,8.5,2.5,14.1,3.7c2.5,0.5,3.9,4.4,6,6.5
				c1.4,0.7,5.2,1.2,6.6,1.9c1.7,0.9,4.2,4,5.8,5.1c0.1,10,0,20.1,0,20.1s-15-10.9-32.8-10.8C68.3,57.1,54.2,47.6,54.9,46.9
				L54.9,46.9z"/>
			<linearGradient id="SVGID_12_" gradientUnits="userSpaceOnUse" x1="79.1129" y1="69.3787" x2="79.1129" y2="31.3544">
				<stop  offset="0" style="stop-color:#DD8026"/>
				<stop  offset="1" style="stop-color:#F9DA61"/>
			</linearGradient>
			<path opacity="0.3" fill="url(#SVGID_12_)" d="M54.9,46.9c5-4.7,10.1-10.8,15.9-14.8c3.6-2.7,8.5,2.5,14.1,3.7
				c2.5,0.5,3.9,4.4,6,6.5c1.4,0.7,5.2,1.2,6.6,1.9c1.7,0.9,4.2,4,5.8,5.1c0.1,10,0,20.1,0,20.1s-15-10.9-32.8-10.8
				C68.3,57.1,54.2,47.6,54.9,46.9L54.9,46.9z"/>
		</g>
		<g clip-path="url(#SVGID_10_)">
			<linearGradient id="SVGID_13_" gradientUnits="userSpaceOnUse" x1="54.7438" y1="58.6875" x2="54.7438" y2="40.4044">
				<stop  offset="0.3926" style="stop-color:#B02529"/>
				<stop  offset="0.4692" style="stop-color:#B32E29"/>
				<stop  offset="0.5882" style="stop-color:#BD432A"/>
				<stop  offset="0.7348" style="stop-color:#CD6129"/>
				<stop  offset="0.9017" style="stop-color:#E68924"/>
				<stop  offset="0.9755" style="stop-color:#F89F1F"/>
			</linearGradient>
			<path fill="url(#SVGID_13_)" d="M33.8,45c5.1-5.4,6.8-5.7,17.8-2.8C56.8,45.4,68,53,75.7,58.6c-8.9-0.1-16.7,0.1-23.4,0.1
				C46.8,54,40.7,49.8,33.8,45L33.8,45z"/>
			<linearGradient id="SVGID_15_" gradientUnits="userSpaceOnUse" x1="54.7438" y1="58.6875" x2="54.7438" y2="40.4044">
				<stop  offset="0" style="stop-color:#DD8026"/>
				<stop  offset="1" style="stop-color:#F9DA61"/>
			</linearGradient>
			<path opacity="0.3" fill="url(#SVGID_15_)" d="M33.8,45c5.1-5.4,6.8-5.7,17.8-2.8C56.8,45.4,68,53,75.7,58.6
				c-8.9-0.1-16.7,0.1-23.4,0.1C46.8,54,40.7,49.8,33.8,45L33.8,45z"/>
		</g>
		<g clip-path="url(#SVGID_10_)">
			<linearGradient id="SVGID_16_" gradientUnits="userSpaceOnUse" x1="28.9375" y1="63.638" x2="28.9375" y2="37.8559">
				<stop  offset="0.3926" style="stop-color:#B02529"/>
				<stop  offset="0.4692" style="stop-color:#B32E29"/>
				<stop  offset="0.5882" style="stop-color:#BD432A"/>
				<stop  offset="0.7348" style="stop-color:#CD6129"/>
				<stop  offset="0.9017" style="stop-color:#E68924"/>
				<stop  offset="0.9755" style="stop-color:#F89F1F"/>
			</linearGradient>
			<path fill="url(#SVGID_16_)" d="M5.1,48.5c0-6.2,10.4-7.9,16-10.3c3.9-1.7,4.2,2.8,4.2,2.8s-0.2-0.2,2.4-0.1
				C30.3,41.8,53,59,53,59L4.9,63.6C4.9,63.6,5,58.9,5.1,48.5z"/>
			<linearGradient id="SVGID_17_" gradientUnits="userSpaceOnUse" x1="28.9375" y1="63.638" x2="28.9375" y2="37.8559">
				<stop  offset="0" style="stop-color:#DD8026"/>
				<stop  offset="1" style="stop-color:#F9DA61"/>
			</linearGradient>
			<path opacity="0.3" fill="url(#SVGID_17_)" d="M5.1,48.5c0-6.2,10.4-7.9,16-10.3c3.9-1.7,4.2,2.8,4.2,2.8s-0.2-0.2,2.4-0.1
				C30.3,41.8,53,59,53,59L4.9,63.6C4.9,63.6,5,58.9,5.1,48.5z"/>
		</g>
	</g>
	<g>
		
			<linearGradient id="SVGID_18_" gradientUnits="userSpaceOnUse" x1="-295.6859" y1="-0.6197" x2="-295.6859" y2="-52.5931" gradientTransform="matrix(-1 0 0 -1 -241.5831 50.7392)">
			<stop  offset="0" style="stop-color:#38B34A"/>
			<stop  offset="7.916078e-02" style="stop-color:#57B848"/>
			<stop  offset="0.2439" style="stop-color:#7DC243"/>
			<stop  offset="0.3829" style="stop-color:#91C840"/>
			<stop  offset="0.4785" style="stop-color:#98CA3E"/>
			<stop  offset="0.5457" style="stop-color:#92C13E"/>
			<stop  offset="0.6218" style="stop-color:#87B23D"/>
			<stop  offset="0.7023" style="stop-color:#759B3C"/>
			<stop  offset="0.786" style="stop-color:#5D7D38"/>
			<stop  offset="0.872" style="stop-color:#425C2F"/>
			<stop  offset="0.9588" style="stop-color:#253920"/>
			<stop  offset="1" style="stop-color:#142716"/>
		</linearGradient>
		<path fill="url(#SVGID_18_)" d="M4.8,62.2v31.3c0,5.4,4.4,9.8,9.8,9.8h78.9c5.4,0,9.9-4.4,9.9-9.8V62.2c0,0-18.1-10.9-49.3-10.9
			C22.9,51.4,4.8,62.2,4.8,62.2z"/>
		
			<linearGradient id="SVGID_19_" gradientUnits="userSpaceOnUse" x1="-295.6859" y1="-0.6197" x2="-295.6859" y2="-52.5931" gradientTransform="matrix(-1 0 0 -1 -241.5831 50.7392)">
			<stop  offset="0" style="stop-color:#C3D830;stop-opacity:0.13"/>
			<stop  offset="0.1336" style="stop-color:#B2C935;stop-opacity:0.2235"/>
			<stop  offset="0.3809" style="stop-color:#8DAF3D;stop-opacity:0.3966"/>
			<stop  offset="0.7117" style="stop-color:#568C43;stop-opacity:0.6282"/>
			<stop  offset="1" style="stop-color:#057043;stop-opacity:0.83"/>
		</linearGradient>
		<path opacity="0.9" fill="url(#SVGID_19_)" d="M4.8,62.2v31.3c0,5.4,4.4,9.8,9.8,9.8h78.9c5.4,0,9.9-4.4,9.9-9.8V62.2
			c0,0-18.1-10.9-49.3-10.9C22.9,51.4,4.8,62.2,4.8,62.2z"/>
		
			<linearGradient id="SVGID_20_" gradientUnits="userSpaceOnUse" x1="-295.6859" y1="-52.5931" x2="-295.6859" y2="-0.6197" gradientTransform="matrix(-1 0 0 -1 -241.5831 50.7392)">
			<stop  offset="0" style="stop-color:#0D1C16;stop-opacity:0.16"/>
			<stop  offset="5.264302e-02" style="stop-color:#293731;stop-opacity:0.1428"/>
			<stop  offset="0.2709" style="stop-color:#9BA19F;stop-opacity:7.168723e-02"/>
			<stop  offset="0.4213" style="stop-color:#E3E5E4;stop-opacity:2.264710e-02"/>
			<stop  offset="0.4908" style="stop-color:#FFFFFF;stop-opacity:0"/>
			<stop  offset="1" style="stop-color:#FCEE1F;stop-opacity:0.77"/>
		</linearGradient>
		<path fill="url(#SVGID_20_)" d="M4.8,62.2v31.3c0,5.4,4.4,9.8,9.8,9.8h78.9c5.4,0,9.9-4.4,9.9-9.8V62.2c0,0-18.1-10.9-49.3-10.9
			C22.9,51.4,4.8,62.2,4.8,62.2z"/>
	</g>
	<g>
		
			<linearGradient id="SVGID_21_" gradientUnits="userSpaceOnUse" x1="65.0358" y1="103.5188" x2="65.0358" y2="52.5394" gradientTransform="matrix(0.9962 0 0 0.9962 0.2039 0.2039)">
			<stop  offset="0" style="stop-color:#4563AC"/>
			<stop  offset="0.5215" style="stop-color:#4868AF"/>
			<stop  offset="0.9831" style="stop-color:#53C8E9"/>
		</linearGradient>
		<path fill="url(#SVGID_21_)" d="M103.3,94.9c-22.8-3-52.5-17.7-61.4-24.3c-2.1-2-5.1-3.7-0.8-5.9c3.7-1.9,7.6-1.2,10.5-3.5
			c3.4-2.8-1-4.5-2.7-5.2c-2-0.8-13.3-3.3-12.9-3.5c-1.3,0.4-9,1.6-9,1.6c5.7,1.6,9.6,2.6,13.8,3.7c1.5,0.4,2.7,1.6,0.4,2.1
			c-5.2,1.2-12.7,1.6-14.4,5.7c-0.8,2.1,1.6,4.2,5.9,7.6c12.7,10,54.2,30,59.8,30C102.2,103.3,103.3,94.9,103.3,94.9z"/>
		
			<linearGradient id="SVGID_22_" gradientUnits="userSpaceOnUse" x1="65.0358" y1="103.5188" x2="65.0358" y2="52.5394" gradientTransform="matrix(0.9962 0 0 0.9962 0.2039 0.2039)">
			<stop  offset="0" style="stop-color:#1D76BB;stop-opacity:0.67"/>
			<stop  offset="2.401611e-03" style="stop-color:#1D76BA;stop-opacity:0.6717"/>
			<stop  offset="6.031346e-02" style="stop-color:#1685B3;stop-opacity:0.7138"/>
			<stop  offset="0.1213" style="stop-color:#0D92AD;stop-opacity:0.7582"/>
			<stop  offset="0.1869" style="stop-color:#059BA6;stop-opacity:0.8059"/>
			<stop  offset="0.2583" style="stop-color:#00A2A1;stop-opacity:0.8578"/>
			<stop  offset="0.3399" style="stop-color:#00A59E;stop-opacity:0.917"/>
			<stop  offset="0.454" style="stop-color:#00A79C"/>
			<stop  offset="0.5375" style="stop-color:#00A3A0;stop-opacity:0.9067"/>
			<stop  offset="0.6736" style="stop-color:#0699A8;stop-opacity:0.7547"/>
			<stop  offset="0.8444" style="stop-color:#1588B2;stop-opacity:0.5639"/>
			<stop  offset="1" style="stop-color:#1D76BB;stop-opacity:0.39"/>
		</linearGradient>
		<path fill="url(#SVGID_22_)" d="M103.3,94.9c-22.8-3-52.5-17.7-61.4-24.3c-2.1-2-5.1-3.7-0.8-5.9c3.7-1.9,7.6-1.2,10.5-3.5
			c3.4-2.8-1-4.5-2.7-5.2c-2-0.8-13.3-3.3-12.9-3.5c-1.3,0.4-9,1.6-9,1.6c5.7,1.6,9.6,2.6,13.8,3.7c1.5,0.4,2.7,1.6,0.4,2.1
			c-5.2,1.2-12.7,1.6-14.4,5.7c-0.8,2.1,1.6,4.2,5.9,7.6c12.7,10,54.2,30,59.8,30C102.2,103.3,103.3,94.9,103.3,94.9z"/>
		
			<linearGradient id="SVGID_23_" gradientUnits="userSpaceOnUse" x1="65.0358" y1="52.5394" x2="65.0358" y2="103.5188" gradientTransform="matrix(0.9962 0 0 0.9962 0.2039 0.2039)">
			<stop  offset="0" style="stop-color:#294A9C;stop-opacity:0.16"/>
			<stop  offset="4.125433e-02" style="stop-color:#3B59A4;stop-opacity:0.1411"/>
			<stop  offset="0.1237" style="stop-color:#6980B9;stop-opacity:0.1034"/>
			<stop  offset="0.2383" style="stop-color:#B2BEDB;stop-opacity:5.096447e-02"/>
			<stop  offset="0.3497" style="stop-color:#FFFFFF;stop-opacity:0"/>
			<stop  offset="1" style="stop-color:#FFFFFF;stop-opacity:0.77"/>
		</linearGradient>
		<path opacity="0.7" fill="url(#SVGID_23_)" d="M103.3,94.9c-22.8-3-52.5-17.7-61.4-24.3c-2.1-2-5.1-3.7-0.8-5.9
			c3.7-1.9,7.6-1.2,10.5-3.5c3.4-2.8-1-4.5-2.7-5.2c-2-0.8-13.3-3.3-12.9-3.5c-1.3,0.4-9,1.6-9,1.6c5.7,1.6,9.6,2.6,13.8,3.7
			c1.5,0.4,2.7,1.6,0.4,2.1c-5.2,1.2-12.7,1.6-14.4,5.7c-0.8,2.1,1.6,4.2,5.9,7.6c12.7,10,54.2,30,59.8,30
			C102.2,103.3,103.3,94.9,103.3,94.9z"/>
		<g opacity="0.49">
			<path fill="#FFFFFF" d="M92.5,102.9c-4.8-0.2-10-3.3-14.3-5.2c-8.1-3.6-16.1-7.6-24-11.8c-6.8-3.6-13.6-7.3-19.8-11.9
				c-2.6-1.9-9.4-5.8-6.3-9.4c1.5-1.8,4.5-2.4,6.8-2.9c2.2-0.5,6.8-0.4,8-2.4c0,0,0-0.2,0-0.3c-1.8-2.9-7.8-2.9-10.9-4
				c-3.2-1.1-1.5-0.9,0.8-1.3c1.2-0.2,2.5-0.6,3.6-0.5c3,0.2,6.4,1.6,9.3,2.4c1.6,0.4,5.6,1.1,6.5,2.8c2.4,4.9-12.8,4.1-13.5,8.5
				c-0.4,2.3,3.3,4.4,4.9,5.5c11.1,7.4,24,12.9,36.5,17.2c3.4,1.2,6.8,2.2,10.2,3.2c1.9,0.5,3.8,1,5.7,1.4c1.5,0.3,4.2,0.3,5.6,1
				c1.7,0.9,1.2,0,0.8,1.8c-0.2,0.9-1,1.9-1.6,2.6C98.6,102,95.6,102.7,92.5,102.9c0,0,0,0.3,0,0.3c5-0.2,9.2-2.7,10.4-7.8
				c0,0,0-0.3,0-0.3c-12.3-1.8-24.2-5.9-35.7-10.8c-8.6-3.7-18.3-7.6-25.6-13.6C31,62.2,53.6,65.1,52.5,58.9
				c-0.5-2.9-7.9-3.9-10-4.4c-1.9-0.5-4.2-1.4-6.2-1.6c-2.3-0.2-5.3,0.8-7.7,1.2c0,0,0,0.3,0,0.3c3.5,1,7.1,1.8,10.7,2.9
				c2.1,0.6,4.4,1.1,2,2.9c-1,0.8-3.7,0.7-4.9,1c-2.7,0.5-9.3,1.5-9.3,5.4c-0.1,2.8,4.1,5.2,5.9,6.7c3.2,2.5,6.7,4.6,10.1,6.7
				c9.4,5.6,19.2,10.6,29.1,15.3c5.9,2.8,13.6,7.6,20.3,7.9C92.5,103.1,92.5,102.9,92.5,102.9z"/>
		</g>
	</g>
	<path fill="#06357A" d="M93.4,0H14.7C6.6,0,0,6.6,0,14.7v78.7c0,8.1,6.6,14.7,14.7,14.7h78.7c8.1,0,14.7-6.6,14.7-14.7V14.7
		C108.1,6.6,101.5,0,93.4,0z M103,14.7v78.7c0,5.3-4.3,9.6-9.6,9.6H14.7c-5.3,0-9.6-4.3-9.6-9.6V14.7c0-5.3,4.3-9.6,9.6-9.6h78.7
		C98.7,5.1,103,9.4,103,14.7z"/>
</g>
</svg>
