<svg xmlns="http://www.w3.org/2000/svg" width="500" height="500" viewBox="0 0 500 500"><path d="M456.1 26.3c-24.2 0-43.9 19.7-43.9 43.9v19.9L69.9 198.6c-1.6-17.9-16.5-32-34.8-32-19.4.1-35.1 15.8-35.1 35.2v96.5c0 19.4 15.7 35.1 35.1 35.1 18.3 0 33.2-14.1 34.8-32l29.5 9.3c-4.5 4-8 9-10 15.1-2.9 8.9-2.1 18.4 2.1 26.8 4.3 8.4 11.5 14.6 20.4 17.4l125.2 40.5c3.6 1.2 7.1 1.7 10.8 1.7 5.5 0 10.9-1.3 15.9-3.8 8.4-4.2 14.6-11.5 17.5-20.4 2.1-6.4 2.2-13.1.5-19.4l130.4 41.3v19.9c0 24.2 19.7 43.9 43.9 43.9S500 454 500 429.8V70.2c0-24.2-19.7-43.9-43.9-43.9zM264.6 382.6c-1.4 4.5-4.5 8.1-8.7 10.2-4.2 2.1-8.9 2.5-13.3 1.1l-125.2-40.6c-4.5-1.5-8-4.5-10.2-8.7-2.1-4.2-2.5-8.9-1.1-13.4 2.4-7.4 9.3-12.1 16.7-12.1 1.8 0 3.6.3 5.4.9l125.2 40.5c9.2 3 14.2 12.9 11.2 22.1zm-212-84.4c0 9.7-7.9 17.5-17.6 17.5-9.7 0-17.5-7.8-17.5-17.5v-96.5c0-9.7 7.8-17.6 17.5-17.6s17.6 7.9 17.6 17.6v96.5zM70.2 283v-66l342.1-108.5v283.1L70.2 283zm412.2 146.8c0 14.5-11.8 26.3-26.3 26.3s-26.3-11.8-26.3-26.3V70.2c0-14.5 11.8-26.3 26.3-26.3s26.3 11.8 26.3 26.3v359.6zm0 0"/></svg>