<svg xmlns="http://www.w3.org/2000/svg" width="500" height="500" viewBox="0 0 500 500"><path d="M208.5 233h49.8c4.6 0 8.3-3.7 8.3-8.3 0-4.6-3.7-8.3-8.3-8.3h-49.8c-4.6 0-8.3 3.7-8.3 8.3 0 4.6 3.7 8.3 8.3 8.3zm0 0"/><path d="M457.7 66.8H208.5c-4.6 0-8.3 3.7-8.3 8.3 0 4.6 3.7 8.3 8.3 8.3h240.9v373.8c0 13.3-11.6 24.9-24.9 24.9h-349c-13.3 0-24.9-11.6-24.9-24.9V75.8c5.3 3.6 11.3 5.7 16.6 6.8v374.7c0 4.6 3.7 8.3 8.3 8.3 4.6 0 8.3-3.7 8.3-8.3V75.2c0-4.6-3.7-8.3-8.3-8.3-4.2 0-25-1.5-25-24.9v-8.3c0-9.2 7.5-16.6 16.6-16.6h390.4c4.6 0 8.3-3.7 8.3-8.3 0-4.6-3.7-8.3-8.3-8.3H67.2C48.9.4 34 15.3 34 33.6v423.7c0 22.5 19 41.5 41.5 41.5h348.9c22.5 0 41.5-19 41.5-41.5V75.2c.1-4.6-3.6-8.4-8.2-8.4zm0 0"/><path fill="none" d="M34 0h432v500H34z"/><path d="M449.4 41.9c0-4.6-3.7-8.3-8.3-8.3H175.2c-4.6 0-8.3 3.7-8.3 8.3v79.6l-19-19c-3.3-3.3-8.5-3.3-11.7 0l-19.1 19V41.9c0-4.6-3.7-8.3-8.3-8.3H75.5c-4.6 0-8.3 3.7-8.3 8.3 0 4.6 3.7 8.3 8.3 8.3h24.9v91.4c0 3.4 2 6.4 5.1 7.7 3.1 1.3 6.7.6 9.1-1.8l27.4-27.4 27.4 27.4c1.6 1.6 3.7 2.4 5.9 2.4 1.1 0 2.1-.2 3.2-.6 3.1-1.3 5.1-4.3 5.1-7.7V50.2h257.5c4.6 0 8.3-3.7 8.3-8.3zM150.3 174.8v132.9c0 4.6 3.7 8.3 8.3 8.3h182.8c4.6 0 8.3-3.7 8.3-8.3V174.8c0-4.6-3.7-8.3-8.3-8.3H158.6c-4.6 0-8.3 3.8-8.3 8.3zm16.6 8.4H333v116.3H166.9V183.2zm0 0"/><path d="M291.5 249.6h-83.1c-4.6 0-8.3 3.7-8.3 8.3 0 4.6 3.7 8.3 8.3 8.3h83.1c4.6 0 8.3-3.7 8.3-8.3 0-4.6-3.7-8.3-8.3-8.3zm0 0"/></svg>