<svg xmlns="http://www.w3.org/2000/svg" width="500" height="500" viewBox="0 0 500 500"><path d="M491.7 388.3h-53.6l18.6-5c1.7-.8 4.2-1.7 5-4.2.8-2.5 1.7-4.2.8-6.7l-12.4-45.9c.1-.8 0-1.6-.1-2.4l-8.3-32.5c-.4-.8-1-1.8-1.7-2.7l-41.7-154.6c.2-1.1.2-2.3 0-3.4L390 98.4c-.5-1-1.3-2.4-2.3-3.4l-11.9-44c-.8-4.2-5.8-6.7-10-5.8L285 66.8c-4.2.8-6.7 5.8-5.8 10l18 66.8c-6.7-3.3-14.2-5.2-22.1-5.2H33.7c-3.3 0-5.8 1.7-7.5 5-1.7 2.5-1.7 5.8 0 8.3l10 15.8c7.5 13.3 7.5 29.1 0 42.5l-7.4 11.7H8.7c-3.3 0-5.8 1.7-7.5 5-1.7 2.5-1.7 5.8 0 8.3l10 15.8c7.5 13.3 7.5 29.1 0 42.5l-10 15.8c-1.7 2.5-1.7 5.8 0 8.3 1.7 2.5 4.2 4.2 7.5 4.2h19.6l7.9 12.5c7.5 13.3 7.5 29.1 0 42.5l-7.4 11.7H8.7c-5 0-8.3 3.3-8.3 8.3v50c0 5 3.3 8.3 8.3 8.3h482.9c5 0 8.3-3.3 8.3-8.3v-50c.1-5-3.2-8.3-8.2-8.3zm-205.5-82c8.6-9 14-21.2 14-34.5 0-13.4-5.3-25.6-14-34.6 12.7-2.9 23.5-10.6 30.6-21.1l28.7 106.8 7.2 27.9c.2.4.4.8.6 1.1l9.8 36.3h-50.7c8-8.9 12.8-20.5 12.8-33.3-.1-23.6-16.8-43.6-39-48.6zm93.1-178.6l-64.1 17.5-4.2-15.8 64.1-17.5 4.2 15.8zm4.4 15.7L422 288.3l-64.4 17.3-32.8-122.9c-.6-4.8-1.8-9.4-3.7-13.7l-2-7.6 64.6-18zm-21.1 178.3l63.8-16.6 4.2 15.8-63.9 17.4-4.1-16.6zm16.7 64.9l-8.7-32.7 64.3-17.2 8.6 32.4-64.2 17.5zm-16.7-323l8.3 31.4-64.9 17.3-8.4-31.3 65-17.4zM50.4 158.5l-1.7-3.3h226.5c13.7 0 25.6 8.4 30.7 20.3l2.4 8.8c.2 1.4.3 2.7.3 4.1 0 18.3-15 33.3-33.3 33.3H48.7l1.7-3.3c10.8-18.3 10.8-41.6 0-59.9zm-25 83.3l-1.7-3.3h226.5c18.3 0 33.3 15 33.3 33.3 0 18.3-15 33.3-33.3 33.3H23.7l1.7-3.3c10.8-18.4 10.8-41.7 0-60zm25 83.2l-1.7-3.3h226.5c18.3 0 33.3 15 33.3 33.3 0 18.3-15 33.3-33.3 33.3H48.7l1.7-3.3c10.8-18.4 10.8-41.7 0-60zm432.9 113.3H17.1V405h466.4v33.3z"/><path d="M92 363.3h183.2c5 0 8.3-3.3 8.3-8.3s-3.3-8.3-8.3-8.3H92c-5 0-8.3 3.3-8.3 8.3s3.3 8.3 8.3 8.3zm-25-83.2h183.2c5 0 8.3-3.3 8.3-8.3 0-5-3.3-8.3-8.3-8.3H67c-5 0-8.3 3.3-8.3 8.3 0 4.9 3.3 8.3 8.3 8.3zm25-83.3h183.2c5 0 8.3-3.3 8.3-8.3 0-5-3.3-8.3-8.3-8.3H92c-5 0-8.3 3.3-8.3 8.3 0 5 3.3 8.3 8.3 8.3zm258.1-17.5l25.8 96.6c1.7 3.3 5 5.8 8.3 5.8 0 0 .8 0 1.7-.8 4.2-.8 6.7-5.8 5.8-10l-25.8-95.8c-.8-4.2-5.8-6.7-10-5.8-4.1.8-6.6 5.8-5.8 10z"/></svg>