<svg xmlns="http://www.w3.org/2000/svg" width="500" height="500" viewBox="0 0 500 500"><path d="M258.1 382.9V142.1c0-4.5-3.6-8.1-8.1-8.1s-8.1 3.6-8.1 8.1v240.8c0 4.5 3.6 8.1 8.1 8.1 4.5-.1 8.1-3.7 8.1-8.1zm0 0"/><path d="M491.9 81.5c-17 0-38.3-7.4-60.8-15.1-28.5-9.9-60.8-21-94.3-21-38.7 0-62.4 17-75.4 31.2-4.9 5.3-8.6 10.7-11.5 15.4-2.9-4.7-6.6-10.1-11.5-15.4-13-14.2-36.6-31.2-75.4-31.2-33.5 0-65.8 11.2-94.3 21-22.3 7.7-43.6 15.1-60.6 15.1-4.5 0-8.1 3.6-8.1 8.1v324.8c0 4.5 3.6 8.1 8.1 8.1 19.8 0 42.3-7.8 66.1-16 27.3-9.4 58.2-20.2 89-20.2 26.4 0 47.7 8.7 63.5 26 3 3.3 8.1 3.5 11.4.5 3.3-3 3.5-8.1.5-11.4-13-14.2-36.6-31.2-75.4-31.2-33.5 0-65.8 11.2-94.3 21-19.1 6.6-37.2 12.9-52.7 14.7V97.2c17.7-1.7 37.4-8.5 58-15.6 27.3-9.4 58.2-20.2 89-20.2 62.2 0 78.5 49.4 79.2 51.5 1 3.4 4.2 5.7 7.7 5.7s6.7-2.3 7.7-5.7c.2-.5 16.5-51.5 79.2-51.5 30.8 0 61.7 10.7 89 20.2 20.6 7.1 40.3 13.9 58 15.6v308.6c-15.5-1.8-33.7-8.1-52.7-14.7-28.5-9.9-60.8-21-94.3-21-38.8 0-62.4 17-75.4 31.2-3 3.3-2.8 8.4.5 11.4s8.4 2.8 11.4-.5c15.7-17.2 37.1-26 63.5-26 30.8 0 61.7 10.7 89 20.2 23.8 8.2 46.3 16 66.1 16 4.5 0 8.1-3.6 8.1-8.1V89.6c-.2-4.5-3.8-8.1-8.3-8.1zm0 0"/><path d="M491.9 438.6c-17 0-38.3-7.4-60.8-15.1-28.5-9.9-60.8-21-94.3-21-36.4 0-59.5 15-72.9 28.6h-28c-13.4-13.6-36.5-28.6-72.9-28.6-33.5 0-65.8 11.2-94.3 21-22.5 7.8-43.7 15.1-60.8 15.1-4.5 0-8.1 3.6-8.1 8.1s3.6 8.1 8.1 8.1c19.8 0 42.3-7.8 66.1-16 27.3-9.4 58.2-20.2 89-20.2 26.4 0 47.7 8.7 63.5 26 1.5 1.7 3.7 2.6 6 2.6h34.9c2.3 0 4.4-1 6-2.6 15.7-17.2 37.1-26 63.5-26 30.8 0 61.7 10.7 89 20.2 23.8 8.2 46.3 16 66.1 16 4.5 0 8.1-3.6 8.1-8.1-.1-4.5-3.7-8.1-8.2-8.1zm0 0"/></svg>