<svg xmlns="http://www.w3.org/2000/svg" width="500" height="500" viewBox="0 0 500 500"><path d="M396.6 293.1c-57 0-103.5 46.4-103.5 103.5 0 57 46.4 103.4 103.5 103.4 57 0 103.4-46.4 103.4-103.4 0-57.1-46.4-103.5-103.4-103.5zm0 189.7c-47.5 0-86.2-38.7-86.2-86.2s38.7-86.2 86.2-86.2 86.2 38.7 86.2 86.2-38.7 86.2-86.2 86.2zm0 0"/><path d="M448.3 387.9h-43.1v-43.1c0-4.8-3.9-8.6-8.6-8.6-4.8 0-8.6 3.9-8.6 8.6v51.7c0 4.8 3.9 8.6 8.6 8.6h51.7c4.8 0 8.6-3.9 8.6-8.6 0-4.7-3.8-8.6-8.6-8.6zM232.8 181.1H60.4v250h172.4V275.9H388v-94.8H232.8zm77.6 17.2h60.3v60.4h-60.3v-60.4zm-155.2 0h60.4v60.4h-60.4v-60.4zm-77.6 0H138v60.4H77.6v-60.4zm0 77.6H138v60.3H77.6v-60.3zm60.3 137.9H77.6v-60.3H138v60.3zm77.6 0h-60.4v-60.3h60.4v60.3zm0-77.6h-60.4v-60.3h60.4v60.3zm77.6-77.6h-60.3v-60.4h60.3v60.4zm0 0"/><path d="M284.5 474.2H17.3V137.9h413.8V250c0 4.8 3.9 8.6 8.6 8.6 4.8 0 8.6-3.9 8.6-8.6V43.1c0-4.8-3.9-8.6-8.6-8.6h-43.1V8.6c0-4.8-3.9-8.6-8.6-8.6h-60.4c-4.8 0-8.6 3.9-8.6 8.6v25.8H129.3V8.6c0-4.8-3.9-8.6-8.6-8.6H60.4c-4.8 0-8.6 3.9-8.6 8.6v25.8H8.6C3.8 34.4 0 38.3 0 43v439.7c0 4.8 3.9 8.6 8.6 8.6h275.8c4.8 0 8.6-3.9 8.6-8.6.1-4.7-3.7-8.5-8.5-8.5zm51.7-456.9h43.1V69h-43.1V17.3zm-267.3 0H112V69H68.9V17.3zM17.3 51.7h34.5v25.8c0 4.8 3.8 8.6 8.6 8.6h60.3c4.8 0 8.6-3.9 8.6-8.6V51.7H319v25.8c0 4.8 3.8 8.6 8.6 8.6H388c4.8 0 8.6-3.9 8.6-8.6V51.7h34.5v68.9H17.3V51.7zm0 0"/></svg>