<svg xmlns="http://www.w3.org/2000/svg" width="500" height="500" viewBox="0 0 500 500"><path d="M250 0C112.2 0 0 112.2 0 250s112.2 250 250 250 250-112.2 250-250S387.8 0 250 0zm0 480.7C122.8 480.7 19.3 377.2 19.3 250 19.3 122.8 122.8 19.3 250 19.3c127.2 0 230.7 103.5 230.7 230.7 0 127.2-103.5 230.7-230.7 230.7zm0 0"/><path d="M367.8 147.5L220 313.7l-89-71.2c-4.1-3.3-10.2-2.6-13.5 1.5-3.3 4.1-2.6 10.2 1.5 13.5l96.1 76.9c1.8 1.4 3.9 2.1 6 2.1 2.7 0 5.3-1.1 7.2-3.2l153.8-173c3.6-4 3.2-10-.8-13.6-3.9-3.6-10-3.2-13.5.8zm0 0"/></svg>