<svg xmlns="http://www.w3.org/2000/svg" width="500" height="500" viewBox="0 0 500 500"><path d="M492.2 291l-25.5-25.5c-10.4-10.4-27.3-10.4-37.7 0L291.7 402.9l-19 69.5-4.6 4.6c-3.5 3.4-3.5 9.1 0 12.6v.2h.2c1.7 1.7 4 2.6 6.2 2.6 2.3 0 4.6-.9 6.3-2.6l4.6-4.7 69.5-18.9 137.4-137.4c10.3-10.6 10.3-27.5-.1-37.8zM312.3 407.6l91.5-91.5 37.9 37.9-91.5 91.5-37.9-37.9zm-8.1 17.2l28.7 28.8-39.5 10.8 10.8-39.6zM479.6 316l-25.3 25.4-37.9-37.9 25.3-25.4c3.4-3.4 9-3.4 12.5 0l25.4 25.5c3.4 3.4 3.4 9 0 12.4zM241.1 114.9c-4.9 0-8.9 4-8.9 8.9s4 8.9 8.9 8.9h160.7c4.9 0 8.9-4 8.9-8.9 0-5-4-8.9-8.9-8.9H241.1zm169.6 133.9c0-4.9-4-8.9-8.9-8.9H241.1c-4.9 0-8.9 4-8.9 8.9s4 8.9 8.9 8.9h160.7c4.9 0 8.9-4 8.9-8.9zM183.8 72.4c-3.8-3.2-9.4-2.8-12.6 1l-55.8 65.1-34.1-25.6c-4-3-9.5-2.2-12.5 1.8-3 3.9-2.2 9.6 1.8 12.5l40.8 30.6c1.6 1.2 3.5 1.8 5.4 1.8 2.5 0 5-1.1 6.8-3.1L184.7 85c3.2-3.8 2.8-9.4-.9-12.6zm0 125c-3.8-3.2-9.4-2.8-12.6 1l-55.8 65.1-34.1-25.6c-4-3-9.5-2.1-12.5 1.8-3 3.9-2.2 9.5 1.8 12.5l40.8 30.6c1.6 1.2 3.5 1.8 5.4 1.8 2.5 0 5-1.1 6.8-3.1l61.2-71.4c3.1-3.9 2.7-9.5-1-12.7zm-12.6 134.8l-55.8 65.1-34.1-25.6c-4-3-9.5-2.1-12.5 1.8-3 3.9-2.2 9.5 1.8 12.5l40.8 30.6c1.6 1.2 3.5 1.8 5.4 1.8 2.5 0 5-1.1 6.8-3.1l61.2-71.4c3.2-3.8 2.8-9.4-1-12.6-3.8-3.2-9.4-2.8-12.6.9zm0 0"/><path d="M223.2 472H108.7c-50.1 0-90.9-40.8-90.9-90.9V116.4c0-50.1 40.8-90.9 90.9-90.9h264.7c50.1 0 90.9 40.8 90.9 90.9V222c0 4.9 4 8.9 8.9 8.9s8.9-4 8.9-8.9V116.4c0-59.9-48.7-108.7-108.7-108.7H108.7C48.8 7.7 0 56.5 0 116.4v264.7C0 441 48.8 489.8 108.7 489.8h114.5c4.9 0 8.9-4 8.9-8.9.1-4.9-4-8.9-8.9-8.9zm0 0"/></svg>