<svg xmlns="http://www.w3.org/2000/svg" width="500" height="500" viewBox="0 0 500 500"><path d="M491.7 202.9h-8.3v-8.3c0-13.3-10.8-25-25-25h-4.8l27.9-69.8c2.8-3.3 3.4-7.9.2-11l-52.1-57.4c-1.5-2.4-3.3-4.6-5.4-6.8-7.5-6.7-16.7-10.8-26.7-10.8s-20 3.3-26.7 10.8l-15 15c-3.3 3.3-3.3 8.3 0 11.7L397.5 93c1.7 1.7 3.3 2.5 5.8 2.5 1.7 0 4.2-.8 5.8-2.5l15-15c4.4-4.9 7.7-10.6 9.4-16.7l31.3 34.5-29.6 73.9H425c-13.3 0-25 10.8-25 25v8.3h-67.3l-11-140.9c-1.7-13.3-9.2-25.8-21.7-34.2-8.3-5-18.3-8.3-30-8.3h-35.8c-13.3 0-25 4.2-34.2 10.8-11.7 8.3-18.3 20-19.2 31.7l-13.5 140.8h-39.2c-2.1-2.3-3.2-5-3.2-8.3 0-2.7 1.1-5.9 3.2-8.3h13.4c3.3 0 6.7-2.5 7.5-5.8.8-3.3 0-6.7-2.5-9.2-3.3-2.5-5-5.8-5-10 0-3.3 1.7-7.5 5-10 2.5-2.5 3.3-5.8 2.5-9.2-.8-3.3-4.2-5.8-7.5-5.8h-100c-14.2 0-25 10.8-25 25 0 3.3.6 6.4 1.6 9.2C7.6 173.2 0 182.7 0 194.6c0 3.9.8 7.5 2.3 10.7-1.4 1.5-2.3 3.5-2.3 6v33.3c0 5 3.3 8.3 8.3 8.3h8.3v225c0 5 3.3 8.3 8.3 8.3h33.3c5 0 8.3-3.3 8.3-8.3v-41.7H239c-.5.8-1 1.6-1.7 2.5-5 5-18.3 14.2-54.2 14.2-6.7 0-39.2-.8-52.5 11.7-4.2 3.3-5.8 8.3-5.8 13.3s3.3 8.3 8.3 8.3 8.3-3.3 8.3-8.3c0 0 0-.8.8-1.7 5.8-5.8 27.5-7.5 40.8-6.7 32.5 0 55-6.7 66.7-20 11.7 13.3 34.2 20 66.7 20 13.3-.8 35 .8 40.8 6.7.8.8.8 1.7.8 1.7 0 5 3.3 8.3 8.3 8.3 5 0 8.3-3.3 8.3-7.5 0-5-1.7-10-5.8-13.3-13.3-12.5-46.7-11.7-52.5-11.7-35.8 0-49.2-9.2-54.2-14.2-1.1-1.1-2-2.3-2.6-3.3h173.4v41.7c0 5 3.3 8.3 8.3 8.3H475c5 0 8.3-3.3 8.3-8.3v-225h8.3c5 0 8.3-3.3 8.3-8.3v-33.3c.1-5-3.2-8.4-8.2-8.4zM417.5 50.4c0 5.8-1.7 10.8-5.8 15l-9.2 9.2-29.2-29.2 9.2-10c6.9-6.9 19.5-7.4 27.3-1.6.4 1.1 1 2.2 1.9 3.3l3.6 4c1.3 2.8 2.2 5.9 2.2 9.3zm-.8 144.2c0-4.2 3.3-8.3 8.3-8.3h33.3c4.2 0 8.3 3.3 8.3 8.3v8.3h-50v-8.3zm-220-131.7c.8-6.7 5-14.2 12.5-19.2 8.3-5.8 18.3-7.5 25-7.5H270c8.3 0 15 1.7 20.8 5.8 8.3 5 13.3 13.3 14.2 21.7l10.8 139.2H184.2l12.5-140zm-155 90h85c-.8 2.5-1.7 5.8-1.7 8.3s0 5.8.8 8.3H41.7c-5 0-8.3-3.3-8.3-8.3s3.3-8.3 8.3-8.3zM25 186.3h85c-.8 2.5-1.7 5.8-1.7 8.3s0 5.8.8 8.3H25c-5 0-8.3-3.3-8.3-8.3s3.3-8.3 8.3-8.3zm25 283.3H33.3v-33.3H50v33.3zm416.7 0H450v-33.3h16.7v33.3zm0-50H33.3V252.9h433.3v166.7zm16.6-183.3H16.7v-16.7h466.6v16.7z"/><path d="M104.2 394.6h291.7c20.8 0 37.5-16.7 38.3-36.7v-42.5c0-20.8-16.7-37.5-37.5-37.5H104.2c-20.8 0-37.5 16.7-37.5 37.5v42.5c0 20 16.6 36.7 37.5 36.7zm-20.9-79.2c0-11.7 9.2-20.8 20.8-20.8h292.5c11.7 0 20.8 9.2 20.8 20.8v42.5c0 11.7-9.2 20.8-20.8 20.8H104.2c-11.7 0-20.8-9.2-20.8-20.8v-42.5z"/></svg>