<svg xmlns="http://www.w3.org/2000/svg" width="500" height="500" viewBox="0 0 500 500"><path d="M35.5 71.1h50.8c0-10.8 1.1-20.9 1.2-24.5C88.2 31.1 89 23.8 95 16c2.8-3.7 7.6-6.8 14-9.7 6.5-2.9 14-4.3 22.7-4.3 7.9 0 15.5 1.5 22.7 4.3 6.5 2.9 9.7 5.6 13 9.7 8 10 8.6 29.9 8.6 33.5v21.6h30.3V49.5l2.2-17.3c2.8-13.7 11.5-21.3 19.4-25.9 5-2.9 13.8-4.7 22.7-4.3 6.5 0 14.6 1.3 19.5 3.1 7.4 2.8 11.9 6.3 17.3 13.1 3.4 4.3 7.6 17.3 7.6 23.8v29.1h30.3V55.9l1.1-14c.7-9.4 3.1-17 6.5-23.8 4.2-8.5 12.4-11.6 19.4-14 5.8-2 12.4-2.3 17.3-2.2 9.3.2 16.9 1.5 22.7 4.3 6.5 2.9 11.2 6.1 14 9.7 2.2 2.9 3.9 8.3 5.4 16.2 1.4 7.9 2.2 13.7 2.2 17.3V71h50.8v429H35.5V71.1zm112.4 157.7v-62.7H71.2v62.7h76.7zm0 83.2v-72.4H71.2V312h76.7zm0 77.8v-65.9H71.2v65.9h76.7zm-76.7 74.5h76.7v-62.7H71.2v62.7zm60.5-329.5c13.7 0 20.5-6.1 20.5-18.4V44.1c0-12.2-6.9-18.4-20.5-18.4-13.7 0-20.5 6.1-20.5 18.4v72.4c0 12.2 6.8 18.3 20.5 18.3zm112.4 94v-62.7h-84.3v62.7h84.3zm0 83.2v-72.4h-84.3V312h84.3zm0 77.8v-65.9h-84.3v65.9h84.3zm-84.3 74.5h84.3v-62.7h-84.3v62.7zm90.7-329.5c13.7 0 20.5-6.1 20.5-18.4V44.1c0-12.2-6.9-18.4-20.5-18.4-13.7 0-20.5 6.1-20.5 18.4v72.4c0 12.2 6.8 18.3 20.5 18.3zm89.7 94v-62.7h-84.3v62.7h84.3zm0 83.2v-72.4h-84.3V312h84.3zm0 77.8v-65.9h-84.3v65.9h84.3zm-84.3 74.5h84.3v-62.7h-84.3v62.7zm113.5-329.5c13.7 0 20.5-6.1 20.5-18.4V44.1c0-12.2-6.9-18.4-20.5-18.4-13.7 0-20.5 6.1-20.5 18.4v72.4c0 12.2 6.8 18.3 20.5 18.3zm59.4 94v-62.7H351v62.7h77.8zm0 83.2v-72.4H351V312h77.8zm0 77.8v-65.9H351v65.9h77.8zM351 464.3h77.8v-62.7H351v62.7z"/></svg>