<svg xmlns="http://www.w3.org/2000/svg" width="500" height="500" viewBox="0 0 500 500"><path d="M250 500c-4.2 0-8.3-1.1-12-3.4L83 399c-6.1-3.9-10-10.5-10.5-17.7l-21-357.4c-.4-6.2 1.9-12.3 6.1-16.7C61.8 2.6 67.8 0 74 0h352c6.2 0 12.1 2.6 16.4 7.1 4.2 4.5 6.4 10.6 6.1 16.7l-21 357.4c-.4 7.2-4.3 13.8-10.5 17.7l-155 97.6c-3.7 2.4-7.8 3.5-12 3.5zM71.4 22.6l21 357.4c0 .8.5 1.6 1.2 2l155 97.6c.8.5 1.9.5 2.7 0l155-97.6c.7-.4 1.1-1.2 1.2-2l21-357.4c.1-.9-.3-1.5-.7-1.9-.3-.4-1-.8-1.9-.8H74c-.9 0-1.5.4-1.9.8-.3.4-.7 1-.7 1.9z"/><path d="M250 438.9c-1.8 0-3.7-.5-5.3-1.5l-117.4-73.9c-2.7-1.7-4.5-4.7-4.6-7.9L107 64c-.1-2.7.8-5.4 2.7-7.4 1.9-2 4.5-3.1 7.2-3.1h266c2.7 0 5.3 1.1 7.2 3.1 1.9 2 2.9 4.7 2.7 7.4l-15.6 291.5c-.2 3.2-1.9 6.2-4.6 7.9l-117.4 73.9c-1.5 1.1-3.4 1.6-5.2 1.6zm-107.7-89.6L250 417.1l107.7-67.9 14.8-275.9h-245l14.8 276z"/><path d="M264.4 109.7H156.5c-5.5 0-10-4.5-10-10s4.5-10 10-10h107.9c5.5 0 10 4.5 10 10-.1 5.5-4.5 10-10 10zm46.7 0h-11.4c-5.5 0-10-4.5-10-10s4.5-10 10-10h11.4c5.5 0 10 4.5 10 10-.1 5.5-4.5 10-10 10zm-68.3 225c-32-.5-51.9-18.2-51.9-28.9 0-5.1 4.6-11.8 9.5-11.8 7.2 0 13.3 19.2 42.5 20.5v-68c-22.8-7.9-47.3-16.4-47.3-49.1 0-32.2 24.3-43.5 47.3-45.5v-7.7c0-2.8 2.8-5.4 6.7-5.4 3.3 0 6.7 2.6 6.7 5.4v7.2c18.2.8 40.4 6.7 40.4 16.9 0 4.1-3.3 11.8-9.2 11.8-5.4 0-12.5-8.4-31.2-9.5v58.3c21.7 7.9 45 18.7 45 53.7 0 31.2-18.4 47.8-45 51.4v9.2c0 2.8-3.3 5.4-6.7 5.4-3.8 0-6.7-2.6-6.7-5.4l-.1-8.5zm1.1-110.2v-53.7c-15.3 1.5-27.9 8.2-27.9 24.6 0 17.6 12.8 23.4 27.9 29.1zm11.2 26.8V314c16.1-2.6 25.6-12.5 25.6-29.4 0-19.5-11.5-27.4-25.6-33.3z"/></svg>