<svg xmlns="http://www.w3.org/2000/svg" width="500" height="500" viewBox="0 0 500 500"><path d="M352 433.6c-4.5-1.1-9 1.6-10.1 6.1l-8.3 33.3c-1.1 4.5 1.6 9 6.1 10.1.7.2 1.4.3 2 .3 3.7 0 7.1-2.5 8.1-6.3l8.3-33.3c1.1-4.6-1.6-9.1-6.1-10.2zM250 266.7c1.1 0 2.2-.2 3.2-.6l91.7-37.9c4.3-1.8 6.3-6.6 4.5-10.9-1.8-4.3-6.7-6.3-10.9-4.5L250 249.3 16.7 152.8V150c0-4.6-3.7-8.3-8.3-8.3-4.6 0-8.3 3.7-8.3 8.3v8.3c0 3.4 2 6.4 5.2 7.7L247 266c.8.5 1.9.7 3 .7zm99.1 85.3c-2-4.1-7-5.8-11.2-3.8-15.8 7.8-42.3 16.9-79.6 18.2v-74.8c0-4.6-3.7-8.3-8.3-8.3-4.6 0-8.3 3.7-8.3 8.3v74.7c-103.5-3.3-136.9-66-141.7-76.4v-56.6c0-4.6-3.7-8.3-8.3-8.3-4.6 0-8.3 3.7-8.3 8.3v58.3c0 1.1.2 2.1.6 3.1 1.4 3.6 36.9 88.6 166.1 88.6 45.1 0 76.8-10.9 95.4-20.1 4-2 5.7-7 3.6-11.2zm25.9 89.7c-4.6 0-8.3 3.7-8.3 8.3v25c0 4.6 3.7 8.3 8.3 8.3 4.6 0 8.3-3.7 8.3-8.3v-25c0-4.6-3.7-8.3-8.3-8.3zm0 0"/><path d="M491.7 141.7c-4.6 0-8.3 3.7-8.3 8.3v2.7l-100 41.2v-15.1l111.5-46.2c3.1-1.3 5.2-4.3 5.2-7.7 0-3.4-2-6.4-5.1-7.7l-241.7-100c-2-.8-4.3-.8-6.4 0L5.2 117.3C2 118.6 0 121.6 0 125c0 3.4 2 6.4 5.2 7.7l241.7 100c1 .4 2.1.6 3.2.6s2.2-.2 3.2-.6l87.4-36.2c4.3-1.8 6.3-6.6 4.5-10.9-1.8-4.3-6.6-6.3-10.9-4.5L250 216 30.1 125 250 34l219.9 91-95.7 39.6-91.6-34.2c.5-1.7.8-3.5.8-5.4 0-14-14.6-25-33.3-25-18.7 0-33.3 11-33.3 25s14.6 25 33.3 25c8.3 0 15.8-2.3 21.6-5.9l95.1 35.5v205.3c-9.7 3.5-16.7 12.6-16.7 23.5 0 13.8 11.2 25 25 25s25-11.2 25-25c0-10.8-7-20-16.7-23.5v-47.3c23.9-18.1 32.5-42.1 32.9-43.2.3-.9.5-1.8.5-2.7v-58.3c0-4.6-3.7-8.3-8.3-8.3-4.6 0-8.3 3.7-8.3 8.3v56.8c-1.4 3.5-6.5 14.4-16.7 25.2V211.9L494.8 166c3.1-1.3 5.2-4.3 5.2-7.7V150c0-4.6-3.7-8.3-8.3-8.3zM250 133.3c-10.2 0-16.7-4.9-16.7-8.3 0-3.4 6.5-8.3 16.7-8.3s16.7 4.9 16.7 8.3c0 3.4-6.5 8.3-16.7 8.3zm125 283.4c-4.6 0-8.3-3.7-8.3-8.3 0-4.6 3.7-8.3 8.3-8.3 4.6 0 8.3 3.7 8.3 8.3 0 4.5-3.7 8.3-8.3 8.3zm33.1 22.9c-1.1-4.5-5.7-7.2-10.1-6.1-4.5 1.1-7.2 5.6-6.1 10.1l8.3 33.3c.9 3.8 4.3 6.3 8.1 6.3.7 0 1.3-.1 2-.3 4.5-1.1 7.2-5.6 6.1-10.1l-8.3-33.2zm0 0"/></svg>