<svg xmlns="http://www.w3.org/2000/svg" width="500" height="500" viewBox="0 0 500 500"><path d="M385.7 159.8c-5.1-5.1-8.5-11.1-7.7-17.1 0-3.4 2.6-7.7 6.8-10.2.9 0 .9 0 1.7-.9l7.7-7.7c11.1-11.1 14.5-27.3 7.7-41.8-6.8-14.5-21.3-22.2-36.7-21.3l-11.1.9c-6 .9-11.1-.9-15.4-5.1-4.3-3.4-6.8-8.5-6.8-14.5v-6.8c0-16.2-9.4-29.9-24.7-35s-30.7-.9-41 11.1c-8.5 6.8-24.7 6.8-32.4 0C223.6-.5 207.3-4.8 192.8.3c-15.4 5.1-24.7 18.8-24.7 35V42c0 5.1-2.6 10.2-6.8 14.5-4.3 3.4-9.4 6-15.4 5.1l-11.1-.9C119.4 59 104.1 67.5 98.1 82c-6 14.5-3.4 30.7 7.7 41.8l7.7 7.7c.9.9 1.7 1.7 2.6 1.7 3.4.9 5.1 3.4 6 6.8 1.7 6-1.7 12.8-8.5 19.6l-7.7 7.7c-11.1 11.1-14.5 27.3-7.7 41.8s21.3 22.2 36.7 21.3l11.1-.9c6 0 11.9 1.7 16.2 6 .9 1.2 1.8 2.3 2.6 3.5v254.2c0 4.3 2.6 6.8 6 7.7.9.9 1.7.9 2.6.9 2.6 0 5.1-.9 6.8-2.6l70.8-87 70 85.3c2.6 2.6 6 3.4 9.4 2.6s6-4.3 6-7.7V236.8c.5-.7 1.1-1.3 1.7-1.9 4.3-3.4 9.4-6 15.4-5.1l11.1.9c15.4 1.7 29.9-6.8 36.7-21.3 6-14.5 3.4-30.7-7.7-41.8l-7.9-7.8zm-67.4 308.9l-61.4-75.1c-1.7-2.6-4.3-3.4-6.8-3.4s-5.1 1.7-6.8 3.4l-61.4 75.9V291.2c.1.1.3.2.4.3 1.7 1.6 4.1 3.1 6.4 3.9 13.7 6.8 30.7 4.3 43.5-6.8l.9-.9.9-2.6c1.3-1.7 3.4-3 6.1-3.8l2.1-.6c2.2-.5 4.6-.7 7.2-.7 6.8 0 12.8 2.6 15.4 5.1l1.7 2.6.9.9c12.8 11.1 30.7 13.7 45.2 6.8 2.6-.9 4.3-1.7 6-3.4v176.7zm66.5-268c-2.6 6.8-9.4 12.8-19.6 11.9l-11.1-.9c-10.2-.9-20.5 3.4-28.2 10.2-6.8 6.8-11.1 17.1-11.1 27.3V263c0 10.2-6.8 14.5-10.2 16.2-2.5 1.4-5.8 2.4-9.5 2.5-4.8-.1-10.2-1.7-15.3-5.9l-1.7-1.7c-6-6-16.2-10.2-28.2-10.2s-22.2 3.4-28.2 10.2l-1.7 1.7c-.5.4-1 .7-1.5 1.1-3.4 2.4-7.2 3.9-10.9 4.6-4.3.7-8.5.3-12.4-1.4-6-2.6-10.2-9.4-10.2-17.9v-13.7c0-5.1-1.7-11.1-4.3-16.2-.6-1.2-1.4-2.1-2.5-2.8-1.5-2-3.2-4-5.2-5.7-7.7-7.7-18.8-11.1-29-10.2l-11.1.9c-10.2.9-17.1-6-19.6-11.9-2.6-6-3.4-15.4 4.3-21.3l7.7-7.7c11.1-11.1 15.4-23.9 13.7-35-1.7-7.7-6.8-14.5-14.5-18.8l-6.8-6.8c-7.7-7.7-6.8-17.1-4.3-23 3.4-6.8 9.4-12.8 19.6-11.9l11.9.9c10.2.9 20.5-2.6 28.2-9.4S185 52.5 185 42.3v-6.8c0-10.2 6.8-16.2 13.7-18.8 6-1.7 15.4-1.7 22.2 6.8l.9.9c14.5 12.8 41 12.8 56.3 0l.9-.9c6-8.5 15.4-9.4 22.2-6.8 6.8 1.7 13.7 8.5 13.7 18.8v6c0 10.2 4.3 20.5 11.9 27.3 6.8 7.7 17.1 11.1 27.3 7.7l11.1-.9c10.2-.9 17.1 6 19.6 11.9 2.6 6.8 3.4 15.4-4.3 23l-6.8 6.8c-7.7 5.1-12.8 12.8-13.7 22.2-.9 11.1 3.4 22.2 12.8 30.7l7.7 7.7c7.7 7.5 6.9 16.8 4.3 22.8z"/><path d="M250 304.8c-5.1 0-8.5 3.4-8.5 8.5V356c0 5.1 3.4 8.5 8.5 8.5s8.5-3.4 8.5-8.5v-42.7c0-5.1-3.4-8.5-8.5-8.5zm74.2-186.9l-50.3-8.5-16.2-41.8c-.9-3.4-4.3-5.1-7.7-5.1s-6 1.7-7.7 5.1l-16.2 41.8-50.3 8.5c-3.4.9-6 2.6-6.8 6-1.7 2.6-.9 6 1.7 8.5l33.3 33.3-8.5 50.3c-.9 3.4.9 6.8 3.4 8.5 2.6 1.7 6.8 1.7 9.4 0l41.8-24.7 41.8 24.7c.9.9 2.6.9 4.3.9 1.7 0 3.4 0 5.1-.9 2.6-1.7 4.3-5.1 3.4-8.5l-8.5-50.3 33.3-33.3c1.7-2.6 2.6-5.1 1.7-8.5s-3.5-5.1-7-6zm-43.5 37.6c-1.7 2.6-3.4 5.1-2.6 7.7l6 36.7-29.9-17.9c-.9-.9-2.6-.9-4.3-.9s-3.4.9-4.3 1.7l-29.9 17.9 6-36.7c0-2.6-.9-6-2.6-7.7l-24.7-24.7 38.4-6.8c3.4 0 6-2.6 6.8-5.1L250 93.2l10.2 26.5c1.7 2.6 4.3 4.3 6.8 5.1l38.4 6-24.7 24.7z"/></svg>