<svg xmlns="http://www.w3.org/2000/svg" width="500" height="500" viewBox="0 0 500 500"><path d="M500 250C500 112.2 387.8 0 250 0S0 112.2 0 250c0 72.8 31.3 138.5 81.1 184.2l-.2.2 8.1 6.8c.5.4 1.1.8 1.6 1.3 4.3 3.5 8.8 6.9 13.3 10.2 1.5 1.1 2.9 2.1 4.4 3.2 4.9 3.3 9.9 6.5 15 9.5 1.1.7 2.2 1.3 3.3 2 5.6 3.1 11.3 6.2 17.1 8.9.4.2.9.4 1.3.6 19 8.8 39.3 15.3 60.5 19.1.6.1 1.1.2 1.7.3 6.6 1.2 13.2 2 20 2.7.8.1 1.6.1 2.4.2 6.7.5 13.5.9 20.4.9 6.8 0 13.5-.4 20.2-.9.9-.1 1.7-.1 2.5-.2 6.7-.6 13.3-1.5 19.8-2.6.6-.1 1.2-.2 1.7-.3 20.9-3.7 40.8-10.1 59.6-18.7l2.1-.9c5.6-2.7 11.1-5.5 16.5-8.5 1.3-.8 2.7-1.5 4-2.3 4.9-2.9 9.7-5.9 14.4-9.1 1.7-1.1 3.3-2.4 5-3.6 4-2.8 7.9-5.8 11.7-8.9.9-.7 1.8-1.3 2.6-2l8.3-7-.3-.2C468.4 389.1 500 323.2 500 250zm-481.8 0c0-127.8 104-231.8 231.8-231.8s231.8 104 231.8 231.8c0 68.9-30.2 130.8-78.1 173.3-2.7-1.8-5.3-3.5-8.1-4.9l-77-38.5c-6.9-3.5-11.2-10.4-11.2-18.1v-26.9c1.8-2.2 3.7-4.7 5.6-7.4 10-14.1 18-29.7 23.8-46.6 11.5-5.5 19-17 19-29.9v-32.2c0-7.9-2.9-15.5-8-21.5v-42.4c.4-4.7 2.1-31.3-17.1-53.3-16.7-19.1-43.9-28.8-80.6-28.8-36.7 0-63.9 9.7-80.6 28.8-19.3 22-17.6 48.6-17.1 53.3v42.4c-5.1 6-8 13.7-8 21.5V251c0 10 4.5 19.4 12.2 25.7 7.4 28.9 22.5 50.7 28.1 58.1v26.3c0 7.4-4.1 14.2-10.6 17.8L102 418.1c-2.3 1.2-4.6 2.7-6.8 4.4-47.2-42.6-77-104.1-77-172.5zM386 437.5c-3.2 2.3-6.4 4.6-9.7 6.7-1.5 1-3 2-4.5 2.9-4.3 2.7-8.7 5.1-13.1 7.5-1 .5-2 1-2.9 1.5-10.3 5.2-20.9 9.8-31.7 13.4-.4.1-.8.3-1.2.4-5.7 1.9-11.5 3.6-17.3 5-5.9 1.5-11.9 2.7-17.8 3.7-.2 0-.4 0-.5.1-5.6.9-11.4 1.5-17 2.1-1 .1-2 .1-3.1.2-5.6.4-11.3.7-17 .7-5.8 0-11.5-.3-17.2-.7-1 0-2-.1-3-.2-5.8-.5-11.5-1.2-17.2-2.1l-.8-.1c-12-2-23.8-5-35.4-8.8-.4-.1-.7-.3-1.1-.4-5.7-1.9-11.4-4.1-16.9-6.5h-.1c-5.2-2.3-10.4-4.8-15.5-7.4-.7-.4-1.3-.7-2-1-4.7-2.5-9.2-5.1-13.7-7.9-1.3-.8-2.7-1.7-3.9-2.6-4.1-2.7-8.2-5.5-12.2-8.5l-1.2-.9.8-.5 71.9-39.2c12.3-6.7 20-19.7 20-33.8v-32.8l-2.1-2.5c-.2-.2-19.8-24.1-27.3-56.5l-.8-3.6-3.1-2c-4.4-2.8-7-7.5-7-12.6v-32.2c0-4.2 1.8-8.2 5.1-11.1l3-2.7v-50.6l-.1-1.2c0-.2-2.7-22.1 12.7-39.6 13.1-15 35.7-22.6 66.9-22.6 31.2 0 53.6 7.5 66.8 22.4 15.4 17.4 12.9 39.6 12.9 39.8l-.1 51.8 3 2.7c3.2 2.9 5.1 6.9 5.1 11.1V251c0 6.5-4.4 12.4-10.7 14.3l-4.5 1.4-1.5 4.5c-5.4 16.6-13 32-22.7 45.7-2.4 3.4-4.7 6.3-6.7 8.6l-2.2 2.5v33.6c0 14.6 8.1 27.8 21.2 34.4l77 38.5c.5.2 1 .5 1.5.8-1.1.9-2.1 1.5-3.1 2.2zm0 0"/></svg>