<svg xmlns="http://www.w3.org/2000/svg" width="500" height="500" viewBox="0 0 500 500"><path d="M258.3 133.3H141.7V250h116.7V133.3zm-16.6 100h-83.3V150h83.3v83.3zm191.7-100H300c-4.6 0-8.3 3.7-8.3 8.3 0 4.6 3.7 8.3 8.3 8.3h133.3c4.6 0 8.3-3.7 8.3-8.3.1-4.6-3.7-8.3-8.2-8.3zm0 50.1H300c-4.6 0-8.3 3.7-8.3 8.3 0 4.6 3.7 8.3 8.3 8.3h133.3c4.6 0 8.3-3.7 8.3-8.3.1-4.6-3.7-8.3-8.2-8.3zm0 49.9H300c-4.6 0-8.3 3.7-8.3 8.3 0 4.6 3.7 8.3 8.3 8.3h133.3c4.6 0 8.3-3.7 8.3-8.3.1-4.5-3.7-8.3-8.2-8.3zm0 50h-275c-4.6 0-8.3 3.7-8.3 8.3 0 4.6 3.7 8.3 8.3 8.3h275c4.6 0 8.3-3.8 8.3-8.3 0-4.5-3.8-8.3-8.3-8.3zm-150.1 50h-125c-4.6 0-8.3 3.7-8.3 8.3 0 4.6 3.7 8.3 8.3 8.3h125c4.6 0 8.3-3.8 8.3-8.3.1-4.5-3.6-8.3-8.3-8.3zm0 50h-125c-4.6 0-8.3 3.7-8.3 8.3 0 4.6 3.7 8.3 8.3 8.3h125c4.6 0 8.3-3.7 8.3-8.3.1-4.6-3.6-8.3-8.3-8.3zm0 50.1h-125c-4.6 0-8.3 3.7-8.3 8.3 0 4.6 3.7 8.3 8.3 8.3h125c4.6 0 8.3-3.7 8.3-8.3.1-4.6-3.6-8.3-8.3-8.3zM325 450h116.7V333.3H325V450zm16.7-100H425v83.3h-83.3V350zm0 0"/><path d="M491.7 108.3c0-.1 0-.2-.1-.4V0H91.7v250H8.3v200c0 27.6 22.4 50 50 50h383.3c27.5 0 49.9-22.4 49.9-49.9V108.7c.1-.1.2-.2.2-.4zm-16.8-91.6V100H108.4V16.7h366.5zM25 450V266.7h66.6V450c0 18.4-14.9 33.3-33.3 33.3C40 483.3 25 468.4 25 450zm416.7 33.3H95.6c.1-.1.2-.3.4-.4 1.7-1.9 3.3-4 4.6-6.2.2-.3.4-.7.6-1.1 1.4-2.2 2.6-4.6 3.5-7.1.1-.3.2-.7.4-1 1-2.6 1.8-5.2 2.3-7.9 0-.2.1-.5.1-.8.5-2.9.9-5.8.9-8.8V116.7H475v333.4c-.1 18.3-15 33.2-33.3 33.2zm0 0"/><path d="M391.7 33.3h-200v50h200v-50zM375 66.6H208.3V50H375v16.6zm0 0"/></svg>