<svg xmlns="http://www.w3.org/2000/svg" width="500" height="500" viewBox="0 0 500 500"><path fill="#231F20" d="M0 0c67.7 0 132.5 13 194.3 39.1 61.2 26 114.3 61.9 159.2 107.4 44.9 44.9 80.7 98 107.4 159.2 26.7 61.2 39.7 126 39.1 194.3h-95.7c0-54.7-10.7-107.1-32.2-157.2-21.5-50.1-50.1-93.1-85.9-128.9-35.8-36.4-78.8-65.1-128.9-85.9C107.1 106.5 54.7 95.7 0 95.7V0zm0 169.9c59.9 0 114.9 14.6 165 43.9 50.8 29.3 91.1 69.3 121.1 120.1 29.3 50.8 43.9 106.1 43.9 166h-95.7c0-65.1-23.1-120.4-69.3-166-45.6-46.2-100.6-69.3-165-69.3v-94.7zm19.5 215.8c13-13 28.6-19.5 46.9-19.5 18.2 0 33.8 6.5 46.9 19.5 13 13 19.5 28.7 19.5 46.9 0 18.9-6.5 34.8-19.5 47.8S84.6 499.6 66.4 499c-18.2 0-33.9-6.5-46.9-19.5-13-12.4-19.5-28-19.5-46.9 0-18.2 6.5-33.8 19.5-46.9z"/></svg>