<svg xmlns="http://www.w3.org/2000/svg" width="500" height="500" viewBox="0 0 500 500"><path fill="#231F20" d="M448.6 148.2c.3 4.4.3 8.9.3 13.3C448.9 297 345.8 453 157.4 453c-58.1 0-112-16.8-157.4-46 8.3.9 16.2 1.3 24.7 1.3 47.9 0 92-16.2 127.2-43.8-45.1-.9-82.8-30.5-95.8-71.1 6.3.9 12.7 1.6 19.4 1.6 9.2 0 18.4-1.3 27-3.5-47-9.5-82.2-50.8-82.2-100.6v-1.3c13.6 7.6 29.5 12.4 46.3 13-27.6-18.4-45.7-49.8-45.7-85.3 0-19 5.1-36.5 14-51.7 50.4 62.2 126.3 102.8 211.3 107.2-1.6-7.6-2.5-15.5-2.5-23.5C243.7 93 289.3 47 346.1 47c29.5 0 56.1 12.4 74.9 32.4 23.2-4.4 45.4-13 65-24.7-7.6 23.8-23.8 43.8-45.1 56.5 20.6-2.2 40.6-7.9 59-15.9-13.9 20.2-31.3 38.3-51.3 52.9z"/></svg>