<svg xmlns="http://www.w3.org/2000/svg" width="500" height="500" viewBox="0 0 500 500"><path fill="#231F20" d="M500 435.9c0 35.1-29 64.1-64.1 64.1H64.1C29 500 0 471 0 435.9V64.1C0 29 29 0 64.1 0h371.7C471 0 500 29 500 64.1v371.8zm-56.6-224.3h-43.9c4.2 13.3 6.5 28 6.5 42.6 0 83.3-69.7 150.7-155.6 150.7-85.6 0-155.3-67.4-155.3-150.7 0-14.6 2.3-29.3 6.5-42.6H55.7v210.9c0 11.1 8.8 19.9 19.9 19.9h348c11.1 0 19.9-8.8 19.9-19.9V211.6zm-193.1-59.9C195 151.7 150 195.3 150 249s44.9 97.3 100.3 97.3c55.7 0 100.6-43.6 100.6-97.3s-44.9-97.3-100.6-97.3zm193.1-73.6c0-12.4-10.1-22.5-22.5-22.5h-56.6c-12.4 0-22.5 10.1-22.5 22.5v53.7c0 12.4 10.1 22.5 22.5 22.5h56.6c12.4 0 22.5-10.1 22.5-22.5V78.1z"/></svg>