<svg xmlns="http://www.w3.org/2000/svg" width="500" height="500" viewBox="0 0 500 500"><path fill="#231F20" d="M34.3 165.1c23.5-22.3 51.6-33.7 84.4-34.3 32.8.6 60.9 12.1 84.4 34.3 22.9 23.5 34.3 51.6 34.3 84.4 0 33.4-11.5 61.2-34.3 83.5-23.5 24.1-51.6 35.9-84.4 35.3-32.8.6-60.9-11.1-84.4-35.3C11.4 310.8 0 282.9 0 249.5c0-32.7 11.4-60.9 34.3-84.4zm262.5.9c22.9-23.5 51-34.9 84.4-34.3 32.8-.6 60.6 10.8 83.5 34.3 23.5 22.3 35.3 50.4 35.3 84.4 0 32.2-11.8 60-35.3 83.5-22.9 22.9-50.7 34.6-83.5 35.3-33.4-.6-61.5-12.4-84.4-35.3-22.9-23.5-34.3-51.3-34.3-83.5 0-33.9 11.5-62.1 34.3-84.4z"/></svg>