<svg xmlns="http://www.w3.org/2000/svg" width="500" height="500" viewBox="0 0 500 500"><path d="M464.9 196.9h-73.5L492 96.3c5.2-5.2 8-12 8-19.3 0-7.3-2.8-14.1-8-19.3l-10.5-10.5c-10.6-10.6-27.9-10.6-38.6 0L293.2 196.9H32.1C14.4 196.9 0 211.3 0 229v199.7c0 17.7 14.4 32.1 32.1 32.1h432.8c17.7 0 32.1-14.4 32.1-32.1V229c0-17.7-14.4-32.1-32.1-32.1zM457 61.3c2.9-2.9 7.5-2.9 10.4 0l10.5 10.5c1.4 1.4 2.2 3.2 2.2 5.2s-.8 3.8-2.2 5.2l-25.5 25.5-17.9-17.9-3-3L457 61.3zm-39.6 39.6l20.9 20.9-199.1 199.1-31.4 10.5 10.5-31.4 199.1-199.1zm59.7 327.8c0 6.7-5.5 12.2-12.2 12.2H32.1c-6.7 0-12.2-5.5-12.2-12.2V229c0-6.7 5.5-12.2 12.2-12.2h241.2l-70.8 70.8c-1.1 1.1-1.9 2.4-2.4 3.9L182.6 344c-1.2 3.6-.3 7.5 2.4 10.2 1.9 1.9 4.4 2.9 7 2.9 1.1 0 2.1-.2 3.1-.5l52.5-17.5c1.5-.5 2.8-1.3 3.9-2.4l119.9-119.9h93.4c6.7 0 12.2 5.5 12.2 12.2v199.7z"/><path d="M440.5 398.6h-5.9c-5.5 0-10 4.5-10 10s4.5 10 10 10h5.9c5.5 0 10-4.5 10-10 0-5.6-4.5-10-10-10zm-45.5 0H168.3c-5.5 0-10 4.5-10 10s4.5 10 10 10H395c5.5 0 10-4.5 10-10-.1-5.6-4.5-10-10-10zm45.5-57.4H292c-5.5 0-10 4.5-10 10s4.5 10 10 10h148.5c5.5 0 10-4.5 10-10s-4.5-10-10-10zm-335.4-32.4v-36.9c12.7.9 17.5 6.7 21.8 6.7 5.5 0 8-6.9 8-10.4 0-8.9-17.5-12.7-29.8-13.1v-4.9c0-2.2-2.7-4.2-5.5-4.2-3.1 0-5.3 2-5.3 4.2v5.3c-17.3 1.8-34.6 10.9-34.6 33.8 0 23.3 18.2 29.8 34.6 35.7v42.8c-18.6-1.5-23.5-14.2-29.5-14.2-4.5 0-8.4 6-8.4 10.4 0 8.9 15.3 21.1 37.8 21.5v5.6c0 2.2 2.2 4.2 5.3 4.2 2.7 0 5.5-2 5.5-4.2v-6.2c19.6-2.7 33.1-15.1 33.1-37.5.1-24.8-17.2-32.8-33-38.6zm-9.7-3.5c-9.6-3.6-17.5-7.5-17.5-17.8 0-9.5 7.3-14 17.5-15.3v33.1zm8.6 62.1V329c8.9 3.8 16 8.9 16 20.4 0 10.3-6.2 16.2-16 18z"/></svg>