<svg xmlns="http://www.w3.org/2000/svg" xmlns:xlink="http://www.w3.org/1999/xlink" width="500" height="108.1" viewBox="0 0 500 108.1"><path fill="#06357A" d="M162.2 56l-8-32.9h-9.5l-8 32.7-7.4-32.7H121l10.6 44.1h9.4l8.4-32.9 7.4 32.9h10l11.1-44.1h-8.1zm20.6-10.8c0 13.8 7.5 22 20.1 22h14.3v-6.4h-13.3c-7.5 0-11.5-4.2-12.2-12.8h24.9v-6.4h-24.8c.8-8.1 4.8-12 12.2-12h13.3v-6.4H203c-12.7-.1-20.2 8.2-20.2 22m63.1-4h-7c-2.7 0-7.1-.8-7.1-5.8 0-5.1 4.5-5.9 7.1-5.9h19.8v-6.4h-21.5c-6.7 0-13.4 4-13.4 12.8 0 9 6.9 12.2 13.4 12.2h8.4c4.8 0 7.2 2.1 7.3 6.3 0 1.9-.5 3.5-1.5 4.5-1.2 1.2-3.2 1.9-5.7 1.9h-20.4v6.4H246c9.9 0 15.1-4.5 15.1-13-.2-8.5-5.4-13-15.2-13m19.4-11.7h13.3v37.7h7.9V29.5h13.3v-6.4h-34.5zm97.3 12h-21.8V23.1H333v44.1h7.8V48h21.8v19.2h7.9V23.1h-7.9zm16.8-18.4h7.8v44h-7.8zm24.5 30.3V23.1h-7.8v28.7c0 4 .6 9.6 6.1 12.9 2.7 1.7 5 2.4 7.5 2.4h14v-6.4h-11.2c-5.7.1-8.6-2.4-8.6-7.3m34.2 0V23.1h-7.8v28.7c0 4 .6 9.6 6.1 12.9 2.7 1.7 5 2.4 7.5 2.4h14v-6.4h-11.2c-5.7.1-8.6-2.4-8.6-7.3m46.8-12.2h-7c-2.7 0-7.1-.8-7.1-5.8 0-5.1 4.5-5.9 7.1-5.9h19.8v-6.4h-21.5c-6.7 0-13.4 4-13.4 12.8 0 9 6.9 12.2 13.4 12.2h8.4c4.8 0 7.2 2.1 7.3 6.3 0 1.9-.5 3.5-1.5 4.5-1.2 1.2-3.2 1.9-5.7 1.9h-20.4v6.4H485c9.8 0 15.1-4.5 15.1-13-.1-8.5-5.3-13-15.2-13m-347.6 40h-5.7c-2.7 0-3.8 1.8-3.8 5.2 0 3.4 1.1 5.2 3.8 5.2h5.7v2.7h-6.7c-4.3 0-6.6-2.8-6.6-7.9 0-5.1 2.3-7.9 6.6-7.9h6.7v2.7zm9.4-3c6.2 0 7.9 3.6 7.9 8.1s-1.7 8.1-7.9 8.1-7.9-3.6-7.9-8.1 1.7-8.1 7.9-8.1m-4.4 8.2c0 2.8.4 5.5 4.4 5.5 3.9 0 4.4-2.7 4.4-5.5s-.4-5.5-4.4-5.5c-4-.1-4.4 2.6-4.4 5.5m14.7 7.9V78.4h5l4.1 12.3 4.1-12.3h5v15.9h-3.3V82.5h-.1l-4 11.8h-3.3l-4.1-11.8v11.8zm20.9 0V78.4h5l4.1 12.3 4-12.3h5.1v15.9h-3.4V82.5h-.1l-4 11.8h-3.3l-4-11.8h-.1v11.8zM202 78.4V89c0 1.8 1.3 2.8 3.6 2.8s3.6-1.1 3.6-2.8V78.4h3.3v10.7c0 3.4-3 5.3-6.9 5.3-4 0-6.9-1.9-6.9-5.3V78.4h3.3zm13.2 15.9V78.4h4.3l6.3 11.6h.1V78.4h3.4v15.9H225l-6.4-11.6h-.1v11.6zm17.1-15.9h3.3v15.8h-3.3zm19.6 0v2.8h-5.4v13.1h-3.3V81.2h-5.3v-2.8zm4.5 0l3.8 6.4 3.9-6.4h3.6l-5.8 9.1v6.8h-3.4v-6.8l-5.8-9.1zm32.7 2.8h-5.7c-2.7 0-3.8 1.8-3.8 5.2 0 3.4 1.1 5.2 3.8 5.2h5.7v2.7h-6.7c-4.3 0-6.6-2.8-6.6-7.9 0-5.1 2.3-7.9 6.6-7.9h6.7v2.7zm9.4-3c6.2 0 7.9 3.6 7.9 8.1s-1.7 8.1-7.9 8.1-7.9-3.6-7.9-8.1 1.7-8.1 7.9-8.1m-4.4 8.2c0 2.8.4 5.5 4.4 5.5 3.9 0 4.4-2.7 4.4-5.5s-.4-5.5-4.4-5.5c-4-.1-4.4 2.6-4.4 5.5m14.7 2.1V78.4h3.3v9.9c0 1.9 1.2 3.3 3.3 3.3h4.4v2.7h-5.5c-3 0-5.5-1.5-5.5-5.8m12.8 0V78.4h3.3v9.9c0 1.9 1.2 3.3 3.3 3.3h4.4v2.7H327c-2.9 0-5.4-1.5-5.4-5.8m24.3-.8H337c.4 2.7 1.5 3.9 3.8 3.9h5.4v2.7h-6.3c-4.3 0-6.6-2.8-6.6-7.9 0-5.1 2.3-7.9 6.6-7.9h6.3v2.7h-5.4c-1.5 0-3.3.3-3.8 3.9h8.9v2.6zm2.5-1.3c0-5.1 2.3-7.9 6.6-7.9h8.4v2.7H356c-2.7 0-3.8 1.8-3.8 5.2 0 3.4 1.1 5.2 3.8 5.2h4.1v-3.9h-4.4v-2.6h7.7v9.2H355c-4.3 0-6.6-2.8-6.6-7.9m29.8 1.3h-8.9c.4 2.7 1.5 3.9 3.8 3.9h5.4v2.7h-6.3c-4.3 0-6.6-2.8-6.6-7.9 0-5.1 2.3-7.9 6.6-7.9h6.3v2.7h-5.4c-1.5 0-3.3.3-3.8 3.9h8.9v2.6zm12.7-9.3h8.4c4.2 0 6.4 2.8 6.4 7.9 0 5.1-2.2 7.9-6.4 7.9h-8.4V78.4zm3.3 13.2h3.9c2.7 0 3.8-1.8 3.8-5.2 0-3.4-1.1-5.2-3.8-5.2h-3.9v10.4zm13.9-13.2h3.3v15.8h-3.3zm20.4 2.8h-8.6c-1.1 0-2 .6-2 1.9 0 1.4 1 1.9 2 1.9h4.9c1.7 0 4.5 1 4.5 4.7s-2.8 4.7-4.5 4.7h-10.3v-2.7h8.8c1.1 0 2.1-.8 2.1-2 0-1.1-.9-2-2.1-2h-4.9c-1.7 0-4.5-.9-4.5-4.6 0-3.7 2.8-4.6 4.5-4.6h10.1v2.7zm15.8-2.8v2.8H439v13.1h-3.3V81.2h-5.3v-2.8zm5.6 9.7v6.2h-3.3V78.4h9c2.8 0 4.7 1.4 4.7 4.8 0 3.6-2.2 4.4-3 4.6l3.4 6.4h-4l-3.2-6.2h-3.6zm0-2.5h3.9c1.4 0 2.5-.5 2.5-2.2 0-1.7-1.1-2.2-2.5-2.2h-3.9v4.4zm13.5-7.2h3.3v15.8h-3.3zm19 2.8h-5.7c-2.7 0-3.8 1.8-3.8 5.2 0 3.4 1.1 5.2 3.8 5.2h5.7v2.7h-6.7c-4.3 0-6.6-2.8-6.6-7.9 0-5.1 2.3-7.9 6.6-7.9h6.7v2.7zm16.2-2.8v2.8h-5.3v13.1h-3.4V81.2h-5.3v-2.8z"/><linearGradient id="a" gradientUnits="userSpaceOnUse" x1="-295.686" y1="45.953" x2="-295.686" y2="-52.593" gradientTransform="rotate(180 -120.792 25.37)"><stop offset=".055" stop-color="#c6e8fa"/><stop offset=".264" stop-color="#95b5de"/><stop offset=".497" stop-color="#224c8e"/></linearGradient><path fill="url(#a)" d="M4.8 14.6c0-5.4 4.4-9.8 9.8-9.8h78.9c5.4 0 9.9 4.4 9.9 9.8v78.9c0 5.4-4.4 9.8-9.9 9.8H14.7c-5.4 0-9.8-4.4-9.8-9.8V14.6z"/><linearGradient id="b" gradientUnits="userSpaceOnUse" x1="-295.686" y1="45.953" x2="-295.686" y2="-52.593" gradientTransform="rotate(180 -120.792 25.37)"><stop offset=".172" stop-color="#089abf" stop-opacity=".22"/><stop offset=".65" stop-color="#252159"/><stop offset=".813" stop-color="#386778" stop-opacity=".595"/><stop offset=".942" stop-color="#4da192" stop-opacity=".274"/><stop offset="1" stop-color="#57c09e" stop-opacity=".13"/></linearGradient><path fill="url(#b)" d="M4.8 14.6c0-5.4 4.4-9.8 9.8-9.8h78.9c5.4 0 9.9 4.4 9.9 9.8v78.9c0 5.4-4.4 9.8-9.9 9.8H14.7c-5.4 0-9.8-4.4-9.8-9.8V14.6z"/><path fill="#F5DC1B" d="M35 22.2c-6.7-.1-12.2 5-12.3 11.4-.1 6.4 5.2 11.7 11.9 11.8 6.7.1 12.2-5 12.3-11.4.1-6.4-5.2-11.7-11.9-11.8z"/><radialGradient id="c" cx="34.707" cy="33.704" r="11.899" gradientTransform="translate(.204 .204) scale(.9962)" gradientUnits="userSpaceOnUse"><stop offset="0" stop-color="#f4e033" stop-opacity=".22"/><stop offset="1" stop-color="#fdee0e"/></radialGradient><path opacity=".71" fill="url(#c)" d="M35 22.2c-6.7-.1-12.2 5-12.3 11.4-.1 6.4 5.2 11.7 11.9 11.8 6.7.1 12.2-5 12.3-11.4.1-6.4-5.2-11.7-11.9-11.8z"/><linearGradient id="d" gradientUnits="userSpaceOnUse" x1="34.707" y1="22.072" x2="34.707" y2="45.337" gradientTransform="translate(.204 .204) scale(.9962)"><stop offset="0" stop-color="#fff" stop-opacity=".77"/><stop offset=".45" stop-color="#fff" stop-opacity="0"/><stop offset=".472" stop-color="#fcf1dc" stop-opacity=".006"/><stop offset=".499" stop-color="#f9e2b8" stop-opacity=".014"/><stop offset=".53" stop-color="#f6d498" stop-opacity=".023"/><stop offset=".565" stop-color="#f4c97c" stop-opacity=".033"/><stop offset=".603" stop-color="#f2c066" stop-opacity=".045"/><stop offset=".648" stop-color="#f1b955" stop-opacity=".058"/><stop offset=".704" stop-color="#f0b44a" stop-opacity=".074"/><stop offset=".783" stop-color="#efb143" stop-opacity=".097"/><stop offset="1" stop-color="#efb041" stop-opacity=".16"/></linearGradient><path fill="url(#d)" d="M35 22.2c-6.7-.1-12.2 5-12.3 11.4-.1 6.4 5.2 11.7 11.9 11.8 6.7.1 12.2-5 12.3-11.4.1-6.4-5.2-11.7-11.9-11.8z"/><linearGradient id="e" gradientUnits="userSpaceOnUse" x1="34.707" y1="22.072" x2="34.707" y2="45.337" gradientTransform="translate(.204 .204) scale(.9962)"><stop offset="0" stop-color="#fff" stop-opacity=".77"/><stop offset=".45" stop-color="#fff" stop-opacity="0"/><stop offset=".472" stop-color="#fcf1dc" stop-opacity=".006"/><stop offset=".499" stop-color="#f9e2b8" stop-opacity=".014"/><stop offset=".53" stop-color="#f6d498" stop-opacity=".023"/><stop offset=".565" stop-color="#f4c97c" stop-opacity=".033"/><stop offset=".603" stop-color="#f2c066" stop-opacity=".045"/><stop offset=".648" stop-color="#f1b955" stop-opacity=".058"/><stop offset=".704" stop-color="#f0b44a" stop-opacity=".074"/><stop offset=".783" stop-color="#efb143" stop-opacity=".097"/><stop offset="1" stop-color="#efb041" stop-opacity=".16"/></linearGradient><path fill="url(#e)" d="M35 22.2c-6.7-.1-12.2 5-12.3 11.4-.1 6.4 5.2 11.7 11.9 11.8 6.7.1 12.2-5 12.3-11.4.1-6.4-5.2-11.7-11.9-11.8z"/><defs><path id="f" d="M4.8 20.7h98.5v48.7H4.8z"/></defs><clipPath id="g"><use xlink:href="#f" overflow="visible"/></clipPath><g clip-path="url(#g)"><linearGradient id="h" gradientUnits="userSpaceOnUse" x1="79.113" y1="69.379" x2="79.113" y2="31.354"><stop offset=".393" stop-color="#b02529"/><stop offset=".469" stop-color="#b32e29"/><stop offset=".588" stop-color="#bd432a"/><stop offset=".735" stop-color="#cd6129"/><stop offset=".902" stop-color="#e68924"/><stop offset=".976" stop-color="#f89f1f"/></linearGradient><path fill="url(#h)" d="M54.9 46.9c5-4.7 10.1-10.8 15.9-14.8 3.6-2.7 8.5 2.5 14.1 3.7 2.5.5 3.9 4.4 6 6.5 1.4.7 5.2 1.2 6.6 1.9 1.7.9 4.2 4 5.8 5.1.1 10 0 20.1 0 20.1s-15-10.9-32.8-10.8c-2.2-1.5-16.3-11-15.6-11.7z"/><linearGradient id="i" gradientUnits="userSpaceOnUse" x1="79.113" y1="69.379" x2="79.113" y2="31.354"><stop offset="0" stop-color="#dd8026"/><stop offset="1" stop-color="#f9da61"/></linearGradient><path opacity=".3" fill="url(#i)" d="M54.9 46.9c5-4.7 10.1-10.8 15.9-14.8 3.6-2.7 8.5 2.5 14.1 3.7 2.5.5 3.9 4.4 6 6.5 1.4.7 5.2 1.2 6.6 1.9 1.7.9 4.2 4 5.8 5.1.1 10 0 20.1 0 20.1s-15-10.9-32.8-10.8c-2.2-1.5-16.3-11-15.6-11.7z"/></g><g clip-path="url(#g)"><linearGradient id="j" gradientUnits="userSpaceOnUse" x1="54.744" y1="58.688" x2="54.744" y2="40.404"><stop offset=".393" stop-color="#b02529"/><stop offset=".469" stop-color="#b32e29"/><stop offset=".588" stop-color="#bd432a"/><stop offset=".735" stop-color="#cd6129"/><stop offset=".902" stop-color="#e68924"/><stop offset=".976" stop-color="#f89f1f"/></linearGradient><path fill="url(#j)" d="M33.8 45c5.1-5.4 6.8-5.7 17.8-2.8C56.8 45.4 68 53 75.7 58.6c-8.9-.1-16.7.1-23.4.1C46.8 54 40.7 49.8 33.8 45z"/><linearGradient id="k" gradientUnits="userSpaceOnUse" x1="54.744" y1="58.688" x2="54.744" y2="40.404"><stop offset="0" stop-color="#dd8026"/><stop offset="1" stop-color="#f9da61"/></linearGradient><path opacity=".3" fill="url(#k)" d="M33.8 45c5.1-5.4 6.8-5.7 17.8-2.8C56.8 45.4 68 53 75.7 58.6c-8.9-.1-16.7.1-23.4.1C46.8 54 40.7 49.8 33.8 45z"/></g><g clip-path="url(#g)"><linearGradient id="l" gradientUnits="userSpaceOnUse" x1="28.938" y1="63.638" x2="28.938" y2="37.856"><stop offset=".393" stop-color="#b02529"/><stop offset=".469" stop-color="#b32e29"/><stop offset=".588" stop-color="#bd432a"/><stop offset=".735" stop-color="#cd6129"/><stop offset=".902" stop-color="#e68924"/><stop offset=".976" stop-color="#f89f1f"/></linearGradient><path fill="url(#l)" d="M5.1 48.5c0-6.2 10.4-7.9 16-10.3 3.9-1.7 4.2 2.8 4.2 2.8s-.2-.2 2.4-.1C30.3 41.8 53 59 53 59L4.9 63.6s.1-4.7.2-15.1z"/><linearGradient id="m" gradientUnits="userSpaceOnUse" x1="28.938" y1="63.638" x2="28.938" y2="37.856"><stop offset="0" stop-color="#dd8026"/><stop offset="1" stop-color="#f9da61"/></linearGradient><path opacity=".3" fill="url(#m)" d="M5.1 48.5c0-6.2 10.4-7.9 16-10.3 3.9-1.7 4.2 2.8 4.2 2.8s-.2-.2 2.4-.1C30.3 41.8 53 59 53 59L4.9 63.6s.1-4.7.2-15.1z"/></g><linearGradient id="n" gradientUnits="userSpaceOnUse" x1="-295.686" y1="-.62" x2="-295.686" y2="-52.593" gradientTransform="rotate(180 -120.792 25.37)"><stop offset="0" stop-color="#38b34a"/><stop offset=".079" stop-color="#57b848"/><stop offset=".244" stop-color="#7dc243"/><stop offset=".383" stop-color="#91c840"/><stop offset=".478" stop-color="#98ca3e"/><stop offset=".546" stop-color="#92c13e"/><stop offset=".622" stop-color="#87b23d"/><stop offset=".702" stop-color="#759b3c"/><stop offset=".786" stop-color="#5d7d38"/><stop offset=".872" stop-color="#425c2f"/><stop offset=".959" stop-color="#253920"/><stop offset="1" stop-color="#142716"/></linearGradient><path fill="url(#n)" d="M4.8 62.2v31.3c0 5.4 4.4 9.8 9.8 9.8h78.9c5.4 0 9.9-4.4 9.9-9.8V62.2S85.3 51.3 54.1 51.3c-31.2.1-49.3 10.9-49.3 10.9z"/><linearGradient id="o" gradientUnits="userSpaceOnUse" x1="-295.686" y1="-.62" x2="-295.686" y2="-52.593" gradientTransform="rotate(180 -120.792 25.37)"><stop offset="0" stop-color="#c3d830" stop-opacity=".13"/><stop offset=".134" stop-color="#b2c935" stop-opacity=".224"/><stop offset=".381" stop-color="#8daf3d" stop-opacity=".397"/><stop offset=".712" stop-color="#568c43" stop-opacity=".628"/><stop offset="1" stop-color="#057043" stop-opacity=".83"/></linearGradient><path opacity=".9" fill="url(#o)" d="M4.8 62.2v31.3c0 5.4 4.4 9.8 9.8 9.8h78.9c5.4 0 9.9-4.4 9.9-9.8V62.2S85.3 51.3 54.1 51.3c-31.2.1-49.3 10.9-49.3 10.9z"/><linearGradient id="p" gradientUnits="userSpaceOnUse" x1="-295.686" y1="-52.593" x2="-295.686" y2="-.62" gradientTransform="rotate(180 -120.792 25.37)"><stop offset="0" stop-color="#0d1c16" stop-opacity=".16"/><stop offset=".053" stop-color="#293731" stop-opacity=".143"/><stop offset=".271" stop-color="#9ba19f" stop-opacity=".072"/><stop offset=".421" stop-color="#e3e5e4" stop-opacity=".023"/><stop offset=".491" stop-color="#fff" stop-opacity="0"/><stop offset="1" stop-color="#fcee1f" stop-opacity=".77"/></linearGradient><path fill="url(#p)" d="M4.8 62.2v31.3c0 5.4 4.4 9.8 9.8 9.8h78.9c5.4 0 9.9-4.4 9.9-9.8V62.2S85.3 51.3 54.1 51.3c-31.2.1-49.3 10.9-49.3 10.9z"/><linearGradient id="q" gradientUnits="userSpaceOnUse" x1="65.036" y1="103.519" x2="65.036" y2="52.539" gradientTransform="translate(.204 .204) scale(.9962)"><stop offset="0" stop-color="#4563ac"/><stop offset=".521" stop-color="#4868af"/><stop offset=".983" stop-color="#53c8e9"/></linearGradient><path fill="url(#q)" d="M103.3 94.9c-22.8-3-52.5-17.7-61.4-24.3-2.1-2-5.1-3.7-.8-5.9 3.7-1.9 7.6-1.2 10.5-3.5 3.4-2.8-1-4.5-2.7-5.2-2-.8-13.3-3.3-12.9-3.5-1.3.4-9 1.6-9 1.6 5.7 1.6 9.6 2.6 13.8 3.7 1.5.4 2.7 1.6.4 2.1-5.2 1.2-12.7 1.6-14.4 5.7-.8 2.1 1.6 4.2 5.9 7.6 12.7 10 54.2 30 59.8 30 9.7.1 10.8-8.3 10.8-8.3z"/><linearGradient id="r" gradientUnits="userSpaceOnUse" x1="65.036" y1="103.519" x2="65.036" y2="52.539" gradientTransform="translate(.204 .204) scale(.9962)"><stop offset="0" stop-color="#1d76bb" stop-opacity=".67"/><stop offset=".002" stop-color="#1d76ba" stop-opacity=".672"/><stop offset=".06" stop-color="#1685b3" stop-opacity=".714"/><stop offset=".121" stop-color="#0d92ad" stop-opacity=".758"/><stop offset=".187" stop-color="#059ba6" stop-opacity=".806"/><stop offset=".258" stop-color="#00a2a1" stop-opacity=".858"/><stop offset=".34" stop-color="#00a59e" stop-opacity=".917"/><stop offset=".454" stop-color="#00a79c"/><stop offset=".537" stop-color="#00a3a0" stop-opacity=".907"/><stop offset=".674" stop-color="#0699a8" stop-opacity=".755"/><stop offset=".844" stop-color="#1588b2" stop-opacity=".564"/><stop offset="1" stop-color="#1d76bb" stop-opacity=".39"/></linearGradient><path fill="url(#r)" d="M103.3 94.9c-22.8-3-52.5-17.7-61.4-24.3-2.1-2-5.1-3.7-.8-5.9 3.7-1.9 7.6-1.2 10.5-3.5 3.4-2.8-1-4.5-2.7-5.2-2-.8-13.3-3.3-12.9-3.5-1.3.4-9 1.6-9 1.6 5.7 1.6 9.6 2.6 13.8 3.7 1.5.4 2.7 1.6.4 2.1-5.2 1.2-12.7 1.6-14.4 5.7-.8 2.1 1.6 4.2 5.9 7.6 12.7 10 54.2 30 59.8 30 9.7.1 10.8-8.3 10.8-8.3z"/><linearGradient id="s" gradientUnits="userSpaceOnUse" x1="65.036" y1="52.539" x2="65.036" y2="103.519" gradientTransform="translate(.204 .204) scale(.9962)"><stop offset="0" stop-color="#294a9c" stop-opacity=".16"/><stop offset=".041" stop-color="#3b59a4" stop-opacity=".141"/><stop offset=".124" stop-color="#6980b9" stop-opacity=".103"/><stop offset=".238" stop-color="#b2bedb" stop-opacity=".051"/><stop offset=".35" stop-color="#fff" stop-opacity="0"/><stop offset="1" stop-color="#fff" stop-opacity=".77"/></linearGradient><path opacity=".7" fill="url(#s)" d="M103.3 94.9c-22.8-3-52.5-17.7-61.4-24.3-2.1-2-5.1-3.7-.8-5.9 3.7-1.9 7.6-1.2 10.5-3.5 3.4-2.8-1-4.5-2.7-5.2-2-.8-13.3-3.3-12.9-3.5-1.3.4-9 1.6-9 1.6 5.7 1.6 9.6 2.6 13.8 3.7 1.5.4 2.7 1.6.4 2.1-5.2 1.2-12.7 1.6-14.4 5.7-.8 2.1 1.6 4.2 5.9 7.6 12.7 10 54.2 30 59.8 30 9.7.1 10.8-8.3 10.8-8.3z"/><path fill="#FFF" d="M92.5 102.9c-4.8-.2-10-3.3-14.3-5.2-8.1-3.6-16.1-7.6-24-11.8-6.8-3.6-13.6-7.3-19.8-11.9-2.6-1.9-9.4-5.8-6.3-9.4 1.5-1.8 4.5-2.4 6.8-2.9 2.2-.5 6.8-.4 8-2.4V59c-1.8-2.9-7.8-2.9-10.9-4-3.2-1.1-1.5-.9.8-1.3 1.2-.2 2.5-.6 3.6-.5 3 .2 6.4 1.6 9.3 2.4 1.6.4 5.6 1.1 6.5 2.8 2.4 4.9-12.8 4.1-13.5 8.5-.4 2.3 3.3 4.4 4.9 5.5 11.1 7.4 24 12.9 36.5 17.2 3.4 1.2 6.8 2.2 10.2 3.2 1.9.5 3.8 1 5.7 1.4 1.5.3 4.2.3 5.6 1 1.7.9 1.2 0 .8 1.8-.2.9-1 1.9-1.6 2.6-2.2 2.4-5.2 3.1-8.3 3.3v.3c5-.2 9.2-2.7 10.4-7.8v-.3c-12.3-1.8-24.2-5.9-35.7-10.8-8.6-3.7-18.3-7.6-25.6-13.6-10.6-8.5 12-5.6 10.9-11.8-.5-2.9-7.9-3.9-10-4.4-1.9-.5-4.2-1.4-6.2-1.6-2.3-.2-5.3.8-7.7 1.2v.3c3.5 1 7.1 1.8 10.7 2.9 2.1.6 4.4 1.1 2 2.9-1 .8-3.7.7-4.9 1-2.7.5-9.3 1.5-9.3 5.4-.1 2.8 4.1 5.2 5.9 6.7 3.2 2.5 6.7 4.6 10.1 6.7 9.4 5.6 19.2 10.6 29.1 15.3 5.9 2.8 13.6 7.6 20.3 7.9v-.3z" opacity=".49"/><path fill="#06357A" d="M93.4 0H14.7C6.6 0 0 6.6 0 14.7v78.7c0 8.1 6.6 14.7 14.7 14.7h78.7c8.1 0 14.7-6.6 14.7-14.7V14.7c0-8.1-6.6-14.7-14.7-14.7zm9.6 14.7v78.7c0 5.3-4.3 9.6-9.6 9.6H14.7c-5.3 0-9.6-4.3-9.6-9.6V14.7c0-5.3 4.3-9.6 9.6-9.6h78.7c5.3 0 9.6 4.3 9.6 9.6z"/></svg>