<svg xmlns="http://www.w3.org/2000/svg" width="500" height="97.9" viewBox="0 0 500 97.9"><g fill="#FFF"><path d="M24.9 27.3c0 4.7-1.6 9.1-4.5 11.9-2.4 2.3-5.8 3.7-9.7 3.7C4.1 42.9 0 38.3 0 32.1c0-4.7 1.7-9.1 4.7-11.9 2.5-2.3 5.8-3.7 9.7-3.7 6.6.1 10.5 4.4 10.5 10.8zM9.8 23.6C8 25.4 6.9 29.1 6.9 32c0 3.3 1.6 5.5 4.7 5.5 1.3 0 2.6-.6 3.6-1.6C17 34 18 30.1 18 27.4c0-3-1.1-5.5-4.5-5.5-1.4 0-2.7.6-3.7 1.7zm14.1 18.9l2.3-12.3c.5-2.5.8-4.6 1.1-6.3H33l-.3 2.8h.1c1.8-2.3 4-3.3 6.3-3.3 3.4 0 4.8 2.1 4.8 5.1 0 .8-.1 2.3-.3 3.2l-2 10.8h-6.5L37 32.4c.1-.6.2-1.3.2-2 0-1.1-.3-1.8-1.4-1.8-1.6 0-3.1 2-3.9 5.9l-1.5 7.9h-6.5zM58 42c-1.3.6-3.1.9-5.2.9-4.5 0-8.1-2.7-8.1-7.9 0-6.7 5.2-11.6 12.5-11.6 1.5 0 2.8.2 3.7.6l-1.5 4.9c-.6-.2-1.3-.3-2.2-.3-3.5 0-5.7 2.7-5.7 5.8 0 2.4 1.7 3.4 3.3 3.4 1.4 0 2.5-.3 3.4-.7L58 42z"/><path d="M74.8 41.4c-2.5 1.2-5.4 1.5-7.3 1.5-5.5 0-8.5-2.9-8.5-8.1 0-5.7 4.1-11.4 11.1-11.4 3.9 0 6.9 2.1 6.9 5.9 0 4.7-4.2 6.5-11.9 6.3.1.4.3.9.7 1.2.7.6 1.9.9 3.3.9 1.9 0 3.7-.4 5.3-1.1l.4 4.8zM71 29.3c0-.6-.6-1.2-1.7-1.2-2.3 0-3.4 1.7-3.6 3 4 0 5.3-.6 5.3-1.8zm18.5-5.4l.8 7.3c.2 1.8.4 3.1.5 4.2h.1c.4-1.1.7-2.3 1.5-4.3l2.8-7.3h6.8l-6.5 13c-2.7 5.3-5 8.8-7.5 11-2.2 2-4.9 3-6.2 3.2l-1.4-5.6c.9-.2 2.1-.7 3.1-1.3 1.3-.8 2.2-1.8 2.8-2.8.2-.3.2-.5.1-.9l-3.7-16.6h6.8zm29.7 7.2c0 7.2-4.9 11.8-11.4 11.8-4.8 0-8.2-2.9-8.2-7.7 0-6.5 4.6-11.7 11.5-11.7 4.9-.1 8.1 3.2 8.1 7.6zm-12.9 4c0 1.8.8 3 2.4 3 2.6 0 3.9-4.2 3.9-6.9 0-1.6-.6-2.8-2.3-2.8-2.9-.1-4 4.4-4 6.7zm33.5-11.2l-2.3 12.3c-.5 2.5-.8 4.6-1.1 6.4h-5.7l.3-2.8h-.1c-2 2.4-4.2 3.3-6.4 3.3-3.2 0-4.7-1.9-4.7-5.1 0-1.1.1-2.2.4-3.6l1.9-10.3h6.5l-1.9 9.8c-.2.8-.3 1.7-.3 2.3 0 .9.4 1.7 1.4 1.7 1.7 0 3.1-2 3.8-5.6l1.6-8.3h6.6zM150.3 46c1.6.9 5.5 1.5 7.8 1.5 4.1 0 7-1.7 8.1-6.7l.3-1.7h-.1c-2.2 2.5-4.5 3.6-7.7 3.6-5.9 0-9.8-4.7-9.8-10.7-.1-9.7 6.8-19.4 20.4-19.4 4.5 0 8.2.7 11.6 2.1l-4.4 24.5c-1 5.2-2.7 10.2-6.4 13.1-3.3 2.6-7.8 3.4-12 3.4-4.1 0-7.9-.7-10-1.8l2.2-7.9zm19.5-25.3c-.5-.2-1.6-.4-2.4-.4-4.4 0-7.6 5.1-7.6 10.1 0 2.8 1.4 4.4 3.3 4.4 2.2 0 4.4-2.2 5.3-6.9l1.4-7.2zm42.3 4.1c0 11.6-7.9 18.9-18.3 18.9-7.6 0-13.1-4.7-13.1-12.4 0-10.5 7.4-18.8 18.4-18.8 7.9 0 13 5.3 13 12.3zm-20.7 6.3c0 2.9 1.3 4.7 3.8 4.7 4.2 0 6.2-6.7 6.2-11 0-2.5-1-4.5-3.8-4.5-4.4.1-6.2 7.2-6.2 10.8zM219.5 43l8.1-43H238l-3.2 16.4h.1c2.4-2.3 5.3-3.9 9-3.9 5.2 0 7.6 3.3 7.6 8.1 0 1.3-.2 3.7-.6 5.5L247.7 43h-10.4l3-15.9c.2-1.2.4-2.4.4-3.5 0-1.6-.6-2.8-2.3-2.8-2.7 0-5 3.4-6.1 9.1L229.9 43h-10.4zm58.2-1.7c-4 1.9-8.7 2.4-11.7 2.4-8.7 0-13.5-4.6-13.5-12.9 0-9.1 6.5-18.2 17.8-18.2 6.2 0 11 3.4 11 9.5 0 7.5-6.8 10.5-19.1 10.1.1.7.5 1.5 1.1 2 1.2 1 3 1.5 5.3 1.5 3 0 5.9-.6 8.5-1.8l.6 7.4zm-6-19.4c0-1-1-1.9-2.7-1.9-3.7 0-5.5 2.8-5.8 4.7 6.4.1 8.5-.8 8.5-2.8zM280 43l3.3-17.1c.8-4.7 1.2-10.2 1.5-12.7h8.9c-.1 2-.2 3.9-.4 5.9h.2c2.2-3.9 5.5-6.6 9.6-6.6.6 0 1.2 0 1.8.1l-2.1 10h-1.3c-6.1 0-8.2 4.8-9.2 10.2L290.4 43H280zm47.2-1.7c-4 1.9-8.7 2.4-11.7 2.4-8.7 0-13.5-4.6-13.5-12.9 0-9.1 6.5-18.2 17.8-18.2 6.2 0 11 3.4 11 9.5 0 7.5-6.8 10.5-19.1 10.1.1.7.5 1.5 1.1 2 1.1 1 3 1.5 5.3 1.5 3 0 5.9-.6 8.5-1.8l.6 7.4zm-6-19.4c0-1-1-1.9-2.7-1.9-3.7 0-5.5 2.8-5.8 4.7 6.3.1 8.5-.8 8.5-2.8zm8.2 24.9c1.4-2.8 2.8-6.1 3.6-9l5-.3c-1.5 3.2-3.4 6.6-5.3 9.1l-3.3.2zM55.1 66l.8 7.3c.2 1.8.4 3.1.5 4.2h.1c.4-1.1.7-2.3 1.5-4.3l2.8-7.3h6.8l-6.5 13c-2.7 5.3-5 8.8-7.5 11-2.2 2-4.9 3-6.2 3.2L46 87.6c.9-.2 2.1-.7 3.1-1.3 1.2-.8 2.2-1.8 2.8-2.8.2-.3.2-.5.1-.9L48.3 66h6.8zm29.7 7.2c0 7.2-4.9 11.8-11.4 11.8-4.8 0-8.2-2.9-8.2-7.7 0-6.5 4.6-11.7 11.5-11.7 5 0 8.1 3.2 8.1 7.6zm-12.9 4c0 1.8.8 3 2.4 3 2.6 0 3.9-4.2 3.9-6.9 0-1.6-.6-2.8-2.3-2.8-2.8-.1-4 4.4-4 6.7zM105.4 66l-2.3 12.3c-.5 2.5-.8 4.6-1.1 6.4h-5.7l.3-2.8h-.1c-2 2.4-4.2 3.3-6.4 3.3-3.2 0-4.7-1.9-4.7-5.1 0-1.1.1-2.2.4-3.6l2-10.5h6.5l-1.9 9.8c-.2.8-.3 1.7-.3 2.3 0 .9.4 1.7 1.4 1.7 1.7 0 3.1-2 3.8-5.6l1.6-8.3h6.5zm18.1 18.1c-1.3.6-3.1.9-5.2.9-4.5 0-8.1-2.7-8.1-7.9 0-6.7 5.2-11.6 12.5-11.6 1.5 0 2.8.2 3.7.6l-1.5 4.9c-.6-.2-1.3-.3-2.2-.3-3.5 0-5.7 2.7-5.7 5.8 0 2.4 1.7 3.4 3.3 3.4 1.4 0 2.5-.3 3.4-.7l-.2 4.9z"/><path d="M135.9 84.6c0-1.1.1-2.2.2-3.2h-.1c-1.6 2.8-3.9 3.6-5.9 3.6-3.4 0-5.8-2.6-5.8-6.6 0-6.2 3.9-12.8 13.5-12.8 2.4 0 5 .5 6.6 1l-2 9.8c-.4 2-.8 5.8-.7 8.3h-5.8zm1.3-14.1c-.4-.1-.9-.1-1.2-.1-3 0-5 4.1-5 6.8 0 1.7.7 2.7 1.9 2.7s2.7-1.2 3.6-5.6l.7-3.8zm6.4 14.1l2.3-12.3c.5-2.5.8-4.6 1.1-6.3h5.7l-.3 2.8h.1c1.8-2.3 4-3.3 6.3-3.3 3.4 0 4.8 2.1 4.8 5.1 0 .8-.1 2.3-.3 3.2l-2 10.8h-6.5l1.9-10.1c.1-.6.2-1.3.2-2 0-1.1-.3-1.8-1.4-1.8-1.6 0-3.1 2-3.9 5.9l-1.5 7.9h-6.5zm30.9 2.6c1.6.9 5.5 1.5 7.8 1.5 4.1 0 7-1.7 8.1-6.7l.3-1.7h-.1c-2.2 2.5-4.5 3.6-7.7 3.6-5.9 0-9.8-4.7-9.8-10.7-.1-9.7 6.8-19.4 20.4-19.4 4.5 0 8.2.7 11.6 2.1l-4.4 24.5c-1 5.1-2.7 10.2-6.4 13.1-3.3 2.6-7.8 3.4-12 3.4-4.1 0-7.9-.7-10-1.8l2.2-7.9zM194 61.9c-.5-.2-1.6-.4-2.4-.4-4.4 0-7.6 5.1-7.6 10.1 0 2.8 1.4 4.4 3.3 4.4 2.2 0 4.4-2.2 5.3-6.9l1.4-7.2zm42.2 4.1c0 11.6-7.9 18.9-18.3 18.9-7.6 0-13.1-4.7-13.1-12.4 0-10.5 7.4-18.8 18.4-18.8 8 0 13 5.2 13 12.3zm-20.6 6.3c0 2.9 1.3 4.7 3.8 4.7 4.2 0 6.2-6.7 6.2-11 0-2.5-1-4.5-3.8-4.5-4.4 0-6.2 7.2-6.2 10.8zm47.5 11.9c.1-1.7.2-3.5.2-5.2h-.1c-2.5 4.4-6.2 5.8-9.4 5.8-5.4 0-9.2-4.1-9.2-10.6 0-9.9 6.2-20.5 21.6-20.5 3.9 0 7.9.8 10.6 1.6L273.7 71c-.6 3.2-1.3 9.3-1.2 13.2h-9.4zm2.2-22.5c-.7-.1-1.4-.2-1.9-.2-4.8 0-8 6.5-8 10.8 0 2.8 1.2 4.2 3 4.2 1.9 0 4.4-1.9 5.7-8.9l1.2-5.9zm10.2 22.5l3.7-19.7c.8-3.9 1.3-7.4 1.7-10.1h9.1l-.4 4.5h.1c2.9-3.8 6.4-5.2 10.1-5.2 5.5 0 7.7 3.4 7.7 8.1 0 1.3-.2 3.7-.5 5.1l-3.3 17.3h-10.4l3-16.2c.2-1 .3-2.1.3-3.2 0-1.7-.5-2.9-2.2-2.9-2.5 0-5 3.3-6.2 9.5l-2.4 12.7h-10.3zm44.1-29.8l1.3 11.7c.4 2.9.7 5 .9 6.8h.1c.6-1.8 1.2-3.6 2.4-6.8l4.5-11.6h10.8l-10.4 20.8c-4.2 8.5-8.1 14.1-12 17.6-3.5 3.3-7.9 4.8-9.9 5.1l-2.3-8.9c1.5-.4 3.3-1.1 4.9-2.1 2-1.3 3.5-2.8 4.4-4.4.3-.5.3-.8.2-1.5l-5.9-26.6h11z"/><path d="M349.4 54.4l-.4 10.9c-.1 3.2-.2 6.4-.4 10.1h.1c1.2-3.7 2.5-6.8 3.8-9.9l4.6-11.1h8.3l.2 10.7c.1 3.6.1 6.6-.1 10.4h.1c1.1-3.7 2.2-6.9 3.5-10.7l3.8-10.4h10.4L369 84.2h-9.8l-.4-7.9c-.2-3.3-.2-6.2-.2-10.2h-.1c-1.8 4.8-2.4 7-3.6 9.7l-3.6 8.4h-9.8l-2.8-29.8h10.7zm29.2 29.8l8.1-43h10.4L394 57.6h.1c2.4-2.3 5.3-3.9 9-3.9 5.2 0 7.6 3.3 7.6 8.1 0 1.3-.2 3.7-.6 5.5L407 84.2h-10.4l3-15.9c.2-1.2.4-2.4.4-3.5 0-1.6-.6-2.8-2.3-2.8-2.7 0-5 3.4-6.1 9.1L389 84.2h-10.4zm58.3-1.7c-4 1.9-8.7 2.4-11.7 2.4-8.7 0-13.5-4.6-13.5-12.9 0-9.1 6.5-18.2 17.8-18.2 6.2 0 11 3.4 11 9.5 0 7.5-6.8 10.5-19.1 10.1.1.7.5 1.5 1.1 2 1.2 1 3 1.5 5.3 1.5 3 0 5.9-.6 8.5-1.8l.6 7.4zm-6-19.4c0-1-1-1.9-2.7-1.9-3.7 0-5.5 2.8-5.8 4.7 6.3.1 8.5-.8 8.5-2.8zm8.2 21.1l3.3-17.1c.8-4.7 1.2-10.2 1.5-12.7h8.9c-.1 2-.2 3.9-.4 5.9h.2c2.2-3.9 5.5-6.6 9.6-6.6.6 0 1.2 0 1.8.1l-2.1 10h-1.3c-6.1 0-8.2 4.8-9.2 10.2l-1.9 10.2h-10.4zm47.2-1.7c-4 1.9-8.7 2.4-11.7 2.4-8.7 0-13.5-4.6-13.5-12.9 0-9.1 6.5-18.2 17.8-18.2 6.2 0 11 3.4 11 9.5 0 7.5-6.8 10.5-19.1 10.1.1.7.5 1.5 1.1 2 1.1 1 3 1.5 5.3 1.5 3 0 5.9-.6 8.5-1.8l.6 7.4zm-6-19.4c0-1-1-1.9-2.7-1.9-3.7 0-5.5 2.8-5.8 4.7 6.3.1 8.5-.8 8.5-2.8zm11.1-12.8h-1.8v-.6h4.3v.6h-1.8v5.2h-.8v-5.2zm7.7 2.7c0-.8-.1-1.8-.1-2.5-.2.7-.4 1.4-.7 2.2l-1 2.8h-.6l-.9-2.8c-.3-.8-.5-1.6-.7-2.3 0 .7-.1 1.7-.1 2.6l-.2 2.5h-.8l.4-5.8h1l1 2.8c.2.7.4 1.4.6 2 .1-.6.4-1.2.6-2l1-2.8h1l.4 5.8h-.7l-.2-2.5z"/></g></svg>