<svg xmlns="http://www.w3.org/2000/svg" width="32" height="32" viewBox="0 0 32 32"><title>wh-coffee</title><path d="M29.984 15.548c-.378-3.639-4.063-3.618-5.977-3.553l.015-.999-22.027-.007v3.089c0 4.281 2.445 7.984 6.011 9.809v1.068h10.019v-1.068c1-.512 1.897-1.184 2.691-1.961 4.915-1.176 10.07-2.873 9.268-6.378zm-7.734 4.518a10.931 10.931 0 0 0 1.786-5.988 3.1 3.1 0 0 0 .002-.116c1.785-.059 3.755-.237 4.201 1.54.448 1.955-2.817 3.547-5.989 4.564zM8.83 6.99c0 1-1.64 2.065-1.64 2.065s3.214-.574 3.214-2.074-3.187-.5-3.187-1.625 1.577-2.19 1.577-2.19-3.025.637-3.025 2.199S8.83 5.99 8.83 6.99zm5 1c0 1-1.64 2.065-1.64 2.065s3.214-.574 3.214-2.074-3.187-.5-3.187-1.625 1.577-2.19 1.577-2.19-3.026.637-3.026 2.199 3.062.625 3.062 1.625zm4-1c0 1-1.64 2.065-1.64 2.065s3.214-.574 3.214-2.074-3.187-.5-3.187-1.625 1.577-2.19 1.577-2.19-3.026.637-3.026 2.199 3.062.625 3.062 1.625zM1.933 25.928c0 1.381 4.925 2.5 11 2.5s11-1.119 11-2.5c0 .029-22 .029-22 0z"/></svg>