<svg xmlns="http://www.w3.org/2000/svg" width="500" height="500" viewBox="0 0 500 500"><path d="M70 467.6c1.1.5 2.4.7 3.7.7 2.4 0 4.7-.9 6.4-2.6l64.1-61.3h120.5c25 0 45.4-20.3 45.4-45.4v-68.4c0-5.1-4.2-9.3-9.3-9.3-5.1 0-9.3 4.2-9.3 9.3V359c0 14.8-12.1 26.8-26.8 26.8H140.4c-2.4 0-4.7.9-6.4 2.6l-51.1 48.8v-42c0-5.1-4.2-9.3-9.3-9.3H45.4c-14.8 0-26.8-12.1-26.8-26.8V225.3c0-14.8 12.1-26.9 26.8-26.9H155c5.1 0 9.3-4.2 9.3-9.3s-4.2-9.3-9.3-9.3H45.4c-25 0-45.4 20.3-45.4 45.4V359c0 25 20.3 45.4 45.4 45.4h19v54.7c0 3.7 2.2 7 5.6 8.5zm0 0"/><path d="M354.8 258l64.6 61.8c1.7 1.6 4.1 2.6 6.4 2.6 1.2 0 2.5-.2 3.7-.7 3.4-1.4 5.6-4.8 5.6-8.5V258h19.2c25.1 0 45.7-20.4 45.7-45.7V77.4c0-25.1-20.4-45.7-45.7-45.7h-221c-25.1 0-45.7 20.4-45.7 45.7v134.9c0 25.1 20.4 45.7 45.7 45.7h121.5zm-148.6-45.7V77.4c0-14.9 12.2-27.1 27.1-27.1h220.9c14.9 0 27.1 12.2 27.1 27.1v134.9c0 14.9-12.2 27.1-27.1 27.1h-28.5c-5.1 0-9.3 4.2-9.3 9.3v42.7L364.8 242c-1.7-1.6-4-2.6-6.4-2.6H233.3c-14.9.1-27.1-12.1-27.1-27.1zm0 0"/><path d="M343.8 156c2.4 0 4.8-1 6.5-2.8 1.7-1.7 2.8-4.1 2.8-6.5 0-2.5-1-4.8-2.8-6.5-1.7-1.7-4.1-2.8-6.5-2.8-2.5 0-4.8 1-6.5 2.8-1.7 1.7-2.8 4.1-2.8 6.5 0 2.5 1 4.8 2.8 6.5 1.7 1.9 4 2.8 6.5 2.8zm34.5 0c2.4 0 4.8-1 6.5-2.8 1.7-1.7 2.8-4.1 2.8-6.5 0-2.5-1-4.8-2.8-6.5-1.7-1.7-4.1-2.8-6.5-2.8-2.5 0-4.8 1-6.5 2.8-1.7 1.7-2.8 4.1-2.8 6.5 0 2.5 1 4.8 2.8 6.5 1.6 1.9 4 2.8 6.5 2.8zm-69 0c2.4 0 4.8-1 6.5-2.8 1.7-1.7 2.8-4.1 2.8-6.5 0-2.5-1-4.8-2.8-6.5-1.7-1.7-4.1-2.8-6.5-2.8-2.5 0-4.8 1-6.5 2.8-1.7 1.7-2.8 4.1-2.8 6.5 0 2.5 1 4.8 2.8 6.5 1.7 1.9 4.1 2.8 6.5 2.8zm0 0"/></svg>