<svg xmlns="http://www.w3.org/2000/svg" width="500" height="500" viewBox="0 0 500 500"><path d="M433.7 0H66.3C43.5 0 25.1 18.5 25.1 41.2v417.5c0 22.7 18.5 41.2 41.2 41.2h367.4c22.7 0 41.2-18.5 41.2-41.2V41.2c0-22.7-18.4-41.2-41.2-41.2zm25.6 458.8c0 14.1-11.5 25.6-25.6 25.6H66.3c-14.1 0-25.6-11.5-25.6-25.6V41.2c0-14.1 11.5-25.6 25.6-25.6h367.4c14.1 0 25.6 11.5 25.6 25.6v417.6z"/><path d="M408.7 50.1H91.3c-8.9 0-16.2 7.3-16.2 16.2v100.2c0 8.9 7.3 16.2 16.2 16.2h317.3c8.9 0 16.2-7.3 16.2-16.2V66.3c0-8.9-7.2-16.2-16.1-16.2zm.5 116.4c0 .3-.2.5-.5.5H91.3c-.3 0-.5-.2-.5-.5V66.3c0-.3.2-.5.5-.5h317.3c.3 0 .5.2.5.5v100.2zm-276.1 50.6H91.3c-8.9 0-16.2 7.3-16.2 16.2v33.4c0 8.9 7.3 16.2 16.2 16.2h41.8c8.9 0 16.2-7.3 16.2-16.2v-33.4c0-8.9-7.3-16.2-16.2-16.2zm.5 49.6c0 .3-.2.5-.5.5H91.3c-.3 0-.5-.2-.5-.5v-33.4c0-.3.2-.5.5-.5h41.8c.3 0 .5.2.5.5v33.4zm91.3-49.6h-41.8c-8.9 0-16.2 7.3-16.2 16.2v33.4c0 8.9 7.3 16.2 16.2 16.2h41.8c8.9 0 16.2-7.3 16.2-16.2v-33.4c0-8.9-7.2-16.2-16.2-16.2zm.6 49.6c0 .3-.2.5-.5.5h-41.8c-.3 0-.5-.2-.5-.5v-33.4c0-.3.2-.5.5-.5H225c.3 0 .5.2.5.5v33.4zm91.3-49.6H275c-8.9 0-16.2 7.3-16.2 16.2v33.4c0 8.9 7.3 16.2 16.2 16.2h41.8c8.9 0 16.2-7.3 16.2-16.2v-33.4c0-8.9-7.3-16.2-16.2-16.2zm.5 49.6c0 .3-.2.5-.5.5H275c-.3 0-.5-.2-.5-.5v-33.4c0-.3.2-.5.5-.5h41.8c.3 0 .5.2.5.5v33.4zm91.4-49.6h-41.8c-8.9 0-16.2 7.3-16.2 16.2v33.4c0 8.9 7.3 16.2 16.2 16.2h41.8c8.9 0 16.2-7.3 16.2-16.2v-33.4c-.1-8.9-7.3-16.2-16.2-16.2zm.5 49.6c0 .3-.2.5-.5.5h-41.8c-.3 0-.5-.2-.5-.5v-33.4c0-.3.2-.5.5-.5h41.8c.3 0 .5.2.5.5v33.4zm-276.1 33.9H91.3c-8.9 0-16.2 7.3-16.2 16.2v33.4c0 8.9 7.3 16.2 16.2 16.2h41.8c8.9 0 16.2-7.3 16.2-16.2v-33.4c0-8.9-7.3-16.2-16.2-16.2zm.5 49.6c0 .3-.2.5-.5.5H91.3c-.3 0-.5-.2-.5-.5v-33.4c0-.3.2-.5.5-.5h41.8c.3 0 .5.2.5.5v33.4zm91.3-49.6h-41.8c-8.9 0-16.2 7.3-16.2 16.2v33.4c0 8.9 7.3 16.2 16.2 16.2h41.8c8.9 0 16.2-7.3 16.2-16.2v-33.4c0-8.9-7.2-16.2-16.2-16.2zm.6 49.6c0 .3-.2.5-.5.5h-41.8c-.3 0-.5-.2-.5-.5v-33.4c0-.3.2-.5.5-.5H225c.3 0 .5.2.5.5v33.4zm91.3-49.6H275c-8.9 0-16.2 7.3-16.2 16.2v33.4c0 8.9 7.3 16.2 16.2 16.2h41.8c8.9 0 16.2-7.3 16.2-16.2v-33.4c0-8.9-7.3-16.2-16.2-16.2zm.5 49.6c0 .3-.2.5-.5.5H275c-.3 0-.5-.2-.5-.5v-33.4c0-.3.2-.5.5-.5h41.8c.3 0 .5.2.5.5v33.4zm-184.2 33.9H91.3c-8.9 0-16.2 7.3-16.2 16.2v33.4c0 8.9 7.3 16.2 16.2 16.2h41.8c8.9 0 16.2-7.3 16.2-16.2v-33.4c0-8.9-7.3-16.2-16.2-16.2zm.5 49.6c0 .3-.2.5-.5.5H91.3c-.3 0-.5-.2-.5-.5v-33.4c0-.3.2-.5.5-.5h41.8c.3 0 .5.2.5.5v33.4zm91.3-49.6h-41.8c-8.9 0-16.2 7.3-16.2 16.2v33.4c0 8.9 7.3 16.2 16.2 16.2h41.8c8.9 0 16.2-7.3 16.2-16.2v-33.4c0-8.9-7.2-16.2-16.2-16.2zm.6 49.6c0 .3-.2.5-.5.5h-41.8c-.3 0-.5-.2-.5-.5v-33.4c0-.3.2-.5.5-.5H225c.3 0 .5.2.5.5v33.4zm91.3-49.6H275c-8.9 0-16.2 7.3-16.2 16.2v33.4c0 8.9 7.3 16.2 16.2 16.2h41.8c8.9 0 16.2-7.3 16.2-16.2v-33.4c0-8.9-7.3-16.2-16.2-16.2zm.5 49.6c0 .3-.2.5-.5.5H275c-.3 0-.5-.2-.5-.5v-33.4c0-.3.2-.5.5-.5h41.8c.3 0 .5.2.5.5v33.4zm91.4-133.1h-41.8c-8.9 0-16.2 7.3-16.2 16.2v116.9c0 8.9 7.3 16.2 16.2 16.2h41.8c8.9 0 16.2-7.3 16.2-16.2V316.8c-.1-8.9-7.3-16.2-16.2-16.2zm.5 133.1c0 .3-.2.5-.5.5h-41.8c-.3 0-.5-.2-.5-.5V316.8c0-.3.2-.5.5-.5h41.8c.3 0 .5.2.5.5v116.9z"/><path d="M300.1 108.6h-33.4c-4.3 0-7.8 3.5-7.8 7.8s3.5 7.8 7.8 7.8h33.4c4.3 0 7.8-3.5 7.8-7.8s-3.5-7.8-7.8-7.8zm66.8 0h-33.4c-4.3 0-7.8 3.5-7.8 7.8s3.5 7.8 7.8 7.8h33.4c4.3 0 7.8-3.5 7.8-7.8s-3.5-7.8-7.8-7.8zm-200.4 0h-33.4c-4.3 0-7.8 3.5-7.8 7.8s3.5 7.8 7.8 7.8h33.4c4.3 0 7.8-3.5 7.8-7.8s-3.5-7.8-7.8-7.8zm66.8 0h-33.4c-4.3 0-7.8 3.5-7.8 7.8s3.5 7.8 7.8 7.8h33.4c4.3 0 7.8-3.5 7.8-7.8s-3.5-7.8-7.8-7.8z"/></svg>