<svg xmlns="http://www.w3.org/2000/svg" width="500" height="500" viewBox="0 0 500 500"><path d="M437.5 85.9c8.4 0 16.6 1.6 24.4 4.9 7.8 3.3 14.5 7.7 20 13.2 5.5 5.5 9.9 12.2 13.2 20 3.2 7.8 4.9 16 4.9 24.4v203.1c0 8.5-1.6 16.6-4.9 24.4-3.3 7.8-7.7 14.5-13.2 20-5.5 5.5-12.2 9.9-20 13.2-7.8 3.3-16 4.9-24.4 4.9h-375c-8.5 0-16.6-1.6-24.4-4.9-7.8-3.2-14.5-7.6-20-13.2-5.5-5.5-9.9-12.2-13.2-20C1.6 368.2 0 360 0 351.6V148.4c0-8.5 1.6-16.6 4.9-24.4 3.2-7.8 7.6-14.5 13.2-20 5.5-5.5 12.2-9.9 20-13.2 7.8-3.2 15.9-4.9 24.4-4.9h375zM268.6 298.8l200.2-150.4c0-4.5-.8-8.6-2.4-12.2-1.6-3.6-3.9-6.8-6.8-9.8s-6.2-5.2-9.8-6.8c-3.6-1.6-7.7-2.4-12.2-2.4h-375c-4.6 0-8.6.8-12.2 2.4-3.6 1.6-6.8 3.9-9.8 6.8s-5.2 6.2-6.8 9.8c-1.6 3.6-2.4 7.7-2.4 12.2l200.2 150.4c1.3.7 2.6 1.5 3.9 2.4 1.3 1 2.8 1.6 4.4 2 1.6.3 3.2.7 4.9 1 1.6.3 3.4.5 5.4.5s3.7-.2 5.4-.5c1.6-.3 3.2-.6 4.9-1 1.6-.3 3.1-1 4.4-2 1-.9 2.3-1.7 3.7-2.4zM31.2 168v164l109.4-82-109.4-82zm437.6 183.6l-122.1-91.8-68.4 50.8c-2 2-4.1 3.4-6.3 4.4-2.3 1-4.7 2-7.3 2.9-2.6 1-5.1 1.6-7.3 2-2.3.3-4.7.5-7.3.5-2.6 0-5.1-.2-7.3-.5-2.3-.3-4.7-1-7.3-2-2.6-1-5.1-2-7.3-2.9-2.3-1-4.4-2.4-6.3-4.4l-68.4-50.8-122.3 91.8c0 4.6.8 8.6 2.4 12.2 1.6 3.6 3.9 6.8 6.8 9.8s6.2 5.2 9.8 6.8c3.6 1.6 7.6 2.4 12.2 2.4h375c4.5 0 8.6-.8 12.2-2.4 3.6-1.6 6.8-3.9 9.8-6.8s5.2-6.2 6.8-9.8c1.7-3.6 2.6-7.7 2.6-12.2zm0-19.6V168l-109.4 82 109.4 82z"/></svg>