<svg xmlns="http://www.w3.org/2000/svg" width="500" height="500" viewBox="0 0 500 500"><path d="M258.3 283.3c-29.4 0-50 20.6-50 50v8.3c0 40.5 22.9 66.7 58.3 66.7s58.3-26.2 58.3-66.7v-8.3c0-29.4-20.6-50-50-50h-16.6zm50 50v8.3c0 15-4.1 50-41.7 50s-41.7-35-41.7-50v-8.3c0-20.2 13.1-33.3 33.3-33.3H275c20.2 0 33.3 13.1 33.3 33.3zm0 0"/><path d="M250.2 333.3c-4.7 0-8.4 3.7-8.4 8.3 0 4.6 3.8 8.3 8.4 8.3 4.6 0 8.3-3.7 8.3-8.3.1-4.5-3.7-8.3-8.3-8.3zM291 225c4.6.3 8.6-3.1 9-7.7l8.3-108.2c1.8-19.8 28.5-42.4 50-42.4H375c21.9 0 48.6 22.5 50 42.3l8.3 108.3c.3 4.4 4 7.7 8.3 7.7h.7c4.6-.4 8-4.4 7.7-9l-8.3-108.3C439.4 77.2 402.5 50 375 50h-16.7c-30.3 0-64 29-66.6 57.7L283.4 216c-.4 4.6 3 8.6 7.6 9zm0 0"/><path d="M366.2 105.7c-1.1-3.4-4.3-5.7-7.9-5.7-3.6 0-6.8 2.3-7.9 5.7-6.3 18.8-24.7 19.3-25.4 19.3-4.6 0-8.3 3.7-8.3 8.3v33.3c0 27.8 19 66.7 50 66.7s50-38.8 50-66.7v-33.3c0-4.6-3.7-8.3-8.3-8.3-.4 0-35.9-.5-42.2-19.3zm33.8 61c0 22.7-14.9 50-33.3 50-18.5 0-33.3-27.4-33.3-50v-26c8.2-1.9 18.2-6.5 25.6-16 11.7 11.7 30.3 15.3 41 16.5v25.5zm-233.3-50h8.3c4.6 0 8.3-3.7 8.3-8.3 0-4.6-3.7-8.3-8.3-8.3h-8.3c-4.6 0-8.3 3.7-8.3 8.3-.1 4.5 3.7 8.3 8.3 8.3zM283.6 350c4.6 0 8.3-3.7 8.3-8.3 0-4.6-3.7-8.3-8.3-8.3h-.1c-4.6 0-8.3 3.7-8.3 8.3 0 4.6 3.8 8.3 8.4 8.3zm0 0"/><path d="M83.7 131.3c1.6 16 8.6 30.1 8.9 30.8 7.6 15.1 19 37.9 57.5 37.9s49.9-22.8 57.4-37.9c.3-.7 7.3-14.8 8.9-30.8 5.2-2.8 8.6-8.3 8.6-14.6V100c0-6.2-3.4-11.5-8.3-14.4v-2.2c0-27.6-22.4-50-50-50h-33.3c-27.6 0-50 22.4-50 50v2.2c-5 2.9-8.3 8.3-8.3 14.4v16.7c-.1 6.2 3.4 11.7 8.6 14.6zm8-31.3c4.6 0 8.3-3.7 8.3-8.3v-8.3c0-18.5 15-33.4 33.3-33.4h33.3c18.4 0 33.3 15 33.3 33.3v8.3c0 4.6 3.7 8.3 8.3 8.3v16.7c-4.6 0-8.3 3.7-8.3 8.3 0 14.4-7.4 29.5-7.5 29.6-8.7 17.4-16.3 28.7-42.5 28.7s-33.9-11.4-42.5-28.7c-.1-.2-7.5-15.2-7.5-29.6 0-4.6-3.7-8.3-8.3-8.3V100zm200 316.7c-1.7 0-3.3.5-4.6 1.4l-20.4 13.6-20.4-13.6c-1.4-.9-3-1.4-4.6-1.4-48.2 0-58.3 22.7-58.3 41.7 0 4.6 3.7 8.3 8.3 8.3 4.6 0 8.3-3.7 8.3-8.3 0-6.7 0-24.3 39.2-25l22.9 15.3c2.8 1.9 6.4 1.9 9.2 0l22.9-15.3c39.2.7 39.2 18.3 39.2 25 0 4.6 3.7 8.3 8.3 8.3 4.6 0 8.3-3.7 8.3-8.3 0-19.1-10.1-41.7-58.3-41.7zm150.5-100c-4.6 0-8.3 3.7-8.4 8.3l-.5 133.3c0 4.6 3.7 8.3 8.3 8.4 4.6 0 8.3-3.7 8.3-8.3l.5-133.3c.1-4.7-3.6-8.4-8.2-8.4zm0 0"/><path d="M125 116.7h8.3c4.6 0 8.3-3.7 8.3-8.3 0-4.6-3.7-8.3-8.3-8.3H125c-4.6 0-8.3 3.7-8.3 8.3 0 4.5 3.7 8.3 8.3 8.3zm66.5 151.6l7-34.8c42.1.9 72.4 11.4 81.6 28.5 2.2 4 7.2 5.5 11.3 3.3 4-2.2 5.5-7.3 3.3-11.3-13.1-24-49.5-37.3-102.5-37.3-4.1-.1-7.9 2.6-8.7 6.7l-8.3 41.6c-.9 4.5 2 8.9 6.5 9.8.6.1 1.1.2 1.7.2 3.8 0 7.3-2.7 8.1-6.7zm288.1-10c-16.3-16.3-40.9-24.9-71-24.9-4.8.1-8.6 3.6-8.6 8.3 0 1.7-.6 41.6-33.3 41.6-32.8 0-33.3-39.9-33.3-41.6 0-4.6-3.7-8.3-8.3-8.3-4.6 0-8.3 3.7-8.3 8.3 0 18.6 9 52.6 41.7 57.5v42.3c0 4.6 3.7 8.3 8.3 8.3 4.6 0 8.3-3.7 8.3-8.3v-42.3c28.1-4.3 38.7-30 41.1-49 22.1 1.2 39.9 8 51.7 19.8 10 10 15.5 23.6 15.5 38.2v133.3c0 4.6 3.7 8.3 8.3 8.3 4.6 0 8.3-3.7 8.3-8.3V308.3c0-19.1-7.3-36.8-20.4-50zM150 216.7c-9.2 0-16.7 7.5-16.7 16.7 0 6.1 3.4 11.5 8.3 14.3v60.7c0 4.6 3.7 8.3 8.3 8.3 4.6 0 8.3-3.7 8.3-8.3v-60.7c4.9-2.9 8.3-8.2 8.3-14.3.2-9.3-7.3-16.7-16.5-16.7zm-91.7 100c-4.6 0-8.3 3.7-8.3 8.3v133.3c0 4.6 3.7 8.3 8.3 8.3 4.6 0 8.3-3.7 8.3-8.3V325c.1-4.6-3.7-8.3-8.3-8.3zm0 0"/><path d="M116.5 223.4c-.8-4-4.8-6.6-8.7-6.6-43.8 0-77.3 9.4-94.3 26.4C4.5 252.1 0 262.8 0 275v166.7c0 4.6 3.7 8.3 8.3 8.3 4.6 0 8.3-3.7 8.3-8.3V275c0-7.7 2.8-14.3 8.5-20 13-13 40.6-20.7 76.4-21.5l40.3 193.2c.9 4.5 5.4 7.4 9.9 6.5 4.5-.9 7.4-5.4 6.5-9.9l-41.7-199.9zm0 0"/></svg>