<svg xmlns="http://www.w3.org/2000/svg" width="500" height="500" viewBox="0 0 500 500"><path d="M421.4 256.7c-4.2-2.5-9.2-1.7-11.7 2.5-4.2 6.6-8.8 12.3-13.9 17.8l-19.1-19.1c20.2-26.1 31.3-57.8 31.3-91.2 0-40-15.8-77.5-43.3-106.7C310 6 224.6 2 165.9 47.9l-18-18c5.9-5.7 12.2-10.5 18.4-14.9 4.2-2.5 5-7.5 2.5-11.7C166.3 0 161.3-.9 158 .8c-7.3 5.3-14.7 11.2-21.6 17.6L124.7 6.7c-3.3-3.3-8.3-3.3-11.7 0-3.3 3.3-3.3 8.3 0 11.7l12 11.7c-32.6 35.8-50.3 82.2-50.3 130.8 0 50.8 20 98.3 55.8 134.2 31 30.3 70 48.1 110.3 53.3L233.6 450h-33.9c-23.3 0-41.7 18.3-41.7 41.7 0 5 3.3 8.3 8.3 8.3h200c5 0 8.3-3.3 8.3-8.3 0-23.3-18.3-41.7-41.7-41.7H299l-7.3-101.7c37.9-4.9 74.5-21 103.9-48l12.2 12.2c1.7 1.7 3.3 2.5 5.8 2.5 1.7 0 4.2-.8 5.8-2.5 3.3-3.3 3.3-8.3 0-11.7l-12-12c5.8-6.2 11.2-13.1 16.2-20.5 2.8-4.1 1.9-9.1-2.2-11.6zm-242.5-48.4h2.5c18.3 4.2 18.3 23.3 18.3 25v.8c1.7 10.8 11.7 31.7 41.7 32.5 18.8 0 32.8 20.1 38.8 31.1-36.9 6.1-76-3.2-106.3-27.9.8-1.6.8-2.5.8-4.9-3.3-22.4-2.5-50.7 4.2-56.6zm119.2 85.2c-5.6-10.4-25.3-42.8-55.9-43.5-20.8-.8-24.2-14.2-25-17.5 0-11.7-6.7-35-31.7-40.8-6.7-1.7-12.5 0-17.5 4.2-11.9 11.2-12.3 39.5-11.1 57.5-17.4-20.3-27.7-44.8-30.8-70 14.7-.1 25.3-4.3 32.7-12.5 10.8-13.3 7.5-30 7.5-30-3.2-40.1 7.5-70.1 13.5-82 8.8-6.4 18.3-11.7 28.2-15.7-4.9 11.3-9.6 21.4-12.5 27.7-5.8 11.7-8.3 16.7-1.7 20.8.8.8 2.5 1.7 4.2 1.7 2.5 0 5-.8 8.3-5 5-5.8 30.8-11.7 52.5-13.3 2.5 0 5-1.7 5.8-3.3 1.7-2.5 1.7-5 1.7-8.3-.8-2.5-.8-5 .8-7.5 5.8-8.3 24.2-13.3 34.2-15h.5c9.1 3.2 18 7.4 26.4 12.6 4.9 13.1 5.4 24.3 2.3 28.2-2.5 2.5-7.5 2.5-11.7 1.7-5.8-4.2-22.5-14.2-35-6.7-8.3 5-11.7 15-10 30-4.2 9.2-14.2 26.7-24.2 25.8-1.7 0-2.5.8-3.3.8-1.7 0-10.8 3.3-13.3 14.2-2.5 11.7 3.3 25 18.3 40.8 15 15.8 22.5 17.5 30.8 15.8h.8c1.7 1.7 5.8 5.8 17.5 24.2 1.7 4.2 6.7 16.7 17.5 17.5h1.7c10.8 0 18.3-12.5 20.8-16.7l7.5-15c10.8-21.5 17.3-35.2 42.4-32-3.5 29.9-16.9 57.3-38.3 78.7-15.4 15.5-34 26.4-53.9 32.6zM153.9 84.2c-4.2 15.8-6.7 35.8-4.2 59.2 0 0 1.7 10-4.2 16.7-4.1 4.1-10.7 6.6-20.4 6.7 0-23.5 6.1-46.9 18.3-67.7 3.1-5.3 6.6-10.2 10.5-14.9zm103.2-50.9c4.1 0 8.3.3 12.6.8-6.7 3.3-12.5 7.5-16.7 13.3-2.5 3.3-4.2 7.5-4.2 11.7-9.2.8-21.7 2.5-32.5 5.8 4.2-8.3 8.3-18.3 12.5-28.3 1.2-.3 2.3-.6 3.5-.8 8.2-1.6 16.5-2.4 24.8-2.5zm35.1 57.5c2.5-1.7 11.7 1.7 18.3 6.7.8.8 1.7 1.7 3.3 1.7 12.5 2.5 22.5 0 28.3-7.5 5-5.8 6.7-14.2 5.8-22.5l3.3 3.3c25 24.2 39.2 57.5 39.2 92.5-35.8-4.2-47.5 20-58.3 41.7-2.5 5-5 9.2-7.5 14.2-2.5 5.8-5 7.5-5.8 8.3-.8-1.7-2.5-4.2-3.3-6.7 0-.8-.8-.8-.8-1.7-15-25-22.5-32.5-31.7-32.5-.8 0-2.5 0-5-.8-1.7 0-4.2.8-15-10.8-15-15.8-14.2-23.3-14.2-25s.8-1.7 1.7-2.5c23.3-.8 37.5-34.2 39.2-38.3.8-1.7.8-2.5.8-4.2-.8-11.7.9-15 1.7-15.9zm41.7 375.9c10.8 0 20 6.7 23.3 16.7H176.4c3.3-10 12.5-16.7 23.3-16.7h134.2zM275.5 350l7.5 100h-32.5l7.5-100h17.5zm-133.3-66.7c-32.5-32.5-50.8-75.8-51.7-122.5 0-44 16.3-86.6 46.2-119.2l17.1 16.8c-.5.5-1.1 1-1.6 1.6-12.6 12.7-22.4 27.1-29.6 42.5-.2.3-.3.7-.5 1-10.5 22.2-15.6 47-14.1 72.3 0 1.2.4 2.3 1 3.3 2.8 34.1 17.2 67.4 43.2 93.3 1.6 1.6 3.2 3.1 4.8 4.6.3.4.6.8 1 1.2 26.6 24.1 60.9 37.4 96.2 38.3h3.8c1.4 0 2.8 0 4.3-.1h1.2c.9 0 1.8-.1 2.7-.1.8 0 1.7-.1 2.5-.2h.1c8.7-.6 17.3-1.8 26.7-2.9 1.3-.6 3-1.3 4.2-2.7 23.5-6.9 45.7-19.7 64.2-38.2l2.1-2.1 18.2 18.2c-68.8 61.5-175.5 59.8-242-5.1z"/></svg>