<svg xmlns="http://www.w3.org/2000/svg" width="500" height="500" viewBox="0 0 500 500"><path d="M491.7 433.3h-25.8V200c0-5-3.3-8.3-8.3-8.3H450v-25c0-5-3.3-8.3-8.3-8.3h-100c-5 0-8.3 3.3-8.3 8.3v25h-17.5v-25c0-2.5-.8-5-2.5-6.7l-55-47.1V83.3h58.3c5 0 8.3-3.3 8.3-8.3V25c0-5-3.3-8.3-8.3-8.3H250c-5 0-8.3 3.3-8.3 8.3v87.1L185.8 160c-1.7 1.7-2.5 4.2-2.5 6.7v25h-16.7v-25c0-5-3.3-8.3-8.3-8.3h-100c-5 0-8.3 3.3-8.3 8.3v25h-8.3c-5 0-8.3 3.3-8.3 8.3v233.3h-25c-5 0-8.3 3.3-8.3 8.3V475c0 5 3.3 8.3 8.3 8.3h483.2c5 0 8.3-3.3 8.3-8.3v-33.3c.1-5-3.2-8.4-8.2-8.4zM350 175h83.3v16.7H350V175zM308.3 66.7h-50V33.3h50v33.4zM200 170.8l50-42.5 50 42.5v20.8H200v-20.8zM66.7 175H150v16.7H66.7V175zm-50 275h166.7v16.7H16.7V450zm216.6 16.7V375c0-9.2 7.5-16.7 16.7-16.7s16.7 7.5 16.7 16.7v91.7h-33.4zm66.7-25v25h-16.7V375c0-18.3-15-33.3-33.3-33.3-18.3 0-33.3 15-33.3 33.3v91.7H200v-25c0-5-3.3-8.3-8.3-8.3H50v-225h399.9v225H308.3c-5-.1-8.3 3.3-8.3 8.3zm183.3 25H316.7V450h166.6v16.7z"/><path d="M150 291.7h-8.3v-50c0-5-3.3-8.3-8.3-8.3H100c-5 0-8.3 3.3-8.3 8.3v50h-8.3c-5 0-8.3 3.3-8.3 8.3 0 5 3.3 8.3 8.3 8.3H150c5 0 8.3-3.3 8.3-8.3 0-5-3.3-8.3-8.3-8.3zm-41.7 0V250H125v41.7h-16.7zm41.7 100h-8.3v-50c0-5-3.3-8.3-8.3-8.3H100c-5 0-8.3 3.3-8.3 8.3v50h-8.3c-5 0-8.3 3.3-8.3 8.3s3.3 8.3 8.3 8.3H150c5 0 8.3-3.3 8.3-8.3s-3.3-8.3-8.3-8.3zm-41.7 0V350H125v41.7h-16.7zM350 408.3h66.7c5 0 8.3-3.3 8.3-8.3s-3.3-8.3-8.3-8.3h-8.3v-50c0-5-3.3-8.3-8.3-8.3h-33.3c-5 0-8.3 3.3-8.3 8.3v50H350c-5 0-8.3 3.3-8.3 8.3s3.3 8.3 8.3 8.3zm25-58.3h16.7v41.7H375V350zm-25-41.7h66.7c5 0 8.3-3.3 8.3-8.3 0-5-3.3-8.3-8.3-8.3h-8.3v-50c0-5-3.3-8.3-8.3-8.3h-33.3c-5 0-8.3 3.3-8.3 8.3v50H350c-5 0-8.3 3.3-8.3 8.3 0 5 3.3 8.3 8.3 8.3zm25-58.3h16.7v41.7H375V250zm-91.7 41.7H275v-50c0-5-3.3-8.3-8.3-8.3h-33.3c-5 0-8.3 3.3-8.3 8.3v50h-8.3c-5 0-8.3 3.3-8.3 8.3 0 5 3.3 8.3 8.3 8.3h66.7c5 0 8.3-3.3 8.3-8.3-.1-5-3.5-8.3-8.5-8.3zm-41.6 0V250h16.7v41.7h-16.7z"/></svg>