<svg xmlns="http://www.w3.org/2000/svg" width="500" height="500" viewBox="0 0 500 500"><path d="M339 356.1c-39.7 0-71.9 32.3-71.9 71.9 0 39.7 32.3 71.9 71.9 71.9 39.7 0 71.9-32.3 71.9-71.9.1-39.6-32.2-71.9-71.9-71.9zm0 123.5c-28.4 0-51.6-23.1-51.6-51.6 0-28.4 23.1-51.6 51.6-51.6 28.4 0 51.6 23.1 51.6 51.6s-23.1 51.6-51.6 51.6zM219.7 185.8c2.6 0 5.2-1 7.2-3l60.7-60.7c13.1 13.4 31.3 21.7 51.4 21.7 39.7 0 71.9-32.3 71.9-71.9S378.7 0 339 0s-71.9 32.3-71.9 71.9c0 12.1 3 23.6 8.3 33.6l-62.9 62.9c-4 4-4 10.4 0 14.4 2 2 4.6 3 7.2 3zM339 20.4c28.4 0 51.6 23.1 51.6 51.6s-23.1 51.6-51.6 51.6c-28.4 0-51.6-23.1-51.6-51.6s23.2-51.6 51.6-51.6zm-71.2 344.1l-60-60c15.3-13.2 25.1-32.7 25.1-54.5 0-39.7-32.3-71.9-71.9-71.9-39.7 0-71.9 32.3-71.9 71.9 0 39.7 32.3 71.9 71.9 71.9 10.4 0 20.3-2.2 29.2-6.2l63.2 63.2c2 2 4.6 3 7.2 3 2.6 0 5.2-1 7.2-3 4-4 4-10.4 0-14.4zM109.4 250c0-28.4 23.1-51.6 51.6-51.6 28.4 0 51.6 23.1 51.6 51.6 0 28.4-23.1 51.6-51.6 51.6s-51.6-23.2-51.6-51.6zm0 0"/></svg>