<svg xmlns="http://www.w3.org/2000/svg" xmlns:xlink="http://www.w3.org/1999/xlink" width="500.2" height="126.2" viewBox="0 0 500.2 126.2"><path d="M142.5 12.5l5.7 29.2h.2l8.4-29.2h9.8l8.4 29.2h.2l5.7-29.2h9L180 51.9h-9.9l-8.4-29.2h-.2l-8.4 29.2h-9.8l-9.9-39.4h9.1zm83.3 22.9h-22.2c.5 3.4 1.4 5.9 2.9 7.4s3.6 2.3 6.5 2.3h13.4v6.7h-15.7c-5.3 0-9.4-1.7-12.2-5.1-2.8-3.4-4.2-8.3-4.2-14.6s1.4-11.3 4.2-14.6c2.8-3.4 6.8-5.1 12.2-5.1h15.7v6.7H213c-.9 0-1.9.1-2.9.3-1 .2-1.9.6-2.8 1.2-.9.6-1.6 1.6-2.3 2.9-.7 1.3-1.1 3.1-1.4 5.3h22.2v6.6zM269 19.2h-21.4c-1.4 0-2.5.4-3.5 1.2-1 .8-1.5 2-1.5 3.5 0 .9.1 1.6.4 2.2.3.6.6 1.1 1.1 1.4.5.4 1 .6 1.6.8.6.2 1.2.3 1.9.3h12.2c1 0 2.2.2 3.5.5 1.3.4 2.5 1 3.7 1.8 1.1.9 2.1 2.1 2.9 3.6.8 1.5 1.2 3.4 1.2 5.7 0 2.3-.4 4.2-1.2 5.7-.8 1.5-1.7 2.7-2.9 3.5-1.1.9-2.4 1.5-3.7 1.8-1.3.4-2.5.5-3.5.5h-25.6V45H256c.7 0 1.4-.1 2-.4.6-.3 1.2-.6 1.6-1 .5-.4.8-.9 1.1-1.5.3-.6.4-1.2.4-2 0-1.4-.5-2.6-1.5-3.5-1-.9-2.2-1.4-3.6-1.4h-12.2c-1.1 0-2.3-.2-3.6-.5-1.3-.3-2.5-.9-3.7-1.8-1.1-.9-2.1-2-2.9-3.5-.8-1.5-1.2-3.4-1.2-5.7 0-2.3.4-4.2 1.2-5.6.8-1.5 1.7-2.6 2.9-3.5 1.1-.9 2.4-1.5 3.7-1.8 1.3-.3 2.5-.5 3.6-.5H269v6.9zm40.9-6.7v6.7h-13.3v32.7h-8.3V19.2h-13.2v-6.7h34.8zm29.5 0h8.3V29h15.8V12.5h8.3v39.4h-8.3V35.4h-15.8v16.5h-8.3V12.5zM380 51.9V12.5h8.3v39.4H380zm24.8-.8c-1.6-.5-3.1-1.3-4.3-2.4-1.2-1.1-2.2-2.6-3-4.4-.7-1.8-1.1-4.1-1.1-6.7V12.5h8.3v24.6c0 1.2.2 2.3.6 3.2.4 1 .9 1.8 1.6 2.6.7.7 1.5 1.3 2.5 1.7 1 .4 2.1.6 3.4.6h10.8v6.7H410c-1.8 0-3.6-.2-5.2-.8zm33.4 0c-1.6-.5-3.1-1.3-4.3-2.4-1.2-1.1-2.2-2.6-3-4.4-.7-1.8-1.1-4.1-1.1-6.7V12.5h8.3v24.6c0 1.2.2 2.3.6 3.2.4 1 .9 1.8 1.6 2.6.7.7 1.5 1.3 2.5 1.7 1 .4 2.1.6 3.4.6H457v6.7h-13.7c-1.7 0-3.5-.2-5.1-.8zm60-31.9h-21.4c-1.4 0-2.5.4-3.5 1.2-1 .8-1.5 2-1.5 3.5 0 .9.1 1.6.4 2.2.3.6.6 1.1 1.1 1.4.5.4 1 .6 1.6.8.6.2 1.2.3 1.9.3H489c1 0 2.2.2 3.5.5 1.3.4 2.5 1 3.7 1.8 1.1.9 2.1 2.1 2.9 3.6.8 1.5 1.2 3.4 1.2 5.7 0 2.3-.4 4.2-1.2 5.7-.8 1.5-1.7 2.7-2.9 3.5-1.1.9-2.4 1.5-3.7 1.8-1.3.4-2.5.5-3.5.5h-25.6V45h21.8c.7 0 1.4-.1 2-.4.6-.3 1.2-.6 1.6-1 .5-.4.8-.9 1.1-1.5.3-.6.4-1.2.4-2 0-1.4-.5-2.6-1.5-3.5-1-.9-2.2-1.4-3.6-1.4H473c-1.1 0-2.3-.2-3.6-.5-1.3-.3-2.5-.9-3.7-1.8-1.1-.9-2.1-2-2.9-3.5-.8-1.5-1.2-3.4-1.2-5.7 0-2.3.4-4.2 1.2-5.6.8-1.5 1.7-2.6 2.9-3.5 1.1-.9 2.4-1.5 3.7-1.8 1.3-.3 2.5-.5 3.6-.5h25.2v6.9zM204.2 80H190c-3.4 0-5.9 1.1-7.3 3.3-1.5 2.2-2.2 5.4-2.2 9.7 0 4.2.7 7.4 2.2 9.7 1.5 2.2 3.9 3.3 7.3 3.3h14.2v6.7h-16.7c-5.3 0-9.4-1.7-12.2-5.1-2.8-3.4-4.2-8.3-4.2-14.6 0-6.4 1.4-11.3 4.2-14.6 2.8-3.4 6.8-5.1 12.2-5.1h16.7V80zm6.1 5c.6-2.5 1.6-4.6 3.1-6.4 1.5-1.8 3.5-3.3 6-4.3s5.7-1.6 9.6-1.6c3.9 0 7 .5 9.6 1.6 2.5 1 4.5 2.5 6 4.3 1.5 1.8 2.5 4 3.1 6.4.6 2.5.9 5.1.9 8 0 2.8-.3 5.4-.9 7.9-.6 2.5-1.6 4.6-3.1 6.4-1.5 1.8-3.5 3.3-6 4.3-2.5 1.1-5.7 1.6-9.6 1.6-3.9 0-7.1-.5-9.6-1.6s-4.5-2.5-6-4.3c-1.5-1.8-2.5-4-3.1-6.4-.6-2.5-.9-5.1-.9-7.9 0-2.8.3-5.5.9-8zm12.9-4.6c-1.5.8-2.6 1.8-3.3 3.1-.8 1.3-1.2 2.8-1.5 4.4-.2 1.7-.3 3.4-.3 5.1 0 1.8.1 3.5.3 5.1.2 1.7.7 3.1 1.5 4.4.8 1.3 1.9 2.3 3.3 3.1 1.5.8 3.4 1.2 5.9 1.2 2.5 0 4.4-.4 5.9-1.2 1.4-.8 2.5-1.8 3.3-3.1.8-1.3 1.2-2.8 1.5-4.4.2-1.7.3-3.4.3-5.1 0-1.8-.1-3.5-.3-5.1-.2-1.7-.7-3.1-1.5-4.4-.8-1.3-1.9-2.3-3.3-3.1-1.4-.8-3.4-1.2-5.9-1.2-2.5 0-4.4.4-5.9 1.2zm41.5 31.5c-1.6-.5-3.1-1.3-4.3-2.4-1.2-1.1-2.2-2.6-3-4.4-.7-1.8-1.1-4.1-1.1-6.7V73.3h8.3v24.6c0 1.2.2 2.3.6 3.2.4 1 .9 1.8 1.6 2.6.7.7 1.5 1.3 2.5 1.7 1 .4 2.1.6 3.4.6h10.8v6.7h-13.7c-1.7 0-3.4-.3-5.1-.8zm33.4 0c-1.6-.5-3.1-1.3-4.3-2.4-1.2-1.1-2.2-2.6-3-4.4-.7-1.8-1.1-4.1-1.1-6.7V73.3h8.3v24.6c0 1.2.2 2.3.6 3.2.4 1 .9 1.8 1.6 2.6.7.7 1.5 1.3 2.5 1.7 1 .4 2.1.6 3.4.6H317v6.7h-13.7c-1.8 0-3.5-.3-5.2-.8zM352 96.2h-22.2c.5 3.4 1.4 5.9 2.9 7.4s3.6 2.3 6.5 2.3h13.4v6.7h-15.7c-5.3 0-9.4-1.7-12.2-5.1-2.8-3.4-4.2-8.3-4.2-14.6 0-6.4 1.4-11.3 4.2-14.6 2.8-3.4 6.8-5.1 12.2-5.1h15.7V80h-13.4c-.9 0-1.9.1-2.9.3-1 .2-1.9.6-2.8 1.2-.9.6-1.6 1.6-2.3 2.9-.7 1.3-1.1 3.1-1.4 5.3H352v6.5zm11.9 11.4c-2.8-3.4-4.2-8.3-4.2-14.6 0-6.4 1.4-11.3 4.2-14.6 2.8-3.4 6.8-5.1 12.2-5.1h20.8V80h-18.4c-3.4 0-5.9 1.1-7.3 3.3-1.5 2.2-2.2 5.4-2.2 9.7 0 4.2.7 7.4 2.2 9.7 1.5 2.2 3.9 3.3 7.3 3.3h10.1v-9.7h-10.9v-6.5H397v23h-21c-5.3-.1-9.4-1.8-12.1-5.2zm71.4-11.4h-22.2c.5 3.4 1.4 5.9 2.9 7.4s3.6 2.3 6.5 2.3H436v6.7h-15.7c-5.3 0-9.4-1.7-12.2-5.1-2.8-3.4-4.2-8.3-4.2-14.6 0-6.4 1.4-11.3 4.2-14.6 2.8-3.4 6.8-5.1 12.2-5.1H436V80h-13.4c-.9 0-1.9.1-2.9.3-1 .2-1.9.6-2.8 1.2-.9.6-1.6 1.6-2.3 2.9-.7 1.3-1.1 3.1-1.4 5.3h22.2v6.5z" fill="#09347A"/><linearGradient id="a" gradientUnits="userSpaceOnUse" x1="-552.948" y1="306.333" x2="-552.948" y2="191.266" gradientTransform="rotate(180 -244.888 155.96)"><stop offset=".055" stop-color="#c5e7f9"/><stop offset=".264" stop-color="#94b4dd"/><stop offset=".497" stop-color="#214b8d"/></linearGradient><path fill="url(#a)" d="M5.6 17.1c0-6.4 5.1-11.5 11.5-11.5h92.1c6.4 0 11.5 5.1 11.5 11.5v92.1c0 6.3-5.1 11.5-11.5 11.5H17.1c-6.4 0-11.5-5.1-11.5-11.5V17.1z"/><linearGradient id="b" gradientUnits="userSpaceOnUse" x1="-552.948" y1="306.333" x2="-552.948" y2="191.266" gradientTransform="rotate(180 -244.888 155.96)"><stop offset=".172" stop-color="#0299bd" stop-opacity=".22"/><stop offset=".65" stop-color="#252159"/><stop offset=".711" stop-color="#2e3f66" stop-opacity=".848"/><stop offset=".91" stop-color="#4b9a8d" stop-opacity=".353"/><stop offset="1" stop-color="#56bf9d" stop-opacity=".13"/></linearGradient><path fill="url(#b)" d="M5.6 17.1c0-6.4 5.1-11.5 11.5-11.5h92.1c6.4 0 11.5 5.1 11.5 11.5v92.1c0 6.3-5.1 11.5-11.5 11.5H17.1c-6.4 0-11.5-5.1-11.5-11.5V17.1z"/><path fill="#F4DB19" d="M40.8 25.9c-7.8-.1-14.3 5.8-14.4 13.3-.1 7.5 6.1 13.6 13.9 13.8 7.8.1 14.2-5.8 14.4-13.3.2-7.5-6-13.6-13.9-13.8z"/><radialGradient id="c" cx="41.028" cy="38.892" r="13.893" gradientTransform="translate(-.264 .696) scale(.9962)" gradientUnits="userSpaceOnUse"><stop offset="0" stop-color="#f3df32" stop-opacity=".22"/><stop offset="1" stop-color="#ffef00"/></radialGradient><path opacity=".71" fill="url(#c)" d="M40.8 25.9c-7.8-.1-14.3 5.8-14.4 13.3-.1 7.5 6.1 13.6 13.9 13.8 7.8.1 14.2-5.8 14.4-13.3.2-7.5-6-13.6-13.9-13.8z"/><linearGradient id="d" gradientUnits="userSpaceOnUse" x1="41.028" y1="25.31" x2="41.028" y2="52.475" gradientTransform="translate(-.264 .696) scale(.9962)"><stop offset="0" stop-color="#fff" stop-opacity=".77"/><stop offset=".45" stop-color="#fff" stop-opacity="0"/><stop offset=".472" stop-color="#fcf0dc" stop-opacity=".006"/><stop offset=".499" stop-color="#f9e1b8" stop-opacity=".014"/><stop offset=".53" stop-color="#f6d398" stop-opacity=".023"/><stop offset=".565" stop-color="#f3c77c" stop-opacity=".033"/><stop offset=".603" stop-color="#f1be66" stop-opacity=".045"/><stop offset=".648" stop-color="#f0b755" stop-opacity=".058"/><stop offset=".704" stop-color="#efb24a" stop-opacity=".074"/><stop offset=".783" stop-color="#eeaf43" stop-opacity=".097"/><stop offset="1" stop-color="#eeae41" stop-opacity=".16"/></linearGradient><path fill="url(#d)" d="M40.8 25.9c-7.8-.1-14.3 5.8-14.4 13.3-.1 7.5 6.1 13.6 13.9 13.8 7.8.1 14.2-5.8 14.4-13.3.2-7.5-6-13.6-13.9-13.8z"/><linearGradient id="e" gradientUnits="userSpaceOnUse" x1="41.028" y1="25.31" x2="41.028" y2="52.475" gradientTransform="translate(-.264 .696) scale(.9962)"><stop offset="0" stop-color="#fff" stop-opacity=".77"/><stop offset=".45" stop-color="#fff" stop-opacity="0"/><stop offset=".472" stop-color="#fcf0dc" stop-opacity=".006"/><stop offset=".499" stop-color="#f9e1b8" stop-opacity=".014"/><stop offset=".53" stop-color="#f6d398" stop-opacity=".023"/><stop offset=".565" stop-color="#f3c77c" stop-opacity=".033"/><stop offset=".603" stop-color="#f1be66" stop-opacity=".045"/><stop offset=".648" stop-color="#f0b755" stop-opacity=".058"/><stop offset=".704" stop-color="#efb24a" stop-opacity=".074"/><stop offset=".783" stop-color="#eeaf43" stop-opacity=".097"/><stop offset="1" stop-color="#eeae41" stop-opacity=".16"/></linearGradient><path fill="url(#e)" d="M40.8 25.9c-7.8-.1-14.3 5.8-14.4 13.3-.1 7.5 6.1 13.6 13.9 13.8 7.8.1 14.2-5.8 14.4-13.3.2-7.5-6-13.6-13.9-13.8z"/><defs><path id="f" d="M5.6 24.1h115V81H5.6z"/></defs><clipPath id="g"><use xlink:href="#f" overflow="visible"/></clipPath><g clip-path="url(#g)"><linearGradient id="h" gradientUnits="userSpaceOnUse" x1="92.374" y1="81.007" x2="92.374" y2="36.608"><stop offset=".393" stop-color="#af2429"/><stop offset=".477" stop-color="#b42c28"/><stop offset=".608" stop-color="#c14226"/><stop offset=".769" stop-color="#d66623"/><stop offset=".952" stop-color="#f3971f"/><stop offset=".976" stop-color="#f79e1e"/></linearGradient><path fill="url(#h)" d="M64.1 54.8c5.9-5.5 11.8-12.6 18.5-17.3 4.2-3.1 9.9 3 16.5 4.3 2.9.6 4.6 5.1 7 7.6 1.6.8 6.1 1.4 7.7 2.3 2 1 4.9 4.7 6.8 5.9.1 11.7 0 23.4 0 23.4s-17.5-12.8-38.3-12.6c-2.6-1.7-19-12.8-18.2-13.6z"/><linearGradient id="i" gradientUnits="userSpaceOnUse" x1="92.374" y1="81.007" x2="92.374" y2="36.608"><stop offset="0" stop-color="#dc8027"/><stop offset="1" stop-color="#f8d961"/></linearGradient><path opacity=".3" fill="url(#i)" d="M64.1 54.8c5.9-5.5 11.8-12.6 18.5-17.3 4.2-3.1 9.9 3 16.5 4.3 2.9.6 4.6 5.1 7 7.6 1.6.8 6.1 1.4 7.7 2.3 2 1 4.9 4.7 6.8 5.9.1 11.7 0 23.4 0 23.4s-17.5-12.8-38.3-12.6c-2.6-1.7-19-12.8-18.2-13.6z"/></g><g clip-path="url(#g)"><linearGradient id="j" gradientUnits="userSpaceOnUse" x1="63.92" y1="68.524" x2="63.92" y2="47.175"><stop offset=".393" stop-color="#af2429"/><stop offset=".477" stop-color="#b42c28"/><stop offset=".608" stop-color="#c14226"/><stop offset=".769" stop-color="#d66623"/><stop offset=".952" stop-color="#f3971f"/><stop offset=".976" stop-color="#f79e1e"/></linearGradient><path fill="url(#j)" d="M39.5 52.6c5.9-6.3 8-6.7 20.7-3.3 6.1 3.7 19.1 12.5 28.1 19.1-10.4-.2-19.5.2-27.3.1-6.4-5.4-13.4-10.4-21.5-15.9z"/><linearGradient id="k" gradientUnits="userSpaceOnUse" x1="63.92" y1="68.524" x2="63.92" y2="47.175"><stop offset="0" stop-color="#dc8027"/><stop offset="1" stop-color="#f8d961"/></linearGradient><path opacity=".3" fill="url(#k)" d="M39.5 52.6c5.9-6.3 8-6.7 20.7-3.3 6.1 3.7 19.1 12.5 28.1 19.1-10.4-.2-19.5.2-27.3.1-6.4-5.4-13.4-10.4-21.5-15.9z"/></g><g clip-path="url(#g)"><linearGradient id="l" gradientUnits="userSpaceOnUse" x1="33.788" y1="74.304" x2="33.788" y2="44.2"><stop offset=".393" stop-color="#af2429"/><stop offset=".477" stop-color="#b42c28"/><stop offset=".608" stop-color="#c14226"/><stop offset=".769" stop-color="#d66623"/><stop offset=".952" stop-color="#f3971f"/><stop offset=".976" stop-color="#f79e1e"/></linearGradient><path fill="url(#l)" d="M5.9 56.6c0-7.3 12.1-9.2 18.7-12 4.6-1.9 4.9 3.3 4.9 3.3s-.3-.2 2.8-.2c3 1.1 29.5 21.1 29.5 21.1L5.7 74.3s.1-5.5.2-17.7z"/><linearGradient id="m" gradientUnits="userSpaceOnUse" x1="33.788" y1="74.304" x2="33.788" y2="44.2"><stop offset="0" stop-color="#dc8027"/><stop offset="1" stop-color="#f8d961"/></linearGradient><path opacity=".3" fill="url(#m)" d="M5.9 56.6c0-7.3 12.1-9.2 18.7-12 4.6-1.9 4.9 3.3 4.9 3.3s-.3-.2 2.8-.2c3 1.1 29.5 21.1 29.5 21.1L5.7 74.3s.1-5.5.2-17.7z"/></g><linearGradient id="n" gradientUnits="userSpaceOnUse" x1="-552.948" y1="251.952" x2="-552.948" y2="191.266" gradientTransform="rotate(180 -244.888 155.96)"><stop offset="0" stop-color="#36b24a"/><stop offset=".138" stop-color="#5cbb45"/><stop offset=".279" stop-color="#7cc341"/><stop offset=".397" stop-color="#8fc73f"/><stop offset=".478" stop-color="#96c93e"/><stop offset=".552" stop-color="#92c43d"/><stop offset=".635" stop-color="#87b739"/><stop offset=".722" stop-color="#75a034"/><stop offset=".814" stop-color="#5b802c"/><stop offset=".907" stop-color="#3a5721"/><stop offset="1" stop-color="#132715"/></linearGradient><path fill="url(#n)" d="M5.6 72.7v36.5c0 6.3 5.1 11.5 11.5 11.5h92.1c6.4 0 11.5-5.1 11.5-11.5V72.7S99.6 60 63.2 60C26.7 60 5.6 72.7 5.6 72.7z"/><linearGradient id="o" gradientUnits="userSpaceOnUse" x1="-552.948" y1="251.952" x2="-552.948" y2="191.266" gradientTransform="rotate(180 -244.888 155.96)"><stop offset="0" stop-color="#c2d72f" stop-opacity=".13"/><stop offset=".113" stop-color="#b5d030" stop-opacity=".209"/><stop offset=".321" stop-color="#93be34" stop-opacity=".355"/><stop offset=".603" stop-color="#5ba039" stop-opacity=".552"/><stop offset=".943" stop-color="#0f7741" stop-opacity=".79"/><stop offset="1" stop-color="#027042" stop-opacity=".83"/></linearGradient><path opacity=".9" fill="url(#o)" d="M5.6 72.7v36.5c0 6.3 5.1 11.5 11.5 11.5h92.1c6.4 0 11.5-5.1 11.5-11.5V72.7S99.6 60 63.2 60C26.7 60 5.6 72.7 5.6 72.7z"/><linearGradient id="p" gradientUnits="userSpaceOnUse" x1="-552.948" y1="191.266" x2="-552.948" y2="251.952" gradientTransform="rotate(180 -244.888 155.96)"><stop offset="0" stop-color="#0c1c16" stop-opacity=".16"/><stop offset=".054" stop-color="#293832" stop-opacity=".142"/><stop offset=".272" stop-color="#9ba29f" stop-opacity=".071"/><stop offset=".422" stop-color="#e3e5e4" stop-opacity=".023"/><stop offset=".491" stop-color="#fff" stop-opacity="0"/><stop offset="1" stop-color="#fbed1d" stop-opacity=".77"/></linearGradient><path fill="url(#p)" d="M5.6 72.7v36.5c0 6.3 5.1 11.5 11.5 11.5h92.1c6.4 0 11.5-5.1 11.5-11.5V72.7S99.6 60 63.2 60C26.7 60 5.6 72.7 5.6 72.7z"/><linearGradient id="q" gradientUnits="userSpaceOnUse" x1="76.442" y1="120.411" x2="76.442" y2="60.885" gradientTransform="translate(-.264 .696) scale(.9962)"><stop offset="0" stop-color="#4463aa"/><stop offset=".521" stop-color="#4868ae"/><stop offset=".983" stop-color="#52c7e8"/></linearGradient><path fill="url(#q)" d="M120.6 110.9C94 107.4 59.3 90.1 48.9 82.5c-2.5-2.4-5.9-4.3-.9-6.9 4.3-2.2 8.9-1.4 12.2-4.1 4-3.3-1.1-5.3-3.2-6.1-2.4-1-15.6-3.9-15-4-1.5.5-10.5 1.8-10.5 1.8 6.6 1.9 11.2 3.1 16.1 4.4 1.7.5 3.2 1.8.5 2.5-6.1 1.4-14.9 1.9-16.8 6.7-1 2.5 1.9 5 6.9 8.9 14.9 11.6 63.2 35.1 69.8 35.1 11.3-.1 12.6-9.9 12.6-9.9z"/><linearGradient id="r" gradientUnits="userSpaceOnUse" x1="76.442" y1="120.411" x2="76.442" y2="60.885" gradientTransform="translate(-.264 .696) scale(.9962)"><stop offset="0" stop-color="#1b75ba" stop-opacity=".67"/><stop offset=".084" stop-color="#1089ad" stop-opacity=".731"/><stop offset=".183" stop-color="#0799a3" stop-opacity=".803"/><stop offset=".296" stop-color="#02a29d" stop-opacity=".885"/><stop offset=".454" stop-color="#00a59b"/><stop offset=".612" stop-color="#059ca1" stop-opacity=".823"/><stop offset=".87" stop-color="#1384b0" stop-opacity=".535"/><stop offset="1" stop-color="#1b75ba" stop-opacity=".39"/></linearGradient><path fill="url(#r)" d="M120.6 110.9C94 107.4 59.3 90.1 48.9 82.5c-2.5-2.4-5.9-4.3-.9-6.9 4.3-2.2 8.9-1.4 12.2-4.1 4-3.3-1.1-5.3-3.2-6.1-2.4-1-15.6-3.9-15-4-1.5.5-10.5 1.8-10.5 1.8 6.6 1.9 11.2 3.1 16.1 4.4 1.7.5 3.2 1.8.5 2.5-6.1 1.4-14.9 1.9-16.8 6.7-1 2.5 1.9 5 6.9 8.9 14.9 11.6 63.2 35.1 69.8 35.1 11.3-.1 12.6-9.9 12.6-9.9z"/><linearGradient id="s" gradientUnits="userSpaceOnUse" x1="76.442" y1="60.885" x2="76.442" y2="120.411" gradientTransform="translate(-.264 .696) scale(.9962)"><stop offset="0" stop-color="#28499b" stop-opacity=".16"/><stop offset=".041" stop-color="#3a58a3" stop-opacity=".141"/><stop offset=".123" stop-color="#687fb9" stop-opacity=".104"/><stop offset=".237" stop-color="#b1bddb" stop-opacity=".051"/><stop offset=".35" stop-color="#fff" stop-opacity="0"/><stop offset="1" stop-color="#fff" stop-opacity=".77"/></linearGradient><path opacity=".7" fill="url(#s)" d="M120.6 110.9C94 107.4 59.3 90.1 48.9 82.5c-2.5-2.4-5.9-4.3-.9-6.9 4.3-2.2 8.9-1.4 12.2-4.1 4-3.3-1.1-5.3-3.2-6.1-2.4-1-15.6-3.9-15-4-1.5.5-10.5 1.8-10.5 1.8 6.6 1.9 11.2 3.1 16.1 4.4 1.7.5 3.2 1.8.5 2.5-6.1 1.4-14.9 1.9-16.8 6.7-1 2.5 1.9 5 6.9 8.9 14.9 11.6 63.2 35.1 69.8 35.1 11.3-.1 12.6-9.9 12.6-9.9z"/><path fill="#FFF" d="M108 120.1c-5.5-.2-11.5-3.7-16.4-5.9-9-4-17.8-8.3-26.4-12.9C57.1 97 49 92.6 41.5 87.4c-2.9-2-10-5.9-9.9-9.8.1-5.2 11-5.9 14.6-6.6 11-2.2-6.2-6-8.8-6.7-1.7-.5-3.9-.4-1.5-1.2 1.2-.4 2.8-.5 4.1-.7 2.1-.3 3.2 0 5.3.6 3.9 1 11.6 1.4 14.7 4.6 5 5.2-14.9 5.8-15.1 10.7-.1 3.1 5.2 6 7.6 7.4 4 2.5 8.2 4.8 12.4 6.9 12.6 6.4 25.8 11.8 39.5 15.5 3.3.9 6.7 1.7 10.1 2.4.9.2 5.2.4 5.5.9.2.3-.5 1.4-.6 1.7-1.4 4.9-6.8 6.8-11.4 7v.3c5.8-.2 10.7-3.1 12.1-9.1v-.3c-14.4-2.1-28.3-6.9-41.6-12.6-9.9-4.2-20.7-8.8-29.3-15.4-13.8-10.6 13.5-6.9 12.1-14.2-.6-3.3-8-4.3-10.4-4.9-2.7-.7-5.8-2-8.6-2.2-2.8-.2-6.1.9-8.9 1.4v.3c3.1.9 6.1 1.7 9.2 2.5 1.6.4 9.3 1.6 6.3 4-1.8 1.4-6.1 1.3-8.3 1.8-2.6.6-5.8 1.2-7.7 3.2-4.4 4.4 3.6 9.1 6.7 11.3 14.8 11 32.4 19.3 49.1 26.9 5.7 2.6 12.9 7 19.3 7.2 0 .1.1-.2 0-.2z" opacity=".49"/><path fill="#09347A" d="M109.1 0H17.2C7.7 0 0 7.7 0 17.2v91.9c0 9.5 7.7 17.2 17.2 17.2h91.9c9.5 0 17.2-7.7 17.2-17.2V17.2C126.2 7.7 118.5 0 109.1 0zm11.2 17.2v91.9c0 6.2-5 11.2-11.2 11.2H17.2c-6.2 0-11.2-5-11.2-11.2V17.2C6 11 11 6 17.2 6h91.9c6.2-.1 11.2 5 11.2 11.2z"/></svg>